# Blender v2.93.4 OBJ File: ''
# www.blender.org
mtllib disdyakistriacontahedron.mtl
o Shape_IndexedFaceSet_Shape_IndexedFaceSet.001
v -0.131496 0.133831 -0.991317
v 0.238345 0.127322 -0.991317
v -0.131496 -0.447214 -0.991317
v -0.488547 0.127322 -0.894896
v -0.111405 0.694427 -0.839857
v 0.388257 -0.200746 -0.909323
v -0.611898 -0.200746 -0.776655
v 0.399133 0.417288 -0.827330
v 0.500404 -0.509288 -0.738884
v 0.848689 0.076393 -0.688397
v -0.601022 0.417288 -0.694661
v -0.675732 -0.509288 -0.582872
v -0.998811 0.076393 -0.443330
v 0.521099 0.666667 -0.582872
v 0.229080 -0.742102 -0.643986
v -0.655038 0.666667 -0.426860
v -0.389050 -0.742102 -0.561993
v 0.257554 0.875932 -0.429324
v 0.759709 -0.458644 -0.479999
v -0.064527 -0.902735 -0.486451
v 0.554655 -0.923607 -0.198263
v -0.360576 0.875932 -0.347331
v -0.858576 -0.458644 -0.265337
v -0.587163 -0.923607 -0.046804
v 0.777307 0.541356 -0.347331
v -0.031042 1.000000 -0.234018
v 0.587163 0.923607 0.046804
v 0.945120 -0.363390 -0.174427
v -0.840978 0.541356 -0.132668
v -0.554655 0.923607 0.198263
v -0.957910 -0.363390 0.078006
v 0.957910 0.363390 -0.078006
v 1.000150 -0.000000 -0.132668
v -0.017598 -1.000000 -0.132668
v -0.945120 0.363390 0.174427
v -1.000150 0.000000 0.132668
v 0.017598 1.000000 0.132668
v 0.840978 -0.541356 0.132668
v 0.998811 -0.076393 0.443330
v 0.031042 -1.000000 0.234018
v -0.777307 -0.541356 0.347331
v -0.848689 -0.076393 0.688397
v 0.858576 0.458644 0.265337
v 0.064527 0.902735 0.486451
v 0.655038 -0.666667 0.426860
v 0.360576 -0.875932 0.347331
v -0.759709 0.458644 0.479999
v -0.521099 -0.666667 0.582872
v -0.257554 -0.875932 0.429324
v 0.675732 0.509288 0.582872
v 0.389050 0.742102 0.561993
v 0.111405 -0.694427 0.839857
v -0.500404 0.509288 0.738884
v -0.229080 0.742102 0.643986
v 0.131496 0.447214 0.991317
v 0.601022 -0.417288 0.694661
v -0.399133 -0.417288 0.827330
v 0.611898 0.200746 0.776655
v 0.488547 -0.127322 0.894896
v -0.388257 0.200746 0.909323
v -0.238345 -0.127322 0.991317
v 0.131496 -0.133831 0.991317
vt 0.565738 0.276393
vt 0.565738 0.566916
vt 0.380845 0.563661
vt 0.744237 0.563661
vt 0.555694 0.847214
vt 0.305901 0.399627
vt 0.805903 0.399627
vt 0.300463 0.708644
vt 0.249836 0.245356
vt 0.075719 0.538197
vt 0.800466 0.708644
vt 0.837815 0.245356
vt 0.999331 0.538197
vt 0.239490 0.833333
vt 0.385477 0.128949
vt 0.827470 0.833333
vt 0.694496 0.128949
vt 0.371242 0.937966
vt 0.120202 0.270678
vt 0.532259 0.048632
vt 0.222714 0.038197
vt 0.680261 0.937966
vt 0.929224 0.270678
vt 0.793537 0.038197
vt 0.111405 0.770678
vt 0.515519 1.000000
vt 0.206463 0.961803
vt 0.027511 0.318305
vt 0.920426 0.770678
vt 0.777286 0.961803
vt 0.978883 0.318305
vt 0.021117 0.681695
vt 0.000000 0.500000
vt 0.508798 0.000000
vt 0.972489 0.681695
vt 1.000000 0.500000
vt 0.491202 1.000000
vt 0.079574 0.229322
vt 0.000669 0.461803
vt 0.484481 0.000000
vt 0.888595 0.229322
vt 0.924281 0.461803
vt 0.070776 0.729322
vt 0.467741 0.951367
vt 0.172530 0.166666
vt 0.319739 0.062034
vt 0.879798 0.729322
vt 0.760510 0.166666
vt 0.628758 0.062034
vt 0.162185 0.754644
vt 0.305504 0.871051
vt 0.444306 0.152786
vt 0.750164 0.754644
vt 0.614523 0.871051
vt 0.434262 0.723607
vt 0.199534 0.291356
vt 0.699537 0.291356
vt 0.194097 0.600373
vt 0.255763 0.436339
vt 0.694099 0.600373
vt 0.619155 0.436339
vt 0.434262 0.433084
vn 0.0000 -0.0000 -1.0000
vn -0.2607 -0.0000 -0.9654
vn 0.0046 0.2607 -0.9654
vn 0.2192 -0.1411 -0.9654
vn -0.2561 0.2607 -0.9308
vn -0.4633 -0.1411 -0.8749
vn 0.2284 0.3802 -0.8963
vn 0.3132 -0.3694 -0.8749
vn 0.4430 -0.0216 -0.8963
vn -0.4542 0.3802 -0.8057
vn -0.5305 -0.3694 -0.7630
vn -0.6614 -0.0216 -0.7498
vn 0.3298 0.5737 -0.7498
vn 0.4476 0.2391 -0.8617
vn 0.5370 -0.2499 -0.8057
vn 0.2461 -0.5978 -0.7630
vn -0.5139 0.5737 -0.6378
vn -0.6568 0.2391 -0.7152
vn -0.7285 -0.2499 -0.6378
vn -0.4365 -0.5978 -0.6724
vn 0.5490 0.4325 -0.7152
vn 0.2701 0.7671 -0.5819
vn 0.6937 -0.3587 -0.6246
vn 0.0435 -0.7389 -0.6724
vn 0.4027 -0.7065 -0.5819
vn -0.7165 0.4325 -0.5473
vn -0.4125 0.7671 -0.4914
vn -0.8325 -0.3587 -0.4222
vn -0.2173 -0.7389 -0.6378
vn -0.5405 -0.7065 -0.4568
vn 0.7085 0.4849 -0.5127
vn 0.0721 0.8867 -0.4568
vn 0.4296 0.8194 -0.3794
vn 0.8532 -0.3063 -0.4222
vn 0.6265 -0.5870 -0.5127
vn 0.2001 -0.8477 -0.4914
vn -0.8177 0.4849 -0.3103
vn -0.1887 0.8867 -0.4222
vn -0.5137 0.8194 -0.2543
vn -0.9337 -0.3063 -0.1852
vn -0.7385 -0.5870 -0.3317
vn -0.3213 -0.8477 -0.4222
vn 0.8652 0.3761 -0.3317
vn 0.6488 0.6783 -0.3449
vn 0.2316 0.9390 -0.2543
vn 0.7860 -0.5347 -0.3103
vn 0.9546 -0.1129 -0.2757
vn 0.0961 -0.9564 -0.2757
vn -0.9217 0.3761 -0.0946
vn -0.7163 0.6783 -0.1638
vn -0.2899 0.9390 -0.1852
vn -0.8398 -0.5347 -0.0946
vn -0.9935 -0.1129 -0.0173
vn -0.1646 -0.9564 -0.2411
vn 0.8055 0.5695 -0.1638
vn 0.9592 0.1478 -0.2411
vn 0.1304 0.9913 -0.0173
vn 0.8203 -0.5695 -0.0519
vn 0.9889 -0.1478 -0.0173
vn 0.1304 -0.9913 -0.0173
vn -0.8203 0.5695 0.0519
vn -0.9889 0.1478 0.0173
vn -0.1304 0.9913 0.0173
vn -0.8055 -0.5695 0.1638
vn -0.9592 -0.1478 0.2411
vn -0.1304 -0.9913 0.0173
vn 0.8398 0.5347 0.0946
vn 0.9935 0.1129 0.0173
vn 0.1646 0.9564 0.2411
vn 0.7163 -0.6783 0.1638
vn 0.9217 -0.3761 0.0946
vn 0.2899 -0.9390 0.1852
vn -0.7860 0.5347 0.3103
vn -0.9546 0.1129 0.2757
vn -0.0961 0.9564 0.2757
vn -0.6488 -0.6783 0.3449
vn -0.8652 -0.3761 0.3317
vn -0.2316 -0.9390 0.2543
vn 0.7385 0.5870 0.3317
vn 0.9337 0.3063 0.1852
vn 0.3213 0.8477 0.4222
vn 0.8177 -0.4849 0.3103
vn 0.5137 -0.8194 0.2543
vn 0.1887 -0.8867 0.4222
vn -0.6265 0.5870 0.5127
vn -0.8532 0.3063 0.4222
vn -0.2001 0.8477 0.4914
vn -0.7085 -0.4849 0.5127
vn -0.4296 -0.8194 0.3794
vn -0.0721 -0.8867 0.4568
vn 0.8325 0.3587 0.4222
vn 0.5405 0.7065 0.4568
vn 0.2173 0.7389 0.6378
vn 0.7165 -0.4325 0.5473
vn 0.4125 -0.7671 0.4914
vn -0.6937 0.3587 0.6246
vn -0.4027 0.7065 0.5819
vn -0.0435 0.7389 0.6724
vn -0.5490 -0.4325 0.7152
vn -0.2701 -0.7671 0.5819
vn 0.7285 0.2499 0.6378
vn 0.4365 0.5978 0.6724
vn 0.6568 -0.2391 0.7152
vn 0.5139 -0.5737 0.6378
vn -0.5370 0.2499 0.8057
vn -0.2461 0.5978 0.7630
vn -0.4476 -0.2391 0.8617
vn -0.3298 -0.5737 0.7498
vn 0.6614 0.0216 0.7498
vn 0.5305 0.3694 0.7630
vn 0.4542 -0.3802 0.8057
vn -0.4430 0.0216 0.8963
vn -0.3132 0.3694 0.8749
vn -0.2284 -0.3802 0.8963
vn 0.4633 0.1411 0.8749
vn 0.2561 -0.2607 0.9308
vn -0.2192 0.1411 0.9654
vn -0.0046 -0.2607 0.9654
vn 0.2607 0.0000 0.9654
vn 0.0000 0.0000 1.0000
usemtl None
s off
f 3/1/1 1/2/1 2/3/1
f 3/1/2 4/4/2 1/2/2
f 1/2/3 5/5/3 2/3/3
f 2/3/4 6/6/4 3/1/4
f 1/2/5 4/4/5 5/5/5
f 4/4/6 3/1/6 7/7/6
f 2/3/7 5/5/7 8/8/7
f 3/1/8 6/6/8 9/9/8
f 6/6/9 2/3/9 10/10/9
f 4/4/10 11/11/10 5/5/10
f 3/1/11 12/12/11 7/7/11
f 7/7/12 13/13/12 4/4/12
f 5/5/13 14/14/13 8/8/13
f 8/8/14 10/10/14 2/3/14
f 6/6/15 10/10/15 9/9/15
f 9/9/16 15/15/16 3/1/16
f 5/5/17 11/11/17 16/16/17
f 11/11/18 4/4/18 13/13/18
f 7/7/19 12/12/19 13/13/19
f 12/12/20 3/1/20 17/17/20
f 8/8/21 14/14/21 10/10/21
f 14/14/22 5/5/22 18/18/22
f 9/9/23 10/10/23 19/19/23
f 3/1/24 15/15/24 20/20/24
f 15/15/25 9/9/25 21/21/25
f 11/11/26 13/13/26 16/16/26
f 16/16/27 22/22/27 5/5/27
f 12/12/28 23/23/28 13/13/28
f 3/1/29 20/20/29 17/17/29
f 17/17/30 24/24/30 12/12/30
f 14/14/31 25/25/31 10/10/31
f 5/5/32 26/26/32 18/18/32
f 18/18/33 27/27/33 14/14/33
f 10/10/34 28/28/34 19/19/34
f 19/19/35 21/21/35 9/9/35
f 15/15/36 21/21/36 20/20/36
f 16/16/37 13/13/37 29/29/37
f 5/5/38 22/22/38 26/26/38
f 22/22/39 16/16/39 30/30/39
f 13/13/40 23/23/40 31/31/40
f 23/23/41 12/12/41 24/24/41
f 17/17/42 20/20/42 24/24/42
f 10/10/43 25/25/43 32/32/43
f 25/25/44 14/14/44 27/27/44
f 18/18/45 26/26/45 27/27/45
f 19/19/46 28/28/46 21/21/46
f 28/28/47 10/10/47 33/33/47
f 20/20/48 21/21/48 34/34/48
f 13/13/49 35/35/49 29/29/49
f 29/29/50 30/30/50 16/16/50
f 22/22/51 30/30/51 26/26/51
f 23/23/52 24/24/52 31/31/52
f 31/31/53 36/36/53 13/13/53
f 20/20/54 34/34/54 24/24/54
f 25/25/55 27/27/55 32/32/55
f 32/32/56 33/33/56 10/10/56
f 26/26/57 37/37/57 27/27/57
f 28/28/58 38/38/58 21/21/58
f 33/33/59 39/39/59 28/28/59
f 21/21/60 40/40/60 34/34/60
f 29/29/61 35/35/61 30/30/61
f 35/35/62 13/13/62 36/36/62
f 26/26/63 30/30/63 37/37/63
f 31/31/64 24/24/64 41/41/64
f 36/36/65 31/31/65 42/42/65
f 24/24/66 34/34/66 40/40/66
f 32/32/67 27/27/67 43/43/67
f 33/33/68 32/32/68 39/39/68
f 27/27/69 37/37/69 44/44/69
f 21/21/70 38/38/70 45/45/70
f 38/38/71 28/28/71 39/39/71
f 40/40/72 21/21/72 46/46/72
f 35/35/73 47/47/73 30/30/73
f 36/36/74 42/42/74 35/35/74
f 30/30/75 44/44/75 37/37/75
f 24/24/76 48/48/76 41/41/76
f 41/41/77 42/42/77 31/31/77
f 40/40/78 49/49/78 24/24/78
f 27/27/79 50/50/79 43/43/79
f 43/43/80 39/39/80 32/32/80
f 44/44/81 51/51/81 27/27/81
f 38/38/82 39/39/82 45/45/82
f 45/45/83 46/46/83 21/21/83
f 46/46/84 52/52/84 40/40/84
f 30/30/85 47/47/85 53/53/85
f 47/47/86 35/35/86 42/42/86
f 44/44/87 30/30/87 54/54/87
f 41/41/88 48/48/88 42/42/88
f 48/48/89 24/24/89 49/49/89
f 49/49/90 40/40/90 52/52/90
f 43/43/91 50/50/91 39/39/91
f 50/50/92 27/27/92 51/51/92
f 51/51/93 44/44/93 55/55/93
f 45/45/94 39/39/94 56/56/94
f 46/46/95 45/45/95 52/52/95
f 47/47/96 42/42/96 53/53/96
f 53/53/97 54/54/97 30/30/97
f 54/54/98 55/55/98 44/44/98
f 48/48/99 57/57/99 42/42/99
f 49/49/100 52/52/100 48/48/100
f 50/50/101 58/58/101 39/39/101
f 51/51/102 55/55/102 50/50/102
f 39/39/103 59/59/103 56/56/103
f 56/56/104 52/52/104 45/45/104
f 53/53/105 42/42/105 60/60/105
f 54/54/106 53/53/106 55/55/106
f 42/42/107 57/57/107 61/61/107
f 57/57/108 48/48/108 52/52/108
f 39/39/109 58/58/109 59/59/109
f 58/58/110 50/50/110 55/55/110
f 56/56/111 59/59/111 52/52/111
f 42/42/112 61/61/112 60/60/112
f 60/60/113 55/55/113 53/53/113
f 57/57/114 52/52/114 61/61/114
f 58/58/115 55/55/115 59/59/115
f 59/59/116 62/62/116 52/52/116
f 60/60/117 61/61/117 55/55/117
f 61/61/118 52/52/118 62/62/118
f 59/59/119 55/55/119 62/62/119
f 61/61/120 62/62/120 55/55/120
