# Blender v2.93.4 OBJ File: ''
# www.blender.org
mtllib pentagonal_hexecontahedron.mtl
o Shape_IndexedFaceSet_Shape_IndexedFaceSet.002
v -0.231928 0.138981 -0.972733
v 0.013185 0.270060 -0.972733
v 0.244364 0.115727 -0.972733
v 0.217287 -0.160912 -0.972733
v -0.231928 -0.347411 -0.972733
v -0.632817 -0.160912 -0.770043
v -0.656980 0.115727 -0.757826
v -0.450672 0.270060 -0.862136
v -0.411867 0.524768 -0.757826
v 0.034945 0.715761 -0.779204
v 0.461027 0.482152 -0.757826
v 0.474836 0.224875 -0.862136
v 0.807821 -0.079067 -0.679609
v 0.422222 -0.312677 -0.862136
v 0.358790 -0.562393 -0.757826
v 0.094029 -0.646149 -0.770043
v -0.431364 -0.646149 -0.644773
v -0.662128 -0.562393 -0.514408
v -0.765802 -0.312677 -0.578875
v -0.915390 -0.179174 -0.386358
v -0.929564 0.306720 -0.403148
v -0.581576 0.610663 -0.555136
v -0.486295 0.800823 -0.376185
v -0.226722 0.894278 -0.410098
v 0.312756 0.867939 -0.410098
v 0.561992 0.749643 -0.376185
v 0.638296 0.551106 -0.555136
v 0.819297 0.358864 -0.468278
v 0.734166 -0.510913 -0.468278
v 0.519325 -0.664411 -0.555136
v 0.320976 -0.979339 -0.241999
v 0.004855 -0.827161 -0.578875
v -0.265527 -0.827161 -0.514408
v -0.339882 -0.914127 -0.261089
v -0.752786 -0.740909 -0.071137
v -0.952802 -0.302978 -0.140319
v -0.996186 -0.142065 0.082139
v -0.999692 0.133502 0.045911
v -0.793384 0.621648 -0.058399
v -0.595298 0.806476 -0.120551
v -0.320976 0.979339 0.241999
v -0.090907 0.988073 -0.186449
v 0.186724 0.974519 -0.186449
v 0.317092 0.956743 0.058399
v 0.752786 0.740909 0.071137
v 0.913704 0.376088 -0.207408
v 0.996186 0.142065 -0.082139
v 0.979572 -0.095878 -0.224861
v 0.949734 -0.332526 -0.082139
v 0.823442 -0.546115 -0.207408
v 0.692801 -0.732814 -0.048226
v -0.139628 -0.996149 -0.086638
v -0.186724 -0.974519 0.186449
v -0.431396 -0.872095 0.269560
v -0.810201 -0.494384 0.344200
v -0.922800 -0.240569 0.331486
v -0.807821 0.079067 0.679609
v -0.929613 0.294901 0.261089
v -0.823442 0.546115 0.207408
v -0.653704 0.659703 0.395953
v 0.162418 0.953533 0.289328
v 0.265527 0.827161 0.514408
v 0.517447 0.711183 0.495764
v 0.886174 0.352319 0.331486
v 0.982018 0.129833 0.195191
v 0.929564 -0.306720 0.403148
v 0.695880 -0.695311 0.227176
v 0.486295 -0.800823 0.376185
v 0.285546 -0.937840 0.241321
v 0.032083 -0.944511 0.355226
v -0.034945 -0.715761 0.779204
v -0.443352 -0.745487 0.516724
v -0.638296 -0.551106 0.555136
v -0.588762 -0.350788 0.741365
v -0.599787 0.515620 0.627460
v -0.358790 0.562393 0.757826
v -0.185410 0.750589 0.649273
v 0.086525 0.722720 0.699646
v 0.231928 0.347411 0.972733
v 0.576045 0.497358 0.663418
v 0.765802 0.312677 0.578875
v 0.748117 0.052802 0.675906
v 0.571274 -0.457165 0.695674
v 0.422169 -0.678266 0.617287
v -0.347100 -0.356239 0.878596
v -0.244364 -0.115727 0.972733
v -0.389129 0.116562 0.924287
v -0.250380 0.357026 0.910581
v 0.541680 -0.007617 0.851963
v 0.450672 -0.270060 0.862136
v 0.187822 -0.314694 0.940748
v 0.030922 -0.094347 1.004720
vt 0.492516 0.638139
vt 0.376687 0.560359
vt 0.390254 0.420939
vt 0.816184 0.420939
vt 0.828290 0.560359
vt 0.724923 0.638139
vt 0.615325 0.572078
vt 0.705481 0.766505
vt 0.481613 0.862761
vt 0.268132 0.745028
vt 0.261213 0.615367
vt 0.094377 0.462187
vt 0.287575 0.344453
vt 0.319356 0.218603
vt 0.452010 0.176392
vt 0.830869 0.218603
vt 0.715249 0.176392
vt 0.882813 0.344453
vt 0.957762 0.411736
vt 0.790510 0.809794
vt 0.742771 0.905631
vt 0.612717 0.952730
vt 0.342421 0.939455
vt 0.217545 0.879837
vt 0.179315 0.779779
vt 0.088627 0.682894
vt 0.238923 0.167188
vt 0.131281 0.244547
vt 0.338302 0.008472
vt 0.496689 0.085166
vt 0.632159 0.085166
vt 0.669414 0.041337
vt 0.876292 0.128635
vt 0.976507 0.349341
vt 0.998243 0.430438
vt 1.000000 0.569317
vt 0.797385 0.908480
vt 0.896633 0.815331
vt 0.659941 0.995598
vt 0.544669 1.000000
vt 0.405567 0.993169
vt 0.340248 0.984210
vt 0.041326 0.691574
vt 0.000000 0.573632
vt 0.008324 0.453715
vt 0.023274 0.334450
vt 0.086550 0.226806
vt 0.152006 0.132714
vt 0.569080 0.000000
vt 0.592677 0.010901
vt 0.715265 0.062520
vt 0.961475 0.380794
vt 0.905059 0.252877
vt 0.903866 0.541883
vt 0.964888 0.650658
vt 0.911693 0.777264
vt 0.826649 0.834509
vt 0.417745 0.982593
vt 0.366084 0.918904
vt 0.239864 0.860454
vt 0.007099 0.567468
vt 0.055120 0.679595
vt 0.033380 0.347456
vt 0.150463 0.151615
vt 0.255472 0.098440
vt 0.356054 0.029386
vt 0.483047 0.026024
vt 0.516630 0.141309
vt 0.721255 0.126328
vt 0.818929 0.224291
vt 0.794111 0.325246
vt 0.799635 0.761895
vt 0.678887 0.785468
vt 0.592018 0.880314
vt 0.455770 0.866269
vt 0.382918 0.677122
vt 0.210504 0.752692
vt 0.115430 0.659617
vt 0.124291 0.528646
vt 0.287601 0.160205
vt 0.212895 0.271635
vt 0.673030 0.322499
vt 0.621556 0.443711
vt 0.694088 0.560780
vt 0.624570 0.681968
vt 0.227722 0.498196
vt 0.273320 0.365931
vt 0.405017 0.343437
vt 0.483629 0.454486
vt 0.615325 0.326948
vt 0.964864 0.656615
vt 0.121951 0.875435
vn 0.0000 0.0000 -1.0000
vn -0.4512 0.0000 -0.8924
vn -0.2128 0.3979 -0.8924
vn 0.2505 0.3753 -0.8924
vn 0.4491 -0.0440 -0.8924
vn 0.1730 -0.4167 -0.8924
vn -0.5571 -0.4167 -0.7183
vn -0.8034 -0.0440 -0.5938
vn -0.6262 0.3753 -0.6834
vn -0.3401 0.7292 -0.5938
vn 0.4095 0.6926 -0.5938
vn 0.6598 0.3125 -0.6834
vn 0.5867 -0.4345 -0.6834
vn 0.2675 -0.7589 -0.5938
vn -0.1713 -0.6743 -0.7183
vn -0.5066 -0.7589 -0.4092
vn -0.8319 -0.4345 -0.3451
vn -0.9853 -0.0345 -0.1672
vn -0.6986 0.6438 -0.3121
vn -0.3535 0.9197 -0.1711
vn 0.0445 0.9113 -0.4092
vn 0.4414 0.8809 -0.1711
vn 0.7580 0.5727 -0.3121
vn 0.9277 0.1422 -0.3451
vn 0.8825 -0.3194 -0.3451
vn 0.6326 -0.7088 -0.3121
vn -0.0823 -0.9349 -0.3451
vn -0.3841 -0.9232 0.0069
vn -0.9105 -0.3984 0.1106
vn -0.9561 0.0262 0.2917
vn -0.9206 0.3905 0.0069
vn -0.6522 0.7454 0.1381
vn 0.0487 0.9977 0.0465
vn 0.4177 0.8605 0.2917
vn 0.9301 0.3618 0.0635
vn 0.9942 -0.0973 0.0465
vn 0.8423 -0.5353 0.0635
vn 0.5085 -0.8539 0.1106
vn 0.0667 -0.9937 0.0902
vn -0.2171 -0.8730 0.4367
vn -0.6338 -0.7005 0.3281
vn -0.7752 -0.3165 0.5467
vn -0.7847 0.4275 0.4488
vn -0.4346 0.7157 0.5467
vn -0.0014 0.8717 0.4901
vn 0.3439 0.6359 0.6909
vn 0.7198 0.5396 0.4367
vn 0.8872 0.1072 0.4488
vn 0.6414 -0.6014 0.4763
vn 0.2423 -0.8373 0.4901
vn -0.4184 -0.5608 0.7145
vn -0.4920 -0.1270 0.8613
vn -0.4978 0.3329 0.8008
vn -0.0947 0.5615 0.8221
vn 0.5855 0.2483 0.7717
vn 0.6691 -0.2043 0.7145
vn 0.3249 -0.5030 0.8008
vn -0.0834 -0.3321 0.9395
vn -0.1243 0.1278 0.9840
vn 0.2962 -0.0658 0.9529
vn -0.7847 0.4276 0.4488
vn 0.7198 0.5397 0.4367
vn 0.3249 -0.5031 0.8008
vn 0.2961 -0.0658 0.9529
usemtl None
s off
f 2/1/1 3/2/1 4/3/1
f 6/4/2 7/5/2 8/6/2
f 1/7/3 8/6/3 9/8/3
f 2/1/4 10/9/4 11/10/4
f 12/11/5 13/12/5 14/13/5
f 4/3/6 15/14/6 16/15/6
f 18/16/7 6/4/7 17/17/7
f 6/4/8 19/18/8 20/19/8
f 7/5/9 22/20/9 9/8/9
f 22/20/10 23/21/10 24/22/10
f 25/23/11 26/24/11 27/25/11
f 11/10/12 27/25/12 28/26/12
f 30/27/13 14/13/13 29/28/13
f 30/27/14 31/29/14 32/30/14
f 16/15/15 33/31/15 17/17/15
f 17/17/16 33/31/16 34/32/16
f 18/16/17 35/33/17 36/34/17
f 20/19/18 37/35/18 38/36/18
f 40/37/19 22/20/19 39/38/19
f 40/37/20 41/39/20 42/40/20
f 42/40/21 43/41/21 25/23/21
f 25/23/22 43/41/22 44/42/22
f 26/24/23 46/43/23 28/26/23
f 28/26/24 47/44/24 48/45/24
f 49/46/25 29/28/25 48/45/25
f 29/28/26 50/47/26 51/48/26
f 52/49/27 34/32/27 33/31/27
f 34/32/28 53/50/28 54/51/28
f 56/52/29 36/34/29 55/53/29
f 56/52/30 57/54/30 58/55/30
f 58/55/31 59/56/31 39/38/31
f 39/38/32 59/56/32 60/57/32
f 61/58/33 44/42/33 43/41/33
f 44/42/34 62/59/34 63/60/34
f 65/61/35 46/43/35 64/62/35
f 65/61/36 66/63/36 49/46/36
f 49/46/37 66/63/37 67/64/37
f 67/64/38 68/65/38 69/66/38
f 70/67/39 52/49/39 69/66/39
f 70/67/40 71/68/40 72/69/40
f 54/51/41 73/70/41 55/53/41
f 55/53/42 73/70/42 74/71/42
f 60/57/43 58/55/43 75/72/43
f 75/72/44 76/73/44 77/74/44
f 78/75/45 61/58/45 77/74/45
f 78/75/46 79/76/46 80/77/46
f 63/60/47 81/78/47 64/62/47
f 64/62/48 81/78/48 82/79/48
f 84/80/49 67/64/49 83/81/49
f 84/80/50 71/68/50 70/67/50
f 85/82/51 74/71/51 73/70/51
f 74/71/52 86/83/52 87/84/52
f 88/85/53 75/72/53 87/84/53
f 88/85/54 79/76/54 78/75/54
f 82/79/55 80/77/55 89/86/55
f 82/79/56 90/87/56 83/81/56
f 83/81/57 90/87/57 91/88/57
f 92/89/58 85/82/58 91/88/58
f 92/89/59 79/76/59 88/85/59
f 91/88/60 89/86/60 92/89/60
f 4/3/1 5/90/1 1/7/1
f 1/7/1 2/1/1 4/3/1
f 8/6/2 1/7/2 6/4/2
f 1/7/2 5/90/2 6/4/2
f 10/9/3 2/1/3 9/8/3
f 2/1/3 1/7/3 9/8/3
f 12/11/4 3/2/4 11/10/4
f 3/2/4 2/1/4 11/10/4
f 14/13/5 4/3/5 3/2/5
f 3/2/5 12/11/5 14/13/5
f 16/15/6 5/90/6 4/3/6
f 4/3/6 14/13/6 15/14/6
f 19/18/7 6/4/7 18/16/7
f 6/4/7 5/90/7 17/17/7
f 21/91/8 7/5/8 20/19/8
f 7/5/8 6/4/8 20/19/8
f 9/8/9 8/6/9 7/5/9
f 7/5/9 21/91/9 22/20/9
f 24/22/10 10/9/10 9/8/10
f 9/8/10 22/20/10 24/22/10
f 27/25/11 11/10/11 25/23/11
f 11/10/11 10/9/11 25/23/11
f 13/12/12 12/11/12 28/26/12
f 12/11/12 11/10/12 28/26/12
f 15/14/13 14/13/13 30/27/13
f 14/13/13 13/12/13 29/28/13
f 32/30/14 16/15/14 15/14/14
f 15/14/14 30/27/14 32/30/14
f 17/17/15 5/90/15 16/15/15
f 16/15/15 32/30/15 33/31/15
f 35/33/16 18/16/16 34/32/16
f 18/16/16 17/17/16 34/32/16
f 20/19/17 19/18/17 36/34/17
f 19/18/17 18/16/17 36/34/17
f 38/36/18 21/91/18 20/19/18
f 20/19/18 36/34/18 37/35/18
f 23/21/19 22/20/19 40/37/19
f 22/20/19 21/91/19 39/38/19
f 42/40/20 24/22/20 23/21/20
f 23/21/20 40/37/20 42/40/20
f 25/23/21 10/9/21 24/22/21
f 24/22/21 42/40/21 25/23/21
f 45/92/22 26/24/22 44/42/22
f 26/24/22 25/23/22 44/42/22
f 28/26/23 27/25/23 26/24/23
f 26/24/23 45/92/23 46/43/23
f 48/45/24 13/12/24 28/26/24
f 28/26/24 46/43/24 47/44/24
f 50/47/25 29/28/25 49/46/25
f 29/28/25 13/12/25 48/45/25
f 31/29/26 30/27/26 51/48/26
f 30/27/26 29/28/26 51/48/26
f 33/31/27 32/30/27 52/49/27
f 32/30/27 31/29/27 52/49/27
f 54/51/28 35/33/28 34/32/28
f 34/32/28 52/49/28 53/50/28
f 37/35/29 36/34/29 56/52/29
f 36/34/29 35/33/29 55/53/29
f 58/55/30 38/36/30 37/35/30
f 37/35/30 56/52/30 58/55/30
f 39/38/31 21/91/31 38/36/31
f 38/36/31 58/55/31 39/38/31
f 41/39/32 40/37/32 60/57/32
f 40/37/32 39/38/32 60/57/32
f 43/41/33 42/40/33 61/58/33
f 42/40/33 41/39/33 61/58/33
f 63/60/34 45/92/34 44/42/34
f 44/42/34 61/58/34 62/59/34
f 47/44/35 46/43/35 65/61/35
f 46/43/35 45/92/35 64/62/35
f 49/46/36 48/45/36 47/44/36
f 47/44/36 65/61/36 49/46/36
f 51/48/37 50/47/37 67/64/37
f 50/47/37 49/46/37 67/64/37
f 69/66/38 31/29/38 51/48/38
f 51/48/38 67/64/38 69/66/38
f 53/50/39 52/49/39 70/67/39
f 52/49/39 31/29/39 69/66/39
f 72/69/40 54/51/40 53/50/40
f 53/50/40 70/67/40 72/69/40
f 55/53/41 35/33/41 54/51/41
f 54/51/41 72/69/41 73/70/41
f 57/54/42 56/52/42 74/71/42
f 56/52/42 55/53/42 74/71/42
f 59/56/43 58/55/43 60/57/43
f 58/55/61 57/54/61 75/72/61
f 77/74/44 41/39/44 60/57/44
f 60/57/44 75/72/44 77/74/44
f 62/59/45 61/58/45 78/75/45
f 61/58/45 41/39/45 77/74/45
f 80/77/46 63/60/46 62/59/46
f 62/59/46 78/75/46 80/77/46
f 64/62/47 45/92/47 63/60/47
f 63/60/62 80/77/62 81/78/62
f 66/63/48 65/61/48 82/79/48
f 65/61/48 64/62/48 82/79/48
f 68/65/49 67/64/49 84/80/49
f 67/64/49 66/63/49 83/81/49
f 70/67/50 69/66/50 68/65/50
f 68/65/50 84/80/50 70/67/50
f 73/70/51 72/69/51 85/82/51
f 72/69/51 71/68/51 85/82/51
f 87/84/52 57/54/52 74/71/52
f 74/71/52 85/82/52 86/83/52
f 76/73/53 75/72/53 88/85/53
f 75/72/53 57/54/53 87/84/53
f 78/75/54 77/74/54 76/73/54
f 76/73/54 88/85/54 78/75/54
f 81/78/55 80/77/55 82/79/55
f 80/77/55 79/76/55 89/86/55
f 83/81/56 66/63/56 82/79/56
f 82/79/56 89/86/56 90/87/56
f 71/68/63 84/80/63 91/88/63
f 84/80/63 83/81/63 91/88/63
f 86/83/58 85/82/58 92/89/58
f 85/82/58 71/68/58 91/88/58
f 88/85/59 87/84/59 86/83/59
f 86/83/59 92/89/59 88/85/59
f 90/87/64 89/86/64 91/88/64
f 89/86/60 79/76/60 92/89/60
