# Blender v2.93.4 OBJ File: ''
# www.blender.org
mtllib rhombic_dodecahedron.mtl
o Shape_IndexedFaceSet_Shape_IndexedFaceSet.005
v -0.500000 0.353553 -0.866025
v 0.500000 0.707107 -0.866025
v 0.500000 -0.353553 -0.866025
v -0.500000 -0.707107 -0.866025
v -1.000000 -0.353553 0.000000
v -1.000000 0.707107 0.000000
v -0.000000 1.060660 -0.000000
v 1.000000 0.353553 -0.000000
v 1.000000 -0.707107 -0.000000
v 0.000000 -1.060660 0.000000
v -0.500000 -0.707107 0.866025
v -0.500000 0.353553 0.866025
v 0.500000 0.707107 0.866025
v 0.500000 -0.353553 0.866025
vt 0.666667 0.750000
vt 0.333333 0.250000
vt 0.166667 0.750000
vt 0.333333 1.000000
vt 1.000000 0.500000
vt 0.833333 0.250000
vt 0.666667 0.000000
vt 0.000000 0.500000
vt 0.666667 0.750000
vt 0.833333 1.000000
vt 0.166667 0.750000
vt 0.833333 0.250000
vt 0.333333 0.250000
vt 0.166667 0.000000
vn 0.0000 -0.0000 -1.0000
vn -0.8660 -0.0000 -0.5000
vn -0.2887 0.8165 -0.5000
vn 0.8660 0.0000 -0.5000
vn 0.2887 -0.8165 -0.5000
vn -0.8660 0.0000 0.5000
vn -0.5774 -0.8165 -0.0000
vn 0.5774 0.8165 0.0000
vn -0.2887 0.8165 0.5000
vn 0.8660 0.0000 0.5000
vn 0.2887 -0.8165 0.5000
vn 0.0000 0.0000 1.0000
usemtl None
s off
f 1/1/1 3/2/1 4/3/1
f 5/4/2 1/1/2 4/3/2
f 1/1/3 7/5/3 2/6/3
f 8/7/4 3/2/4 2/6/4
f 3/2/5 10/8/5 4/3/5
f 5/4/6 12/9/6 6/10/6
f 5/4/7 10/8/7 11/11/7
f 7/5/8 8/7/8 2/6/8
f 7/5/9 12/9/9 13/12/9
f 8/7/10 14/13/10 9/14/10
f 10/8/11 14/13/11 11/11/11
f 14/13/12 12/9/12 11/11/12
f 1/1/1 2/6/1 3/2/1
f 5/4/2 6/10/2 1/1/2
f 1/1/3 6/10/3 7/5/3
f 8/7/4 9/14/4 3/2/4
f 3/2/5 9/14/5 10/8/5
f 5/4/6 11/11/6 12/9/6
f 5/4/7 4/3/7 10/8/7
f 7/5/8 13/12/8 8/7/8
f 7/5/9 6/10/9 12/9/9
f 8/7/10 13/12/10 14/13/10
f 10/8/11 9/14/11 14/13/11
f 14/13/12 13/12/12 12/9/12
