# Blender v2.93.4 OBJ File: ''
# www.blender.org
mtllib tetrakishexahedron.mtl
o Shape_IndexedFaceSet_Shape_IndexedFaceSet.007
v -0.316228 0.707107 -0.948683
v 0.737865 -0.235702 -0.948683
v -0.316228 -0.353553 -0.948683
v -1.159500 -0.235702 -0.316228
v 0.632456 0.707107 -0.474342
v -0.105409 -1.178510 -0.316228
v -0.790569 0.707107 0.000000
v 1.159500 0.235702 0.316228
v 0.105409 1.178510 0.316228
v 0.790569 -0.707107 -0.000000
v -0.737865 0.235702 0.948683
v -0.632456 -0.707107 0.474342
v 0.316228 -0.707107 0.948683
v 0.316228 0.353553 0.948683
vt 0.350000 0.636364
vt 0.800000 0.636364
vt 0.400000 0.181818
vt 0.400000 1.000000
vt 0.800000 0.227272
vt 0.000000 0.545455
vt 0.800000 0.840909
vt 0.600000 0.000000
vt 1.000000 0.454545
vt 0.200000 0.159091
vt 0.600000 0.818182
vt 0.200000 0.772728
vt 0.200000 0.363636
vt 0.650000 0.363636
vn 0.0000 -0.0000 -1.0000
vn -0.6000 0.0000 -0.8000
vn 0.4000 0.4472 -0.8000
vn 0.0667 -0.5963 -0.8000
vn -0.8000 0.4472 -0.4000
vn -0.5333 -0.5963 -0.6000
vn 0.8667 0.2981 -0.4000
vn 0.2000 0.8944 -0.4000
vn 0.5333 -0.7454 -0.4000
vn -0.9333 0.2981 0.2000
vn -0.4000 0.8944 -0.2000
vn -0.6667 -0.7454 -0.0000
vn 0.6667 0.7454 0.0000
vn 0.9333 -0.2981 -0.2000
vn 0.4000 -0.8944 0.2000
vn -0.5333 0.7454 0.4000
vn -0.8667 -0.2981 0.4000
vn -0.2000 -0.8944 0.4000
vn 0.5333 0.5963 0.6000
vn 0.8000 -0.4472 0.4000
vn -0.0667 0.5963 0.8000
vn -0.4000 -0.4472 0.8000
vn 0.6000 -0.0000 0.8000
vn 0.0000 0.0000 1.0000
usemtl None
s off
f 3/1/1 1/2/1 2/3/1
f 3/1/2 4/4/2 1/2/2
f 1/2/3 5/5/3 2/3/3
f 2/3/4 6/6/4 3/1/4
f 1/2/5 4/4/5 7/7/5
f 4/4/6 3/1/6 6/6/6
f 2/3/7 5/5/7 8/8/7
f 5/5/8 1/2/8 9/9/8
f 6/6/9 2/3/9 10/10/9
f 4/4/10 11/11/10 7/7/10
f 7/7/11 9/9/11 1/2/11
f 6/6/12 12/12/12 4/4/12
f 5/5/13 9/9/13 8/8/13
f 8/8/14 10/10/14 2/3/14
f 10/10/15 13/13/15 6/6/15
f 7/7/16 11/11/16 9/9/16
f 11/11/17 4/4/17 12/12/17
f 12/12/18 6/6/18 13/13/18
f 8/8/19 9/9/19 14/14/19
f 10/10/20 8/8/20 13/13/20
f 11/11/21 14/14/21 9/9/21
f 12/12/22 13/13/22 11/11/22
f 14/14/23 13/13/23 8/8/23
f 14/14/24 11/11/24 13/13/24
