# Blender v2.93.4 OBJ File: ''
# www.blender.org
mtllib trapezoidal_icositetrahedron.mtl
o Shape_IndexedFaceSet_Shape_IndexedFaceSet.009
v -0.357407 0.414214 -0.933949
v 0.276439 0.320377 -0.933949
v 0.462089 -0.292893 -0.933949
v -0.357407 -0.414214 -0.933949
v -0.967538 -0.292893 -0.386854
v -0.829319 0.320377 -0.510794
v -0.148043 1.000000 -0.386854
v 0.610132 0.707107 -0.547095
v 1.010900 -0.000000 -0.386854
v 0.438374 -0.773459 -0.510794
v -0.148043 -1.000000 -0.386854
v -0.819495 0.707107 0.000000
v -1.010900 0.000000 0.386854
v -0.667384 -0.773459 -0.087638
v 0.148043 1.000000 0.386854
v 0.667384 0.773459 0.087638
v 0.819495 -0.707107 -0.000000
v 0.967538 0.292893 0.386854
v 0.148043 -1.000000 0.386854
v -0.438374 0.773459 0.510794
v -0.610132 -0.707107 0.547095
v -0.462089 0.292893 0.933949
v 0.357407 0.414214 0.933949
v 0.829319 -0.320377 0.510794
v 0.357407 -0.414214 0.933949
v -0.276439 -0.320377 0.933949
vt 0.676777 0.292893
vt 0.363271 0.660188
vt 0.271447 0.353554
vt 0.910188 0.660188
vt 0.676777 0.707107
vt 0.573223 1.000000
vt 0.000000 0.500000
vt 0.283176 0.113270
vt 1.000000 0.500000
vt 0.905329 0.853553
vt 0.830094 0.113270
vt 0.978553 0.353554
vt 0.169906 0.886729
vt 0.198223 0.853553
vt 0.021447 0.646447
vt 0.426777 0.000000
vt 0.573223 0.000000
vt 0.716824 0.886729
vt 0.323223 0.707107
vt 0.426777 1.000000
vt 0.089812 0.339812
vt 0.094671 0.146446
vt 0.636729 0.339812
vt 0.728553 0.646447
vt 0.801777 0.146446
vt 0.323223 0.292893
vn 0.0000 -0.0000 -1.0000
vn -0.6676 -0.0000 -0.7445
vn 0.0978 0.6604 -0.7445
vn 0.6390 0.1934 -0.7445
vn 0.0978 -0.6604 -0.7445
vn -0.5698 0.6604 -0.4890
vn -0.9728 0.1934 -0.1277
vn -0.5698 -0.6604 -0.4890
vn 0.3338 0.9339 -0.1277
vn 0.7367 -0.4670 -0.4890
vn 0.8750 0.4670 -0.1277
vn 0.3338 -0.9339 -0.1277
vn -0.3338 0.9339 0.1277
vn -0.8750 -0.4670 0.1277
vn -0.7367 0.4670 0.4890
vn -0.3338 -0.9339 0.1277
vn 0.5698 0.6604 0.4890
vn 0.9728 -0.1934 0.1277
vn 0.5698 -0.6604 0.4890
vn -0.0978 0.6604 0.7445
vn -0.6390 -0.1934 0.7445
vn -0.0978 -0.6604 0.7445
vn 0.6676 0.0000 0.7445
vn -0.0000 0.0000 1.0000
usemtl None
s off
f 4/1/1 2/2/1 3/3/1
f 4/1/2 6/4/2 1/5/2
f 7/6/3 2/2/3 1/5/3
f 2/2/4 9/7/4 3/3/4
f 10/8/5 4/1/5 3/3/5
f 6/4/6 7/6/6 1/5/6
f 6/4/7 13/9/7 12/10/7
f 4/1/8 14/11/8 5/12/8
f 7/6/9 16/13/9 8/14/9
f 9/7/10 10/8/10 3/3/10
f 9/7/11 16/13/11 18/15/11
f 10/8/12 19/16/12 11/17/12
f 20/18/13 7/6/13 12/10/13
f 14/11/14 13/9/14 5/12/14
f 13/9/15 20/18/15 12/10/15
f 19/16/16 14/11/16 11/17/16
f 23/19/17 16/13/17 15/20/17
f 9/7/18 24/21/18 17/22/18
f 24/21/19 19/16/19 17/22/19
f 20/18/20 23/19/20 15/20/20
f 13/9/21 26/23/21 22/24/21
f 19/16/22 26/23/22 21/25/22
f 23/19/23 24/21/23 18/15/23
f 26/23/24 23/19/24 22/24/24
f 4/1/1 1/5/1 2/2/1
f 4/1/2 5/12/2 6/4/2
f 7/6/3 8/14/3 2/2/3
f 2/2/4 8/14/4 9/7/4
f 10/8/5 11/17/5 4/1/5
f 6/4/6 12/10/6 7/6/6
f 6/4/7 5/12/7 13/9/7
f 4/1/8 11/17/8 14/11/8
f 7/6/9 15/20/9 16/13/9
f 9/7/10 17/22/10 10/8/10
f 9/7/11 8/14/11 16/13/11
f 10/8/12 17/22/12 19/16/12
f 20/18/13 15/20/13 7/6/13
f 14/11/14 21/25/14 13/9/14
f 13/9/15 22/24/15 20/18/15
f 19/16/16 21/25/16 14/11/16
f 23/19/17 18/15/17 16/13/17
f 9/7/18 18/15/18 24/21/18
f 24/21/19 25/26/19 19/16/19
f 20/18/20 22/24/20 23/19/20
f 13/9/21 21/25/21 26/23/21
f 19/16/22 25/26/22 26/23/22
f 23/19/23 25/26/23 24/21/23
f 26/23/24 25/26/24 23/19/24
