# Blender v2.93.4 OBJ File: ''
# www.blender.org
mtllib triakistetrahedron.mtl
o Shape_IndexedFaceSet_Shape_IndexedFaceSet.012
v -0.426401 1.414210 -0.904534
v 1.137070 -0.942809 -0.904534
v -0.426401 -0.282843 -0.904534
v -1.421340 -0.942809 0.301511
v 0.852803 0.565685 -0.180907
v -0.682242 0.565685 0.542720
v 0.710669 0.471404 1.507560
v 0.255841 -0.848528 0.542720
vt 0.611110 1.000000
vt 0.611110 1.000000
vt 0.000000 1.000000
vt 1.000000 0.500001
vt 0.111111 0.700001
vt 0.711110 0.400001
vt 0.166666 0.000000
vt 0.344444 0.400001
vn 0.0000 -0.0000 -1.0000
vn -0.7714 0.0000 -0.6364
vn 0.6428 0.4264 -0.6364
vn -0.3000 -0.7107 -0.6364
vn -0.9000 0.4264 0.0909
vn 0.9857 0.1421 0.0909
vn 0.5143 0.8528 0.0909
vn 0.0429 -0.9949 0.0909
vn -0.5571 0.1421 0.8182
vn -0.2571 0.8528 0.4545
vn 0.6857 -0.5685 0.4545
vn -0.0857 -0.5685 0.8182
usemtl None
s off
f 3/1/1 1/2/1 2/3/1
f 3/1/2 4/4/2 1/2/2
f 1/2/3 5/5/3 2/3/3
f 2/3/4 4/4/4 3/1/4
f 1/2/5 4/4/5 6/6/5
f 2/3/6 5/5/6 7/7/6
f 5/5/7 1/2/7 7/7/7
f 4/4/8 2/3/8 8/8/8
f 4/4/9 7/7/9 6/6/9
f 6/6/10 7/7/10 1/2/10
f 7/7/11 8/8/11 2/3/11
f 8/8/12 7/7/12 4/4/12
