# Blender v2.93.4 OBJ File: ''
# www.blender.org
mtllib triakisicosahedron.mtl
o Shape_IndexedFaceSet_Shape_IndexedFaceSet.010
v -0.168381 0.618034 -0.985722
v 0.458605 -0.447214 -0.985722
v -0.168381 -0.099106 -0.985722
v -0.759815 -0.447214 -0.777591
v 0.440828 0.259464 -0.864969
v -0.702962 0.259464 -0.669586
v 0.939182 0.552786 -0.440828
v -0.114379 -0.740536 -0.669586
v -1.032260 0.552786 -0.104065
v 0.871343 -0.160358 -0.474204
v 0.282760 0.839643 -0.474204
v -0.017777 -1.170820 -0.104065
v -0.979348 -0.160358 -0.158068
v -0.424141 0.839643 -0.353451
v 1.032260 -0.552786 0.104065
v 0.017777 1.170820 0.104065
v 0.528206 -0.778391 -0.353451
v -0.615584 -0.778391 -0.158068
v -0.939182 -0.552786 0.440828
v 0.979348 0.160358 0.158068
v 0.615584 0.778391 0.158068
v -0.871343 0.160358 0.474204
v -0.528206 0.778391 0.353451
v 0.759815 0.447214 0.777591
v 0.424141 -0.839643 0.353451
v -0.282760 -0.839643 0.474204
v -0.458605 0.447214 0.985722
v 0.702962 -0.259464 0.669586
v 0.114379 0.740536 0.669586
v 0.168381 -0.618034 0.985722
v -0.440828 -0.259464 0.864969
v 0.168381 0.099106 0.985722
vt 0.457677 0.581559
vt 0.763932 0.581559
vt 0.309017 0.277864
vt 0.309017 0.868035
vt 0.610804 0.286474
vt 0.610804 0.840497
vt 0.736068 0.045085
vt 0.183753 0.555402
vt 0.736068 1.000000
vt 0.431519 0.077944
vt 0.858571 0.363038
vt 0.000000 0.508610
vt 0.431519 0.974371
vt 0.858571 0.705443
vt 0.263932 0.000000
vt 1.000000 0.491390
vt 0.167587 0.244151
vt 0.167587 0.798173
vt 0.263932 0.954915
vt 0.568481 0.025629
vt 0.832413 0.201827
vt 0.568481 0.922056
vt 0.832413 0.755849
vt 0.690983 0.131965
vt 0.141430 0.294557
vt 0.141430 0.636962
vt 0.690983 0.722136
vt 0.389196 0.159503
vt 0.816247 0.444598
vt 0.236068 0.418441
vt 0.389196 0.713526
vt 0.542323 0.418441
vn -0.0000 0.0000 -1.0000
vn -0.3320 0.0000 -0.9433
vn 0.2861 0.1684 -0.9433
vn -0.1611 -0.2902 -0.9433
vn -0.5830 0.1684 -0.7948
vn 0.5878 0.1506 -0.7948
vn 0.4170 0.4408 -0.7948
vn -0.1358 -0.5914 -0.7948
vn -0.8184 0.1506 -0.5546
vn -0.6572 0.4408 -0.6113
vn 0.7900 -0.0465 -0.6113
vn 0.3428 0.7133 -0.6113
vn 0.0664 -0.7886 -0.6113
vn -0.2656 -0.7886 -0.5546
vn -0.9481 -0.0465 -0.3144
vn -0.5263 0.7133 -0.4629
vn 0.8154 -0.3478 -0.4629
vn 0.9463 -0.0753 -0.3144
vn 0.3935 0.8639 -0.3144
vn 0.0917 0.8817 -0.4629
vn 0.3681 -0.8064 -0.4629
vn -0.5009 -0.8064 -0.3144
vn -0.9228 -0.3478 -0.1660
vn -0.9970 -0.0753 0.0175
vn -0.4756 0.8639 -0.1660
vn -0.2402 0.8817 -0.4062
vn 0.6542 -0.6380 -0.4062
vn 0.9970 0.0753 -0.0175
vn 0.5498 0.8351 -0.0175
vn 0.5244 -0.8351 -0.1660
vn -0.5498 -0.8351 0.0175
vn -0.7520 -0.6380 -0.1660
vn -0.9463 0.0753 0.3144
vn -0.5244 0.8351 0.1660
vn 0.9481 0.0465 0.3144
vn 0.9228 0.3478 0.1660
vn 0.7520 0.6380 0.1660
vn 0.5009 0.8064 0.3144
vn 0.4756 -0.8639 0.1660
vn -0.3935 -0.8639 0.3144
vn -0.7900 0.0465 0.6113
vn -0.8154 0.3478 0.4629
vn -0.6542 0.6380 0.4062
vn -0.3681 0.8064 0.4629
vn 0.8184 -0.1506 0.5546
vn 0.2656 0.7886 0.5546
vn 0.5263 -0.7133 0.4629
vn 0.2402 -0.8817 0.4062
vn -0.0917 -0.8817 0.4629
vn -0.3428 -0.7133 0.6113
vn -0.5878 -0.1506 0.7948
vn -0.0664 0.7886 0.6113
vn 0.6572 -0.4408 0.6113
vn 0.5830 -0.1684 0.7948
vn 0.1358 0.5914 0.7948
vn -0.4170 -0.4408 0.7948
vn -0.2861 -0.1684 0.9433
vn 0.3320 0.0000 0.9433
vn 0.1611 0.2902 0.9433
vn 0.0000 0.0000 1.0000
usemtl None
s off
f 3/1/1 1/2/1 2/3/1
f 3/1/2 4/4/2 1/2/2
f 1/2/3 5/5/3 2/3/3
f 2/3/4 4/4/4 3/1/4
f 1/2/5 4/4/5 6/6/5
f 2/3/6 5/5/6 7/7/6
f 5/5/7 1/2/7 7/7/7
f 4/4/8 2/3/8 8/8/8
f 4/4/9 9/9/9 6/6/9
f 6/6/10 9/9/10 1/2/10
f 7/7/11 10/10/11 2/3/11
f 1/2/12 11/11/12 7/7/12
f 2/3/13 12/12/13 8/8/13
f 8/8/14 12/12/14 4/4/14
f 9/9/15 4/4/15 13/13/15
f 1/2/16 9/9/16 14/14/16
f 2/3/17 10/10/17 15/15/17
f 10/10/18 7/7/18 15/15/18
f 7/7/19 11/11/19 16/16/19
f 11/11/20 1/2/20 16/16/20
f 12/12/21 2/3/21 17/17/21
f 4/4/22 12/12/22 18/18/22
f 4/4/23 19/19/23 13/13/23
f 13/13/24 19/19/24 9/9/24
f 9/9/25 16/16/25 14/14/25
f 14/14/26 16/16/26 1/2/26
f 15/15/27 17/17/27 2/3/27
f 7/7/28 20/20/28 15/15/28
f 16/16/29 21/21/29 7/7/29
f 17/17/30 15/15/30 12/12/30
f 12/12/31 19/19/31 18/18/31
f 18/18/32 19/19/32 4/4/32
f 9/9/33 19/19/33 22/22/33
f 16/16/34 9/9/34 23/23/34
f 15/15/35 20/20/35 24/24/35
f 20/20/36 7/7/36 24/24/36
f 7/7/37 21/21/37 24/24/37
f 21/21/38 16/16/38 24/24/38
f 12/12/39 15/15/39 25/25/39
f 19/19/40 12/12/40 26/26/40
f 19/19/41 27/27/41 22/22/41
f 22/22/42 27/27/42 9/9/42
f 9/9/43 27/27/43 23/23/43
f 23/23/44 27/27/44 16/16/44
f 24/24/45 28/28/45 15/15/45
f 16/16/46 29/29/46 24/24/46
f 15/15/47 30/30/47 25/25/47
f 25/25/48 30/30/48 12/12/48
f 12/12/49 30/30/49 26/26/49
f 26/26/50 30/30/50 19/19/50
f 27/27/51 19/19/51 31/31/51
f 16/16/52 27/27/52 29/29/52
f 15/15/53 28/28/53 30/30/53
f 28/28/54 24/24/54 30/30/54
f 24/24/55 29/29/55 27/27/55
f 19/19/56 30/30/56 31/31/56
f 31/31/57 30/30/57 27/27/57
f 24/24/58 32/32/58 30/30/58
f 27/27/59 32/32/59 24/24/59
f 27/27/60 30/30/60 32/32/60
