# Blender v3.1.2 OBJ File: ''
# www.blender.org
mtllib small_rhombihexacron.mtl
o Shape_IndexedFaceSet_Shape_IndexedFaceSet.021
v -0.357407 -2.414210 -0.933949
v 0.222064 -0.500000 -0.933949
v -2.335840 0.707107 -0.933949
v -0.357407 0.414214 -0.933949
v 1.115580 0.707107 -2.254750
v -0.788835 -0.500000 -0.547095
v 1.010900 -0.000000 -0.386854
v 2.335840 -0.707107 0.933949
v 0.431428 0.914214 -0.386854
v 0.357407 2.414210 0.933949
v -1.115580 -0.707107 2.254750
v -1.010900 0.000000 0.386854
v -0.579471 0.914214 0.000000
v 0.579471 -0.914214 -0.000000
v -0.431428 -0.914214 0.386854
v 0.788835 0.500000 0.547095
v 0.357407 -0.414214 0.933949
v -0.222064 0.500000 0.933949
v -0.357407 -0.226541 -0.933949
v 0.700922 -0.546918 -0.510794
v -0.357407 -0.226541 -0.933949
v -0.195472 0.867295 -0.510794
v -0.862856 -0.546918 0.087638
v 0.700922 -0.546918 -0.510794
v 0.862856 0.546918 -0.087638
v 0.700922 -0.546918 -0.510794
v -0.862856 -0.546918 0.087638
v -0.195472 0.867295 -0.510794
v -0.700922 0.546918 0.510794
v -0.862856 -0.546918 0.087638
v 0.195472 -0.867295 0.510794
v 0.862856 0.546918 -0.087638
v 0.862856 0.546918 -0.087638
v 0.195472 -0.867295 0.510794
v -0.700922 0.546918 0.510794
v 0.357407 0.226541 0.933949
v 0.357407 0.226541 0.933949
v 0.357407 0.226541 0.933949
vt 0.453082 0.576505
vt 0.646447 1.000000
vt 0.585787 0.576505
vt 0.396446 0.452466
vt 0.000000 0.576505
vt 0.646447 0.261204
vt 0.396446 0.668855
vt 0.386729 0.349964
vt 0.500000 0.283611
vt 0.353553 0.000000
vt 0.453082 0.576505
vt 0.679623 0.541842
vt 1.000000 0.423495
vt 0.689340 0.407650
vt 0.386729 0.684699
vt 0.353553 0.738796
vt 0.500000 0.716389
vt 0.689340 0.624039
vt 0.386729 0.349964
vt 0.310660 0.375961
vt 0.613271 0.315301
vt 0.386729 0.349964
vt 0.386729 0.684699
vt 0.310660 0.592350
vt 0.679623 0.541842
vt 0.613271 0.650036
vt 0.386729 0.684699
vt 0.320377 0.458158
vt 0.613271 0.315301
vt 0.603554 0.331145
vt 0.613271 0.315301
vt 0.320377 0.458158
vt 0.414213 0.423495
vt 0.603554 0.547534
vt 0.613271 0.650036
vt 0.546918 0.423495
vt 0.546918 0.423495
vt 0.546918 0.423495
vn -0.0000 -0.0000 -1.0000
vn -0.6676 0.0000 -0.7445
vn 0.6390 -0.1934 -0.7445
vn -0.2849 -0.6037 -0.7445
vn 0.0978 0.6604 -0.7445
vn -0.9728 -0.1934 -0.1277
vn -0.5698 0.6604 -0.4890
vn 0.3540 -0.7972 -0.4890
vn 0.7367 0.4670 -0.4890
vn 0.8750 -0.4670 -0.1277
vn -0.5901 -0.7972 -0.1277
vn -0.0489 0.9906 -0.1277
vn -0.8750 0.4670 0.1277
vn -0.7367 -0.4670 0.4890
vn 0.0489 -0.9906 0.1277
vn 0.9728 0.1934 0.1277
vn 0.5901 0.7972 0.1277
vn 0.5698 -0.6604 0.4890
vn -0.3540 0.7972 0.4890
vn -0.6390 0.1934 0.7445
vn -0.0978 -0.6604 0.7445
vn 0.6676 0.0000 0.7445
vn 0.2849 0.6037 0.7445
vn 0.0000 0.0000 1.0000
usemtl Shape.028
s off
f 19/1/1 3/2/1 4/3/1
f 19/1/1 2/4/1 1/5/1
f 4/3/2 5/6/2 19/1/2
f 19/1/2 1/5/2 6/7/2
f 1/5/3 2/4/3 20/8/3
f 7/9/3 8/10/3 20/8/3
f 21/11/4 5/6/4 2/4/4
f 6/7/4 3/2/4 21/11/4
f 22/12/5 4/3/5 3/2/5
f 22/12/5 10/13/5 9/14/5
f 23/15/6 6/7/6 1/5/6
f 11/16/6 12/17/6 23/15/6
f 5/6/7 4/3/7 22/12/7
f 22/12/7 13/18/7 10/13/7
f 2/4/8 5/6/8 24/19/8
f 8/10/8 14/20/8 24/19/8
f 8/10/9 7/9/9 25/21/9
f 25/21/9 9/14/9 10/13/9
f 26/22/10 5/6/10 7/9/10
f 26/22/10 14/20/10 1/5/10
f 3/2/11 6/7/11 27/23/11
f 27/23/11 15/24/11 11/16/11
f 9/14/12 5/6/12 28/25/12
f 3/2/12 13/18/12 28/25/12
f 29/26/13 12/17/13 11/16/13
f 29/26/13 10/13/13 13/18/13
f 12/17/14 3/2/14 30/27/14
f 30/27/14 1/5/14 15/24/14
f 31/28/15 14/20/15 8/10/15
f 31/28/15 11/16/15 15/24/15
f 7/9/16 5/6/16 32/29/16
f 32/29/16 10/13/16 16/30/16
f 33/31/17 5/6/17 9/14/17
f 16/30/17 8/10/17 33/31/17
f 1/5/18 14/20/18 34/32/18
f 17/33/18 11/16/18 34/32/18
f 29/26/19 13/18/19 3/2/19
f 29/26/19 11/16/19 18/34/19
f 35/35/20 3/2/20 12/17/20
f 35/35/20 18/34/20 10/13/20
f 34/32/21 15/24/21 1/5/21
f 8/10/21 17/33/21 34/32/21
f 36/36/22 16/30/22 10/13/22
f 11/16/22 17/33/22 36/36/22
f 8/10/23 16/30/23 37/37/23
f 37/37/23 18/34/23 11/16/23
f 10/13/24 18/34/24 38/38/24
f 17/33/24 8/10/24 38/38/24
o Shape_IndexedLineSet_Shape_IndexedLineSet.007
v -0.357407 -2.414210 -0.933949
v 0.222064 -0.500000 -0.933949
v -0.357407 -2.414210 -0.933949
v -0.357407 0.414214 -0.933949
v -0.357407 -2.414210 -0.933949
v -0.788835 -0.500000 -0.547095
v -0.357407 -2.414210 -0.933949
v 1.010900 -0.000000 -0.386854
v -0.357407 -2.414210 -0.933949
v -1.010900 0.000000 0.386854
v -0.357407 -2.414210 -0.933949
v 0.579471 -0.914214 -0.000000
v -0.357407 -2.414210 -0.933949
v -0.431428 -0.914214 0.386854
v -0.357407 -2.414210 -0.933949
v 0.357407 -0.414214 0.933949
v 0.222064 -0.500000 -0.933949
v -2.335840 0.707107 -0.933949
v 0.222064 -0.500000 -0.933949
v 1.115580 0.707107 -2.254750
v 0.222064 -0.500000 -0.933949
v 2.335840 -0.707107 0.933949
v -2.335840 0.707107 -0.933949
v -0.357407 0.414214 -0.933949
v -2.335840 0.707107 -0.933949
v -0.788835 -0.500000 -0.547095
v -2.335840 0.707107 -0.933949
v 0.431428 0.914214 -0.386854
v -2.335840 0.707107 -0.933949
v -1.010900 0.000000 0.386854
v -2.335840 0.707107 -0.933949
v -0.579471 0.914214 0.000000
v -2.335840 0.707107 -0.933949
v -0.431428 -0.914214 0.386854
v -2.335840 0.707107 -0.933949
v -0.222064 0.500000 0.933949
v -0.357407 0.414214 -0.933949
v 1.115580 0.707107 -2.254750
v -0.357407 0.414214 -0.933949
v 0.357407 2.414210 0.933949
v 1.115580 0.707107 -2.254750
v -0.788835 -0.500000 -0.547095
v 1.115580 0.707107 -2.254750
v 1.010900 -0.000000 -0.386854
v 1.115580 0.707107 -2.254750
v 0.431428 0.914214 -0.386854
v 1.115580 0.707107 -2.254750
v -0.579471 0.914214 0.000000
v 1.115580 0.707107 -2.254750
v 0.579471 -0.914214 -0.000000
v 1.115580 0.707107 -2.254750
v 0.788835 0.500000 0.547095
v -0.788835 -0.500000 -0.547095
v -1.115580 -0.707107 2.254750
v 1.010900 -0.000000 -0.386854
v 2.335840 -0.707107 0.933949
v 1.010900 -0.000000 -0.386854
v 0.357407 2.414210 0.933949
v 2.335840 -0.707107 0.933949
v 0.431428 0.914214 -0.386854
v 2.335840 -0.707107 0.933949
v 0.579471 -0.914214 -0.000000
v 2.335840 -0.707107 0.933949
v -0.431428 -0.914214 0.386854
v 2.335840 -0.707107 0.933949
v 0.788835 0.500000 0.547095
v 2.335840 -0.707107 0.933949
v 0.357407 -0.414214 0.933949
v 2.335840 -0.707107 0.933949
v -0.222064 0.500000 0.933949
v 0.431428 0.914214 -0.386854
v 0.357407 2.414210 0.933949
v 0.357407 2.414210 0.933949
v -1.010900 0.000000 0.386854
v 0.357407 2.414210 0.933949
v -0.579471 0.914214 0.000000
v 0.357407 2.414210 0.933949
v 0.788835 0.500000 0.547095
v 0.357407 2.414210 0.933949
v 0.357407 -0.414214 0.933949
v 0.357407 2.414210 0.933949
v -0.222064 0.500000 0.933949
v -1.115580 -0.707107 2.254750
v -1.010900 0.000000 0.386854
v -1.115580 -0.707107 2.254750
v -0.579471 0.914214 0.000000
v -1.115580 -0.707107 2.254750
v 0.579471 -0.914214 -0.000000
v -1.115580 -0.707107 2.254750
v -0.431428 -0.914214 0.386854
v -1.115580 -0.707107 2.254750
v 0.788835 0.500000 0.547095
v -1.115580 -0.707107 2.254750
v 0.357407 -0.414214 0.933949
v -1.115580 -0.707107 2.254750
v -0.222064 0.500000 0.933949
l 39 40
l 41 42
l 43 44
l 45 46
l 47 48
l 49 50
l 51 52
l 53 54
l 55 56
l 57 58
l 59 60
l 61 62
l 63 64
l 65 66
l 67 68
l 69 70
l 71 72
l 73 74
l 75 76
l 77 78
l 79 80
l 81 82
l 83 84
l 85 86
l 87 88
l 89 90
l 91 92
l 93 94
l 95 96
l 97 98
l 99 100
l 101 102
l 103 104
l 105 106
l 107 108
l 109 110
l 111 112
l 113 114
l 115 116
l 117 118
l 119 120
l 121 122
l 123 124
l 125 126
l 127 128
l 129 130
l 131 132
l 133 134
