# Blender v2.93.4 OBJ File: ''
# www.blender.org
mtllib compound_of_6_dodecahedra.mtl
o Shape_IndexedFaceSet_Shape_IndexedFaceSet.095
v -0.343789 0.402516 -0.805032
v -0.900052 0.307495 0.153747
v -0.556263 -0.746305 0.248768
v 0.000000 -0.651284 -0.710010
v 0.900052 -0.307495 -0.153747
v 0.343789 -0.402516 0.805032
v -0.000000 0.651284 0.710010
v 0.556263 0.746305 -0.248768
v 0.343790 0.402515 -0.805032
v -0.556263 0.248768 0.746305
v -0.343790 -0.402515 0.805032
v 0.556263 -0.248768 -0.746305
v -0.556263 -0.248769 -0.746305
v -0.900053 -0.307495 -0.153748
v 0.556263 0.248769 0.746305
v 0.900053 0.307495 0.153748
v -0.556263 0.746306 -0.248768
v 0.000001 -0.958779 -0.095021
v 0.556263 -0.746306 0.248768
v -0.000001 0.958779 0.095021
vt 0.500000 0.690983
vt 0.809017 0.809017
vt 0.690983 1.000000
vt 0.809017 0.809017
vt 0.500000 0.690983
vt 0.190983 0.809017
vt 0.809017 0.190983
vt 1.000000 0.500000
vt 0.809017 0.190983
vt 1.000000 0.500000
vt 0.500000 0.309017
vt 0.190983 0.809017
vt 0.000000 0.500000
vt 0.190983 0.190983
vt 0.000000 0.500000
vt 0.190983 0.190983
vt 0.309017 0.000000
vt 0.500000 0.309017
vt 0.309017 1.000000
vt 0.690983 0.000000
vn 0.0000 0.8507 -0.5257
vn -0.5257 0.7608 0.3804
vn 0.0000 -0.0898 -0.9960
vn -0.8507 0.2351 -0.4702
vn -0.5257 -0.7608 -0.3804
vn -0.8507 -0.2351 0.4702
vn 0.8507 0.2351 -0.4702
vn 0.5257 0.7608 0.3804
vn 0.8507 -0.2351 0.4702
vn 0.0000 0.0898 0.9960
vn 0.5257 -0.7608 -0.3804
vn -0.0000 -0.8507 0.5257
usemtl None
s off
f 9/1/1 1/2/1 17/3/1
f 2/4/2 10/5/2 7/6/2
f 4/7/3 13/8/3 1/2/3
f 17/3/4 1/2/4 13/8/4
f 4/7/5 3/9/5 14/10/5
f 14/10/6 3/9/6 11/11/6
f 8/12/7 16/13/7 5/14/7
f 8/12/8 7/6/8 15/15/8
f 6/16/9 19/17/9 5/14/9
f 15/15/10 7/6/10 10/5/10
f 12/18/11 5/14/11 19/17/11
f 6/16/12 11/11/12 3/9/12
f 20/19/1 8/12/1 17/3/1
f 8/12/1 9/1/1 17/3/1
f 7/6/2 20/19/2 17/3/2
f 17/3/2 2/4/2 7/6/2
f 1/2/3 9/1/3 12/18/3
f 12/18/3 4/7/3 1/2/3
f 14/10/4 2/4/4 13/8/4
f 2/4/4 17/3/4 13/8/4
f 14/10/5 13/8/5 4/7/5
f 4/7/5 18/20/5 3/9/5
f 10/5/6 2/4/6 11/11/6
f 2/4/6 14/10/6 11/11/6
f 5/14/7 12/18/7 9/1/7
f 9/1/7 8/12/7 5/14/7
f 15/15/8 16/13/8 8/12/8
f 8/12/8 20/19/8 7/6/8
f 5/14/9 16/13/9 15/15/9
f 15/15/9 6/16/9 5/14/9
f 11/11/10 6/16/10 10/5/10
f 6/16/10 15/15/10 10/5/10
f 18/20/11 4/7/11 19/17/11
f 4/7/11 12/18/11 19/17/11
f 3/9/12 18/20/12 19/17/12
f 19/17/12 6/16/12 3/9/12
o Shape_IndexedFaceSet.001_Shape_IndexedFaceSet.096
v -0.900053 0.307494 -0.153747
v -0.343789 0.402516 0.805031
v 0.000000 -0.651284 0.710010
v -0.556263 -0.746305 -0.248768
v 0.343789 -0.402516 -0.805031
v 0.900053 -0.307494 0.153747
v 0.556263 0.746305 0.248768
v -0.000000 0.651284 -0.710010
v -0.556263 0.248768 -0.746305
v 0.343790 0.402515 0.805032
v 0.556263 -0.248768 0.746305
v -0.343790 -0.402515 -0.805032
v -0.900053 -0.307495 0.153748
v -0.556264 -0.248769 0.746305
v 0.900053 0.307495 -0.153748
v 0.556264 0.248769 -0.746305
v -0.556263 0.746306 0.248768
v 0.000001 -0.958779 0.095021
v 0.556263 -0.746306 -0.248768
v -0.000001 0.958779 -0.095021
vt 0.190983 0.809017
vt 0.500000 0.690983
vt 0.809017 0.809017
vt 0.690983 1.000000
vt 0.309017 1.000000
vt 0.809017 0.809017
vt 0.500000 0.690983
vt 0.190983 0.809017
vt 0.500000 0.309017
vt 0.809017 0.190983
vt 1.000000 0.500000
vt 1.000000 0.500000
vt 0.690983 0.000000
vt 0.809017 0.190983
vt 0.500000 0.309017
vt 0.000000 0.500000
vt 0.190983 0.190983
vt 0.000000 0.500000
vt 0.190983 0.190983
vt 0.309017 0.000000
vn -0.5257 0.7608 -0.3804
vn 0.0000 0.8507 0.5257
vn -0.8507 -0.2351 -0.4702
vn -0.8507 0.2351 0.4702
vn -0.5257 -0.7608 0.3804
vn -0.0000 -0.0898 0.9960
vn 0.0000 0.0898 -0.9960
vn 0.5257 0.7608 -0.3804
vn 0.8507 -0.2351 -0.4702
vn 0.8507 0.2351 0.4702
vn -0.0000 -0.8507 -0.5257
vn 0.5257 -0.7608 0.3804
usemtl None
s off
f 28/21/13 29/22/13 21/23/13 37/24/13 40/25/13
f 40/25/14 37/24/14 22/26/14 30/27/14 27/28/14
f 29/22/15 32/29/15 24/30/15 33/31/15 21/23/15
f 22/26/16 37/24/16 21/23/16 33/31/16 34/32/16
f 33/31/17 24/30/17 38/33/17 23/34/17 34/32/17
f 22/26/18 34/32/18 23/34/18 31/35/18 30/27/18
f 32/29/19 29/22/19 28/21/19 36/36/19 25/37/19
f 36/36/20 28/21/20 40/25/20 27/28/20 35/38/20
f 36/36/21 35/38/21 26/39/21 39/40/21 25/37/21
f 26/39/22 35/38/22 27/28/22 30/27/22 31/35/22
f 24/30/23 32/29/23 25/37/23 39/40/23 38/33/23
f 38/33/24 39/40/24 26/39/24 31/35/24 23/34/24
o Shape_IndexedFaceSet.002_Shape_IndexedFaceSet.097
v -0.248768 0.556263 -0.746305
v -0.153747 0.900053 0.307494
v -0.710010 0.000001 0.651284
v -0.805032 -0.343789 -0.402516
v 0.153747 -0.900053 -0.307494
v 0.248768 -0.556263 0.746305
v 0.805032 0.343789 0.402516
v 0.710010 -0.000001 -0.651284
v 0.095021 -0.000001 -0.958779
v 0.248768 0.556263 0.746306
v -0.095021 0.000001 0.958779
v -0.248768 -0.556263 -0.746306
v -0.805032 0.343790 -0.402515
v -0.746305 0.556264 0.248768
v 0.805032 -0.343790 0.402515
v 0.746305 -0.556264 -0.248768
v 0.153748 0.900052 -0.307495
v -0.746305 -0.556263 0.248769
v -0.153748 -0.900052 0.307495
v 0.746305 0.556263 -0.248769
vt 0.190983 0.809017
vt 0.500000 0.690983
vt 0.809017 0.809017
vt 0.690983 1.000000
vt 0.309017 1.000000
vt 0.809017 0.809017
vt 0.500000 0.690983
vt 0.190983 0.809017
vt 0.500000 0.309017
vt 0.809017 0.190983
vt 1.000000 0.500000
vt 1.000000 0.500000
vt 0.690983 0.000000
vt 0.809017 0.190983
vt 0.500000 0.309017
vt 0.000000 0.500000
vt 0.190983 0.190983
vt 0.000000 0.500000
vt 0.190983 0.190983
vt 0.309017 0.000000
vn 0.3804 0.5257 -0.7608
vn 0.4702 0.8507 0.2351
vn -0.5257 0.0000 -0.8507
vn -0.4702 0.8507 -0.2351
vn -0.9960 0.0000 0.0898
vn -0.3804 0.5257 0.7608
vn 0.3804 -0.5257 -0.7608
vn 0.9960 0.0000 -0.0898
vn 0.4702 -0.8507 0.2351
vn 0.5257 -0.0000 0.8507
vn -0.4702 -0.8507 -0.2351
vn -0.3804 -0.5257 0.7608
usemtl None
s off
f 48/41/25 49/42/25 41/43/25 57/44/25 60/45/25
f 60/45/26 57/44/26 42/46/26 50/47/26 47/48/26
f 49/42/27 52/49/27 44/50/27 53/51/27 41/43/27
f 42/46/28 57/44/28 41/43/28 53/51/28 54/52/28
f 53/51/29 44/50/29 58/53/29 43/54/29 54/52/29
f 42/46/30 54/52/30 43/54/30 51/55/30 50/47/30
f 52/49/31 49/42/31 48/41/31 56/56/31 45/57/31
f 56/56/32 48/41/32 60/45/32 47/48/32 55/58/32
f 56/56/33 55/58/33 46/59/33 59/60/33 45/57/33
f 46/59/34 55/58/34 47/48/34 50/47/34 51/55/34
f 44/50/35 52/49/35 45/57/35 59/60/35 58/53/35
f 58/53/36 59/60/36 46/59/36 51/55/36 43/54/36
o Shape_IndexedFaceSet.003_Shape_IndexedFaceSet.098
v -0.746305 0.248768 -0.556263
v -0.402516 0.805031 0.343789
v -0.307495 -0.153747 0.900052
v -0.651284 -0.710010 0.000001
v 0.402516 -0.805031 -0.343789
v 0.746305 -0.248768 0.556263
v 0.651284 0.710010 -0.000001
v 0.307495 0.153747 -0.900052
v -0.307495 -0.153749 -0.900052
v 0.248768 0.746305 0.556263
v 0.307495 0.153749 0.900052
v -0.248768 -0.746305 -0.556263
v -0.958779 -0.095021 0.000001
v -0.746306 0.248768 0.556263
v 0.958779 0.095021 -0.000001
v 0.746306 -0.248768 -0.556263
v -0.402515 0.805031 -0.343790
v -0.248768 -0.746305 0.556264
v 0.402515 -0.805031 0.343790
v 0.248768 0.746305 -0.556264
vt 0.190983 0.809017
vt 0.500000 0.690983
vt 0.809017 0.809017
vt 0.690983 1.000000
vt 0.309017 1.000000
vt 0.809017 0.809017
vt 0.500000 0.690983
vt 0.190983 0.809017
vt 0.500000 0.309017
vt 0.809017 0.190983
vt 1.000000 0.500000
vt 1.000000 0.500000
vt 0.690983 0.000000
vt 0.809017 0.190983
vt 0.500000 0.309017
vt 0.000000 0.500000
vt 0.190983 0.190983
vt 0.000000 0.500000
vt 0.190983 0.190983
vt 0.309017 0.000000
vn -0.2351 0.4702 -0.8507
vn 0.0898 0.9960 0.0000
vn -0.7608 -0.3804 -0.5257
vn -0.8507 0.5257 -0.0000
vn -0.7608 -0.3804 0.5257
vn -0.2351 0.4702 0.8507
vn 0.2351 -0.4702 -0.8507
vn 0.7608 0.3804 -0.5257
vn 0.8507 -0.5257 0.0000
vn 0.7608 0.3804 0.5257
vn -0.0898 -0.9960 0.0000
vn 0.2351 -0.4702 0.8507
usemtl None
s off
f 68/61/37 69/62/37 61/63/37 77/64/37 80/65/37
f 80/65/38 77/64/38 62/66/38 70/67/38 67/68/38
f 69/62/39 72/69/39 64/70/39 73/71/39 61/63/39
f 62/66/40 77/64/40 61/63/40 73/71/40 74/72/40
f 73/71/41 64/70/41 78/73/41 63/74/41 74/72/41
f 62/66/42 74/72/42 63/74/42 71/75/42 70/67/42
f 72/69/43 69/62/43 68/61/43 76/76/43 65/77/43
f 76/76/44 68/61/44 80/65/44 67/68/44 75/78/44
f 76/76/45 75/78/45 66/79/45 79/80/45 65/77/45
f 66/79/46 75/78/46 67/68/46 70/67/46 71/75/46
f 64/70/47 72/69/47 65/77/47 79/80/47 78/73/47
f 78/73/48 79/80/48 66/79/48 71/75/48 63/74/48
o Shape_IndexedFaceSet.004_Shape_IndexedFaceSet.099
v -0.307495 0.153747 -0.900052
v -0.651284 0.710010 -0.000001
v -0.746305 -0.248768 0.556263
v -0.402516 -0.805031 -0.343789
v 0.651284 -0.710010 0.000001
v 0.307495 -0.153747 0.900052
v 0.402516 0.805031 0.343789
v 0.746305 0.248768 -0.556263
v 0.307495 -0.153749 -0.900052
v -0.248768 0.746305 0.556263
v -0.307495 0.153749 0.900052
v 0.248768 -0.746305 -0.556263
v -0.746306 -0.248768 -0.556263
v -0.958779 0.095021 -0.000001
v 0.746306 0.248768 0.556263
v 0.958779 -0.095021 0.000001
v -0.248768 0.746305 -0.556264
v -0.402515 -0.805031 0.343790
v 0.248768 -0.746305 0.556264
v 0.402515 0.805031 -0.343790
vt 0.190983 0.809017
vt 0.500000 0.690983
vt 0.809017 0.809017
vt 0.690983 1.000000
vt 0.309017 1.000000
vt 0.809017 0.809017
vt 0.500000 0.690983
vt 0.190983 0.809017
vt 0.500000 0.309017
vt 0.809017 0.190983
vt 1.000000 0.500000
vt 1.000000 0.500000
vt 0.690983 0.000000
vt 0.809017 0.190983
vt 0.500000 0.309017
vt 0.000000 0.500000
vt 0.190983 0.190983
vt 0.000000 0.500000
vt 0.190983 0.190983
vt 0.309017 0.000000
vn 0.2351 0.4702 -0.8507
vn -0.0898 0.9960 0.0000
vn -0.2351 -0.4702 -0.8507
vn -0.7608 0.3804 -0.5257
vn -0.8507 -0.5257 0.0000
vn -0.7608 0.3804 0.5257
vn 0.7608 -0.3804 -0.5257
vn 0.8507 0.5257 -0.0000
vn 0.7608 -0.3804 0.5257
vn 0.2351 0.4702 0.8507
vn 0.0898 -0.9960 0.0000
vn -0.2351 -0.4702 0.8507
usemtl None
s off
f 88/81/49 89/82/49 81/83/49 97/84/49 100/85/49
f 100/85/50 97/84/50 82/86/50 90/87/50 87/88/50
f 89/82/51 92/89/51 84/90/51 93/91/51 81/83/51
f 82/86/52 97/84/52 81/83/52 93/91/52 94/92/52
f 93/91/53 84/90/53 98/93/53 83/94/53 94/92/53
f 82/86/54 94/92/54 83/94/54 91/95/54 90/87/54
f 92/89/55 89/82/55 88/81/55 96/96/55 85/97/55
f 96/96/56 88/81/56 100/85/56 87/88/56 95/98/56
f 96/96/57 95/98/57 86/99/57 99/100/57 85/97/57
f 86/99/58 95/98/58 87/88/58 90/87/58 91/95/58
f 84/90/59 92/89/59 85/97/59 99/100/59 98/93/59
f 98/93/60 99/100/60 86/99/60 91/95/60 83/94/60
o Shape_IndexedFaceSet.005_Shape_IndexedFaceSet.100
v -0.710010 -0.000001 -0.651284
v -0.805032 0.343789 0.402516
v -0.248768 -0.556263 0.746305
v -0.153747 -0.900053 -0.307494
v 0.805032 -0.343789 -0.402516
v 0.710010 0.000001 0.651284
v 0.153747 0.900053 0.307494
v 0.248768 0.556263 -0.746305
v -0.095021 -0.000001 -0.958779
v -0.248768 0.556263 0.746306
v 0.095021 0.000001 0.958779
v 0.248768 -0.556263 -0.746306
v -0.746305 -0.556264 -0.248768
v -0.805032 -0.343790 0.402515
v 0.746305 0.556264 0.248768
v 0.805032 0.343790 -0.402515
v -0.746305 0.556263 -0.248769
v 0.153748 -0.900052 0.307495
v 0.746305 -0.556263 0.248769
v -0.153748 0.900052 -0.307495
vt 0.190983 0.809017
vt 0.500000 0.690983
vt 0.809017 0.809017
vt 0.690983 1.000000
vt 0.309017 1.000000
vt 0.809017 0.809017
vt 0.500000 0.690983
vt 0.190983 0.809017
vt 0.500000 0.309017
vt 0.809017 0.190983
vt 1.000000 0.500000
vt 1.000000 0.500000
vt 0.690983 0.000000
vt 0.809017 0.190983
vt 0.500000 0.309017
vt 0.000000 0.500000
vt 0.190983 0.190983
vt 0.000000 0.500000
vt 0.190983 0.190983
vt 0.309017 0.000000
vn -0.3804 0.5257 -0.7608
vn -0.4702 0.8507 0.2351
vn -0.3804 -0.5257 -0.7608
vn -0.9960 0.0000 -0.0898
vn -0.4702 -0.8507 0.2351
vn -0.5257 -0.0000 0.8507
vn 0.5257 0.0000 -0.8507
vn 0.4702 0.8507 -0.2351
vn 0.9960 0.0000 0.0898
vn 0.3804 0.5257 0.7608
vn 0.4702 -0.8507 -0.2351
vn 0.3804 -0.5257 0.7608
usemtl None
s off
f 108/101/61 109/102/61 101/103/61 117/104/61 120/105/61
f 120/105/62 117/104/62 102/106/62 110/107/62 107/108/62
f 109/102/63 112/109/63 104/110/63 113/111/63 101/103/63
f 102/106/64 117/104/64 101/103/64 113/111/64 114/112/64
f 113/111/65 104/110/65 118/113/65 103/114/65 114/112/65
f 102/106/66 114/112/66 103/114/66 111/115/66 110/107/66
f 112/109/67 109/102/67 108/101/67 116/116/67 105/117/67
f 116/116/68 108/101/68 120/105/68 107/108/68 115/118/68
f 116/116/69 115/118/69 106/119/69 119/120/69 105/117/69
f 106/119/70 115/118/70 107/108/70 110/107/70 111/115/70
f 104/110/71 112/109/71 105/117/71 119/120/71 118/113/71
f 118/113/72 119/120/72 106/119/72 111/115/72 103/114/72
