# Blender v2.93.4 OBJ File: ''
# www.blender.org
mtllib compound_of_tetrahedron_and_dual.mtl
o Shape_IndexedFaceSet_Shape_IndexedFaceSet.134
v -0.000000 -0.000000 -1.732050
v -1.632990 0.000000 0.577350
v 0.816497 1.414210 0.577350
v 0.816497 -1.414210 0.577350
vt 0.500000 0.333334
vt 0.500000 1.000000
vt 1.000000 0.000000
vt 0.000000 0.000000
vn -0.4714 0.8165 -0.3333
vn 0.9428 -0.0000 -0.3333
vn -0.4714 -0.8165 -0.3333
vn 0.0000 0.0000 1.0000
usemtl None
s off
f 1/1/1 2/2/1 3/3/1
f 1/1/2 3/3/2 4/4/2
f 1/1/3 4/4/3 2/2/3
f 2/2/4 4/4/4 3/3/4
o Shape_IndexedLineSet_Shape_IndexedLineSet.109
v -0.000000 -0.000000 -1.732050
v -1.632990 0.000000 0.577350
v -0.000000 -0.000000 -1.732050
v 0.816497 1.414210 0.577350
v -0.000000 -0.000000 -1.732050
v 0.816497 -1.414210 0.577350
v -1.632990 0.000000 0.577350
v 0.816497 1.414210 0.577350
v -1.632990 0.000000 0.577350
v 0.816497 -1.414210 0.577350
v 0.816497 1.414210 0.577350
v 0.816497 -1.414210 0.577350
l 5 6
l 7 8
l 9 10
l 11 12
l 13 14
l 15 16
o Shape_IndexedFaceSet.001_Shape_IndexedFaceSet.135
v -0.816497 1.414210 -0.577350
v 1.632990 -0.000000 -0.577350
v -0.816497 -1.414210 -0.577350
v 0.000000 0.000000 1.732050
vt 0.000000 1.000000
vt 1.000000 1.000000
vt 0.500000 0.000000
vt 0.500000 0.666666
vn -0.0000 -0.0000 -1.0000
vn -0.9428 0.0000 0.3333
vn 0.4714 0.8165 0.3333
vn 0.4714 -0.8165 0.3333
usemtl None
s off
f 19/5/5 17/6/5 18/7/5
f 19/5/6 20/8/6 17/6/6
f 17/6/7 20/8/7 18/7/7
f 18/7/8 20/8/8 19/5/8
o Shape_IndexedLineSet.001_Shape_IndexedLineSet.110
v -0.816497 1.414210 -0.577350
v 1.632990 -0.000000 -0.577350
v -0.816497 1.414210 -0.577350
v -0.816497 -1.414210 -0.577350
v -0.816497 1.414210 -0.577350
v 0.000000 0.000000 1.732050
v 1.632990 -0.000000 -0.577350
v -0.816497 -1.414210 -0.577350
v 1.632990 -0.000000 -0.577350
v 0.000000 0.000000 1.732050
v -0.816497 -1.414210 -0.577350
v 0.000000 0.000000 1.732050
l 21 22
l 23 24
l 25 26
l 27 28
l 29 30
l 31 32
