# Blender v2.93.4 OBJ File: ''
# www.blender.org
mtllib compound_of_two_great_stellated_dodecahedra.mtl
o Shape_IndexedFaceSet_Shape_IndexedFaceSet.142
v -0.000000 -0.000000 -2.802520
v -1.868340 0.000000 2.088870
v 0.934172 1.618030 2.088870
v 0.934172 -1.618030 2.088870
v 2.088870 1.618030 -0.934172
v 2.088870 -1.618030 -0.934172
v 0.356822 -2.618030 -0.934172
v -2.445690 -1.000000 -0.934172
v -2.445690 1.000000 -0.934172
v 0.356822 2.618030 -0.934172
v -0.356822 -2.618030 0.934172
v -0.356822 2.618030 0.934172
v -2.088870 1.618030 0.934172
v 2.445690 -1.000000 0.934172
v 2.445690 1.000000 0.934172
v -2.088870 -1.618030 0.934172
v -0.934172 1.618030 -2.088870
v -0.934172 -1.618030 -2.088870
v 1.868340 -0.000000 -2.088870
v 0.000000 0.000000 2.802520
v -0.258199 0.447214 -0.098623
v 0.516398 -0.000000 -0.098623
v -0.258199 -0.447214 -0.098623
v 0.319151 0.000000 0.417775
v -0.159576 -0.276393 0.417775
v -0.159576 0.276393 0.417775
v 0.159576 -0.276393 -0.417775
v 0.159576 0.276393 -0.417775
v -0.319151 -0.000000 -0.417775
v -0.516398 0.000000 0.098623
v 0.258199 0.447214 0.098623
v 0.258199 -0.447214 0.098623
vt 0.517595 0.585410
vt 1.000000 0.500000
vt 0.127323 0.500000
vt 0.666666 0.809017
vt 0.666666 0.309017
vt 0.127323 0.809017
vt 0.517595 0.500000
vt 0.666666 0.000000
vt 0.666666 1.000000
vt 0.127323 0.190983
vt 0.517595 0.414590
vt 0.666666 0.690983
vt 0.666666 0.190983
vt 0.425464 0.500000
vt 0.333334 1.000000
vt 0.333334 0.000000
vt 0.425464 0.447214
vt 0.333334 0.309017
vt 0.333334 0.809017
vt 0.425464 0.552786
vt 0.333334 0.190983
vt 0.333334 0.690983
vt 0.574536 0.447214
vt 0.872677 0.809017
vt 0.574536 0.552786
vt 0.872677 0.190983
vt 0.574536 0.500000
vt 0.872677 0.500000
vt 0.482405 0.500000
vt 0.000000 0.500000
vt 0.482405 0.585410
vt 0.482405 0.414590
vn -0.4911 0.8507 -0.1876
vn 0.9822 -0.0000 -0.1876
vn -0.4911 -0.8507 -0.1876
vn 0.6071 -0.0000 0.7947
vn -0.3035 -0.5257 0.7947
vn -0.3035 0.5257 0.7947
vn 0.3035 -0.5257 -0.7947
vn 0.3035 0.5257 -0.7947
vn -0.6071 -0.0000 -0.7947
vn -0.9822 0.0000 0.1876
vn 0.4911 0.8507 0.1876
vn 0.4911 -0.8507 0.1876
usemtl None
s off
f 21/1/1 1/2/1 2/3/1
f 21/1/1 2/3/1 5/4/1
f 21/1/1 5/4/1 8/5/1
f 21/1/1 8/5/1 3/6/1
f 21/1/1 3/6/1 1/2/1
f 22/7/2 1/2/2 3/6/2
f 22/7/2 3/6/2 7/8/2
f 22/7/2 7/8/2 10/9/2
f 22/7/2 10/9/2 4/10/2
f 22/7/2 4/10/2 1/2/2
f 23/11/3 1/2/3 4/10/3
f 23/11/3 4/10/3 9/12/3
f 23/11/3 9/12/3 6/13/3
f 23/11/3 6/13/3 2/3/3
f 23/11/3 2/3/3 1/2/3
f 24/14/4 2/3/4 6/13/4
f 24/14/4 6/13/4 12/15/4
f 24/14/4 12/15/4 11/16/4
f 24/14/4 11/16/4 5/4/4
f 24/14/4 5/4/4 2/3/4
f 25/17/5 3/6/5 8/5/5
f 25/17/5 8/5/5 14/18/5
f 25/17/5 14/18/5 13/19/5
f 25/17/5 13/19/5 7/8/5
f 25/17/5 7/8/5 3/6/5
f 26/20/6 4/10/6 10/9/6
f 26/20/6 10/9/6 16/21/6
f 26/20/6 16/21/6 15/22/6
f 26/20/6 15/22/6 9/12/6
f 26/20/6 9/12/6 4/10/6
f 27/23/7 5/4/7 11/16/7
f 27/23/7 11/16/7 17/24/7
f 27/23/7 17/24/7 14/18/7
f 27/23/7 14/18/7 8/5/7
f 27/23/7 8/5/7 5/4/7
f 28/25/8 6/13/8 9/12/8
f 28/25/8 9/12/8 15/22/8
f 28/25/8 15/22/8 18/26/8
f 28/25/8 18/26/8 12/15/8
f 28/25/8 12/15/8 6/13/8
f 29/27/9 7/8/9 13/19/9
f 29/27/9 13/19/9 19/28/9
f 29/27/9 19/28/9 16/21/9
f 29/27/9 16/21/9 10/9/9
f 29/27/9 10/9/9 7/8/9
f 30/29/10 11/16/10 12/15/10
f 30/29/10 12/15/10 18/26/10
f 30/29/10 18/26/10 20/30/10
f 30/29/10 20/30/10 17/24/10
f 30/29/10 17/24/10 11/16/10
f 31/31/11 13/19/11 14/18/11
f 31/31/11 14/18/11 17/24/11
f 31/31/11 17/24/11 20/30/11
f 31/31/11 20/30/11 19/28/11
f 31/31/11 19/28/11 13/19/11
f 32/32/12 15/22/12 16/21/12
f 32/32/12 16/21/12 19/28/12
f 32/32/12 19/28/12 20/30/12
f 32/32/12 20/30/12 18/26/12
f 32/32/12 18/26/12 15/22/12
o Shape_IndexedFaceSet.001_Shape_IndexedFaceSet.143
v -2.802520 -0.000000 0.000010
v 2.088877 -0.000000 1.868333
v 2.088867 1.618030 -0.934179
v 2.088867 -1.618030 -0.934179
v -0.934179 1.618030 -2.088867
v -0.934179 -1.618030 -2.088867
v -0.934173 -2.618030 -0.356819
v -0.934163 -1.000000 2.445693
v -0.934163 1.000000 2.445693
v -0.934173 2.618030 -0.356819
v 0.934173 -2.618030 0.356819
v 0.934173 2.618030 0.356819
v 0.934179 1.618030 2.088867
v 0.934163 -1.000000 -2.445693
v 0.934163 1.000000 -2.445693
v 0.934179 -1.618030 2.088867
v -2.088867 1.618030 0.934179
v -2.088867 -1.618030 0.934179
v -2.088877 0.000000 -1.868333
v 2.802520 0.000000 -0.000010
v -0.098622 0.447214 0.258199
v -0.098625 0.000000 -0.516398
v -0.098622 -0.447214 0.258199
v 0.417774 0.000000 -0.319153
v 0.417776 -0.276393 0.159575
v 0.417776 0.276393 0.159575
v -0.417776 -0.276393 -0.159575
v -0.417776 0.276393 -0.159575
v -0.417774 -0.000000 0.319153
v 0.098625 -0.000000 0.516398
v 0.098622 0.447214 -0.258199
v 0.098622 -0.447214 -0.258199
vt 0.517595 0.585410
vt 1.000000 0.500000
vt 0.127323 0.500000
vt 0.666666 0.809017
vt 0.666666 0.309017
vt 0.127323 0.809017
vt 0.517595 0.500000
vt 0.666666 0.000000
vt 0.666666 1.000000
vt 0.127323 0.190983
vt 0.517595 0.414590
vt 0.666666 0.690983
vt 0.666666 0.190983
vt 0.425464 0.500000
vt 0.333334 1.000000
vt 0.333334 0.000000
vt 0.425464 0.447214
vt 0.333334 0.309017
vt 0.333334 0.809017
vt 0.425464 0.552786
vt 0.333334 0.190983
vt 0.333334 0.690983
vt 0.574536 0.447214
vt 0.872677 0.809017
vt 0.574536 0.552786
vt 0.872677 0.190983
vt 0.574536 0.500000
vt 0.872677 0.500000
vt 0.482405 0.500000
vt 0.000000 0.500000
vt 0.482405 0.585410
vt 0.482405 0.414590
vn -0.1876 0.8507 0.4911
vn -0.1876 -0.0000 -0.9822
vn -0.1876 -0.8507 0.4911
vn 0.7947 -0.0000 -0.6071
vn 0.7947 -0.5257 0.3035
vn 0.7947 0.5257 0.3035
vn -0.7947 -0.5257 -0.3035
vn -0.7947 0.5257 -0.3035
vn -0.7947 -0.0000 0.6071
vn 0.1876 -0.0000 0.9822
vn 0.1876 0.8507 -0.4911
vn 0.1876 -0.8507 -0.4911
usemtl None
s off
f 53/33/13 33/34/13 34/35/13
f 53/33/13 34/35/13 37/36/13
f 53/33/13 37/36/13 40/37/13
f 53/33/13 40/37/13 35/38/13
f 53/33/13 35/38/13 33/34/13
f 54/39/14 33/34/14 35/38/14
f 54/39/14 35/38/14 39/40/14
f 54/39/14 39/40/14 42/41/14
f 54/39/14 42/41/14 36/42/14
f 54/39/14 36/42/14 33/34/14
f 55/43/15 33/34/15 36/42/15
f 55/43/15 36/42/15 41/44/15
f 55/43/15 41/44/15 38/45/15
f 55/43/15 38/45/15 34/35/15
f 55/43/15 34/35/15 33/34/15
f 56/46/16 34/35/16 38/45/16
f 56/46/16 38/45/16 44/47/16
f 56/46/16 44/47/16 43/48/16
f 56/46/16 43/48/16 37/36/16
f 56/46/16 37/36/16 34/35/16
f 57/49/17 35/38/17 40/37/17
f 57/49/17 40/37/17 46/50/17
f 57/49/17 46/50/17 45/51/17
f 57/49/17 45/51/17 39/40/17
f 57/49/17 39/40/17 35/38/17
f 58/52/18 36/42/18 42/41/18
f 58/52/18 42/41/18 48/53/18
f 58/52/18 48/53/18 47/54/18
f 58/52/18 47/54/18 41/44/18
f 58/52/18 41/44/18 36/42/18
f 59/55/19 37/36/19 43/48/19
f 59/55/19 43/48/19 49/56/19
f 59/55/19 49/56/19 46/50/19
f 59/55/19 46/50/19 40/37/19
f 59/55/19 40/37/19 37/36/19
f 60/57/20 38/45/20 41/44/20
f 60/57/20 41/44/20 47/54/20
f 60/57/20 47/54/20 50/58/20
f 60/57/20 50/58/20 44/47/20
f 60/57/20 44/47/20 38/45/20
f 61/59/21 39/40/21 45/51/21
f 61/59/21 45/51/21 51/60/21
f 61/59/21 51/60/21 48/53/21
f 61/59/21 48/53/21 42/41/21
f 61/59/21 42/41/21 39/40/21
f 62/61/22 43/48/22 44/47/22
f 62/61/22 44/47/22 50/58/22
f 62/61/22 50/58/22 52/62/22
f 62/61/22 52/62/22 49/56/22
f 62/61/22 49/56/22 43/48/22
f 63/63/23 45/51/23 46/50/23
f 63/63/23 46/50/23 49/56/23
f 63/63/23 49/56/23 52/62/23
f 63/63/23 52/62/23 51/60/23
f 63/63/23 51/60/23 45/51/23
f 64/64/24 47/54/24 48/53/24
f 64/64/24 48/53/24 51/60/24
f 64/64/24 51/60/24 52/62/24
f 64/64/24 52/62/24 50/58/24
f 64/64/24 50/58/24 47/54/24
