# Blender v2.93.4 OBJ File: ''
# www.blender.org
mtllib compound_of_5_great_dodecahedra.mtl
o Shape_IndexedFaceSet_Shape_IndexedFaceSet.058
v -0.525734 -0.618035 -0.850648
v -0.525730 0.618031 -0.850651
v 0.525728 -1.000003 -0.324917
v -1.175570 0.000003 0.000001
v 0.525730 -0.000004 -1.051463
v -0.525733 -0.999998 0.324923
v 0.525733 0.999998 -0.324923
v -0.525728 1.000003 0.324917
v 0.525730 -0.618031 0.850651
v 1.175570 -0.000003 -0.000001
v -0.525730 0.000004 1.051463
v 0.525734 0.618035 0.850648
vt 1.000000 0.500000
vt 0.723607 1.000000
vt 0.276393 0.904509
vt 0.276393 0.345491
vt 0.723607 0.095491
vt 0.276393 0.000000
vt 0.276393 0.345491
vt 0.723607 0.654509
vt 0.276393 0.904509
vt 0.723607 0.654509
vt 0.723607 0.095491
vt 0.000000 0.500000
vn 0.4472 -0.0000 -0.8944
vn -0.4472 -0.8506 0.2764
vn -0.4472 0.5257 -0.7236
vn 0.4472 -0.8507 -0.2764
vn -1.0000 0.0000 0.0000
vn 0.4472 0.8506 -0.2764
vn -0.4472 -0.5257 -0.7236
vn -0.4472 0.8507 0.2764
vn 0.4472 -0.5257 0.7236
vn 1.0000 -0.0000 -0.0000
vn -0.4472 0.0000 0.8944
vn 0.4472 0.5257 0.7236
usemtl None
s off
f 1/1/1 2/2/1 7/3/1 10/4/1 3/5/1
f 1/1/2 3/5/2 9/6/2 11/7/2 4/8/2
f 1/1/3 4/8/3 8/9/3 7/3/3 5/10/3
f 1/1/4 5/10/4 10/4/4 9/6/4 6/11/4
f 1/1/5 6/11/5 11/7/5 8/9/5 2/2/5
f 2/2/6 8/9/6 12/12/6 10/4/6 5/10/6
f 2/2/7 5/10/7 3/5/7 6/11/7 4/8/7
f 2/2/8 4/8/8 11/7/8 12/12/8 7/3/8
f 3/5/9 10/4/9 12/12/9 11/7/9 6/11/9
f 3/5/10 5/10/10 7/3/10 12/12/10 9/6/10
f 4/8/11 6/11/11 9/6/11 12/12/11 8/9/11
f 7/3/12 8/9/12 11/7/12 9/6/12 10/4/12
o Shape_IndexedLineSet_Shape_IndexedLineSet.033
v -0.525734 -0.618035 -0.850648
v -0.525730 0.618031 -0.850651
v -0.525734 -0.618035 -0.850648
v 0.525728 -1.000003 -0.324917
v -0.525734 -0.618035 -0.850648
v -1.175570 0.000003 0.000001
v -0.525734 -0.618035 -0.850648
v 0.525730 -0.000004 -1.051463
v -0.525734 -0.618035 -0.850648
v -0.525733 -0.999998 0.324923
v -0.525730 0.618031 -0.850651
v -1.175570 0.000003 0.000001
v -0.525730 0.618031 -0.850651
v 0.525730 -0.000004 -1.051463
v -0.525730 0.618031 -0.850651
v 0.525733 0.999998 -0.324923
v -0.525730 0.618031 -0.850651
v -0.525728 1.000003 0.324917
v 0.525728 -1.000003 -0.324917
v 0.525730 -0.000004 -1.051463
v 0.525728 -1.000003 -0.324917
v -0.525733 -0.999998 0.324923
v 0.525728 -1.000003 -0.324917
v 0.525730 -0.618031 0.850651
v 0.525728 -1.000003 -0.324917
v 1.175570 -0.000003 -0.000001
v -1.175570 0.000003 0.000001
v -0.525733 -0.999998 0.324923
v -1.175570 0.000003 0.000001
v -0.525728 1.000003 0.324917
v -1.175570 0.000003 0.000001
v -0.525730 0.000004 1.051463
v 0.525730 -0.000004 -1.051463
v 0.525733 0.999998 -0.324923
v 0.525730 -0.000004 -1.051463
v 1.175570 -0.000003 -0.000001
v -0.525733 -0.999998 0.324923
v 0.525730 -0.618031 0.850651
v -0.525733 -0.999998 0.324923
v -0.525730 0.000004 1.051463
v 0.525733 0.999998 -0.324923
v -0.525728 1.000003 0.324917
v 0.525733 0.999998 -0.324923
v 1.175570 -0.000003 -0.000001
v 0.525733 0.999998 -0.324923
v 0.525734 0.618035 0.850648
v -0.525728 1.000003 0.324917
v -0.525730 0.000004 1.051463
v -0.525728 1.000003 0.324917
v 0.525734 0.618035 0.850648
v 0.525730 -0.618031 0.850651
v 1.175570 -0.000003 -0.000001
v 0.525730 -0.618031 0.850651
v -0.525730 0.000004 1.051463
v 0.525730 -0.618031 0.850651
v 0.525734 0.618035 0.850648
v 1.175570 -0.000003 -0.000001
v 0.525734 0.618035 0.850648
v -0.525730 0.000004 1.051463
v 0.525734 0.618035 0.850648
l 13 14
l 15 16
l 17 18
l 19 20
l 21 22
l 23 24
l 25 26
l 27 28
l 29 30
l 31 32
l 33 34
l 35 36
l 37 38
l 39 40
l 41 42
l 43 44
l 45 46
l 47 48
l 49 50
l 51 52
l 53 54
l 55 56
l 57 58
l 59 60
l 61 62
l 63 64
l 65 66
l 67 68
l 69 70
l 71 72
o Shape_IndexedFaceSet.001_Shape_IndexedFaceSet.059
v -0.750246 0.309021 -0.850648
v 0.425325 0.690980 -0.850651
v -0.788602 -0.809013 -0.324917
v -0.363265 1.118036 0.000001
v 0.162454 -0.500000 -1.051463
v -1.113514 0.190989 0.324923
v 1.113514 -0.190989 -0.324923
v 0.788602 0.809013 0.324917
v -0.425325 -0.690980 0.850651
v 0.363265 -1.118036 -0.000001
v -0.162454 0.500000 1.051463
v 0.750246 -0.309021 0.850648
vt 1.000000 0.500000
vt 0.723607 1.000000
vt 0.276393 0.904509
vt 0.276393 0.345491
vt 0.723607 0.095491
vt 0.276393 0.000000
vt 0.276393 0.345491
vt 0.723607 0.654509
vt 0.276393 0.904509
vt 0.723607 0.654509
vt 0.723607 0.095491
vt 0.000000 0.500000
vn 0.1382 -0.4253 -0.8944
vn -0.9472 0.1625 0.2764
vn 0.3618 0.5878 -0.7236
vn -0.6708 -0.6882 -0.2764
vn -0.3090 0.9511 0.0000
vn 0.9472 -0.1625 -0.2764
vn -0.6382 0.2629 -0.7236
vn 0.6708 0.6882 0.2764
vn -0.3618 -0.5878 0.7236
vn 0.3090 -0.9511 -0.0000
vn -0.1382 0.4253 0.8944
vn 0.6382 -0.2629 0.7236
usemtl None
s off
f 73/13/13 74/14/13 79/15/13 82/16/13 75/17/13
f 73/13/14 75/17/14 81/18/14 83/19/14 76/20/14
f 73/13/15 76/20/15 80/21/15 79/15/15 77/22/15
f 73/13/16 77/22/16 82/16/16 81/18/16 78/23/16
f 73/13/17 78/23/17 83/19/17 80/21/17 74/14/17
f 74/14/18 80/21/18 84/24/18 82/16/18 77/22/18
f 74/14/19 77/22/19 75/17/19 78/23/19 76/20/19
f 74/14/20 76/20/20 83/19/20 84/24/20 79/15/20
f 75/17/21 82/16/21 84/24/21 83/19/21 78/23/21
f 75/17/22 77/22/22 79/15/22 84/24/22 81/18/22
f 76/20/23 78/23/23 81/18/23 84/24/23 80/21/23
f 79/15/24 80/21/24 83/19/24 81/18/24 82/16/24
o Shape_IndexedLineSet.001_Shape_IndexedLineSet.034
v -0.750246 0.309021 -0.850648
v 0.425325 0.690980 -0.850651
v -0.750246 0.309021 -0.850648
v -0.788602 -0.809013 -0.324917
v -0.750246 0.309021 -0.850648
v -0.363265 1.118036 0.000001
v -0.750246 0.309021 -0.850648
v 0.162454 -0.500000 -1.051463
v -0.750246 0.309021 -0.850648
v -1.113514 0.190989 0.324923
v 0.425325 0.690980 -0.850651
v -0.363265 1.118036 0.000001
v 0.425325 0.690980 -0.850651
v 0.162454 -0.500000 -1.051463
v 0.425325 0.690980 -0.850651
v 1.113514 -0.190989 -0.324923
v 0.425325 0.690980 -0.850651
v 0.788602 0.809013 0.324917
v -0.788602 -0.809013 -0.324917
v 0.162454 -0.500000 -1.051463
v -0.788602 -0.809013 -0.324917
v -1.113514 0.190989 0.324923
v -0.788602 -0.809013 -0.324917
v -0.425325 -0.690980 0.850651
v -0.788602 -0.809013 -0.324917
v 0.363265 -1.118036 -0.000001
v -0.363265 1.118036 0.000001
v -1.113514 0.190989 0.324923
v -0.363265 1.118036 0.000001
v 0.788602 0.809013 0.324917
v -0.363265 1.118036 0.000001
v -0.162454 0.500000 1.051463
v 0.162454 -0.500000 -1.051463
v 1.113514 -0.190989 -0.324923
v 0.162454 -0.500000 -1.051463
v 0.363265 -1.118036 -0.000001
v -1.113514 0.190989 0.324923
v -0.425325 -0.690980 0.850651
v -1.113514 0.190989 0.324923
v -0.162454 0.500000 1.051463
v 1.113514 -0.190989 -0.324923
v 0.788602 0.809013 0.324917
v 1.113514 -0.190989 -0.324923
v 0.363265 -1.118036 -0.000001
v 1.113514 -0.190989 -0.324923
v 0.750246 -0.309021 0.850648
v 0.788602 0.809013 0.324917
v -0.162454 0.500000 1.051463
v 0.788602 0.809013 0.324917
v 0.750246 -0.309021 0.850648
v -0.425325 -0.690980 0.850651
v 0.363265 -1.118036 -0.000001
v -0.425325 -0.690980 0.850651
v -0.162454 0.500000 1.051463
v -0.425325 -0.690980 0.850651
v 0.750246 -0.309021 0.850648
v 0.363265 -1.118036 -0.000001
v 0.750246 -0.309021 0.850648
v -0.162454 0.500000 1.051463
v 0.750246 -0.309021 0.850648
l 85 86
l 87 88
l 89 90
l 91 92
l 93 94
l 95 96
l 97 98
l 99 100
l 101 102
l 103 104
l 105 106
l 107 108
l 109 110
l 111 112
l 113 114
l 115 116
l 117 118
l 119 120
l 121 122
l 123 124
l 125 126
l 127 128
l 129 130
l 131 132
l 133 134
l 135 136
l 137 138
l 139 140
l 141 142
l 143 144
o Shape_IndexedFaceSet.002_Shape_IndexedFaceSet.060
v 0.062052 0.809019 -0.850648
v 0.788595 -0.190978 -0.850651
v -1.013112 0.499999 -0.324917
v 0.951055 0.690984 0.000001
v -0.425325 -0.309015 -1.051463
v -0.162462 1.118033 0.324923
v 0.162462 -1.118033 -0.324923
v 1.013112 -0.499999 0.324917
v -0.788595 0.190978 0.850651
v -0.951055 -0.690984 -0.000001
v 0.425325 0.309015 1.051463
v -0.062052 -0.809019 0.850648
vt 1.000000 0.500000
vt 0.723607 1.000000
vt 0.276393 0.904509
vt 0.276393 0.345491
vt 0.723607 0.095491
vt 0.276393 0.000000
vt 0.276393 0.345491
vt 0.723607 0.654509
vt 0.276393 0.904509
vt 0.723607 0.654509
vt 0.723607 0.095491
vt 0.000000 0.500000
vn -0.3618 -0.2629 -0.8944
vn -0.1382 0.9511 0.2764
vn 0.6708 -0.1625 -0.7236
vn -0.8618 0.4253 -0.2764
vn 0.8090 0.5878 0.0000
vn 0.1382 -0.9511 -0.2764
vn 0.0528 0.6882 -0.7236
vn 0.8618 -0.4253 0.2764
vn -0.6708 0.1625 0.7236
vn -0.8090 -0.5878 -0.0000
vn 0.3618 0.2629 0.8944
vn -0.0528 -0.6882 0.7236
usemtl None
s off
f 145/25/25 146/26/25 151/27/25 154/28/25 147/29/25
f 145/25/26 147/29/26 153/30/26 155/31/26 148/32/26
f 145/25/27 148/32/27 152/33/27 151/27/27 149/34/27
f 145/25/28 149/34/28 154/28/28 153/30/28 150/35/28
f 145/25/29 150/35/29 155/31/29 152/33/29 146/26/29
f 146/26/30 152/33/30 156/36/30 154/28/30 149/34/30
f 146/26/31 149/34/31 147/29/31 150/35/31 148/32/31
f 146/26/32 148/32/32 155/31/32 156/36/32 151/27/32
f 147/29/33 154/28/33 156/36/33 155/31/33 150/35/33
f 147/29/34 149/34/34 151/27/34 156/36/34 153/30/34
f 148/32/35 150/35/35 153/30/35 156/36/35 152/33/35
f 151/27/36 152/33/36 155/31/36 153/30/36 154/28/36
o Shape_IndexedLineSet.002_Shape_IndexedLineSet.035
v 0.062052 0.809019 -0.850648
v 0.788595 -0.190978 -0.850651
v 0.062052 0.809019 -0.850648
v -1.013112 0.499999 -0.324917
v 0.062052 0.809019 -0.850648
v 0.951055 0.690984 0.000001
v 0.062052 0.809019 -0.850648
v -0.425325 -0.309015 -1.051463
v 0.062052 0.809019 -0.850648
v -0.162462 1.118033 0.324923
v 0.788595 -0.190978 -0.850651
v 0.951055 0.690984 0.000001
v 0.788595 -0.190978 -0.850651
v -0.425325 -0.309015 -1.051463
v 0.788595 -0.190978 -0.850651
v 0.162462 -1.118033 -0.324923
v 0.788595 -0.190978 -0.850651
v 1.013112 -0.499999 0.324917
v -1.013112 0.499999 -0.324917
v -0.425325 -0.309015 -1.051463
v -1.013112 0.499999 -0.324917
v -0.162462 1.118033 0.324923
v -1.013112 0.499999 -0.324917
v -0.788595 0.190978 0.850651
v -1.013112 0.499999 -0.324917
v -0.951055 -0.690984 -0.000001
v 0.951055 0.690984 0.000001
v -0.162462 1.118033 0.324923
v 0.951055 0.690984 0.000001
v 1.013112 -0.499999 0.324917
v 0.951055 0.690984 0.000001
v 0.425325 0.309015 1.051463
v -0.425325 -0.309015 -1.051463
v 0.162462 -1.118033 -0.324923
v -0.425325 -0.309015 -1.051463
v -0.951055 -0.690984 -0.000001
v -0.162462 1.118033 0.324923
v -0.788595 0.190978 0.850651
v -0.162462 1.118033 0.324923
v 0.425325 0.309015 1.051463
v 0.162462 -1.118033 -0.324923
v 1.013112 -0.499999 0.324917
v 0.162462 -1.118033 -0.324923
v -0.951055 -0.690984 -0.000001
v 0.162462 -1.118033 -0.324923
v -0.062052 -0.809019 0.850648
v 1.013112 -0.499999 0.324917
v 0.425325 0.309015 1.051463
v 1.013112 -0.499999 0.324917
v -0.062052 -0.809019 0.850648
v -0.788595 0.190978 0.850651
v -0.951055 -0.690984 -0.000001
v -0.788595 0.190978 0.850651
v 0.425325 0.309015 1.051463
v -0.788595 0.190978 0.850651
v -0.062052 -0.809019 0.850648
v -0.951055 -0.690984 -0.000001
v -0.062052 -0.809019 0.850648
v 0.425325 0.309015 1.051463
v -0.062052 -0.809019 0.850648
l 157 158
l 159 160
l 161 162
l 163 164
l 165 166
l 167 168
l 169 170
l 171 172
l 173 174
l 175 176
l 177 178
l 179 180
l 181 182
l 183 184
l 185 186
l 187 188
l 189 190
l 191 192
l 193 194
l 195 196
l 197 198
l 199 200
l 201 202
l 203 204
l 205 206
l 207 208
l 209 210
l 211 212
l 213 214
l 215 216
o Shape_IndexedFaceSet.003_Shape_IndexedFaceSet.061
v 0.788599 0.190983 -0.850648
v 0.062056 -0.809014 -0.850651
v 0.162462 1.118034 -0.324917
v 0.951055 -0.690985 0.000001
v -0.425322 0.309019 -1.051463
v 1.013110 0.499998 0.324923
v -1.013110 -0.499998 -0.324923
v -0.162462 -1.118034 0.324917
v -0.062056 0.809014 0.850651
v -0.951055 0.690985 -0.000001
v 0.425322 -0.309019 1.051463
v -0.788599 -0.190983 0.850648
vt 1.000000 0.500000
vt 0.723607 1.000000
vt 0.276393 0.904509
vt 0.276393 0.345491
vt 0.723607 0.095491
vt 0.276393 0.000000
vt 0.276393 0.345491
vt 0.723607 0.654509
vt 0.276393 0.904509
vt 0.723607 0.654509
vt 0.723607 0.095491
vt 0.000000 0.500000
vn -0.3618 0.2629 -0.8944
vn 0.8618 0.4253 0.2764
vn 0.0528 -0.6882 -0.7236
vn 0.1382 0.9511 -0.2764
vn 0.8090 -0.5878 0.0000
vn -0.8618 -0.4253 -0.2764
vn 0.6708 0.1625 -0.7236
vn -0.1382 -0.9511 0.2764
vn -0.0528 0.6882 0.7236
vn -0.8090 0.5878 -0.0000
vn 0.3618 -0.2629 0.8944
vn -0.6708 -0.1625 0.7236
usemtl None
s off
f 217/37/37 218/38/37 223/39/37 226/40/37 219/41/37
f 217/37/38 219/41/38 225/42/38 227/43/38 220/44/38
f 217/37/39 220/44/39 224/45/39 223/39/39 221/46/39
f 217/37/40 221/46/40 226/40/40 225/42/40 222/47/40
f 217/37/41 222/47/41 227/43/41 224/45/41 218/38/41
f 218/38/42 224/45/42 228/48/42 226/40/42 221/46/42
f 218/38/43 221/46/43 219/41/43 222/47/43 220/44/43
f 218/38/44 220/44/44 227/43/44 228/48/44 223/39/44
f 219/41/45 226/40/45 228/48/45 227/43/45 222/47/45
f 219/41/46 221/46/46 223/39/46 228/48/46 225/42/46
f 220/44/47 222/47/47 225/42/47 228/48/47 224/45/47
f 223/39/48 224/45/48 227/43/48 225/42/48 226/40/48
o Shape_IndexedLineSet.003_Shape_IndexedLineSet.036
v 0.788599 0.190983 -0.850648
v 0.062056 -0.809014 -0.850651
v 0.788599 0.190983 -0.850648
v 0.162462 1.118034 -0.324917
v 0.788599 0.190983 -0.850648
v 0.951055 -0.690985 0.000001
v 0.788599 0.190983 -0.850648
v -0.425322 0.309019 -1.051463
v 0.788599 0.190983 -0.850648
v 1.013110 0.499998 0.324923
v 0.062056 -0.809014 -0.850651
v 0.951055 -0.690985 0.000001
v 0.062056 -0.809014 -0.850651
v -0.425322 0.309019 -1.051463
v 0.062056 -0.809014 -0.850651
v -1.013110 -0.499998 -0.324923
v 0.062056 -0.809014 -0.850651
v -0.162462 -1.118034 0.324917
v 0.162462 1.118034 -0.324917
v -0.425322 0.309019 -1.051463
v 0.162462 1.118034 -0.324917
v 1.013110 0.499998 0.324923
v 0.162462 1.118034 -0.324917
v -0.062056 0.809014 0.850651
v 0.162462 1.118034 -0.324917
v -0.951055 0.690985 -0.000001
v 0.951055 -0.690985 0.000001
v 1.013110 0.499998 0.324923
v 0.951055 -0.690985 0.000001
v -0.162462 -1.118034 0.324917
v 0.951055 -0.690985 0.000001
v 0.425322 -0.309019 1.051463
v -0.425322 0.309019 -1.051463
v -1.013110 -0.499998 -0.324923
v -0.425322 0.309019 -1.051463
v -0.951055 0.690985 -0.000001
v 1.013110 0.499998 0.324923
v -0.062056 0.809014 0.850651
v 1.013110 0.499998 0.324923
v 0.425322 -0.309019 1.051463
v -1.013110 -0.499998 -0.324923
v -0.162462 -1.118034 0.324917
v -1.013110 -0.499998 -0.324923
v -0.951055 0.690985 -0.000001
v -1.013110 -0.499998 -0.324923
v -0.788599 -0.190983 0.850648
v -0.162462 -1.118034 0.324917
v 0.425322 -0.309019 1.051463
v -0.162462 -1.118034 0.324917
v -0.788599 -0.190983 0.850648
v -0.062056 0.809014 0.850651
v -0.951055 0.690985 -0.000001
v -0.062056 0.809014 0.850651
v 0.425322 -0.309019 1.051463
v -0.062056 0.809014 0.850651
v -0.788599 -0.190983 0.850648
v -0.951055 0.690985 -0.000001
v -0.788599 -0.190983 0.850648
v 0.425322 -0.309019 1.051463
v -0.788599 -0.190983 0.850648
l 229 230
l 231 232
l 233 234
l 235 236
l 237 238
l 239 240
l 241 242
l 243 244
l 245 246
l 247 248
l 249 250
l 251 252
l 253 254
l 255 256
l 257 258
l 259 260
l 261 262
l 263 264
l 265 266
l 267 268
l 269 270
l 271 272
l 273 274
l 275 276
l 277 278
l 279 280
l 281 282
l 283 284
l 285 286
l 287 288
o Shape_IndexedFaceSet.004_Shape_IndexedFaceSet.062
v 0.425324 -0.690986 -0.850648
v -0.750242 -0.309016 -0.850651
v 1.113518 0.190978 -0.324917
v -0.363276 -1.118032 0.000001
v 0.162464 0.499997 -1.051463
v 0.788593 -0.809019 0.324923
v -0.788593 0.809019 -0.324923
v -1.113518 -0.190978 0.324917
v 0.750242 0.309016 0.850651
v 0.363276 1.118032 -0.000001
v -0.162464 -0.499997 1.051463
v -0.425324 0.690986 0.850648
vt 1.000000 0.500000
vt 0.723607 1.000000
vt 0.276393 0.904509
vt 0.276393 0.345491
vt 0.723607 0.095491
vt 0.276393 0.000000
vt 0.276393 0.345491
vt 0.723607 0.654509
vt 0.276393 0.904509
vt 0.723607 0.654509
vt 0.723607 0.095491
vt 0.000000 0.500000
vn 0.1382 0.4253 -0.8944
vn 0.6708 -0.6882 0.2764
vn -0.6382 -0.2629 -0.7236
vn 0.9472 0.1625 -0.2764
vn -0.3090 -0.9511 0.0000
vn -0.6708 0.6882 -0.2764
vn 0.3618 -0.5878 -0.7236
vn -0.9472 -0.1625 0.2764
vn 0.6382 0.2629 0.7236
vn 0.3090 0.9511 -0.0000
vn -0.1382 -0.4253 0.8944
vn -0.3618 0.5878 0.7236
usemtl None
s off
f 289/49/49 290/50/49 295/51/49 298/52/49 291/53/49
f 289/49/50 291/53/50 297/54/50 299/55/50 292/56/50
f 289/49/51 292/56/51 296/57/51 295/51/51 293/58/51
f 289/49/52 293/58/52 298/52/52 297/54/52 294/59/52
f 289/49/53 294/59/53 299/55/53 296/57/53 290/50/53
f 290/50/54 296/57/54 300/60/54 298/52/54 293/58/54
f 290/50/55 293/58/55 291/53/55 294/59/55 292/56/55
f 290/50/56 292/56/56 299/55/56 300/60/56 295/51/56
f 291/53/57 298/52/57 300/60/57 299/55/57 294/59/57
f 291/53/58 293/58/58 295/51/58 300/60/58 297/54/58
f 292/56/59 294/59/59 297/54/59 300/60/59 296/57/59
f 295/51/60 296/57/60 299/55/60 297/54/60 298/52/60
o Shape_IndexedLineSet.004_Shape_IndexedLineSet.037
v 0.425324 -0.690986 -0.850648
v -0.750242 -0.309016 -0.850651
v 0.425324 -0.690986 -0.850648
v 1.113518 0.190978 -0.324917
v 0.425324 -0.690986 -0.850648
v -0.363276 -1.118032 0.000001
v 0.425324 -0.690986 -0.850648
v 0.162464 0.499997 -1.051463
v 0.425324 -0.690986 -0.850648
v 0.788593 -0.809019 0.324923
v -0.750242 -0.309016 -0.850651
v -0.363276 -1.118032 0.000001
v -0.750242 -0.309016 -0.850651
v 0.162464 0.499997 -1.051463
v -0.750242 -0.309016 -0.850651
v -0.788593 0.809019 -0.324923
v -0.750242 -0.309016 -0.850651
v -1.113518 -0.190978 0.324917
v 1.113518 0.190978 -0.324917
v 0.162464 0.499997 -1.051463
v 1.113518 0.190978 -0.324917
v 0.788593 -0.809019 0.324923
v 1.113518 0.190978 -0.324917
v 0.750242 0.309016 0.850651
v 1.113518 0.190978 -0.324917
v 0.363276 1.118032 -0.000001
v -0.363276 -1.118032 0.000001
v 0.788593 -0.809019 0.324923
v -0.363276 -1.118032 0.000001
v -1.113518 -0.190978 0.324917
v -0.363276 -1.118032 0.000001
v -0.162464 -0.499997 1.051463
v 0.162464 0.499997 -1.051463
v -0.788593 0.809019 -0.324923
v 0.162464 0.499997 -1.051463
v 0.363276 1.118032 -0.000001
v 0.788593 -0.809019 0.324923
v 0.750242 0.309016 0.850651
v 0.788593 -0.809019 0.324923
v -0.162464 -0.499997 1.051463
v -0.788593 0.809019 -0.324923
v -1.113518 -0.190978 0.324917
v -0.788593 0.809019 -0.324923
v 0.363276 1.118032 -0.000001
v -0.788593 0.809019 -0.324923
v -0.425324 0.690986 0.850648
v -1.113518 -0.190978 0.324917
v -0.162464 -0.499997 1.051463
v -1.113518 -0.190978 0.324917
v -0.425324 0.690986 0.850648
v 0.750242 0.309016 0.850651
v 0.363276 1.118032 -0.000001
v 0.750242 0.309016 0.850651
v -0.162464 -0.499997 1.051463
v 0.750242 0.309016 0.850651
v -0.425324 0.690986 0.850648
v 0.363276 1.118032 -0.000001
v -0.425324 0.690986 0.850648
v -0.162464 -0.499997 1.051463
v -0.425324 0.690986 0.850648
l 301 302
l 303 304
l 305 306
l 307 308
l 309 310
l 311 312
l 313 314
l 315 316
l 317 318
l 319 320
l 321 322
l 323 324
l 325 326
l 327 328
l 329 330
l 331 332
l 333 334
l 335 336
l 337 338
l 339 340
l 341 342
l 343 344
l 345 346
l 347 348
l 349 350
l 351 352
l 353 354
l 355 356
l 357 358
l 359 360
