# Blender v2.93.4 OBJ File: ''
# www.blender.org
mtllib compound_of_two_icosahedra.mtl
o Shape_IndexedFaceSet_Shape_IndexedFaceSet.144
v -0.000000 1.000000 -0.000000
v -1.000000 0.000000 0.000000
v 0.000000 0.000000 1.000000
v 1.000000 0.000000 -0.000000
v -0.000000 -0.000000 -1.000000
v 0.000000 -1.000000 0.000000
v -0.381970 0.618030 0.000000
v 0.381970 0.618030 -0.000000
v 0.000000 0.381970 0.618030
v -0.618030 0.000000 0.381970
v -0.000000 0.381970 -0.618030
v 0.618030 0.000000 0.381970
v -0.618030 -0.000000 -0.381970
v 0.618030 -0.000000 -0.381970
v 0.000000 -0.381970 0.618030
v -0.000000 -0.381970 -0.618030
v 0.381970 -0.618030 -0.000000
v -0.381970 -0.618030 0.000000
vt 0.809022 1.000000
vt 0.190978 1.000000
vt 0.500000 0.809022
vt 0.500000 0.809022
vt 0.000000 0.500000
vt 1.000000 0.500000
vt 1.000000 0.500000
vt 0.000000 0.500000
vt 0.500000 0.190978
vt 0.809022 0.000000
vt 0.500000 0.190978
vt 0.190978 0.000000
vn -0.0000 -0.9342 -0.3568
vn 0.0000 -0.9342 0.3568
vn -0.5774 -0.5774 -0.5774
vn 0.5774 -0.5774 -0.5774
vn 0.9342 -0.3568 -0.0000
vn 0.5774 -0.5774 0.5774
vn -0.5774 -0.5774 0.5774
vn -0.9342 -0.3568 0.0000
vn -0.3568 0.0000 -0.9342
vn 0.3568 0.0000 -0.9342
vn 0.5774 0.5774 -0.5774
vn 0.9342 0.3568 -0.0000
vn 0.3568 0.0000 0.9342
vn -0.3568 0.0000 0.9342
vn -0.9342 0.3568 0.0000
vn -0.5774 0.5774 -0.5774
vn 0.5774 0.5774 0.5774
vn -0.5774 0.5774 0.5774
vn -0.0000 0.9342 -0.3568
vn 0.0000 0.9342 0.3568
usemtl None
s off
f 7/1/1 8/2/1 9/3/1
f 8/2/2 7/1/2 11/4/2
f 8/2/3 12/5/3 9/3/3
f 7/1/4 9/3/4 10/6/4
f 7/1/5 10/6/5 13/7/5
f 7/1/6 13/7/6 11/4/6
f 8/2/7 11/4/7 14/8/7
f 8/2/8 14/8/8 12/5/8
f 9/3/9 12/5/9 15/9/9
f 9/3/10 15/9/10 10/6/10
f 10/6/11 15/9/11 18/10/11
f 10/6/12 18/10/12 13/7/12
f 11/4/13 13/7/13 16/11/13
f 11/4/14 16/11/14 14/8/14
f 12/5/15 14/8/15 17/12/15
f 12/5/16 17/12/16 15/9/16
f 13/7/17 18/10/17 16/11/17
f 14/8/18 16/11/18 17/12/18
f 15/9/19 17/12/19 18/10/19
f 16/11/20 18/10/20 17/12/20
o Shape_IndexedFaceSet.001_Shape_IndexedFaceSet.145
v -0.000000 1.000000 0.000000
v 0.000004 -0.000000 1.000000
v 1.000000 0.000000 -0.000004
v -0.000004 0.000000 -1.000000
v -1.000000 -0.000000 0.000004
v 0.000000 -1.000000 -0.000000
v 0.000001 0.618030 0.381970
v -0.000001 0.618030 -0.381970
v 0.618030 0.381970 -0.000002
v 0.381972 -0.000000 0.618029
v -0.618030 0.381970 0.000002
v 0.381968 0.000000 -0.618031
v -0.381968 -0.000000 0.618031
v -0.381972 0.000000 -0.618029
v 0.618030 -0.381970 -0.000002
v -0.618030 -0.381970 0.000002
v -0.000001 -0.618030 -0.381970
v 0.000001 -0.618030 0.381970
vt 0.809022 1.000000
vt 0.190978 1.000000
vt 0.500000 0.809022
vt 0.500000 0.809022
vt 0.000000 0.500000
vt 1.000000 0.500000
vt 1.000000 0.500000
vt 0.000000 0.500000
vt 0.500000 0.190978
vt 0.809022 0.000000
vt 0.500000 0.190978
vt 0.190978 0.000000
vn -0.3568 -0.9342 0.0000
vn 0.3568 -0.9342 -0.0000
vn -0.5773 -0.5774 0.5774
vn -0.5774 -0.5774 -0.5773
vn -0.0000 -0.3568 -0.9342
vn 0.5773 -0.5774 -0.5774
vn 0.5774 -0.5774 0.5773
vn 0.0000 -0.3568 0.9342
vn -0.9342 0.0000 0.3568
vn -0.9342 0.0000 -0.3568
vn -0.5774 0.5774 -0.5773
vn -0.0000 0.3568 -0.9342
vn 0.9342 0.0000 -0.3568
vn 0.9342 0.0000 0.3568
vn 0.0000 0.3568 0.9342
vn -0.5773 0.5774 0.5774
vn 0.5773 0.5774 -0.5774
vn 0.5774 0.5774 0.5773
vn -0.3568 0.9342 0.0000
vn 0.3568 0.9342 -0.0000
usemtl None
s off
f 25/13/21 26/14/21 27/15/21
f 26/14/22 25/13/22 29/16/22
f 26/14/23 30/17/23 27/15/23
f 25/13/24 27/15/24 28/18/24
f 25/13/25 28/18/25 31/19/25
f 25/13/26 31/19/26 29/16/26
f 26/14/27 29/16/27 32/20/27
f 26/14/28 32/20/28 30/17/28
f 27/15/29 30/17/29 33/21/29
f 27/15/30 33/21/30 28/18/30
f 28/18/31 33/21/31 36/22/31
f 28/18/32 36/22/32 31/19/32
f 29/16/33 31/19/33 34/23/33
f 29/16/34 34/23/34 32/20/34
f 30/17/35 32/20/35 35/24/35
f 30/17/36 35/24/36 33/21/36
f 31/19/37 36/22/37 34/23/37
f 32/20/38 34/23/38 35/24/38
f 33/21/39 35/24/39 36/22/39
f 34/23/40 36/22/40 35/24/40
