# Blender v2.93.4 OBJ File: ''
# www.blender.org
mtllib compound_of_two_great_dodecahedra.mtl
o Shape_IndexedFaceSet_Shape_IndexedFaceSet.023
v -0.000000 -0.000000 -1.175570
v -1.051460 -0.000000 -0.525731
v 0.850651 0.618034 -0.525731
v -0.324920 -1.000000 -0.525731
v -0.324920 1.000000 -0.525731
v 0.850651 -0.618034 -0.525731
v -0.850651 0.618034 0.525731
v -0.850651 -0.618034 0.525731
v 1.051460 0.000000 0.525731
v 0.324920 1.000000 0.525731
v 0.324920 -1.000000 0.525731
v 0.000000 0.000000 1.175570
vt 0.723607 1.000000
vt 0.276393 0.345491
vt 0.723607 0.095491
vt 0.276393 0.000000
vt 0.276393 0.345491
vt 0.723607 0.654509
vt 0.276393 0.904509
vt 0.276393 0.904509
vt 0.723607 0.654509
vt 0.000000 0.500000
vt 0.723607 0.095491
vt 1.000000 0.500000
vn -0.2764 0.8507 -0.4472
vn 0.7236 -0.5257 -0.4472
vn -0.8944 0.0000 -0.4472
vn 0.7236 0.5257 -0.4472
vn -0.2764 -0.8507 -0.4472
vn -0.7236 0.5257 0.4472
vn 0.0000 -0.0000 -1.0000
vn -0.7236 -0.5257 0.4472
vn 0.8944 0.0000 0.4472
vn 0.2764 0.8507 0.4472
vn 0.2764 -0.8507 0.4472
vn 0.0000 0.0000 1.0000
usemtl None
s off
f 2/1/1 10/2/1 3/3/1
f 9/4/2 11/5/2 4/6/2
f 4/6/3 8/7/3 7/8/3
f 5/9/4 10/2/4 9/4/4
f 11/5/5 8/7/5 2/1/5
f 8/7/6 12/10/6 10/2/6
f 5/9/7 3/3/7 6/11/7
f 4/6/8 11/5/8 12/10/8
f 12/10/9 11/5/9 6/11/9
f 7/8/10 12/10/10 9/4/10
f 9/4/11 12/10/11 8/7/11
f 8/7/12 11/5/12 9/4/12
f 3/3/1 1/12/1 2/1/1
f 2/1/1 7/8/1 10/2/1
f 4/6/2 1/12/2 3/3/2
f 3/3/2 9/4/2 4/6/2
f 5/9/3 1/12/3 7/8/3
f 1/12/3 4/6/3 7/8/3
f 6/11/4 1/12/4 9/4/4
f 1/12/4 5/9/4 9/4/4
f 2/1/5 1/12/5 6/11/5
f 6/11/5 11/5/5 2/1/5
f 5/9/6 2/1/6 10/2/6
f 2/1/6 8/7/6 10/2/6
f 4/6/7 2/1/7 6/11/7
f 2/1/7 5/9/7 6/11/7
f 7/8/8 2/1/8 12/10/8
f 2/1/8 4/6/8 12/10/8
f 6/11/9 3/3/9 10/2/9
f 10/2/9 12/10/9 6/11/9
f 9/4/10 3/3/10 5/9/10
f 5/9/10 7/8/10 9/4/10
f 8/7/11 4/6/11 6/11/11
f 6/11/11 9/4/11 8/7/11
f 10/2/12 7/8/12 9/4/12
f 7/8/12 8/7/12 9/4/12
o Shape_IndexedLineSet_Shape_IndexedLineSet.023
v -0.000000 -0.000000 -1.175570
v -1.051460 -0.000000 -0.525731
v -0.000000 -0.000000 -1.175570
v 0.850651 0.618034 -0.525731
v -0.000000 -0.000000 -1.175570
v -0.324920 -1.000000 -0.525731
v -0.000000 -0.000000 -1.175570
v -0.324920 1.000000 -0.525731
v -0.000000 -0.000000 -1.175570
v 0.850651 -0.618034 -0.525731
v -1.051460 -0.000000 -0.525731
v -0.324920 -1.000000 -0.525731
v -1.051460 -0.000000 -0.525731
v -0.324920 1.000000 -0.525731
v -1.051460 -0.000000 -0.525731
v -0.850651 0.618034 0.525731
v -1.051460 -0.000000 -0.525731
v -0.850651 -0.618034 0.525731
v 0.850651 0.618034 -0.525731
v -0.324920 1.000000 -0.525731
v 0.850651 0.618034 -0.525731
v 0.850651 -0.618034 -0.525731
v 0.850651 0.618034 -0.525731
v 1.051460 0.000000 0.525731
v 0.850651 0.618034 -0.525731
v 0.324920 1.000000 0.525731
v -0.324920 -1.000000 -0.525731
v 0.850651 -0.618034 -0.525731
v -0.324920 -1.000000 -0.525731
v -0.850651 -0.618034 0.525731
v -0.324920 -1.000000 -0.525731
v 0.324920 -1.000000 0.525731
v -0.324920 1.000000 -0.525731
v -0.850651 0.618034 0.525731
v -0.324920 1.000000 -0.525731
v 0.324920 1.000000 0.525731
v 0.850651 -0.618034 -0.525731
v 1.051460 0.000000 0.525731
v 0.850651 -0.618034 -0.525731
v 0.324920 -1.000000 0.525731
v -0.850651 0.618034 0.525731
v -0.850651 -0.618034 0.525731
v -0.850651 0.618034 0.525731
v 0.324920 1.000000 0.525731
v -0.850651 0.618034 0.525731
v 0.000000 0.000000 1.175570
v -0.850651 -0.618034 0.525731
v 0.324920 -1.000000 0.525731
v -0.850651 -0.618034 0.525731
v 0.000000 0.000000 1.175570
v 1.051460 0.000000 0.525731
v 0.324920 1.000000 0.525731
v 1.051460 0.000000 0.525731
v 0.324920 -1.000000 0.525731
v 1.051460 0.000000 0.525731
v 0.000000 0.000000 1.175570
v 0.324920 1.000000 0.525731
v 0.000000 0.000000 1.175570
v 0.324920 -1.000000 0.525731
v 0.000000 0.000000 1.175570
l 13 14
l 15 16
l 17 18
l 19 20
l 21 22
l 23 24
l 25 26
l 27 28
l 29 30
l 31 32
l 33 34
l 35 36
l 37 38
l 39 40
l 41 42
l 43 44
l 45 46
l 47 48
l 49 50
l 51 52
l 53 54
l 55 56
l 57 58
l 59 60
l 61 62
l 63 64
l 65 66
l 67 68
l 69 70
l 71 72
o Shape_IndexedFaceSet.001_Shape_IndexedFaceSet.024
v -0.525734 -0.618035 -0.850648
v -0.525730 0.618031 -0.850651
v 0.525728 -1.000003 -0.324917
v -1.175570 0.000003 0.000001
v 0.525730 -0.000004 -1.051463
v -0.525733 -0.999998 0.324923
v 0.525733 0.999998 -0.324923
v -0.525728 1.000003 0.324917
v 0.525730 -0.618031 0.850651
v 1.175570 -0.000003 -0.000001
v -0.525730 0.000004 1.051463
v 0.525734 0.618035 0.850648
vt 0.723607 1.000000
vt 0.276393 0.345491
vt 0.723607 0.095491
vt 0.276393 0.000000
vt 0.276393 0.345491
vt 0.723607 0.654509
vt 0.276393 0.904509
vt 0.276393 0.904509
vt 0.723607 0.654509
vt 0.000000 0.500000
vt 0.723607 0.095491
vt 1.000000 0.500000
vn 0.4472 -0.0000 -0.8944
vn -0.4472 -0.8506 0.2764
vn -0.4472 0.5257 -0.7236
vn 0.4472 -0.8507 -0.2764
vn -1.0000 0.0000 0.0000
vn 0.4472 0.8506 -0.2764
vn -0.4472 -0.5257 -0.7236
vn -0.4472 0.8507 0.2764
vn 0.4472 -0.5257 0.7236
vn 1.0000 -0.0000 -0.0000
vn -0.4472 0.0000 0.8944
vn 0.4472 0.5257 0.7236
usemtl None
s off
f 74/13/13 82/14/13 75/15/13
f 81/16/14 83/17/14 76/18/14
f 76/18/15 80/19/15 79/20/15
f 77/21/16 82/14/16 81/16/16
f 83/17/17 80/19/17 74/13/17
f 80/19/18 84/22/18 82/14/18
f 77/21/19 75/15/19 78/23/19
f 76/18/20 83/17/20 84/22/20
f 84/22/21 83/17/21 78/23/21
f 79/20/22 84/22/22 81/16/22
f 81/16/23 84/22/23 80/19/23
f 80/19/24 83/17/24 81/16/24
f 75/15/13 73/24/13 74/13/13
f 74/13/13 79/20/13 82/14/13
f 76/18/14 73/24/14 75/15/14
f 75/15/14 81/16/14 76/18/14
f 77/21/15 73/24/15 79/20/15
f 73/24/15 76/18/15 79/20/15
f 78/23/16 73/24/16 81/16/16
f 73/24/16 77/21/16 81/16/16
f 74/13/17 73/24/17 78/23/17
f 78/23/17 83/17/17 74/13/17
f 77/21/18 74/13/18 82/14/18
f 74/13/18 80/19/18 82/14/18
f 76/18/19 74/13/19 78/23/19
f 74/13/19 77/21/19 78/23/19
f 79/20/20 74/13/20 84/22/20
f 74/13/20 76/18/20 84/22/20
f 78/23/21 75/15/21 82/14/21
f 82/14/21 84/22/21 78/23/21
f 81/16/22 75/15/22 77/21/22
f 77/21/22 79/20/22 81/16/22
f 80/19/23 76/18/23 78/23/23
f 78/23/23 81/16/23 80/19/23
f 82/14/24 79/20/24 81/16/24
f 79/20/24 80/19/24 81/16/24
o Shape_IndexedLineSet.001_Shape_IndexedLineSet.024
v -0.525734 -0.618035 -0.850648
v -0.525730 0.618031 -0.850651
v -0.525734 -0.618035 -0.850648
v 0.525728 -1.000003 -0.324917
v -0.525734 -0.618035 -0.850648
v -1.175570 0.000003 0.000001
v -0.525734 -0.618035 -0.850648
v 0.525730 -0.000004 -1.051463
v -0.525734 -0.618035 -0.850648
v -0.525733 -0.999998 0.324923
v -0.525730 0.618031 -0.850651
v -1.175570 0.000003 0.000001
v -0.525730 0.618031 -0.850651
v 0.525730 -0.000004 -1.051463
v -0.525730 0.618031 -0.850651
v 0.525733 0.999998 -0.324923
v -0.525730 0.618031 -0.850651
v -0.525728 1.000003 0.324917
v 0.525728 -1.000003 -0.324917
v 0.525730 -0.000004 -1.051463
v 0.525728 -1.000003 -0.324917
v -0.525733 -0.999998 0.324923
v 0.525728 -1.000003 -0.324917
v 0.525730 -0.618031 0.850651
v 0.525728 -1.000003 -0.324917
v 1.175570 -0.000003 -0.000001
v -1.175570 0.000003 0.000001
v -0.525733 -0.999998 0.324923
v -1.175570 0.000003 0.000001
v -0.525728 1.000003 0.324917
v -1.175570 0.000003 0.000001
v -0.525730 0.000004 1.051463
v 0.525730 -0.000004 -1.051463
v 0.525733 0.999998 -0.324923
v 0.525730 -0.000004 -1.051463
v 1.175570 -0.000003 -0.000001
v -0.525733 -0.999998 0.324923
v 0.525730 -0.618031 0.850651
v -0.525733 -0.999998 0.324923
v -0.525730 0.000004 1.051463
v 0.525733 0.999998 -0.324923
v -0.525728 1.000003 0.324917
v 0.525733 0.999998 -0.324923
v 1.175570 -0.000003 -0.000001
v 0.525733 0.999998 -0.324923
v 0.525734 0.618035 0.850648
v -0.525728 1.000003 0.324917
v -0.525730 0.000004 1.051463
v -0.525728 1.000003 0.324917
v 0.525734 0.618035 0.850648
v 0.525730 -0.618031 0.850651
v 1.175570 -0.000003 -0.000001
v 0.525730 -0.618031 0.850651
v -0.525730 0.000004 1.051463
v 0.525730 -0.618031 0.850651
v 0.525734 0.618035 0.850648
v 1.175570 -0.000003 -0.000001
v 0.525734 0.618035 0.850648
v -0.525730 0.000004 1.051463
v 0.525734 0.618035 0.850648
l 85 86
l 87 88
l 89 90
l 91 92
l 93 94
l 95 96
l 97 98
l 99 100
l 101 102
l 103 104
l 105 106
l 107 108
l 109 110
l 111 112
l 113 114
l 115 116
l 117 118
l 119 120
l 121 122
l 123 124
l 125 126
l 127 128
l 129 130
l 131 132
l 133 134
l 135 136
l 137 138
l 139 140
l 141 142
l 143 144
