# Blender v2.93.4 OBJ File: ''
# www.blender.org
mtllib compound_of_two_dodecahedra.mtl
o Shape_IndexedFaceSet_Shape_IndexedFaceSet.136
v -0.525731 0.381966 -0.850651
v 0.200811 0.618034 -0.850651
v 0.649839 -0.000000 -0.850651
v 0.200811 -0.618034 -0.850651
v -0.525731 -0.381966 -0.850651
v -0.850651 -0.618034 -0.200811
v -1.051460 0.000000 0.200811
v -0.850651 0.618034 -0.200811
v -0.324920 1.000000 0.200811
v 0.324920 1.000000 -0.200811
v 0.850651 0.618034 0.200811
v 1.051460 -0.000000 -0.200811
v 0.850651 -0.618034 0.200811
v 0.324920 -1.000000 -0.200811
v -0.324920 -1.000000 0.200811
v -0.649839 0.000000 0.850651
v -0.200811 0.618034 0.850651
v -0.200811 -0.618034 0.850651
v 0.525731 0.381966 0.850651
v 0.525731 -0.381966 0.850651
vt 0.750000 0.309017
vt 0.750000 0.690983
vt 0.404509 0.809017
vt 0.190983 0.500000
vt 0.404509 0.190983
vt 0.904509 0.190983
vt 1.000000 0.500000
vt 0.904509 0.809017
vt 0.654509 1.000000
vt 0.345491 1.000000
vt 0.095491 0.809017
vt 0.000000 0.500000
vt 0.095491 0.190983
vt 0.345491 0.000000
vt 0.654509 0.000000
vt 0.809017 0.500000
vt 0.595492 0.809017
vt 0.595492 0.190983
vt 0.250000 0.690983
vt 0.250000 0.309017
vn -0.0000 -0.0000 -1.0000
vn -0.8944 0.0000 -0.4472
vn -0.2764 0.8507 -0.4472
vn 0.7236 0.5257 -0.4472
vn 0.7236 -0.5257 -0.4472
vn -0.2764 -0.8507 -0.4472
vn -0.7236 0.5257 0.4472
vn -0.7236 -0.5257 0.4472
vn 0.2764 0.8507 0.4472
vn 0.8944 0.0000 0.4472
vn 0.2764 -0.8507 0.4472
vn 0.0000 0.0000 1.0000
usemtl None
s off
f 5/1/1 1/2/1 2/3/1 3/4/1 4/5/1
f 5/1/2 6/6/2 7/7/2 8/8/2 1/2/2
f 1/2/3 8/8/3 9/9/3 10/10/3 2/3/3
f 2/3/4 10/10/4 11/11/4 12/12/4 3/4/4
f 3/4/5 12/12/5 13/13/5 14/14/5 4/5/5
f 4/5/6 14/14/6 15/15/6 6/6/6 5/1/6
f 8/8/7 7/7/7 16/16/7 17/17/7 9/9/7
f 7/7/8 6/6/8 15/15/8 18/18/8 16/16/8
f 10/10/9 9/9/9 17/17/9 19/19/9 11/11/9
f 12/12/10 11/11/10 19/19/10 20/20/10 13/13/10
f 14/14/11 13/13/11 20/20/11 18/18/11 15/15/11
f 16/16/12 18/18/12 20/20/12 19/19/12 17/17/12
o Shape_IndexedLineSet_Shape_IndexedLineSet.111
v -0.525731 0.381966 -0.850651
v 0.200811 0.618034 -0.850651
v -0.525731 0.381966 -0.850651
v -0.525731 -0.381966 -0.850651
v -0.525731 0.381966 -0.850651
v -0.850651 0.618034 -0.200811
v 0.200811 0.618034 -0.850651
v 0.649839 -0.000000 -0.850651
v 0.200811 0.618034 -0.850651
v 0.324920 1.000000 -0.200811
v 0.649839 -0.000000 -0.850651
v 0.200811 -0.618034 -0.850651
v 0.649839 -0.000000 -0.850651
v 1.051460 -0.000000 -0.200811
v 0.200811 -0.618034 -0.850651
v -0.525731 -0.381966 -0.850651
v 0.200811 -0.618034 -0.850651
v 0.324920 -1.000000 -0.200811
v -0.525731 -0.381966 -0.850651
v -0.850651 -0.618034 -0.200811
v -0.850651 -0.618034 -0.200811
v -1.051460 0.000000 0.200811
v -0.850651 -0.618034 -0.200811
v -0.324920 -1.000000 0.200811
v -1.051460 0.000000 0.200811
v -0.850651 0.618034 -0.200811
v -1.051460 0.000000 0.200811
v -0.649839 0.000000 0.850651
v -0.850651 0.618034 -0.200811
v -0.324920 1.000000 0.200811
v -0.324920 1.000000 0.200811
v 0.324920 1.000000 -0.200811
v -0.324920 1.000000 0.200811
v -0.200811 0.618034 0.850651
v 0.324920 1.000000 -0.200811
v 0.850651 0.618034 0.200811
v 0.850651 0.618034 0.200811
v 1.051460 -0.000000 -0.200811
v 0.850651 0.618034 0.200811
v 0.525731 0.381966 0.850651
v 1.051460 -0.000000 -0.200811
v 0.850651 -0.618034 0.200811
v 0.850651 -0.618034 0.200811
v 0.324920 -1.000000 -0.200811
v 0.850651 -0.618034 0.200811
v 0.525731 -0.381966 0.850651
v 0.324920 -1.000000 -0.200811
v -0.324920 -1.000000 0.200811
v -0.324920 -1.000000 0.200811
v -0.200811 -0.618034 0.850651
v -0.649839 0.000000 0.850651
v -0.200811 0.618034 0.850651
v -0.649839 0.000000 0.850651
v -0.200811 -0.618034 0.850651
v -0.200811 0.618034 0.850651
v 0.525731 0.381966 0.850651
v -0.200811 -0.618034 0.850651
v 0.525731 -0.381966 0.850651
v 0.525731 0.381966 0.850651
v 0.525731 -0.381966 0.850651
l 21 22
l 23 24
l 25 26
l 27 28
l 29 30
l 31 32
l 33 34
l 35 36
l 37 38
l 39 40
l 41 42
l 43 44
l 45 46
l 47 48
l 49 50
l 51 52
l 53 54
l 55 56
l 57 58
l 59 60
l 61 62
l 63 64
l 65 66
l 67 68
l 69 70
l 71 72
l 73 74
l 75 76
l 77 78
l 79 80
o Shape_IndexedFaceSet.001_Shape_IndexedFaceSet.137
v -0.850649 0.381966 0.525734
v -0.850652 0.618034 -0.200808
v -0.850653 0.000000 -0.649836
v -0.850652 -0.618034 -0.200808
v -0.850649 -0.381966 0.525734
v -0.200808 -0.618034 0.850652
v 0.200815 -0.000000 1.051459
v -0.200808 0.618034 0.850652
v 0.200812 1.000000 0.324919
v -0.200812 1.000000 -0.324919
v 0.200808 0.618034 -0.850652
v -0.200815 0.000000 -1.051459
v 0.200808 -0.618034 -0.850652
v -0.200812 -1.000000 -0.324919
v 0.200812 -1.000000 0.324919
v 0.850653 -0.000000 0.649836
v 0.850652 0.618034 0.200808
v 0.850652 -0.618034 0.200808
v 0.850649 0.381966 -0.525734
v 0.850649 -0.381966 -0.525734
vt 0.750000 0.309017
vt 0.750000 0.690983
vt 0.404509 0.809017
vt 0.190983 0.500000
vt 0.404509 0.190983
vt 0.904509 0.190983
vt 1.000000 0.500000
vt 0.904509 0.809017
vt 0.654509 1.000000
vt 0.345491 1.000000
vt 0.095491 0.809017
vt 0.000000 0.500000
vt 0.095491 0.190983
vt 0.345491 0.000000
vt 0.654509 0.000000
vt 0.809017 0.500000
vt 0.595492 0.809017
vt 0.595492 0.190983
vt 0.250000 0.690983
vt 0.250000 0.309017
vn -1.0000 -0.0000 0.0000
vn -0.4472 -0.0000 0.8944
vn -0.4472 0.8507 0.2764
vn -0.4472 0.5257 -0.7236
vn -0.4472 -0.5257 -0.7236
vn -0.4472 -0.8507 0.2764
vn 0.4472 0.5257 0.7236
vn 0.4472 -0.5257 0.7236
vn 0.4472 0.8507 -0.2764
vn 0.4472 0.0000 -0.8944
vn 0.4472 -0.8507 -0.2764
vn 1.0000 0.0000 -0.0000
usemtl None
s off
f 85/21/13 81/22/13 82/23/13 83/24/13 84/25/13
f 85/21/14 86/26/14 87/27/14 88/28/14 81/22/14
f 81/22/15 88/28/15 89/29/15 90/30/15 82/23/15
f 82/23/16 90/30/16 91/31/16 92/32/16 83/24/16
f 83/24/17 92/32/17 93/33/17 94/34/17 84/25/17
f 84/25/18 94/34/18 95/35/18 86/26/18 85/21/18
f 88/28/19 87/27/19 96/36/19 97/37/19 89/29/19
f 87/27/20 86/26/20 95/35/20 98/38/20 96/36/20
f 90/30/21 89/29/21 97/37/21 99/39/21 91/31/21
f 92/32/22 91/31/22 99/39/22 100/40/22 93/33/22
f 94/34/23 93/33/23 100/40/23 98/38/23 95/35/23
f 96/36/24 98/38/24 100/40/24 99/39/24 97/37/24
o Shape_IndexedLineSet.001_Shape_IndexedLineSet.112
v -0.850649 0.381966 0.525734
v -0.850652 0.618034 -0.200808
v -0.850649 0.381966 0.525734
v -0.850649 -0.381966 0.525734
v -0.850649 0.381966 0.525734
v -0.200808 0.618034 0.850652
v -0.850652 0.618034 -0.200808
v -0.850653 0.000000 -0.649836
v -0.850652 0.618034 -0.200808
v -0.200812 1.000000 -0.324919
v -0.850653 0.000000 -0.649836
v -0.850652 -0.618034 -0.200808
v -0.850653 0.000000 -0.649836
v -0.200815 0.000000 -1.051459
v -0.850652 -0.618034 -0.200808
v -0.850649 -0.381966 0.525734
v -0.850652 -0.618034 -0.200808
v -0.200812 -1.000000 -0.324919
v -0.850649 -0.381966 0.525734
v -0.200808 -0.618034 0.850652
v -0.200808 -0.618034 0.850652
v 0.200815 -0.000000 1.051459
v -0.200808 -0.618034 0.850652
v 0.200812 -1.000000 0.324919
v 0.200815 -0.000000 1.051459
v -0.200808 0.618034 0.850652
v 0.200815 -0.000000 1.051459
v 0.850653 -0.000000 0.649836
v -0.200808 0.618034 0.850652
v 0.200812 1.000000 0.324919
v 0.200812 1.000000 0.324919
v -0.200812 1.000000 -0.324919
v 0.200812 1.000000 0.324919
v 0.850652 0.618034 0.200808
v -0.200812 1.000000 -0.324919
v 0.200808 0.618034 -0.850652
v 0.200808 0.618034 -0.850652
v -0.200815 0.000000 -1.051459
v 0.200808 0.618034 -0.850652
v 0.850649 0.381966 -0.525734
v -0.200815 0.000000 -1.051459
v 0.200808 -0.618034 -0.850652
v 0.200808 -0.618034 -0.850652
v -0.200812 -1.000000 -0.324919
v 0.200808 -0.618034 -0.850652
v 0.850649 -0.381966 -0.525734
v -0.200812 -1.000000 -0.324919
v 0.200812 -1.000000 0.324919
v 0.200812 -1.000000 0.324919
v 0.850652 -0.618034 0.200808
v 0.850653 -0.000000 0.649836
v 0.850652 0.618034 0.200808
v 0.850653 -0.000000 0.649836
v 0.850652 -0.618034 0.200808
v 0.850652 0.618034 0.200808
v 0.850649 0.381966 -0.525734
v 0.850652 -0.618034 0.200808
v 0.850649 -0.381966 -0.525734
v 0.850649 0.381966 -0.525734
v 0.850649 -0.381966 -0.525734
l 101 102
l 103 104
l 105 106
l 107 108
l 109 110
l 111 112
l 113 114
l 115 116
l 117 118
l 119 120
l 121 122
l 123 124
l 125 126
l 127 128
l 129 130
l 131 132
l 133 134
l 135 136
l 137 138
l 139 140
l 141 142
l 143 144
l 145 146
l 147 148
l 149 150
l 151 152
l 153 154
l 155 156
l 157 158
l 159 160
