# Blender v2.93.4 OBJ File: ''
# www.blender.org
mtllib compound_of_10_icosahedra.mtl
o Shape_IndexedFaceSet_Shape_IndexedFaceSet.123
v -0.556263 0.556263 -0.556263
v -0.927105 -0.185423 0.185419
v -0.185419 -0.927105 -0.185423
v 0.185423 -0.185419 -0.927105
v 0.927105 0.185423 -0.185419
v 0.556263 -0.556263 0.556263
v -0.185423 0.185419 0.927105
v 0.185419 0.927105 0.185423
v 0.070825 0.829229 -0.485438
v -0.529211 -0.370844 0.714630
v -0.070825 -0.829229 0.485438
v 0.529211 0.370844 -0.714630
v -0.485438 -0.070824 -0.829229
v -0.714630 -0.529211 -0.370844
v 0.485438 0.070824 0.829229
v 0.714630 0.529211 0.370844
v -0.829229 0.485438 0.070825
v 0.370844 -0.714630 -0.529211
v 0.829229 -0.485438 -0.070825
v -0.370844 0.714630 0.529211
v -0.414616 0.970877 -0.070824
v -0.785458 0.229191 0.670859
v -0.070824 0.414616 -0.970877
v -0.970877 0.070824 -0.414616
v -0.229191 -0.670859 -0.785458
v -0.670859 -0.785458 0.229191
v 0.670859 0.785458 -0.229191
v 0.229191 0.670859 0.785458
v 0.970877 -0.070824 0.414616
v 0.070824 -0.414616 0.970877
v 0.785458 -0.229191 -0.670859
v 0.414616 -0.970877 0.070824
vt 0.500000 1.000000
vt 0.809017 0.500000
vt 1.000000 0.809017
vt 0.500000 1.000000
vt 0.809017 0.500000
vt 0.500000 0.000000
vt 1.000000 0.190983
vt 0.500000 0.000000
vt 0.190983 0.500000
vt 0.000000 0.190983
vt 0.190983 0.500000
vt 0.000000 0.809017
vn -0.5774 0.5774 -0.5774
vn -0.9623 -0.1925 0.1924
vn -0.1924 -0.9623 -0.1925
vn 0.1925 -0.1924 -0.9623
vn 0.9623 0.1925 -0.1924
vn 0.5774 -0.5774 0.5774
vn -0.1925 0.1924 0.9623
vn 0.1924 0.9623 0.1925
vn 0.0735 0.8607 -0.5038
vn -0.5493 -0.3849 0.7417
vn -0.0735 -0.8607 0.5038
vn 0.5493 0.3849 -0.7417
vn -0.5038 -0.0735 -0.8607
vn -0.7417 -0.5493 -0.3849
vn 0.5038 0.0735 0.8607
vn 0.7417 0.5493 0.3849
vn -0.8607 0.5038 0.0735
vn 0.3849 -0.7417 -0.5493
vn 0.8607 -0.5038 -0.0735
vn -0.3849 0.7417 0.5493
usemtl None
s off
f 21/1/1 23/2/1 24/3/1
f 22/4/2 24/3/2 26/5/2
f 32/6/3 26/5/3 25/7/3
f 31/8/4 25/7/4 23/2/4
f 27/9/5 29/10/5 31/8/5
f 29/10/6 30/11/6 32/6/6
f 30/11/7 28/12/7 22/4/7
f 28/12/8 27/9/8 21/1/8
f 27/9/9 23/2/9 21/1/9
f 22/4/10 26/5/10 30/11/10
f 32/6/11 30/11/11 26/5/11
f 23/2/12 27/9/12 31/8/12
f 25/7/13 24/3/13 23/2/13
f 24/3/14 25/7/14 26/5/14
f 30/11/15 29/10/15 28/12/15
f 27/9/16 28/12/16 29/10/16
f 24/3/17 22/4/17 21/1/17
f 25/7/18 31/8/18 32/6/18
f 32/6/19 31/8/19 29/10/19
f 21/1/20 22/4/20 28/12/20
o Shape_IndexedFaceSet.001_Shape_IndexedFaceSet.124
v -0.927105 -0.185423 -0.185419
v -0.556263 0.556263 0.556263
v 0.185423 -0.185419 0.927105
v -0.185420 -0.927105 0.185423
v 0.556263 -0.556263 -0.556263
v 0.927105 0.185423 0.185419
v 0.185420 0.927105 -0.185423
v -0.185423 0.185419 -0.927105
v -0.529211 -0.370845 -0.714631
v 0.070825 0.829229 0.485438
v 0.529211 0.370845 0.714631
v -0.070825 -0.829229 -0.485438
v -0.714631 -0.529211 0.370845
v -0.485438 -0.070824 0.829229
v 0.714631 0.529211 -0.370845
v 0.485438 0.070824 -0.829229
v -0.829229 0.485438 -0.070825
v 0.370844 -0.714631 0.529211
v 0.829229 -0.485438 0.070825
v -0.370844 0.714631 -0.529211
v -0.785458 0.229191 -0.670859
v -0.414616 0.970877 0.070823
v -0.670859 -0.785458 -0.229191
v -0.970877 0.070824 0.414616
v -0.229191 -0.670859 0.785458
v -0.070824 0.414616 0.970877
v 0.070824 -0.414616 -0.970877
v 0.229191 0.670859 -0.785458
v 0.970877 -0.070824 -0.414616
v 0.670859 0.785458 0.229191
v 0.414616 -0.970877 -0.070823
v 0.785458 -0.229191 0.670859
vt 0.500000 1.000000
vt 0.809017 0.500000
vt 1.000000 0.809017
vt 0.500000 1.000000
vt 0.809017 0.500000
vt 0.500000 0.000000
vt 1.000000 0.190983
vt 0.500000 0.000000
vt 0.190983 0.500000
vt 0.000000 0.190983
vt 0.190983 0.500000
vt 0.000000 0.809017
vn -0.9623 -0.1925 -0.1924
vn -0.5774 0.5774 0.5774
vn 0.1925 -0.1924 0.9623
vn -0.1924 -0.9623 0.1925
vn 0.5774 -0.5774 -0.5774
vn 0.9623 0.1925 0.1924
vn 0.1924 0.9623 -0.1925
vn -0.1925 0.1924 -0.9623
vn -0.5493 -0.3849 -0.7417
vn 0.0735 0.8607 0.5038
vn 0.5493 0.3849 0.7417
vn -0.0735 -0.8607 -0.5038
vn -0.7417 -0.5493 0.3849
vn -0.5038 -0.0735 0.8607
vn 0.7417 0.5493 -0.3849
vn 0.5038 0.0735 -0.8607
vn -0.8607 0.5038 -0.0735
vn 0.3849 -0.7417 0.5493
vn 0.8607 -0.5038 0.0735
vn -0.3849 0.7417 -0.5493
usemtl None
s off
f 53/13/21 55/14/21 56/15/21
f 54/16/22 56/15/22 58/17/22
f 64/18/23 58/17/23 57/19/23
f 63/20/24 57/19/24 55/14/24
f 59/21/25 61/22/25 63/20/25
f 61/22/26 62/23/26 64/18/26
f 62/23/27 60/24/27 54/16/27
f 60/24/28 59/21/28 53/13/28
f 59/21/29 55/14/29 53/13/29
f 54/16/30 58/17/30 62/23/30
f 64/18/31 62/23/31 58/17/31
f 55/14/32 59/21/32 63/20/32
f 57/19/33 56/15/33 55/14/33
f 56/15/34 57/19/34 58/17/34
f 62/23/35 61/22/35 60/24/35
f 59/21/36 60/24/36 61/22/36
f 56/15/37 54/16/37 53/13/37
f 57/19/38 63/20/38 64/18/38
f 64/18/39 63/20/39 61/22/39
f 53/13/40 54/16/40 60/24/40
o Shape_IndexedFaceSet.002_Shape_IndexedFaceSet.125
v -0.185419 -0.185423 -0.927105
v -0.927105 0.185419 -0.185423
v -0.556263 -0.556263 0.556263
v 0.185423 -0.927105 -0.185419
v 0.927105 -0.185419 0.185423
v 0.185419 0.185423 0.927105
v -0.185423 0.927105 0.185419
v 0.556263 0.556263 -0.556263
v 0.485440 -0.070826 -0.829228
v -0.714633 0.529210 0.370841
v -0.485440 0.070826 0.829228
v 0.714633 -0.529210 -0.370841
v -0.370841 -0.714633 -0.529210
v -0.829228 -0.485440 -0.070825
v 0.370841 0.714633 0.529210
v 0.829228 0.485440 0.070825
v -0.529210 0.370841 -0.714633
v 0.070826 -0.829228 0.485440
v 0.529210 -0.370841 0.714633
v -0.070826 0.829228 -0.485440
v 0.070825 0.414613 -0.970878
v -0.670861 0.785455 -0.229196
v 0.229195 -0.670861 -0.785455
v -0.785455 -0.229196 -0.670861
v -0.414613 -0.970878 0.070825
v -0.970878 -0.070825 0.414613
v 0.970878 0.070825 -0.414613
v 0.414613 0.970878 -0.070825
v 0.785455 0.229196 0.670861
v -0.229195 0.670861 0.785455
v 0.670861 -0.785455 0.229196
v -0.070825 -0.414613 0.970878
vt 0.500000 1.000000
vt 0.809017 0.500000
vt 1.000000 0.809017
vt 0.500000 1.000000
vt 0.809017 0.500000
vt 0.500000 0.000000
vt 1.000000 0.190983
vt 0.500000 0.000000
vt 0.190983 0.500000
vt 0.000000 0.190983
vt 0.190983 0.500000
vt 0.000000 0.809017
vn -0.1924 -0.1925 -0.9623
vn -0.9623 0.1924 -0.1925
vn -0.5774 -0.5774 0.5774
vn 0.1925 -0.9623 -0.1924
vn 0.9623 -0.1924 0.1925
vn 0.1924 0.1925 0.9623
vn -0.1925 0.9623 0.1924
vn 0.5774 0.5774 -0.5774
vn 0.5038 -0.0735 -0.8607
vn -0.7417 0.5493 0.3849
vn -0.5038 0.0735 0.8607
vn 0.7417 -0.5493 -0.3849
vn -0.3849 -0.7417 -0.5493
vn -0.8607 -0.5038 -0.0735
vn 0.3849 0.7417 0.5493
vn 0.8607 0.5038 0.0735
vn -0.5493 0.3849 -0.7417
vn 0.0735 -0.8607 0.5038
vn 0.5493 -0.3849 0.7417
vn -0.0735 0.8607 -0.5038
usemtl None
s off
f 85/25/41 87/26/41 88/27/41
f 86/28/42 88/27/42 90/29/42
f 96/30/43 90/29/43 89/31/43
f 95/32/44 89/31/44 87/26/44
f 91/33/45 93/34/45 95/32/45
f 93/34/46 94/35/46 96/30/46
f 94/35/47 92/36/47 86/28/47
f 92/36/48 91/33/48 85/25/48
f 91/33/49 87/26/49 85/25/49
f 86/28/50 90/29/50 94/35/50
f 96/30/51 94/35/51 90/29/51
f 87/26/52 91/33/52 95/32/52
f 89/31/53 88/27/53 87/26/53
f 88/27/54 89/31/54 90/29/54
f 94/35/55 93/34/55 92/36/55
f 91/33/56 92/36/56 93/34/56
f 88/27/57 86/28/57 85/25/57
f 89/31/58 95/32/58 96/30/58
f 96/30/59 95/32/59 93/34/59
f 85/25/60 86/28/60 92/36/60
o Shape_IndexedFaceSet.003_Shape_IndexedFaceSet.126
v 0.185423 0.185419 -0.927105
v -0.185420 0.927105 -0.185423
v -0.927105 0.185423 0.185419
v -0.556263 -0.556263 -0.556263
v 0.185420 -0.927105 0.185423
v -0.185423 -0.185419 0.927105
v 0.556263 0.556263 0.556263
v 0.927105 -0.185423 -0.185419
v 0.529211 -0.370845 -0.714631
v -0.070825 0.829229 0.485438
v -0.529211 0.370845 0.714631
v 0.070825 -0.829229 -0.485438
v -0.485438 0.070824 -0.829229
v -0.714631 0.529211 -0.370845
v 0.485438 -0.070824 0.829229
v 0.714631 -0.529211 0.370845
v 0.370844 0.714631 -0.529211
v -0.829229 -0.485438 0.070825
v -0.370844 -0.714631 0.529211
v 0.829229 0.485438 -0.070825
v 0.785458 0.229191 -0.670859
v 0.414616 0.970877 0.070823
v -0.070824 -0.414616 -0.970877
v -0.229191 0.670859 -0.785458
v -0.970877 -0.070824 -0.414616
v -0.670859 0.785458 0.229191
v 0.670859 -0.785458 -0.229191
v 0.970877 0.070824 0.414616
v 0.229191 -0.670859 0.785458
v 0.070824 0.414616 0.970877
v -0.414616 -0.970877 -0.070823
v -0.785458 -0.229191 0.670859
vt 0.500000 1.000000
vt 0.809017 0.500000
vt 1.000000 0.809017
vt 0.500000 1.000000
vt 0.809017 0.500000
vt 0.500000 0.000000
vt 1.000000 0.190983
vt 0.500000 0.000000
vt 0.190983 0.500000
vt 0.000000 0.190983
vt 0.190983 0.500000
vt 0.000000 0.809017
vn 0.1925 0.1924 -0.9623
vn -0.1924 0.9623 -0.1925
vn -0.9623 0.1925 0.1924
vn -0.5774 -0.5774 -0.5774
vn 0.1924 -0.9623 0.1925
vn -0.1925 -0.1924 0.9623
vn 0.5774 0.5774 0.5774
vn 0.9623 -0.1925 -0.1924
vn 0.5493 -0.3849 -0.7417
vn -0.0735 0.8607 0.5038
vn -0.5493 0.3849 0.7417
vn 0.0735 -0.8607 -0.5038
vn -0.5038 0.0735 -0.8607
vn -0.7417 0.5493 -0.3849
vn 0.5038 -0.0735 0.8607
vn 0.7417 -0.5493 0.3849
vn 0.3849 0.7417 -0.5493
vn -0.8607 -0.5038 0.0735
vn -0.3849 -0.7417 0.5493
vn 0.8607 0.5038 -0.0735
usemtl None
s off
f 117/37/61 119/38/61 120/39/61
f 118/40/62 120/39/62 122/41/62
f 128/42/63 122/41/63 121/43/63
f 127/44/64 121/43/64 119/38/64
f 123/45/65 125/46/65 127/44/65
f 125/46/66 126/47/66 128/42/66
f 126/47/67 124/48/67 118/40/67
f 124/48/68 123/45/68 117/37/68
f 123/45/69 119/38/69 117/37/69
f 118/40/70 122/41/70 126/47/70
f 128/42/71 126/47/71 122/41/71
f 119/38/72 123/45/72 127/44/72
f 121/43/73 120/39/73 119/38/73
f 120/39/74 121/43/74 122/41/74
f 126/47/75 125/46/75 124/48/75
f 123/45/76 124/48/76 125/46/76
f 120/39/77 118/40/77 117/37/77
f 121/43/78 127/44/78 128/42/78
f 128/42/79 127/44/79 125/46/79
f 117/37/80 118/40/80 124/48/80
o Shape_IndexedFaceSet.004_Shape_IndexedFaceSet.127
v 0.000002 0.856281 -0.441667
v 0.343791 0.670859 0.600035
v -0.556263 0.043774 0.785456
v -0.900052 0.229195 -0.256245
v -0.343791 -0.670859 -0.600035
v -0.000002 -0.856281 0.441667
v 0.900052 -0.229195 0.256245
v 0.556263 -0.043774 -0.785456
v -0.000000 0.343789 -0.900053
v 0.556263 0.043771 0.785457
v 0.000000 -0.343789 0.900053
v -0.556263 -0.043771 -0.785457
v -0.556262 0.785458 -0.043772
v -0.343788 0.670861 0.600035
v 0.556262 -0.785458 0.043772
v 0.343788 -0.670861 -0.600035
v 0.556266 0.785455 -0.043773
v -0.900053 -0.229191 0.256246
v -0.556266 -0.785455 0.043773
v 0.900053 0.229191 -0.256246
v 0.556265 0.600034 -0.670860
v 0.900054 0.414612 0.370841
v -0.556262 0.600036 -0.670860
v 0.000002 1.041702 0.185421
v -0.900052 0.414617 0.370843
v 0.000001 0.300018 1.014650
v -0.000001 -0.300018 -1.014650
v 0.900052 -0.414617 -0.370843
v -0.000002 -1.041702 -0.185421
v 0.556262 -0.600036 0.670860
v -0.900054 -0.414612 -0.370841
v -0.556265 -0.600034 0.670860
vt 0.500000 1.000000
vt 0.809017 0.500000
vt 1.000000 0.809017
vt 0.500000 1.000000
vt 0.809017 0.500000
vt 0.500000 0.000000
vt 1.000000 0.190983
vt 0.500000 0.000000
vt 0.190983 0.500000
vt 0.000000 0.190983
vt 0.190983 0.500000
vt 0.000000 0.809017
vn 0.0000 0.8887 -0.4584
vn 0.3568 0.6963 0.6228
vn -0.5773 0.0454 0.8152
vn -0.9342 0.2379 -0.2660
vn -0.3568 -0.6963 -0.6228
vn -0.0000 -0.8887 0.4584
vn 0.9342 -0.2379 0.2660
vn 0.5773 -0.0454 -0.8152
vn 0.0000 0.3568 -0.9342
vn 0.5774 0.0454 0.8152
vn -0.0000 -0.3568 0.9342
vn -0.5774 -0.0454 -0.8152
vn -0.5773 0.8152 -0.0454
vn -0.3568 0.6963 0.6228
vn 0.5773 -0.8152 0.0454
vn 0.3568 -0.6963 -0.6228
vn 0.5774 0.8152 -0.0454
vn -0.9342 -0.2379 0.2660
vn -0.5774 -0.8152 0.0454
vn 0.9342 0.2379 -0.2660
usemtl None
s off
f 149/49/81 151/50/81 152/51/81
f 150/52/82 152/51/82 154/53/82
f 160/54/83 154/53/83 153/55/83
f 159/56/84 153/55/84 151/50/84
f 155/57/85 157/58/85 159/56/85
f 157/58/86 158/59/86 160/54/86
f 158/59/87 156/60/87 150/52/87
f 156/60/88 155/57/88 149/49/88
f 155/57/89 151/50/89 149/49/89
f 150/52/90 154/53/90 158/59/90
f 160/54/91 158/59/91 154/53/91
f 151/50/92 155/57/92 159/56/92
f 153/55/93 152/51/93 151/50/93
f 152/51/94 153/55/94 154/53/94
f 158/59/95 157/58/95 156/60/95
f 155/57/96 156/60/96 157/58/96
f 152/51/97 150/52/97 149/49/97
f 153/55/98 159/56/98 160/54/98
f 160/54/99 159/56/99 157/58/99
f 149/49/100 150/52/100 156/60/100
o Shape_IndexedFaceSet.005_Shape_IndexedFaceSet.128
v -0.900052 -0.229195 -0.256246
v -0.556263 -0.043774 0.785456
v 0.343791 -0.670859 0.600035
v 0.000002 -0.856281 -0.441667
v 0.556263 0.043774 -0.785456
v 0.900052 0.229195 0.256246
v -0.000002 0.856281 0.441667
v -0.343791 0.670859 -0.600035
v -0.556263 0.043771 -0.785457
v -0.000000 0.343789 0.900053
v 0.556263 -0.043771 0.785457
v 0.000000 -0.343789 -0.900053
v -0.556261 -0.785458 -0.043772
v -0.343788 -0.670861 0.600035
v 0.556261 0.785458 0.043772
v 0.343788 0.670861 -0.600035
v -0.900053 0.229191 0.256246
v 0.556266 -0.785455 -0.043773
v 0.900053 -0.229191 -0.256246
v -0.556266 0.785455 0.043773
v -0.900054 0.414612 -0.370842
v -0.556265 0.600034 0.670860
v -0.556262 -0.600036 -0.670860
v -0.900052 -0.414617 0.370842
v 0.000002 -1.041702 0.185421
v 0.000001 -0.300018 1.014650
v -0.000001 0.300018 -1.014650
v -0.000002 1.041702 -0.185421
v 0.900052 0.414617 -0.370842
v 0.556262 0.600036 0.670860
v 0.556265 -0.600034 -0.670860
v 0.900054 -0.414612 0.370842
vt 0.500000 1.000000
vt 0.809017 0.500000
vt 1.000000 0.809017
vt 0.500000 1.000000
vt 0.809017 0.500000
vt 0.500000 0.000000
vt 1.000000 0.190983
vt 0.500000 0.000000
vt 0.190983 0.500000
vt 0.000000 0.190983
vt 0.190983 0.500000
vt 0.000000 0.809017
vn -0.9342 -0.2379 -0.2660
vn -0.5774 -0.0454 0.8152
vn 0.3568 -0.6963 0.6228
vn 0.0000 -0.8887 -0.4584
vn 0.5774 0.0454 -0.8152
vn 0.9342 0.2379 0.2660
vn -0.0000 0.8887 0.4584
vn -0.3568 0.6963 -0.6228
vn -0.5774 0.0454 -0.8152
vn -0.0000 0.3568 0.9342
vn 0.5774 -0.0454 0.8152
vn 0.0000 -0.3568 -0.9342
vn -0.5773 -0.8152 -0.0454
vn -0.3568 -0.6963 0.6228
vn 0.5773 0.8152 0.0454
vn 0.3568 0.6963 -0.6228
vn -0.9342 0.2379 0.2660
vn 0.5774 -0.8152 -0.0454
vn 0.9342 -0.2379 -0.2660
vn -0.5774 0.8152 0.0454
usemtl None
s off
f 181/61/101 183/62/101 184/63/101
f 182/64/102 184/63/102 186/65/102
f 192/66/103 186/65/103 185/67/103
f 191/68/104 185/67/104 183/62/104
f 187/69/105 189/70/105 191/68/105
f 189/70/106 190/71/106 192/66/106
f 190/71/107 188/72/107 182/64/107
f 188/72/108 187/69/108 181/61/108
f 187/69/109 183/62/109 181/61/109
f 182/64/110 186/65/110 190/71/110
f 192/66/111 190/71/111 186/65/111
f 183/62/112 187/69/112 191/68/112
f 185/67/113 184/63/113 183/62/113
f 184/63/114 185/67/114 186/65/114
f 190/71/115 189/70/115 188/72/115
f 187/69/116 188/72/116 189/70/116
f 184/63/117 182/64/117 181/61/117
f 185/67/118 191/68/118 192/66/118
f 192/66/119 191/68/119 189/70/119
f 181/61/120 182/64/120 188/72/120
o Shape_IndexedFaceSet.006_Shape_IndexedFaceSet.129
v -0.441667 -0.000002 -0.856281
v -0.256246 0.900052 -0.229195
v -0.600035 0.343791 0.670859
v -0.785456 -0.556263 0.043774
v 0.256246 -0.900052 0.229195
v 0.441667 0.000002 0.856281
v 0.785456 0.556263 -0.043774
v 0.600035 -0.343791 -0.670859
v -0.043773 -0.556266 -0.785455
v 0.256246 0.900053 0.229191
v 0.043773 0.556266 0.785455
v -0.256246 -0.900053 -0.229191
v -0.900053 -0.000000 -0.343789
v -0.785457 0.556263 0.043770
v 0.900053 0.000000 0.343789
v 0.785457 -0.556263 -0.043770
v -0.043772 0.556261 -0.785458
v -0.600035 -0.343788 0.670861
v 0.043772 -0.556261 0.785458
v 0.600035 0.343788 -0.670861
v 0.185421 -0.000002 -1.041702
v 0.370842 0.900052 -0.414617
v -0.670860 -0.556265 -0.600034
v -0.670860 0.556262 -0.600036
v -1.014650 0.000001 0.300018
v -0.370842 0.900054 0.414612
v 0.370842 -0.900054 -0.414612
v 1.014650 -0.000001 -0.300018
v 0.670860 -0.556262 0.600036
v 0.670860 0.556265 0.600034
v -0.370842 -0.900052 0.414617
v -0.185421 0.000002 1.041702
vt 0.500000 1.000000
vt 0.809017 0.500000
vt 1.000000 0.809017
vt 0.500000 1.000000
vt 0.809017 0.500000
vt 0.500000 0.000000
vt 1.000000 0.190983
vt 0.500000 0.000000
vt 0.190983 0.500000
vt 0.000000 0.190983
vt 0.190983 0.500000
vt 0.000000 0.809017
vn -0.4584 -0.0000 -0.8887
vn -0.2660 0.9342 -0.2379
vn -0.6228 0.3568 0.6963
vn -0.8152 -0.5773 0.0454
vn 0.2660 -0.9342 0.2379
vn 0.4584 0.0000 0.8887
vn 0.8152 0.5773 -0.0454
vn 0.6228 -0.3568 -0.6963
vn -0.0454 -0.5774 -0.8152
vn 0.2660 0.9342 0.2379
vn 0.0454 0.5774 0.8152
vn -0.2660 -0.9342 -0.2379
vn -0.9342 -0.0000 -0.3568
vn -0.8152 0.5774 0.0454
vn 0.9342 0.0000 0.3568
vn 0.8152 -0.5774 -0.0454
vn -0.0454 0.5773 -0.8152
vn -0.6228 -0.3568 0.6963
vn 0.0454 -0.5773 0.8152
vn 0.6228 0.3568 -0.6963
usemtl None
s off
f 213/73/121 215/74/121 216/75/121
f 214/76/122 216/75/122 218/77/122
f 224/78/123 218/77/123 217/79/123
f 223/80/124 217/79/124 215/74/124
f 219/81/125 221/82/125 223/80/125
f 221/82/126 222/83/126 224/78/126
f 222/83/127 220/84/127 214/76/127
f 220/84/128 219/81/128 213/73/128
f 219/81/129 215/74/129 213/73/129
f 214/76/130 218/77/130 222/83/130
f 224/78/131 222/83/131 218/77/131
f 215/74/132 219/81/132 223/80/132
f 217/79/133 216/75/133 215/74/133
f 216/75/134 217/79/134 218/77/134
f 222/83/135 221/82/135 220/84/135
f 219/81/136 220/84/136 221/82/136
f 216/75/137 214/76/137 213/73/137
f 217/79/138 223/80/138 224/78/138
f 224/78/139 223/80/139 221/82/139
f 213/73/140 214/76/140 220/84/140
o Shape_IndexedFaceSet.007_Shape_IndexedFaceSet.130
v -0.600035 -0.343791 -0.670859
v -0.785456 0.556263 -0.043774
v -0.441667 0.000002 0.856281
v -0.256246 -0.900052 0.229195
v 0.785456 -0.556263 0.043774
v 0.600035 0.343791 0.670859
v 0.256246 0.900052 -0.229195
v 0.441667 -0.000002 -0.856281
v 0.043773 -0.556266 -0.785455
v -0.256246 0.900053 0.229191
v -0.043773 0.556266 0.785455
v 0.256246 -0.900053 -0.229191
v -0.785457 -0.556263 -0.043770
v -0.900053 0.000000 0.343789
v 0.785457 0.556263 0.043770
v 0.900053 -0.000000 -0.343789
v -0.600035 0.343788 -0.670861
v -0.043772 -0.556261 0.785458
v 0.600035 -0.343788 0.670861
v 0.043772 0.556261 -0.785458
v -0.185421 -0.000002 -1.041702
v -0.370842 0.900052 -0.414617
v -0.370842 -0.900054 -0.414612
v -1.014650 -0.000001 -0.300018
v -0.670860 -0.556262 0.600036
v -0.670860 0.556265 0.600034
v 0.670860 -0.556265 -0.600034
v 0.670860 0.556262 -0.600036
v 1.014650 0.000001 0.300018
v 0.370842 0.900054 0.414612
v 0.370842 -0.900052 0.414617
v 0.185421 0.000002 1.041702
vt 0.500000 1.000000
vt 0.809017 0.500000
vt 1.000000 0.809017
vt 0.500000 1.000000
vt 0.809017 0.500000
vt 0.500000 0.000000
vt 1.000000 0.190983
vt 0.500000 0.000000
vt 0.190983 0.500000
vt 0.000000 0.190983
vt 0.190983 0.500000
vt 0.000000 0.809017
vn -0.6228 -0.3568 -0.6963
vn -0.8152 0.5773 -0.0454
vn -0.4584 0.0000 0.8887
vn -0.2660 -0.9342 0.2379
vn 0.8152 -0.5773 0.0454
vn 0.6228 0.3568 0.6963
vn 0.2660 0.9342 -0.2379
vn 0.4584 -0.0000 -0.8887
vn 0.0454 -0.5774 -0.8152
vn -0.2660 0.9342 0.2379
vn -0.0454 0.5774 0.8152
vn 0.2660 -0.9342 -0.2379
vn -0.8152 -0.5774 -0.0454
vn -0.9342 0.0000 0.3568
vn 0.8152 0.5774 0.0454
vn 0.9342 -0.0000 -0.3568
vn -0.6228 0.3568 -0.6963
vn -0.0454 -0.5773 0.8152
vn 0.6228 -0.3568 0.6963
vn 0.0454 0.5773 -0.8152
usemtl None
s off
f 245/85/141 247/86/141 248/87/141
f 246/88/142 248/87/142 250/89/142
f 256/90/143 250/89/143 249/91/143
f 255/92/144 249/91/144 247/86/144
f 251/93/145 253/94/145 255/92/145
f 253/94/146 254/95/146 256/90/146
f 254/95/147 252/96/147 246/88/147
f 252/96/148 251/93/148 245/85/148
f 251/93/149 247/86/149 245/85/149
f 246/88/150 250/89/150 254/95/150
f 256/90/151 254/95/151 250/89/151
f 247/86/152 251/93/152 255/92/152
f 249/91/153 248/87/153 247/86/153
f 248/87/154 249/91/154 250/89/154
f 254/95/155 253/94/155 252/96/155
f 251/93/156 252/96/156 253/94/156
f 248/87/157 246/88/157 245/85/157
f 249/91/158 255/92/158 256/90/158
f 256/90/159 255/92/159 253/94/159
f 245/85/160 246/88/160 252/96/160
o Shape_IndexedFaceSet.008_Shape_IndexedFaceSet.131
v -0.856281 0.441667 0.000002
v 0.043774 0.785456 0.556263
v 0.229195 -0.256245 0.900052
v -0.670859 -0.600035 0.343792
v -0.043774 -0.785456 -0.556263
v 0.856281 -0.441667 -0.000002
v 0.670859 0.600035 -0.343792
v -0.229195 0.256245 -0.900052
v -0.785458 0.043772 -0.556261
v 0.670861 0.600035 0.343788
v 0.785458 -0.043772 0.556261
v -0.670861 -0.600035 -0.343788
v -0.785455 0.043773 0.556266
v -0.229191 0.256246 0.900053
v 0.785455 -0.043773 -0.556266
v 0.229191 -0.256246 -0.900053
v -0.343789 0.900053 -0.000000
v -0.043771 -0.785457 0.556263
v 0.343789 -0.900053 0.000000
v 0.043771 0.785457 -0.556263
v -0.600036 0.670860 -0.556262
v 0.300018 1.014650 -0.000001
v -1.041702 -0.185421 0.000002
v -0.600034 0.670860 0.556265
v -0.414612 -0.370842 0.900054
v 0.414617 0.370842 0.900052
v -0.414617 -0.370842 -0.900052
v 0.414612 0.370842 -0.900054
v 0.600034 -0.670860 -0.556265
v 1.041702 0.185421 -0.000002
v -0.300018 -1.014650 0.000001
v 0.600036 -0.670860 0.556262
vt 0.500000 1.000000
vt 0.809017 0.500000
vt 1.000000 0.809017
vt 0.500000 1.000000
vt 0.809017 0.500000
vt 0.500000 0.000000
vt 1.000000 0.190983
vt 0.500000 0.000000
vt 0.190983 0.500000
vt 0.000000 0.190983
vt 0.190983 0.500000
vt 0.000000 0.809017
vn -0.8887 0.4584 0.0000
vn 0.0454 0.8152 0.5773
vn 0.2379 -0.2660 0.9342
vn -0.6963 -0.6228 0.3568
vn -0.0454 -0.8152 -0.5773
vn 0.8887 -0.4584 -0.0000
vn 0.6963 0.6228 -0.3568
vn -0.2379 0.2660 -0.9342
vn -0.8152 0.0454 -0.5773
vn 0.6963 0.6228 0.3568
vn 0.8152 -0.0454 0.5773
vn -0.6963 -0.6228 -0.3568
vn -0.8152 0.0454 0.5774
vn -0.2379 0.2660 0.9342
vn 0.8152 -0.0454 -0.5774
vn 0.2379 -0.2660 -0.9342
vn -0.3568 0.9342 0.0000
vn -0.0454 -0.8152 0.5774
vn 0.3568 -0.9342 -0.0000
vn 0.0454 0.8152 -0.5774
usemtl None
s off
f 277/97/161 279/98/161 280/99/161
f 278/100/162 280/99/162 282/101/162
f 288/102/163 282/101/163 281/103/163
f 287/104/164 281/103/164 279/98/164
f 283/105/165 285/106/165 287/104/165
f 285/106/166 286/107/166 288/102/166
f 286/107/167 284/108/167 278/100/167
f 284/108/168 283/105/168 277/97/168
f 283/105/169 279/98/169 277/97/169
f 278/100/170 282/101/170 286/107/170
f 288/102/171 286/107/171 282/101/171
f 279/98/172 283/105/172 287/104/172
f 281/103/173 280/99/173 279/98/173
f 280/99/174 281/103/174 282/101/174
f 286/107/175 285/106/175 284/108/175
f 283/105/176 284/108/176 285/106/176
f 280/99/177 278/100/177 277/97/177
f 281/103/178 287/104/178 288/102/178
f 288/102/179 287/104/179 285/106/179
f 277/97/180 278/100/180 284/108/180
o Shape_IndexedFaceSet.009_Shape_IndexedFaceSet.132
v 0.229195 0.256245 -0.900052
v -0.670859 0.600035 -0.343792
v -0.856281 -0.441667 -0.000002
v 0.043774 -0.785456 -0.556263
v 0.670859 -0.600035 0.343792
v -0.229195 -0.256245 0.900052
v -0.043774 0.785456 0.556263
v 0.856281 0.441667 0.000002
v 0.785458 0.043772 -0.556261
v -0.670861 0.600035 0.343788
v -0.785458 -0.043772 0.556261
v 0.670861 -0.600035 -0.343788
v -0.229191 -0.256246 -0.900053
v -0.785455 -0.043773 -0.556266
v 0.229191 0.256246 0.900053
v 0.785455 0.043773 0.556266
v -0.043771 0.785457 -0.556263
v -0.343789 -0.900053 0.000000
v 0.043771 -0.785457 0.556263
v 0.343789 0.900053 -0.000000
v 0.600036 0.670860 -0.556262
v -0.300018 1.014650 -0.000001
v 0.414617 -0.370842 -0.900052
v -0.414612 0.370842 -0.900054
v -0.600034 -0.670860 -0.556265
v -1.041702 0.185421 -0.000002
v 1.041702 -0.185421 0.000002
v 0.600034 0.670860 0.556265
v 0.414612 -0.370842 0.900054
v -0.414617 0.370842 0.900052
v 0.300018 -1.014650 0.000001
v -0.600036 -0.670860 0.556262
vt 0.500000 1.000000
vt 0.809017 0.500000
vt 1.000000 0.809017
vt 0.500000 1.000000
vt 0.809017 0.500000
vt 0.500000 0.000000
vt 1.000000 0.190983
vt 0.500000 0.000000
vt 0.190983 0.500000
vt 0.000000 0.190983
vt 0.190983 0.500000
vt 0.000000 0.809017
vn 0.2379 0.2660 -0.9342
vn -0.6963 0.6228 -0.3568
vn -0.8887 -0.4584 -0.0000
vn 0.0454 -0.8152 -0.5773
vn 0.6963 -0.6228 0.3568
vn -0.2379 -0.2660 0.9342
vn -0.0454 0.8152 0.5773
vn 0.8887 0.4584 0.0000
vn 0.8152 0.0454 -0.5773
vn -0.6963 0.6228 0.3568
vn -0.8152 -0.0454 0.5773
vn 0.6963 -0.6228 -0.3568
vn -0.2379 -0.2660 -0.9342
vn -0.8152 -0.0454 -0.5774
vn 0.2379 0.2660 0.9342
vn 0.8152 0.0454 0.5774
vn -0.0454 0.8152 -0.5774
vn -0.3568 -0.9342 -0.0000
vn 0.0454 -0.8152 0.5774
vn 0.3568 0.9342 0.0000
usemtl None
s off
f 309/109/181 311/110/181 312/111/181
f 310/112/182 312/111/182 314/113/182
f 320/114/183 314/113/183 313/115/183
f 319/116/184 313/115/184 311/110/184
f 315/117/185 317/118/185 319/116/185
f 317/118/186 318/119/186 320/114/186
f 318/119/187 316/120/187 310/112/187
f 316/120/188 315/117/188 309/109/188
f 315/117/189 311/110/189 309/109/189
f 310/112/190 314/113/190 318/119/190
f 320/114/191 318/119/191 314/113/191
f 311/110/192 315/117/192 319/116/192
f 313/115/193 312/111/193 311/110/193
f 312/111/194 313/115/194 314/113/194
f 318/119/195 317/118/195 316/120/195
f 315/117/196 316/120/196 317/118/196
f 312/111/197 310/112/197 309/109/197
f 313/115/198 319/116/198 320/114/198
f 320/114/199 319/116/199 317/118/199
f 309/109/200 310/112/200 316/120/200
