# Blender v2.93.4 OBJ File: ''
# www.blender.org
mtllib great_dodecahedron.mtl
o Shape_IndexedFaceSet
v -0.000000 -0.000000 -1.175570
v -1.051460 -0.000000 -0.525731
v 0.850651 0.618034 -0.525731
v -0.324920 -1.000000 -0.525731
v -0.324920 1.000000 -0.525731
v 0.850651 -0.618034 -0.525731
v -0.850651 0.618034 0.525731
v -0.850651 -0.618034 0.525731
v 1.051460 0.000000 0.525731
v 0.324920 1.000000 0.525731
v 0.324920 -1.000000 0.525731
v 0.000000 0.000000 1.175570
vt 0.723607 1.000000
vt 0.276393 0.345491
vt 0.723607 0.095491
vt 0.276393 0.000000
vt 0.276393 0.345491
vt 0.723607 0.654509
vt 0.276393 0.904509
vt 0.276393 0.904509
vt 0.723607 0.654509
vt 0.000000 0.500000
vt 0.723607 0.095491
vt 1.000000 0.500000
vn -0.2764 0.8507 -0.4472
vn 0.7236 -0.5257 -0.4472
vn -0.8944 0.0000 -0.4472
vn 0.7236 0.5257 -0.4472
vn -0.2764 -0.8507 -0.4472
vn -0.7236 0.5257 0.4472
vn 0.0000 -0.0000 -1.0000
vn -0.7236 -0.5257 0.4472
vn 0.8944 0.0000 0.4472
vn 0.2764 0.8507 0.4472
vn 0.2764 -0.8507 0.4472
vn 0.0000 0.0000 1.0000
usemtl None
s off
f 2/1/1 10/2/1 3/3/1
f 9/4/2 11/5/2 4/6/2
f 4/6/3 8/7/3 7/8/3
f 5/9/4 10/2/4 9/4/4
f 11/5/5 8/7/5 2/1/5
f 8/7/6 12/10/6 10/2/6
f 5/9/7 3/3/7 6/11/7
f 4/6/8 11/5/8 12/10/8
f 12/10/9 11/5/9 6/11/9
f 7/8/10 12/10/10 9/4/10
f 9/4/11 12/10/11 8/7/11
f 8/7/12 11/5/12 9/4/12
f 3/3/1 1/12/1 2/1/1
f 2/1/1 7/8/1 10/2/1
f 4/6/2 1/12/2 3/3/2
f 3/3/2 9/4/2 4/6/2
f 5/9/3 1/12/3 7/8/3
f 1/12/3 4/6/3 7/8/3
f 6/11/4 1/12/4 9/4/4
f 1/12/4 5/9/4 9/4/4
f 2/1/5 1/12/5 6/11/5
f 6/11/5 11/5/5 2/1/5
f 5/9/6 2/1/6 10/2/6
f 2/1/6 8/7/6 10/2/6
f 4/6/7 2/1/7 6/11/7
f 2/1/7 5/9/7 6/11/7
f 7/8/8 2/1/8 12/10/8
f 2/1/8 4/6/8 12/10/8
f 6/11/9 3/3/9 10/2/9
f 10/2/9 12/10/9 6/11/9
f 9/4/10 3/3/10 5/9/10
f 5/9/10 7/8/10 9/4/10
f 8/7/11 4/6/11 6/11/11
f 6/11/11 9/4/11 8/7/11
f 10/2/12 7/8/12 9/4/12
f 7/8/12 8/7/12 9/4/12
