# Blender v2.93.4 OBJ File: ''
# www.blender.org
mtllib enneagonal_prism.mtl
o Shape_IndexedFaceSet_Shape_IndexedFaceSet.017
v -0.000000 -0.000000 -1.056870
v -0.647231 -0.000000 -0.835506
v 0.075712 0.642788 -0.835506
v 0.629518 -0.150384 -0.835506
v -0.571519 0.642788 -0.614139
v -1.009330 -0.150384 -0.274987
v 0.705230 0.492404 -0.614139
v 0.946764 -0.380785 -0.274987
v -0.933617 0.492404 -0.053621
v -0.916864 -0.380785 0.362411
v 1.022480 0.262003 -0.053621
v 0.803296 -0.583396 0.362411
v -0.841152 0.262003 0.583777
v -0.413101 -0.583396 0.778443
v 0.879008 0.059391 0.583777
v 0.266243 -0.663414 0.778443
v -0.337389 0.059391 0.999810
v 0.341955 -0.020626 0.999810
vt 1.000000 0.503236
vt 0.892368 0.821785
vt 0.784735 0.784522
vt 0.892368 0.465973
vt 0.784735 0.156142
vt 0.892368 0.193405
vt 0.619832 1.000000
vt 0.512200 0.962736
vt 0.512200 0.000000
vt 0.619832 0.037265
vt 0.309916 0.954491
vt 0.202284 0.917228
vt 0.202284 0.070613
vt 0.309916 0.107876
vt 0.107633 0.706553
vt 0.000000 0.669289
vt 0.000000 0.334935
vt 0.107633 0.372199
vn -0.3041 0.3420 -0.8891
vn 0.3752 0.2620 -0.8891
vn -0.8412 0.2620 -0.4731
vn 0.8790 0.0594 -0.4731
vn -0.9846 0.0594 0.1643
vn 0.9715 -0.1710 0.1643
vn -0.6674 -0.1710 0.7248
vn 0.6094 -0.3214 0.7248
vn -0.0379 -0.3214 0.9462
usemtl None
s off
f 1/1/1 2/2/1 5/3/1 3/4/1
f 1/1/2 3/4/2 7/5/2 4/6/2
f 2/2/3 6/7/3 9/8/3 5/3/3
f 4/6/4 7/5/4 11/9/4 8/10/4
f 6/7/5 10/11/5 13/12/5 9/8/5
f 8/10/6 11/9/6 15/13/6 12/14/6
f 10/11/7 14/15/7 17/16/7 13/12/7
f 12/14/8 15/13/8 18/17/8 16/18/8
f 14/15/9 16/18/9 18/17/9 17/16/9
o Shape_IndexedFaceSet.001_Shape_IndexedFaceSet.018
v -0.000000 -0.000000 -1.056870
v -0.647231 -0.000000 -0.835506
v 0.075712 0.642788 -0.835506
v 0.629518 -0.150384 -0.835506
v -0.571519 0.642788 -0.614139
v -1.009330 -0.150384 -0.274987
v 0.705230 0.492404 -0.614139
v 0.946764 -0.380785 -0.274987
v -0.933617 0.492404 -0.053621
v -0.916864 -0.380785 0.362411
v 1.022480 0.262003 -0.053621
v 0.803296 -0.583396 0.362411
v -0.841152 0.262003 0.583777
v -0.413101 -0.583396 0.778443
v 0.879008 0.059391 0.583777
v 0.266243 -0.663414 0.778443
v -0.337389 0.059391 0.999810
v 0.341955 -0.020626 0.999810
vt 0.892368 0.193405
vt 0.107633 0.706553
vt 0.619832 1.000000
vt 0.784735 0.784522
vt 0.202284 0.917228
vt 0.000000 0.334935
vt 0.892368 0.821785
vt 1.000000 0.503236
vt 0.619832 0.037265
vt 0.309916 0.107876
vt 0.107633 0.372199
vt 0.309916 0.954491
vt 0.784735 0.156142
vt 0.892368 0.465973
vt 0.512200 0.962736
vt 0.000000 0.669289
vt 0.202284 0.070613
vt 0.512200 0.000000
vn -0.1107 -0.9397 -0.3236
vn 0.1107 0.9397 0.3236
usemtl None
s off
f 22/19/10 32/20/10 24/21/10
f 23/22/11 31/23/11 36/24/11
f 20/25/10 19/26/10 24/21/10
f 19/26/10 22/19/10 24/21/10
f 22/19/10 26/27/10 32/20/10
f 26/27/10 30/28/10 32/20/10
f 30/28/10 34/29/10 32/20/10
f 32/20/10 28/30/10 24/21/10
f 25/31/11 21/32/11 23/22/11
f 23/22/11 27/33/11 31/23/11
f 31/23/11 35/34/11 36/24/11
f 36/24/11 33/35/11 29/36/11
f 29/36/11 25/31/11 36/24/11
f 25/31/11 23/22/11 36/24/11
o Shape_IndexedLineSet_Shape_IndexedLineSet.009
v -0.000000 -0.000000 -1.056870
v 0.075712 0.642788 -0.835506
v -0.647231 -0.000000 -0.835506
v -0.571519 0.642788 -0.614139
v 0.629518 -0.150384 -0.835506
v 0.705230 0.492404 -0.614139
v -1.009330 -0.150384 -0.274987
v -0.933617 0.492404 -0.053621
v 0.946764 -0.380785 -0.274987
v 1.022480 0.262003 -0.053621
v -0.916864 -0.380785 0.362411
v -0.841152 0.262003 0.583777
v 0.803296 -0.583396 0.362411
v 0.879008 0.059391 0.583777
v -0.413101 -0.583396 0.778443
v -0.337389 0.059391 0.999810
v 0.266243 -0.663414 0.778443
v 0.341955 -0.020626 0.999810
l 37 38
l 39 40
l 41 42
l 43 44
l 45 46
l 47 48
l 49 50
l 51 52
l 53 54
