# Blender v2.93.4 OBJ File: ''
# www.blender.org
mtllib pentagonal_prism.mtl
o Shape_IndexedFaceSet_Shape_IndexedFaceSet.025
v -0.000000 -0.000000 -1.159950
v -1.013460 -0.000000 -0.564254
v 0.350143 0.951056 -0.564254
v 0.771521 -0.657164 -0.564254
v -0.663321 0.951056 0.031445
v -0.868298 -0.657164 0.399607
v 1.121660 0.293893 0.031445
v 0.234883 -1.063310 0.399607
v -0.518155 0.293893 0.995306
v 0.585026 -0.112257 0.995306
vt 1.000000 0.525338
vt 0.723608 1.000000
vt 0.447214 0.836010
vt 0.723608 0.361346
vt 0.447214 0.000000
vt 0.723608 0.163990
vt 0.276394 0.932012
vt 0.000000 0.768020
vt 0.000000 0.251337
vt 0.276394 0.415329
vn -0.4100 0.5878 -0.6975
vn 0.6932 0.1816 -0.6975
vn -0.9466 0.1816 0.2664
vn 0.8384 -0.4755 0.2664
vn -0.1751 -0.4755 0.8621
usemtl None
s off
f 1/1/1 2/2/1 5/3/1 3/4/1
f 1/1/2 3/4/2 7/5/2 4/6/2
f 2/2/3 6/7/3 9/8/3 5/3/3
f 4/6/4 7/5/4 10/9/4 8/10/4
f 6/7/5 8/10/5 10/9/5 9/8/5
o Shape_IndexedFaceSet.001_Shape_IndexedFaceSet.026
v -0.000000 -0.000000 -1.159950
v -1.013460 -0.000000 -0.564254
v 0.350143 0.951056 -0.564254
v 0.771521 -0.657164 -0.564254
v -0.663321 0.951056 0.031445
v -0.868298 -0.657164 0.399607
v 1.121660 0.293893 0.031445
v 0.234883 -1.063310 0.399607
v -0.518155 0.293893 0.995306
v 0.585026 -0.112257 0.995306
vt 0.276394 0.415329
vt 0.276394 0.932012
vt 0.723608 1.000000
vt 0.000000 0.768020
vt 0.000000 0.251337
vt 0.447214 0.000000
vt 1.000000 0.525338
vt 0.723608 0.163990
vt 0.723608 0.361346
vt 0.447214 0.836010
vn -0.2978 -0.8090 -0.5067
vn 0.2978 0.8090 0.5067
vn -0.2979 -0.8090 -0.5067
usemtl None
s off
f 18/11/6 16/12/6 12/13/6
f 19/14/7 20/15/7 17/16/7
f 12/13/6 11/17/6 14/18/6
f 14/18/8 18/11/8 12/13/8
f 17/16/7 13/19/7 15/20/7
f 15/20/7 19/14/7 17/16/7
o Shape_IndexedLineSet_Shape_IndexedLineSet.013
v -0.000000 -0.000000 -1.159950
v 0.350143 0.951056 -0.564254
v -1.013460 -0.000000 -0.564254
v -0.663321 0.951056 0.031445
v 0.771521 -0.657164 -0.564254
v 1.121660 0.293893 0.031445
v -0.868298 -0.657164 0.399607
v -0.518155 0.293893 0.995306
v 0.234883 -1.063310 0.399607
v 0.585026 -0.112257 0.995306
l 21 22
l 23 24
l 25 26
l 27 28
l 29 30
