# Blender v2.93.4 OBJ File: ''
# www.blender.org
mtllib great_icosidodecahedron.mtl
o Shape_IndexedFaceSet_Shape_IndexedFaceSet.033
v -0.000000 -0.000000 -1.701300
v -1.618030 0.000000 0.525731
v -0.723607 1.447210 0.525731
v 1.618030 0.000000 0.525731
v 0.723607 -1.447210 0.525731
v 0.276393 1.447210 -0.850651
v 1.000000 0.000000 1.376380
v 0.447214 -0.894427 1.376380
v -1.170820 -0.894427 -0.850651
v -0.276393 -1.447210 -0.850651
v -1.000000 0.000000 1.376380
v -0.447214 0.894427 1.376380
v 1.170820 0.894427 -0.850651
v 1.447210 -0.894427 -0.000000
v -0.894427 -1.447210 0.000000
v 1.000000 -0.000000 -1.376380
v 0.447214 -0.894427 -1.376380
v 0.894427 1.447210 -0.000000
v -1.447210 0.894427 0.000000
v -1.000000 -0.000000 -1.376380
v -0.447214 0.894427 -1.376380
v -1.170820 -0.894427 0.850651
v 0.276393 1.447210 0.850651
v -1.618030 -0.000000 -0.525731
v -0.723607 1.447210 -0.525731
v 1.170820 0.894427 0.850651
v -0.276393 -1.447210 0.850651
v 1.618030 -0.000000 -0.525731
v 0.723607 -1.447210 -0.525731
v 0.000000 0.000000 1.701300
v -0.647214 0.400000 -0.470228
v 0.647214 -0.400000 -0.470228
v -0.247214 -0.400000 0.760845
v 0.247214 0.400000 0.760845
v 0.800000 0.400000 -0.000000
v 0.000000 -0.894427 0.000000
v -0.800000 -0.400000 0.000000
v -0.000000 0.894427 -0.000000
v -0.247214 -0.400000 -0.760845
v 0.247214 0.400000 -0.760845
v -0.647214 0.400000 0.470228
v 0.647214 -0.400000 0.470228
vt 0.638197 0.700001
vt 1.000000 0.500000
vt 0.345491 1.000000
vt 0.750000 0.414590
vt 0.750000 0.861804
vt 0.345491 0.723607
vt 0.638197 0.299999
vt 0.345491 0.000000
vt 0.750000 0.585410
vt 0.750000 0.138196
vt 0.345491 0.276393
vt 0.276393 0.576394
vt 0.095492 0.638197
vt 0.500000 0.776394
vt 0.095492 0.190982
vt 0.276393 0.423606
vt 0.095492 0.361803
vt 0.500000 0.223606
vt 0.095492 0.809018
vt 0.500000 0.252786
vt 0.904508 0.190982
vt 0.250000 0.414590
vt 0.500000 0.052786
vt 0.500000 0.500000
vt 0.250000 0.861804
vt 0.904508 0.361803
vt 0.500000 0.747214
vt 0.904508 0.809018
vt 0.250000 0.585410
vt 0.500000 0.947214
vt 0.500000 0.500000
vt 0.250000 0.138196
vt 0.904508 0.638197
vt 0.723607 0.576394
vt 0.654509 0.276393
vt 0.654509 1.000000
vt 0.723607 0.423606
vt 0.654509 0.723607
vt 0.654509 0.000000
vt 0.361803 0.700001
vt 0.000000 0.500000
vt 0.361803 0.299999
vn -0.7236 0.4472 -0.5257
vn 0.7236 -0.4472 -0.5257
vn -0.2764 -0.4472 0.8506
vn -0.2764 -0.4472 0.8507
vn 0.2764 0.4472 0.8507
vn 0.2764 0.4472 0.8506
vn 0.8944 0.4472 0.0000
vn 0.0000 -1.0000 0.0000
vn -0.8944 -0.4472 0.0000
vn 0.0000 1.0000 0.0000
vn -0.2764 -0.4472 -0.8507
vn -0.2764 -0.4472 -0.8506
vn 0.2764 0.4472 -0.8507
vn 0.2764 0.4472 -0.8506
vn -0.7236 0.4472 0.5257
vn 0.7236 -0.4472 0.5257
usemtl None
s off
f 31/1/1 1/2/1 2/3/1
f 31/1/1 2/3/1 6/4/1
f 31/1/1 6/4/1 9/5/1
f 31/1/1 9/5/1 3/6/1
f 31/1/1 3/6/1 1/2/1
f 32/7/2 1/2/2 4/8/2
f 32/7/2 4/8/2 10/9/2
f 32/7/2 10/9/2 13/10/2
f 32/7/2 13/10/2 5/11/2
f 32/7/2 5/11/2 1/2/2
f 33/12/3 2/3/3 5/11/3
f 33/12/4 5/11/4 12/13/4
f 33/12/4 12/13/4 15/14/4
f 33/12/4 15/14/4 7/15/4
f 33/12/4 7/15/4 2/3/4
f 34/16/5 3/6/5 8/17/5
f 34/16/5 8/17/5 18/18/5
f 34/16/5 18/18/5 11/19/5
f 34/16/5 11/19/5 4/8/5
f 34/16/6 4/8/6 3/6/6
f 35/20/7 6/4/7 7/15/7
f 35/20/7 7/15/7 16/21/7
f 35/20/7 16/21/7 23/22/7
f 35/20/7 23/22/7 14/23/7
f 35/20/7 14/23/7 6/4/7
f 36/24/8 8/17/8 9/5/8
f 36/24/8 9/5/8 14/23/8
f 36/24/8 14/23/8 22/25/8
f 36/24/8 22/25/8 17/26/8
f 36/24/8 17/26/8 8/17/8
f 37/27/9 10/9/9 11/19/9
f 37/27/9 11/19/9 20/28/9
f 37/27/9 20/28/9 27/29/9
f 37/27/9 27/29/9 19/30/9
f 37/27/9 19/30/9 10/9/9
f 38/31/10 12/13/10 13/10/10
f 38/31/10 13/10/10 19/30/10
f 38/31/10 19/30/10 26/32/10
f 38/31/10 26/32/10 21/33/10
f 38/31/10 21/33/10 12/13/10
f 39/34/11 15/14/11 21/33/11
f 39/34/11 21/33/11 29/35/11
f 39/34/12 29/35/12 24/36/12
f 39/34/11 24/36/11 16/21/11
f 39/34/11 16/21/11 15/14/11
f 40/37/13 17/26/13 25/38/13
f 40/37/14 25/38/14 28/39/14
f 40/37/13 28/39/13 20/28/13
f 40/37/13 20/28/13 18/18/13
f 40/37/13 18/18/13 17/26/13
f 41/40/15 22/25/15 23/22/15
f 41/40/15 23/22/15 24/36/15
f 41/40/15 24/36/15 30/41/15
f 41/40/15 30/41/15 25/38/15
f 41/40/15 25/38/15 22/25/15
f 42/42/16 26/32/16 27/29/16
f 42/42/16 27/29/16 28/39/16
f 42/42/16 28/39/16 30/41/16
f 42/42/16 30/41/16 29/35/16
f 42/42/16 29/35/16 26/32/16
o Shape_IndexedFaceSet.001_Shape_IndexedFaceSet.034
v -0.000000 -0.000000 -1.701300
v -1.618030 0.000000 0.525731
v -0.723607 1.447210 0.525731
v 1.618030 0.000000 0.525731
v 0.723607 -1.447210 0.525731
v 0.276393 1.447210 -0.850651
v 1.000000 0.000000 1.376380
v 0.447214 -0.894427 1.376380
v -1.170820 -0.894427 -0.850651
v -0.276393 -1.447210 -0.850651
v -1.000000 0.000000 1.376380
v -0.447214 0.894427 1.376380
v 1.170820 0.894427 -0.850651
v 1.447210 -0.894427 -0.000000
v -0.894427 -1.447210 0.000000
v 1.000000 -0.000000 -1.376380
v 0.447214 -0.894427 -1.376380
v 0.894427 1.447210 -0.000000
v -1.447210 0.894427 0.000000
v -1.000000 -0.000000 -1.376380
v -0.447214 0.894427 -1.376380
v -1.170820 -0.894427 0.850651
v 0.276393 1.447210 0.850651
v -1.618030 -0.000000 -0.525731
v -0.723607 1.447210 -0.525731
v 1.170820 0.894427 0.850651
v -0.276393 -1.447210 0.850651
v 1.618030 -0.000000 -0.525731
v 0.723607 -1.447210 -0.525731
v 0.000000 0.000000 1.701300
v -0.647214 0.400000 -0.470228
v 0.647214 -0.400000 -0.470228
v -0.247214 -0.400000 0.760845
v 0.247214 0.400000 0.760845
v 0.800000 0.400000 -0.000000
v 0.000000 -0.894427 0.000000
v -0.800000 -0.400000 0.000000
v -0.000000 0.894427 -0.000000
v -0.247214 -0.400000 -0.760845
v 0.247214 0.400000 -0.760845
v -0.647214 0.400000 0.470228
v 0.647214 -0.400000 0.470228
vt 1.000000 0.500000
vt 0.345491 0.723607
vt 0.345491 0.000000
vt 0.345491 0.276393
vt 0.345491 1.000000
vt 0.095492 0.190982
vt 0.750000 0.414590
vt 0.750000 0.861804
vt 0.095492 0.361803
vt 0.095492 0.809018
vt 0.750000 0.585410
vt 0.750000 0.138196
vt 0.095492 0.638197
vt 0.500000 0.052786
vt 0.500000 0.776394
vt 0.904508 0.190982
vt 0.904508 0.361803
vt 0.500000 0.223606
vt 0.500000 0.947214
vt 0.904508 0.809018
vt 0.904508 0.638197
vt 0.250000 0.414590
vt 0.250000 0.861804
vt 0.654509 1.000000
vt 0.654509 0.723607
vt 0.250000 0.585410
vt 0.250000 0.138196
vt 0.654509 0.000000
vt 0.654509 0.276393
vt 0.000000 0.500000
vn 0.4911 0.7947 -0.3568
vn -0.4911 -0.7947 -0.3568
vn -0.1876 0.7947 0.5773
vn -0.7947 -0.1876 0.5774
vn 0.1876 -0.7947 0.5773
vn 0.7947 0.1876 0.5774
vn 0.3035 -0.1876 -0.9342
vn 0.6071 -0.7947 0.0000
vn 0.9822 -0.1876 -0.0000
vn -0.3035 0.1876 -0.9342
vn -0.6071 0.7947 -0.0000
vn -0.9822 0.1876 0.0000
vn 0.3035 -0.1876 0.9342
vn -0.1876 0.7947 -0.5773
vn -0.7947 -0.1876 -0.5774
vn -0.3035 0.1876 0.9342
vn 0.1876 -0.7947 -0.5773
vn 0.7947 0.1876 -0.5774
vn -0.4911 -0.7947 0.3568
vn 0.4911 0.7947 0.3568
usemtl None
s off
f 43/43/17 45/44/17 46/45/17
f 43/43/18 47/46/18 44/47/18
f 44/47/19 49/48/19 48/49/19
f 45/44/20 51/50/20 50/51/20
f 46/45/21 53/52/21 52/53/21
f 47/46/22 55/54/22 54/55/22
f 48/49/23 56/56/23 51/50/23
f 49/48/24 57/57/24 58/58/24
f 50/51/25 59/59/25 60/60/25
f 52/53/26 61/61/26 55/54/26
f 53/52/27 60/60/27 62/62/27
f 54/55/28 63/63/28 57/57/28
f 56/56/29 65/64/29 64/65/29
f 58/58/30 66/66/30 65/64/30
f 59/59/31 64/65/31 67/67/31
f 61/61/32 69/68/32 68/69/32
f 62/62/33 70/70/33 69/68/33
f 63/63/34 68/69/34 71/71/34
f 66/66/35 71/71/35 72/72/35
f 67/67/36 72/72/36 70/70/36
