# Blender v2.93.4 OBJ File: ''
# www.blender.org
mtllib great_dodecahemiicosahedron.mtl
o Shape_IndexedFaceSet_Shape_IndexedFaceSet.031
v -0.000000 -0.000000 -1.154700
v -1.000000 -0.000000 -0.577350
v 1.000000 -0.000000 -0.577350
v 0.745356 0.666667 -0.577350
v -0.745356 -0.666667 -0.577350
v -1.000000 0.000000 0.577350
v -0.872678 0.666667 0.356822
v -0.127322 -0.666667 -0.934172
v 0.127322 0.666667 -0.934172
v 0.872678 -0.666667 0.356822
v 1.000000 0.000000 0.577350
v 0.745356 0.666667 0.577350
v 0.206011 1.078690 0.356822
v 0.539345 -0.412023 -0.934172
v -0.539345 0.412023 -0.934172
v -0.206011 -1.078690 0.356822
v -0.745356 -0.666667 0.577350
v -0.872678 0.666667 -0.356822
v -0.127322 -0.666667 0.934172
v 0.000000 0.000000 1.154700
v 0.127322 0.666667 0.934172
v -1.078690 -0.412023 0.000000
v 0.412023 -1.078690 0.000000
v 0.872678 -0.666667 -0.356822
v -0.412023 1.078690 -0.000000
v 1.078690 0.412023 -0.000000
v 0.206011 1.078690 -0.356822
v 0.539345 -0.412023 0.934172
v -0.539345 0.412023 0.934172
v -0.206011 -1.078690 -0.356822
v 0.482405 0.184262 -0.835549
v -0.482405 -0.184262 -0.835549
v -0.964809 0.184262 0.000000
v 0.964809 -0.184262 -0.000000
v 0.596285 0.780547 -0.000000
v -0.596285 -0.780547 0.000000
v -0.482405 -0.184262 0.835549
v -0.298142 0.780547 0.516398
v 0.298142 -0.780547 -0.516398
v -0.298142 0.780547 -0.516398
v 0.298142 -0.780547 0.516398
v 0.482405 0.184262 0.835549
vt 0.861803 0.276393
vt 0.750000 0.154509
vt 0.904509 0.250000
vt 0.904509 0.440983
vt 0.750000 0.036475
vt 1.000000 0.500000
vt 0.861803 0.723607
vt 0.750000 0.845491
vt 0.904509 0.750000
vt 0.904509 0.559017
vt 0.750000 0.963525
vt 0.500000 0.947213
vt 0.250000 0.963525
vt 0.654509 0.904508
vt 0.500000 1.000000
vt 0.345491 0.904508
vt 0.500000 0.052787
vt 0.250000 0.036475
vt 0.654509 0.095492
vt 0.500000 0.000000
vt 0.345491 0.095492
vt 0.500000 0.223607
vt 0.345491 0.404509
vt 0.654509 0.404509
vt 0.250000 0.154509
vt 0.500000 0.776393
vt 0.345491 0.595491
vt 0.654509 0.595491
vt 0.250000 0.845491
vt 0.138196 0.723607
vt 0.095491 0.559017
vt 0.095491 0.750000
vt 0.000000 0.500000
vt 0.276393 0.638196
vt 0.095491 0.440983
vt 0.500000 0.690983
vt 0.723607 0.361804
vt 0.500000 0.309017
vt 0.723607 0.638196
vt 0.276393 0.361804
vt 0.095491 0.250000
vt 0.138196 0.276393
vn 0.4911 0.1876 -0.8507
vn -0.4911 -0.1876 -0.8507
vn -0.9822 0.1876 -0.0000
vn 0.9822 -0.1876 -0.0000
vn 0.6071 0.7947 0.0000
vn -0.6071 -0.7947 -0.0000
vn -0.4911 -0.1876 0.8507
vn -0.3035 0.7947 0.5257
vn 0.3035 -0.7947 -0.5257
vn -0.3035 0.7947 -0.5257
vn 0.3035 -0.7947 0.5257
vn 0.4911 0.1876 0.8507
usemtl None
s off
f 31/1/1 4/2/1 14/3/1
f 31/1/1 14/3/1 9/4/1
f 31/1/1 9/4/1 3/5/1
f 31/1/1 3/5/1 1/6/1
f 31/1/1 1/6/1 4/2/1
f 32/7/2 1/6/2 5/8/2
f 32/7/2 5/8/2 15/9/2
f 32/7/2 15/9/2 8/10/2
f 32/7/2 8/10/2 2/11/2
f 32/7/2 2/11/2 1/6/2
f 33/12/3 6/13/3 18/14/3
f 33/12/3 18/14/3 22/15/3
f 33/12/3 22/15/3 7/16/3
f 33/12/3 7/16/3 2/11/3
f 33/12/3 2/11/3 6/13/3
f 34/17/4 3/5/4 11/18/4
f 34/17/4 11/18/4 24/19/4
f 34/17/4 24/19/4 26/20/4
f 34/17/4 26/20/4 10/21/4
f 34/17/4 10/21/4 3/5/4
f 35/22/5 4/2/5 13/23/5
f 35/22/5 13/23/5 26/20/5
f 35/22/5 26/20/5 27/24/5
f 35/22/5 27/24/5 12/25/5
f 35/22/5 12/25/5 4/2/5
f 36/26/6 16/27/6 22/15/6
f 36/26/6 22/15/6 30/28/6
f 36/26/6 30/28/6 17/29/6
f 36/26/6 17/29/6 5/8/6
f 36/26/6 5/8/6 16/27/6
f 37/30/7 6/13/7 19/31/7
f 37/30/7 19/31/7 29/32/7
f 37/30/7 29/32/7 17/29/7
f 37/30/7 17/29/7 20/33/7
f 37/30/7 20/33/7 6/13/7
f 38/34/8 7/16/8 21/35/8
f 38/34/8 21/35/8 25/36/8
f 38/34/8 25/36/8 29/32/8
f 38/34/8 29/32/8 13/23/8
f 38/34/8 13/23/8 7/16/8
f 39/37/9 24/19/9 30/28/9
f 39/37/9 30/28/9 14/3/9
f 39/37/9 14/3/9 23/38/9
f 39/37/9 23/38/9 8/10/9
f 39/37/9 8/10/9 24/19/9
f 40/39/10 9/4/10 18/14/10
f 40/39/10 18/14/10 27/24/10
f 40/39/10 27/24/10 15/9/10
f 40/39/10 15/9/10 25/36/10
f 40/39/10 25/36/10 9/4/10
f 41/40/11 19/31/11 23/38/11
f 41/40/11 23/38/11 28/41/11
f 41/40/11 28/41/11 16/27/11
f 41/40/11 16/27/11 10/21/11
f 41/40/11 10/21/11 19/31/11
f 42/42/12 21/35/12 28/41/12
f 42/42/12 28/41/12 12/25/12
f 42/42/12 12/25/12 20/33/12
f 42/42/12 20/33/12 11/18/12
f 42/42/12 11/18/12 21/35/12
o Shape_IndexedFaceSet.001_Shape_IndexedFaceSet.032
v -0.000000 -0.000000 -1.154700
v -1.000000 -0.000000 -0.577350
v 1.000000 -0.000000 -0.577350
v 0.745356 0.666667 -0.577350
v -0.745356 -0.666667 -0.577350
v -1.000000 0.000000 0.577350
v -0.872678 0.666667 0.356822
v -0.127322 -0.666667 -0.934172
v 0.127322 0.666667 -0.934172
v 0.872678 -0.666667 0.356822
v 1.000000 0.000000 0.577350
v 0.745356 0.666667 0.577350
v 0.206011 1.078690 0.356822
v 0.539345 -0.412023 -0.934172
v -0.539345 0.412023 -0.934172
v -0.206011 -1.078690 0.356822
v -0.745356 -0.666667 0.577350
v -0.872678 0.666667 -0.356822
v -0.127322 -0.666667 0.934172
v 0.000000 0.000000 1.154700
v 0.127322 0.666667 0.934172
v -1.078690 -0.412023 0.000000
v 0.412023 -1.078690 0.000000
v 0.872678 -0.666667 -0.356822
v -0.412023 1.078690 -0.000000
v 1.078690 0.412023 -0.000000
v 0.206011 1.078690 -0.356822
v 0.539345 -0.412023 0.934172
v -0.539345 0.412023 0.934172
v -0.206011 -1.078690 -0.356822
v 0.482405 0.184262 -0.835549
v -0.482405 -0.184262 -0.835549
v -0.964809 0.184262 0.000000
v 0.964809 -0.184262 -0.000000
v 0.596285 0.780547 -0.000000
v -0.596285 -0.780547 0.000000
v -0.482405 -0.184262 0.835549
v -0.298142 0.780547 0.516398
v 0.298142 -0.780547 -0.516398
v -0.298142 0.780547 -0.516398
v 0.298142 -0.780547 0.516398
v 0.482405 0.184262 0.835549
vt 0.000000 0.500000
vt 0.250000 0.036475
vt 0.750000 0.036475
vt 0.250000 0.845491
vt 0.750000 0.845491
vt 0.095491 0.440983
vt 0.345491 0.904508
vt 0.904509 0.559017
vt 0.250000 0.963525
vt 0.654509 0.904508
vt 0.904509 0.440983
vt 0.904509 0.250000
vt 0.750000 0.154509
vt 0.095491 0.750000
vt 0.250000 0.154509
vt 0.654509 0.404509
vt 0.904509 0.750000
vt 0.500000 0.000000
vt 0.345491 0.404509
vt 0.095491 0.250000
vt 0.500000 0.309017
vt 0.095491 0.559017
vt 0.345491 0.095492
vt 1.000000 0.500000
vt 0.750000 0.963525
vt 0.654509 0.095492
vt 0.654509 0.595491
vt 0.345491 0.595491
vt 0.500000 1.000000
vt 0.500000 0.690983
vn -0.0000 1.0000 -0.0000
vn 0.6667 -0.7454 -0.0000
vn -0.3333 -0.7454 0.5774
vn -0.3333 -0.7454 -0.5774
vn 0.7454 -0.3333 0.5774
vn -0.7454 0.3333 0.5774
vn 0.1273 -0.3333 0.9342
vn 0.8727 0.3333 -0.3568
vn 0.8727 0.3333 0.3568
vn 0.1273 -0.3333 -0.9342
usemtl None
s off
f 62/43/13 53/44/13 45/45/13
f 62/43/14 59/46/14 47/47/14
f 63/48/15 49/49/15 50/50/15
f 48/51/16 60/52/16 51/53/16
f 56/54/17 46/55/17 71/56/17
f 54/57/18 69/58/18 57/59/18
f 68/60/19 55/61/19 49/49/19
f 63/48/20 70/62/20 65/63/20
f 61/64/21 65/63/21 56/54/21
f 69/58/22 68/60/22 52/65/22
f 45/45/13 43/66/13 62/43/13
f 43/66/13 44/67/13 62/43/13
f 44/67/13 48/51/13 62/43/13
f 47/47/14 43/66/14 62/43/14
f 43/66/14 46/55/14 62/43/14
f 46/55/14 54/57/14 62/43/14
f 49/49/15 44/67/15 50/50/15
f 50/50/15 66/68/15 53/44/15
f 53/44/15 63/48/15 50/50/15
f 51/53/16 45/45/16 48/51/16
f 45/45/16 52/65/16 48/51/16
f 52/65/16 61/64/16 48/51/16
f 46/55/17 55/61/17 71/56/17
f 71/56/17 59/46/17 72/69/17
f 72/69/17 56/54/17 71/56/17
f 57/59/18 47/47/18 58/70/18
f 58/70/18 70/62/18 57/59/18
f 70/62/18 54/57/18 57/59/18
f 49/49/19 64/71/19 72/69/19
f 72/69/19 66/68/19 49/49/19
f 66/68/19 68/60/19 49/49/19
f 65/63/20 50/50/20 63/48/20
f 50/50/20 57/59/20 63/48/20
f 57/59/20 67/72/20 63/48/20
f 56/54/21 51/53/21 61/64/21
f 51/53/21 67/72/21 61/64/21
f 67/72/21 71/56/21 61/64/21
f 52/65/22 58/70/22 64/71/22
f 64/71/22 60/52/22 52/65/22
f 60/52/22 69/58/22 52/65/22
