# Blender v2.93.4 OBJ File: ''
# www.blender.org
mtllib great_triambic_icosidodecahedron.mtl
o Shape_IndexedFaceSet_Shape_IndexedFaceSet.037
v -0.000000 -0.000000 -1.224750
v -1.154700 -0.000000 -0.408248
v -0.288675 1.118030 -0.408248
v 0.577350 -1.000000 -0.408248
v -0.823908 -0.809017 -0.408248
v 0.577350 1.000000 -0.408248
v 1.112580 -0.309017 -0.408248
v -0.577350 -1.000000 0.408248
v -0.110264 -0.809017 -0.912871
v -0.577350 1.000000 0.408248
v -0.755761 -0.309017 0.912871
v 0.110264 0.809017 0.912871
v -1.112580 0.309017 0.408248
v 0.755761 0.309017 -0.912871
v 0.823908 0.809017 0.408248
v 1.154700 0.000000 0.408248
v 0.645497 -0.500000 0.912871
v 0.288675 -1.118030 0.408248
v -0.645497 0.500000 -0.912871
v 0.000000 0.000000 1.224750
vt 1.000000 0.500000
vt 0.666666 1.000000
vt 0.666666 0.625000
vt 0.666666 0.250000
vt 0.666666 0.856763
vt 0.666666 0.250000
vt 0.666666 0.018239
vt 0.127324 0.827254
vt 0.333334 0.750000
vt 0.872676 0.547746
vt 0.333334 0.750000
vt 0.333334 0.143237
vt 0.872676 0.172746
vt 0.333334 0.981762
vt 0.127324 0.452254
vt 0.127324 0.220491
vt 0.333334 0.000000
vt 0.872676 0.779509
vt 0.333334 0.375000
vt 0.000000 0.500000
vn -0.5270 0.4083 -0.7454
vn -0.0900 -0.6606 -0.7454
vn 0.6171 0.2523 -0.7454
vn -0.9084 0.2523 0.3333
vn -0.6727 -0.6606 -0.3333
vn 0.4714 0.8165 -0.3333
vn -0.4714 0.8165 0.3333
vn 0.2357 -0.9129 0.3333
vn 0.9084 -0.2523 -0.3333
vn -0.9428 0.0000 -0.3333
vn -0.4714 -0.8165 0.3333
vn 0.6727 0.6606 0.3333
vn -0.2357 0.9129 -0.3333
vn 0.4714 -0.8165 -0.3333
vn 0.9428 -0.0000 0.3333
vn -0.6171 -0.2523 0.7454
vn 0.0000 -0.0000 -1.0000
vn 0.0900 0.6606 0.7454
vn 0.0000 0.0000 1.0000
vn 0.5270 -0.4083 0.7454
usemtl None
s off
f 1/1/1 2/2/1 3/3/1
f 1/1/2 4/4/2 5/5/2
f 1/1/3 6/6/3 7/7/3
f 2/2/4 11/8/4 10/9/4
f 2/2/5 9/10/5 8/11/5
f 3/3/6 15/12/6 14/13/6
f 3/3/7 13/14/7 12/15/7
f 4/4/8 17/16/8 8/11/8
f 4/4/9 14/13/9 16/17/9
f 5/5/10 13/14/10 19/18/10
f 5/5/11 18/19/11 11/8/11
f 6/6/12 12/15/12 16/17/12
f 6/6/13 19/18/13 10/9/13
f 7/7/14 18/19/14 9/10/14
f 7/7/15 15/12/15 17/16/15
f 8/11/16 20/20/16 13/14/16
f 9/10/17 19/18/17 14/13/17
f 10/9/18 20/20/18 15/12/18
f 11/8/19 17/16/19 12/15/19
f 16/17/20 20/20/20 18/19/20
o Shape_IndexedFaceSet.001_Shape_IndexedFaceSet.038
v -0.000000 -0.000000 -1.224750
v -1.154700 -0.000000 -0.408248
v -0.288675 1.118030 -0.408248
v 0.577350 -1.000000 -0.408248
v -0.823908 -0.809017 -0.408248
v 0.577350 1.000000 -0.408248
v 1.112580 -0.309017 -0.408248
v -0.577350 -1.000000 0.408248
v -0.110264 -0.809017 -0.912871
v -0.577350 1.000000 0.408248
v -0.755761 -0.309017 0.912871
v 0.110264 0.809017 0.912871
v -1.112580 0.309017 0.408248
v 0.755761 0.309017 -0.912871
v 0.823908 0.809017 0.408248
v 1.154700 0.000000 0.408248
v 0.645497 -0.500000 0.912871
v 0.288675 -1.118030 0.408248
v -0.645497 0.500000 -0.912871
v 0.000000 0.000000 1.224750
vt 0.666666 0.625000
vt 0.127324 0.220491
vt 0.666666 0.250000
vt 0.666666 0.856763
vt 0.127324 0.452254
vt 0.666666 0.250000
vt 0.666666 0.018239
vt 0.127324 0.827254
vt 0.666666 1.000000
vt 0.333334 0.750000
vt 0.333334 0.143237
vt 0.333334 0.750000
vt 0.333334 0.981762
vt 0.333334 0.000000
vt 0.333334 0.375000
vt 0.872676 0.547746
vt 0.872676 0.172746
vt 0.872676 0.779509
vt 0.000000 0.500000
vt 1.000000 0.500000
vn 0.9092 0.3717 -0.1876
vn -0.7765 0.6015 -0.1876
vn -0.1326 -0.9732 -0.1876
vn 0.0820 0.6015 -0.7947
vn -0.4799 0.3717 0.7947
vn -0.5619 -0.2298 -0.7947
vn -0.0820 -0.6015 0.7947
vn 0.4799 -0.3717 -0.7947
vn 0.5619 0.2298 0.7947
vn 0.7765 -0.6015 0.1876
vn -0.9092 -0.3717 0.1876
vn 0.1326 0.9732 0.1876
usemtl None
s off
f 23/21/21 37/22/21 24/23/21
f 25/24/22 32/25/22 26/26/22
f 27/27/23 31/28/23 22/29/23
f 30/30/24 35/31/24 27/27/24
f 37/22/25 35/31/25 23/21/25
f 24/23/26 28/32/26 33/33/26
f 36/34/27 32/25/27 33/33/27
f 26/26/28 36/34/28 38/35/28
f 30/30/29 38/35/29 27/27/29
f 29/36/30 34/37/30 35/31/30
f 38/35/31 30/30/31 39/38/31
f 40/39/32 36/34/32 34/37/32
f 24/23/21 21/40/21 23/21/21
f 23/21/21 32/25/21 37/22/21
f 26/26/22 21/40/22 25/24/22
f 25/24/22 31/28/22 32/25/22
f 22/29/23 21/40/23 27/27/23
f 27/27/23 37/22/23 31/28/23
f 29/36/24 22/29/24 27/27/24
f 22/29/24 30/30/24 27/27/24
f 23/21/25 22/29/25 28/32/25
f 28/32/25 37/22/25 23/21/25
f 33/33/26 23/21/26 34/37/26
f 34/37/26 24/23/26 33/33/26
f 25/24/27 24/23/27 33/33/27
f 24/23/27 36/34/27 33/33/27
f 38/35/28 25/24/28 39/38/28
f 39/38/28 26/26/28 38/35/28
f 27/27/29 26/26/29 30/30/29
f 30/30/29 31/28/29 38/35/29
f 40/39/30 28/32/30 35/31/30
f 28/32/30 29/36/30 35/31/30
f 39/38/31 29/36/31 38/35/31
f 38/35/31 40/39/31 30/30/31
f 39/38/32 33/33/32 34/37/32
f 33/33/32 40/39/32 34/37/32
