# Blender v2.93.4 OBJ File: ''
# www.blender.org
mtllib icosidodecahedron.mtl
o Shape_IndexedFaceSet_Shape_IndexedFaceSet.039
v -0.000000 -0.000000 -1.051460
v -0.618034 -0.000000 -0.850651
v -0.276393 0.552786 -0.850651
v 0.618034 -0.000000 -0.850651
v 0.276393 -0.552786 -0.850651
v -1.000000 -0.000000 -0.324920
v -0.723607 -0.552786 -0.525731
v 0.170820 0.894427 -0.525731
v -0.447214 0.894427 -0.324920
v 1.000000 -0.000000 -0.324920
v 0.723607 0.552786 -0.525731
v -0.170820 -0.894427 -0.525731
v 0.447214 -0.894427 -0.324920
v -1.000000 0.000000 0.324920
v -0.894427 0.552786 0.000000
v -0.552786 -0.894427 0.000000
v 0.552786 0.894427 -0.000000
v -0.447214 0.894427 0.324920
v 1.000000 0.000000 0.324920
v 0.894427 -0.552786 -0.000000
v 0.447214 -0.894427 0.324920
v -0.618034 0.000000 0.850651
v -0.723607 -0.552786 0.525731
v -0.170820 -0.894427 0.525731
v 0.723607 0.552786 0.525731
v 0.170820 0.894427 0.525731
v -0.276393 0.552786 0.850651
v 0.618034 0.000000 0.850651
v 0.276393 -0.552786 0.850651
v 0.000000 0.000000 1.051460
vt 1.000000 0.500000
vt 0.904509 0.809017
vt 0.904509 0.638197
vt 0.904509 0.190983
vt 0.904509 0.361804
vt 0.750000 0.861803
vt 0.654509 1.000000
vt 0.654509 0.723607
vt 0.750000 0.414590
vt 0.750000 0.138196
vt 0.654509 0.000000
vt 0.654509 0.276393
vt 0.750000 0.585410
vt 0.345491 1.000000
vt 0.500000 0.947213
vt 0.500000 0.776393
vt 0.500000 0.223607
vt 0.345491 0.723607
vt 0.345491 0.000000
vt 0.500000 0.052786
vt 0.345491 0.276393
vt 0.250000 0.861803
vt 0.095491 0.809017
vt 0.250000 0.585410
vt 0.250000 0.414590
vt 0.250000 0.138196
vt 0.095491 0.638197
vt 0.095491 0.190983
vt 0.095491 0.361804
vt 0.000000 0.500000
vn -0.3035 0.1876 -0.9342
vn 0.3035 -0.1876 -0.9342
vn -0.7947 -0.1876 -0.5774
vn -0.1876 0.7947 -0.5774
vn 0.7947 0.1876 -0.5774
vn 0.1876 -0.7947 -0.5774
vn -0.9822 0.1876 0.0000
vn -0.4911 -0.7947 -0.3568
vn 0.4911 0.7947 -0.3568
vn -0.6071 0.7947 0.0000
vn 0.9822 -0.1876 0.0000
vn 0.6071 -0.7947 -0.0000
vn -0.7947 -0.1876 0.5774
vn -0.4911 -0.7947 0.3568
vn 0.4911 0.7947 0.3568
vn -0.1876 0.7947 0.5774
vn 0.7947 0.1876 0.5774
vn 0.1876 -0.7947 0.5774
vn -0.3035 0.1876 0.9342
vn 0.3035 -0.1876 0.9342
usemtl None
s off
f 1/1/1 2/2/1 3/3/1
f 1/1/2 4/4/2 5/5/2
f 2/2/3 7/6/3 6/7/3
f 3/3/4 9/8/4 8/9/4
f 4/4/5 11/10/5 10/11/5
f 5/5/6 13/12/6 12/13/6
f 6/7/7 14/14/7 15/15/7
f 7/6/8 12/13/8 16/16/8
f 8/9/9 17/17/9 11/10/9
f 9/8/10 15/15/10 18/18/10
f 10/11/11 19/19/11 20/20/11
f 13/12/12 20/20/12 21/21/12
f 14/14/13 23/22/13 22/23/13
f 16/16/14 24/24/14 23/22/14
f 17/17/15 26/25/15 25/26/15
f 18/18/16 27/27/16 26/25/16
f 19/19/17 25/26/17 28/28/17
f 21/21/18 29/29/18 24/24/18
f 22/23/19 30/30/19 27/27/19
f 28/28/20 30/30/20 29/29/20
o Shape_IndexedFaceSet.001_Shape_IndexedFaceSet.040
v -0.000000 -0.000000 -1.051460
v -0.618034 -0.000000 -0.850651
v -0.276393 0.552786 -0.850651
v 0.618034 -0.000000 -0.850651
v 0.276393 -0.552786 -0.850651
v -1.000000 -0.000000 -0.324920
v -0.723607 -0.552786 -0.525731
v 0.170820 0.894427 -0.525731
v -0.447214 0.894427 -0.324920
v 1.000000 -0.000000 -0.324920
v 0.723607 0.552786 -0.525731
v -0.170820 -0.894427 -0.525731
v 0.447214 -0.894427 -0.324920
v -1.000000 0.000000 0.324920
v -0.894427 0.552786 0.000000
v -0.552786 -0.894427 0.000000
v 0.552786 0.894427 -0.000000
v -0.447214 0.894427 0.324920
v 1.000000 0.000000 0.324920
v 0.894427 -0.552786 -0.000000
v 0.447214 -0.894427 0.324920
v -0.618034 0.000000 0.850651
v -0.723607 -0.552786 0.525731
v -0.170820 -0.894427 0.525731
v 0.723607 0.552786 0.525731
v 0.170820 0.894427 0.525731
v -0.276393 0.552786 0.850651
v 0.618034 0.000000 0.850651
v 0.276393 -0.552786 0.850651
v 0.000000 0.000000 1.051460
vt 0.904509 0.638197
vt 0.750000 0.414590
vt 0.750000 0.138196
vt 0.904509 0.361804
vt 0.750000 0.585410
vt 0.750000 0.861803
vt 0.654509 1.000000
vt 0.654509 0.723607
vt 0.654509 0.000000
vt 0.654509 0.276393
vt 0.250000 0.861803
vt 0.345491 1.000000
vt 0.345491 0.723607
vt 0.250000 0.414590
vt 0.250000 0.138196
vt 0.345491 0.000000
vt 0.345491 0.276393
vt 0.250000 0.585410
vt 0.095491 0.809017
vt 0.095491 0.638197
vt 0.095491 0.190983
vt 0.095491 0.361804
vt 0.000000 0.500000
vt 0.904509 0.190983
vt 1.000000 0.500000
vt 0.904509 0.809017
vt 0.500000 0.947213
vt 0.500000 0.052786
vt 0.500000 0.776393
vt 0.500000 0.223607
vn 0.2764 0.4472 -0.8507
vn -0.2764 -0.4472 -0.8507
vn -0.7236 0.4472 -0.5257
vn 0.7236 -0.4472 -0.5257
vn -0.8944 -0.4472 0.0000
vn 0.0000 1.0000 0.0000
vn 0.8944 0.4472 -0.0000
vn 0.0000 -1.0000 0.0000
vn -0.7236 0.4472 0.5257
vn 0.7236 -0.4472 0.5257
vn -0.2764 -0.4472 0.8507
vn 0.2764 0.4472 0.8507
usemtl None
s off
f 33/31/21 38/32/21 41/33/21
f 35/34/22 42/35/22 37/36/22
f 36/37/23 39/38/23 33/31/23
f 40/39/24 43/40/24 35/34/24
f 37/36/25 53/41/25 44/42/25
f 39/38/26 48/43/26 56/44/26
f 41/33/27 55/45/27 49/46/27
f 43/40/28 51/47/28 54/48/28
f 52/49/29 57/50/29 48/43/29
f 58/51/30 59/52/30 51/47/30
f 54/48/31 59/52/31 60/53/31
f 56/44/32 57/50/32 60/53/32
f 34/54/21 31/55/21 41/33/21
f 31/55/21 33/31/21 41/33/21
f 32/56/22 31/55/22 37/36/22
f 31/55/22 35/34/22 37/36/22
f 33/31/23 32/56/23 36/37/23
f 36/37/23 45/57/23 39/38/23
f 35/34/24 34/54/24 40/39/24
f 40/39/24 50/58/24 43/40/24
f 44/42/25 36/37/25 37/36/25
f 37/36/25 46/59/25 53/41/25
f 47/60/26 38/32/26 56/44/26
f 38/32/26 39/38/26 56/44/26
f 49/46/27 40/39/27 41/33/27
f 41/33/27 47/60/27 55/45/27
f 46/59/28 42/35/28 54/48/28
f 42/35/28 43/40/28 54/48/28
f 45/57/29 44/42/29 48/43/29
f 44/42/29 52/49/29 48/43/29
f 50/58/30 49/46/30 51/47/30
f 49/46/30 58/51/30 51/47/30
f 60/53/31 52/49/31 53/41/31
f 53/41/31 54/48/31 60/53/31
f 58/51/32 55/45/32 60/53/32
f 55/45/32 56/44/32 60/53/32
