# Blender v2.93.4 OBJ File: ''
# www.blender.org
mtllib small_icosihemidodecahedron.mtl
o Shape_IndexedFaceSet_Shape_IndexedFaceSet.049
v -0.000000 -0.000000 -1.051460
v -0.618034 -0.000000 -0.850651
v 0.618034 -0.000000 -0.850651
v 0.276393 0.552786 -0.850651
v -0.276393 -0.552786 -0.850651
v -1.000000 -0.000000 -0.324920
v -0.723607 0.552786 -0.525731
v 0.723607 -0.552786 -0.525731
v 1.000000 -0.000000 -0.324920
v 0.447214 0.894427 -0.324920
v -0.170820 0.894427 -0.525731
v 0.170820 -0.894427 -0.525731
v -0.447214 -0.894427 -0.324920
v -0.894427 -0.552786 0.000000
v -1.000000 0.000000 0.324920
v -0.552786 0.894427 0.000000
v 0.552786 -0.894427 -0.000000
v 1.000000 0.000000 0.324920
v 0.894427 0.552786 -0.000000
v 0.447214 0.894427 0.324920
v -0.447214 -0.894427 0.324920
v -0.618034 0.000000 0.850651
v -0.723607 0.552786 0.525731
v -0.170820 0.894427 0.525731
v 0.170820 -0.894427 0.525731
v 0.723607 -0.552786 0.525731
v 0.618034 0.000000 0.850651
v 0.276393 0.552786 0.850651
v -0.276393 -0.552786 0.850651
v 0.000000 0.000000 1.051460
vt 0.904509 0.361804
vt 0.904509 0.190983
vt 1.000000 0.500000
vt 0.904509 0.638197
vt 0.904509 0.809017
vt 0.654509 1.000000
vt 0.750000 0.861803
vt 0.654509 0.000000
vt 0.750000 0.138196
vt 0.750000 0.585410
vt 0.654509 0.276393
vt 0.750000 0.414590
vt 0.654509 0.723607
vt 0.500000 0.947213
vt 0.345491 1.000000
vt 0.500000 0.776393
vt 0.500000 0.223607
vt 0.500000 0.052786
vt 0.345491 0.000000
vt 0.345491 0.276393
vt 0.345491 0.723607
vt 0.095491 0.809017
vt 0.250000 0.861803
vt 0.250000 0.585410
vt 0.250000 0.138196
vt 0.250000 0.414590
vt 0.095491 0.190983
vt 0.095491 0.361804
vt 0.095491 0.638197
vt 0.000000 0.500000
vn 0.3035 0.1876 -0.9342
vn -0.3035 -0.1876 -0.9342
vn -0.7947 0.1876 -0.5774
vn 0.7947 -0.1876 -0.5774
vn 0.1876 0.7947 -0.5774
vn -0.1876 -0.7947 -0.5774
vn -0.9822 -0.1876 0.0000
vn -0.4911 0.7947 -0.3568
vn 0.4911 -0.7947 -0.3568
vn 0.9822 0.1876 0.0000
vn 0.6071 0.7947 -0.0000
vn -0.6071 -0.7947 0.0000
vn -0.7947 0.1876 0.5774
vn -0.4911 0.7947 0.3568
vn 0.4911 -0.7947 0.3568
vn 0.7947 -0.1876 0.5774
vn 0.1876 0.7947 0.5774
vn -0.1876 -0.7947 0.5774
vn -0.3035 -0.1876 0.9342
vn 0.3035 0.1876 0.9342
usemtl None
s off
f 4/1/1 3/2/1 1/3/1
f 1/3/2 5/4/2 2/5/2
f 6/6/3 7/7/3 2/5/3
f 3/2/4 9/8/4 8/9/4
f 4/1/5 11/10/5 10/11/5
f 12/12/6 13/13/6 5/4/6
f 6/6/7 14/14/7 15/15/7
f 7/7/8 16/16/8 11/10/8
f 17/17/9 12/12/9 8/9/9
f 19/18/10 18/19/10 9/8/10
f 20/20/11 19/18/11 10/11/11
f 13/13/12 21/21/12 14/14/12
f 22/22/13 23/23/13 15/15/13
f 23/23/14 24/24/14 16/16/14
f 17/17/15 26/25/15 25/26/15
f 18/19/16 27/27/16 26/25/16
f 20/20/17 24/24/17 28/28/17
f 25/26/18 29/29/18 21/21/18
f 22/22/19 29/29/19 30/30/19
f 28/28/20 30/30/20 27/27/20
o Shape_IndexedFaceSet.001_Shape_IndexedFaceSet.050
v -0.000000 -0.000000 -1.051460
v -0.618034 -0.000000 -0.850651
v 0.618034 -0.000000 -0.850651
v 0.276393 0.552786 -0.850651
v -0.276393 -0.552786 -0.850651
v -1.000000 -0.000000 -0.324920
v -0.723607 0.552786 -0.525731
v 0.723607 -0.552786 -0.525731
v 1.000000 -0.000000 -0.324920
v 0.447214 0.894427 -0.324920
v -0.170820 0.894427 -0.525731
v 0.170820 -0.894427 -0.525731
v -0.447214 -0.894427 -0.324920
v -0.894427 -0.552786 0.000000
v -1.000000 0.000000 0.324920
v -0.552786 0.894427 0.000000
v 0.552786 -0.894427 -0.000000
v 1.000000 0.000000 0.324920
v 0.894427 0.552786 -0.000000
v 0.447214 0.894427 0.324920
v -0.447214 -0.894427 0.324920
v -0.618034 0.000000 0.850651
v -0.723607 0.552786 0.525731
v -0.170820 0.894427 0.525731
v 0.170820 -0.894427 0.525731
v 0.723607 -0.552786 0.525731
v 0.618034 0.000000 0.850651
v 0.276393 0.552786 0.850651
v -0.276393 -0.552786 0.850651
v 0.000000 0.000000 1.051460
vt 0.000000 0.500000
vt 0.345491 0.000000
vt 0.904509 0.190983
vt 0.345491 0.723607
vt 0.904509 0.638197
vt 0.500000 0.223607
vt 0.250000 0.585410
vt 0.750000 0.861803
vt 0.750000 0.585410
vt 0.250000 0.861803
vt 0.654509 0.276393
vt 0.250000 0.414590
vt 0.500000 0.947213
vt 0.345491 0.276393
vt 0.750000 0.414590
vt 1.000000 0.500000
vt 0.345491 1.000000
vt 0.904509 0.809017
vt 0.654509 1.000000
vt 0.095491 0.809017
vt 0.095491 0.190983
vt 0.654509 0.000000
vt 0.904509 0.361804
vt 0.095491 0.361804
vt 0.095491 0.638197
vt 0.654509 0.723607
vt 0.250000 0.138196
vt 0.500000 0.776393
vt 0.750000 0.138196
vt 0.500000 0.052786
vn -0.0000 1.0000 -0.0000
vn 0.8944 -0.4472 0.0000
vn -0.7236 -0.4472 0.5257
vn 0.7236 0.4472 0.5257
vn 0.2764 -0.4472 -0.8507
vn 0.2764 -0.4472 0.8507
usemtl None
s off
f 60/31/21 48/32/21 33/33/21
f 60/31/22 51/34/22 35/35/22
f 47/36/23 54/37/23 37/38/23
f 41/39/24 53/40/24 47/36/24
f 40/41/25 55/42/25 44/43/25
f 50/44/26 44/43/26 42/45/26
f 33/33/21 31/46/21 45/47/21
f 31/46/21 32/48/21 45/47/21
f 32/48/21 36/49/21 45/47/21
f 45/47/21 52/50/21 60/31/21
f 60/31/21 57/51/21 48/32/21
f 48/32/21 39/52/21 33/33/21
f 45/47/21 60/31/21 33/33/21
f 35/35/22 31/46/22 50/44/22
f 31/46/22 34/53/22 50/44/22
f 34/53/22 40/41/22 50/44/22
f 50/44/22 58/54/22 60/31/22
f 60/31/22 59/55/22 51/34/22
f 51/34/22 43/56/22 35/35/22
f 50/44/22 60/31/22 35/35/22
f 37/38/23 32/48/23 35/35/23
f 35/35/23 42/45/23 37/38/23
f 42/45/23 47/36/23 37/38/23
f 47/36/23 56/57/23 57/51/23
f 57/51/23 58/54/23 47/36/23
f 58/54/23 54/37/23 47/36/23
f 54/37/23 46/58/23 37/38/23
f 33/33/24 34/53/24 41/39/24
f 41/39/24 46/58/24 53/40/24
f 53/40/24 52/50/24 59/55/24
f 59/55/24 55/42/24 53/40/24
f 55/42/24 47/36/24 53/40/24
f 47/36/24 38/59/24 33/33/24
f 33/33/24 41/39/24 47/36/24
f 44/43/25 36/49/25 37/38/25
f 37/38/25 41/39/25 44/43/25
f 41/39/25 40/41/25 44/43/25
f 40/41/25 49/60/25 55/42/25
f 49/60/25 48/32/25 55/42/25
f 48/32/25 56/57/25 55/42/25
f 55/42/25 51/34/25 44/43/25
f 42/45/26 38/59/26 39/52/26
f 39/52/26 49/60/26 42/45/26
f 49/60/26 50/44/26 42/45/26
f 50/44/26 54/37/26 44/43/26
f 54/37/26 53/40/26 44/43/26
f 53/40/26 45/47/26 44/43/26
f 44/43/26 43/56/26 42/45/26
