# Blender v2.93.4 OBJ File: ''
# www.blender.org
mtllib octahedron.mtl
o Shape_IndexedFaceSet_Shape_IndexedFaceSet.045
v -0.000000 -0.000000 -1.414210
v -1.414210 0.000000 0.000000
v -0.000000 1.414210 -0.000000
v 1.414210 0.000000 -0.000000
v 0.000000 -1.414210 0.000000
v 0.000000 0.000000 1.414210
vt 0.500000 0.500000
vt 1.000000 0.500000
vt 0.500000 1.000000
vt 0.000000 0.500000
vt 0.500000 0.000000
vt 0.500000 0.500000
vn -0.5774 0.5774 -0.5774
vn 0.5774 0.5774 -0.5774
vn 0.5774 -0.5774 -0.5774
vn -0.5774 -0.5774 -0.5774
vn -0.5774 -0.5774 0.5774
vn -0.5774 0.5774 0.5774
vn 0.5774 0.5774 0.5774
vn 0.5774 -0.5774 0.5774
usemtl None
s off
f 1/1/1 2/2/1 3/3/1
f 1/1/2 3/3/2 4/4/2
f 1/1/3 4/4/3 5/5/3
f 1/1/4 5/5/4 2/2/4
f 2/2/5 5/5/5 6/6/5
f 2/2/6 6/6/6 3/3/6
f 3/3/7 6/6/7 4/4/7
f 4/4/8 6/6/8 5/5/8
o Shape_IndexedLineSet_Shape_IndexedLineSet.024
v -0.000000 -0.000000 -1.414210
v -1.414210 0.000000 0.000000
v -0.000000 -0.000000 -1.414210
v -0.000000 1.414210 -0.000000
v -0.000000 -0.000000 -1.414210
v 1.414210 0.000000 -0.000000
v -0.000000 -0.000000 -1.414210
v 0.000000 -1.414210 0.000000
v -1.414210 0.000000 0.000000
v -0.000000 1.414210 -0.000000
v -1.414210 0.000000 0.000000
v 0.000000 -1.414210 0.000000
v -1.414210 0.000000 0.000000
v 0.000000 0.000000 1.414210
v -0.000000 1.414210 -0.000000
v 1.414210 0.000000 -0.000000
v -0.000000 1.414210 -0.000000
v 0.000000 0.000000 1.414210
v 1.414210 0.000000 -0.000000
v 0.000000 -1.414210 0.000000
v 1.414210 0.000000 -0.000000
v 0.000000 0.000000 1.414210
v 0.000000 -1.414210 0.000000
v 0.000000 0.000000 1.414210
l 7 8
l 9 10
l 11 12
l 13 14
l 15 16
l 17 18
l 19 20
l 21 22
l 23 24
l 25 26
l 27 28
l 29 30
