# Blender v2.93.4 OBJ File: ''
# www.blender.org
mtllib decagonal_antiprism.mtl
o Shape_IndexedFaceSet
v -0.000000 -0.000000 -1.047800
v -0.597192 -0.000000 -0.860958
v -0.269367 0.532991 -0.860958
v 0.354192 0.480818 -0.860958
v 0.588888 -0.099239 -0.860958
v -0.974579 -0.099239 -0.371798
v -0.781734 0.480818 -0.505562
v 0.850765 0.344228 -0.505562
v 0.944538 -0.259810 -0.371798
v -0.988014 -0.259810 0.232838
v -0.987202 0.344228 0.069480
v 1.030680 0.175393 0.069480
v 0.931103 -0.420382 0.232838
v -0.632365 -0.420382 0.721998
v -0.807289 0.175393 0.644523
v 0.825210 0.038802 0.644523
v 0.553715 -0.519620 0.721998
v -0.043476 -0.519620 0.908841
v -0.310716 0.038802 0.999919
v 0.312844 -0.013370 0.999919
vt 1.000000 0.510568
vt 0.908756 0.806399
vt 0.908756 0.644004
vt 0.908756 0.335112
vt 0.908756 0.218850
vt 0.669876 0.993345
vt 0.735199 0.897815
vt 0.735199 0.089124
vt 0.669876 0.042672
vt 0.374603 1.000000
vt 0.454378 0.999598
vt 0.454378 0.000000
vt 0.374603 0.049327
vt 0.135722 0.823822
vt 0.173557 0.910474
vt 0.173557 0.101784
vt 0.135722 0.236274
vt 0.044478 0.532105
vt 0.000000 0.664487
vt 0.000000 0.355594
vn -0.2937 0.1806 -0.9387
vn 0.0287 0.3436 -0.9387
vn 0.3196 0.1293 -0.9387
vn -0.7976 0.1293 -0.5891
vn -0.5586 0.3436 -0.7549
vn 0.6079 0.2460 -0.7549
vn 0.8080 -0.0050 -0.5891
vn -0.9997 -0.0050 -0.0235
vn -0.9298 0.2460 -0.2738
vn 0.9577 0.0881 -0.2738
vn 0.9850 -0.1711 -0.0235
vn -0.8228 -0.1711 0.5420
vn -0.9430 0.0881 0.3209
vn 0.9445 -0.0699 0.3209
vn 0.7829 -0.3054 0.5420
vn -0.3344 -0.3054 0.8916
vn -0.5932 -0.0699 0.8020
vn 0.5734 -0.1675 0.8020
vn 0.2789 -0.3567 0.8916
vn -0.0140 -0.1675 0.9858
usemtl None
s off
f 1/1/1 2/2/1 3/3/1
f 1/1/2 3/3/2 4/4/2
f 1/1/3 4/4/3 5/5/3
f 2/2/4 6/6/4 7/7/4
f 2/2/5 7/7/5 3/3/5
f 4/4/6 8/8/6 5/5/6
f 5/5/7 8/8/7 9/9/7
f 6/6/8 10/10/8 11/11/8
f 6/6/9 11/11/9 7/7/9
f 8/8/10 12/12/10 9/9/10
f 9/9/11 12/12/11 13/13/11
f 10/10/12 14/14/12 15/15/12
f 10/10/13 15/15/13 11/11/13
f 12/12/14 16/16/14 13/13/14
f 13/13/15 16/16/15 17/17/15
f 14/14/16 18/18/16 19/19/16
f 14/14/17 19/19/17 15/15/17
f 16/16/18 20/20/18 17/17/18
f 17/17/19 20/20/19 18/18/19
f 18/18/20 20/20/20 19/19/20
o Shape_IndexedFaceSet.001
v -0.000000 -0.000000 -1.047800
v -0.597192 -0.000000 -0.860958
v -0.269367 0.532991 -0.860958
v 0.354192 0.480818 -0.860958
v 0.588888 -0.099239 -0.860958
v -0.974579 -0.099239 -0.371798
v -0.781734 0.480818 -0.505562
v 0.850765 0.344228 -0.505562
v 0.944538 -0.259810 -0.371798
v -0.988014 -0.259810 0.232838
v -0.987202 0.344228 0.069480
v 1.030680 0.175393 0.069480
v 0.931103 -0.420382 0.232838
v -0.632365 -0.420382 0.721998
v -0.807289 0.175393 0.644523
v 0.825210 0.038802 0.644523
v 0.553715 -0.519620 0.721998
v -0.043476 -0.519620 0.908841
v -0.310716 0.038802 0.999919
v 0.312844 -0.013370 0.999919
vt 0.908756 0.218850
vt 0.374603 0.049327
vt 0.374603 1.000000
vt 0.000000 0.355594
vt 0.454378 0.000000
vt 0.908756 0.335112
vt 0.908756 0.806399
vt 1.000000 0.510568
vt 0.669876 0.042672
vt 0.135722 0.236274
vt 0.044478 0.532105
vt 0.135722 0.823822
vt 0.669876 0.993345
vt 0.908756 0.644004
vt 0.735199 0.897815
vt 0.454378 0.999598
vt 0.173557 0.910474
vt 0.000000 0.664487
vt 0.173557 0.101784
vt 0.735199 0.089124
vn -0.0806 -0.9629 -0.2575
vn 0.0806 0.9629 0.2575
usemtl None
s off
f 25/21/21 33/22/21 30/23/21
f 40/24/22 32/25/22 24/26/22
f 22/27/21 21/28/21 25/21/21
f 25/21/21 29/29/21 33/22/21
f 33/22/21 37/30/21 30/23/21
f 37/30/21 38/31/21 30/23/21
f 38/31/21 34/32/21 30/23/21
f 30/23/21 26/33/21 22/27/21
f 22/27/21 25/21/21 30/23/21
f 24/26/22 23/34/22 27/35/22
f 27/35/22 31/36/22 35/37/22
f 35/37/22 39/38/22 40/24/22
f 40/24/22 36/39/22 32/25/22
f 32/25/22 28/40/22 24/26/22
f 24/26/22 27/35/22 35/37/22
f 35/37/22 40/24/22 24/26/22
o Shape_IndexedLineSet
v -0.000000 -0.000000 -1.047800
v -0.269367 0.532991 -0.860958
v -0.000000 -0.000000 -1.047800
v 0.354192 0.480818 -0.860958
v -0.597192 -0.000000 -0.860958
v -0.269367 0.532991 -0.860958
v -0.597192 -0.000000 -0.860958
v -0.781734 0.480818 -0.505562
v 0.354192 0.480818 -0.860958
v 0.588888 -0.099239 -0.860958
v 0.588888 -0.099239 -0.860958
v 0.850765 0.344228 -0.505562
v -0.974579 -0.099239 -0.371798
v -0.781734 0.480818 -0.505562
v -0.974579 -0.099239 -0.371798
v -0.987202 0.344228 0.069480
v 0.850765 0.344228 -0.505562
v 0.944538 -0.259810 -0.371798
v 0.944538 -0.259810 -0.371798
v 1.030680 0.175393 0.069480
v -0.988014 -0.259810 0.232838
v -0.987202 0.344228 0.069480
v -0.988014 -0.259810 0.232838
v -0.807289 0.175393 0.644523
v 1.030680 0.175393 0.069480
v 0.931103 -0.420382 0.232838
v 0.931103 -0.420382 0.232838
v 0.825210 0.038802 0.644523
v -0.632365 -0.420382 0.721998
v -0.807289 0.175393 0.644523
v -0.632365 -0.420382 0.721998
v -0.310716 0.038802 0.999919
v 0.825210 0.038802 0.644523
v 0.553715 -0.519620 0.721998
v 0.553715 -0.519620 0.721998
v 0.312844 -0.013370 0.999919
v -0.043476 -0.519620 0.908841
v -0.310716 0.038802 0.999919
v -0.043476 -0.519620 0.908841
v 0.312844 -0.013370 0.999919
l 41 42
l 43 44
l 45 46
l 47 48
l 49 50
l 51 52
l 53 54
l 55 56
l 57 58
l 59 60
l 61 62
l 63 64
l 65 66
l 67 68
l 69 70
l 71 72
l 73 74
l 75 76
l 77 78
l 79 80
