# Blender v2.93.4 OBJ File: ''
# www.blender.org
mtllib heptagonal_antiprism.mtl
o Shape_IndexedFaceSet_Shape_IndexedFaceSet.002
v -0.000000 -0.000000 -1.094560
v -0.813188 -0.000000 -0.732657
v -0.326063 0.744955 -0.732657
v 0.551706 0.597408 -0.732657
v 0.768497 -0.265871 -0.732657
v -1.058720 -0.265871 0.080531
v -0.913609 0.597408 -0.080531
v 1.058720 0.265871 -0.080531
v 0.913609 -0.597408 0.080531
v -0.551706 -0.597408 0.732657
v -0.768497 0.265871 0.732657
v 0.813188 0.000000 0.732657
v 0.326063 -0.744955 0.732657
v 0.000000 0.000000 1.094560
vt 1.000000 0.500000
vt 0.834681 0.884043
vt 0.834681 0.653989
vt 0.834681 0.239447
vt 0.834681 0.137063
vt 0.463213 1.000000
vt 0.536787 0.931469
vt 0.536787 0.000000
vt 0.463213 0.068531
vt 0.165319 0.760553
vt 0.165319 0.862937
vt 0.165319 0.115957
vt 0.165319 0.346011
vt 0.000000 0.500000
vn -0.3929 0.2569 -0.8829
vn 0.0778 0.4630 -0.8829
vn 0.4554 0.1144 -0.8829
vn -0.9608 0.1144 -0.2527
vn -0.7081 0.4630 -0.5332
vn 0.8205 0.2061 -0.5332
vn 0.9453 -0.2061 -0.2527
vn -0.8205 -0.2061 0.5332
vn -0.9453 0.2061 0.2527
vn 0.9608 -0.1144 0.2527
vn 0.7081 -0.4630 0.5332
vn -0.0778 -0.4630 0.8829
vn -0.4554 -0.1144 0.8829
vn 0.3929 -0.2569 0.8829
usemtl None
s off
f 1/1/1 2/2/1 3/3/1
f 1/1/2 3/3/2 4/4/2
f 1/1/3 4/4/3 5/5/3
f 2/2/4 6/6/4 7/7/4
f 2/2/5 7/7/5 3/3/5
f 4/4/6 8/8/6 5/5/6
f 5/5/7 8/8/7 9/9/7
f 6/6/8 10/10/8 11/11/8
f 6/6/9 11/11/9 7/7/9
f 8/8/10 12/12/10 9/9/10
f 9/9/11 12/12/11 13/13/11
f 10/10/12 13/13/12 14/14/12
f 10/10/13 14/14/13 11/11/13
f 12/12/14 14/14/14 13/13/14
o Shape_IndexedFaceSet.001_Shape_IndexedFaceSet.003
v -0.000000 -0.000000 -1.094560
v -0.813188 -0.000000 -0.732657
v -0.326063 0.744955 -0.732657
v 0.551706 0.597408 -0.732657
v 0.768497 -0.265871 -0.732657
v -1.058720 -0.265871 0.080531
v -0.913609 0.597408 -0.080531
v 1.058720 0.265871 -0.080531
v 0.913609 -0.597408 0.080531
v -0.551706 -0.597408 0.732657
v -0.768497 0.265871 0.732657
v 0.813188 0.000000 0.732657
v 0.326063 -0.744955 0.732657
v 0.000000 0.000000 1.094560
vt 0.834681 0.137063
vt 0.165319 0.346011
vt 0.463213 1.000000
vt 0.000000 0.500000
vt 0.165319 0.115957
vt 0.536787 0.000000
vt 0.834681 0.884043
vt 1.000000 0.500000
vt 0.463213 0.068531
vt 0.165319 0.760553
vt 0.834681 0.239447
vt 0.834681 0.653989
vt 0.536787 0.931469
vt 0.165319 0.862937
vn -0.1553 -0.9241 -0.3491
vn 0.1553 0.9241 0.3490
vn -0.1553 -0.9241 -0.3490
vn 0.1553 0.9241 0.3491
usemtl None
s off
f 19/15/15 27/16/15 20/17/15
f 28/18/16 26/19/16 22/20/16
f 16/21/17 15/22/17 19/15/17
f 19/15/15 23/23/15 27/16/15
f 27/16/15 24/24/15 20/17/15
f 20/17/17 16/21/17 19/15/17
f 18/25/18 17/26/18 22/20/18
f 17/26/18 21/27/18 22/20/18
f 21/27/18 25/28/18 22/20/18
f 25/28/16 28/18/16 22/20/16
o Shape_IndexedLineSet_Shape_IndexedLineSet.001
v -0.000000 -0.000000 -1.094560
v -0.326063 0.744955 -0.732657
v -0.000000 -0.000000 -1.094560
v 0.551706 0.597408 -0.732657
v -0.813188 -0.000000 -0.732657
v -0.326063 0.744955 -0.732657
v -0.813188 -0.000000 -0.732657
v -0.913609 0.597408 -0.080531
v 0.551706 0.597408 -0.732657
v 0.768497 -0.265871 -0.732657
v 0.768497 -0.265871 -0.732657
v 1.058720 0.265871 -0.080531
v -1.058720 -0.265871 0.080531
v -0.913609 0.597408 -0.080531
v -1.058720 -0.265871 0.080531
v -0.768497 0.265871 0.732657
v 1.058720 0.265871 -0.080531
v 0.913609 -0.597408 0.080531
v 0.913609 -0.597408 0.080531
v 0.813188 0.000000 0.732657
v -0.551706 -0.597408 0.732657
v -0.768497 0.265871 0.732657
v -0.551706 -0.597408 0.732657
v 0.000000 0.000000 1.094560
v 0.813188 0.000000 0.732657
v 0.326063 -0.744955 0.732657
v 0.326063 -0.744955 0.732657
v 0.000000 0.000000 1.094560
l 29 30
l 31 32
l 33 34
l 35 36
l 37 38
l 39 40
l 41 42
l 43 44
l 45 46
l 47 48
l 49 50
l 51 52
l 53 54
l 55 56
