# Blender v2.93.4 OBJ File: ''
# www.blender.org
mtllib hexagonal_antiprism.mtl
o Shape_IndexedFaceSet_Shape_IndexedFaceSet.004
v -0.000000 -0.000000 -1.126030
v -0.919402 -0.000000 -0.650115
v -0.336524 0.855600 -0.650115
v 0.673049 0.626342 -0.650115
v 0.829230 -0.397085 -0.650115
v -1.009570 -0.397085 0.301719
v -0.919402 0.626342 0.174198
v 1.099750 0.167828 0.174198
v 0.739059 -0.794170 0.301719
v -0.180343 -0.794170 0.777637
v -0.492706 0.167828 0.998511
v 0.516867 -0.061429 0.998511
vt 1.000000 0.521377
vt 0.775992 0.957253
vt 0.775992 0.680918
vt 0.775992 0.202293
vt 0.775992 0.128250
vt 0.327973 1.000000
vt 0.387996 0.957253
vt 0.387996 0.000000
vt 0.327973 0.170999
vt 0.103963 0.606875
vt 0.000000 0.754962
vt 0.000000 0.276337
vn -0.4387 0.2989 -0.8475
vn 0.1175 0.5176 -0.8475
vn 0.5247 0.0801 -0.8475
vn -0.9949 0.0801 -0.0608
vn -0.7598 0.5176 -0.3933
vn 0.9089 0.1387 -0.3933
vn 0.9319 -0.3575 -0.0608
vn -0.5877 -0.3575 0.7258
vn -0.8459 0.1387 0.5150
vn 0.8228 -0.2402 0.5150
vn 0.3757 -0.5763 0.7258
vn -0.0546 -0.2402 0.9692
usemtl None
s off
f 1/1/1 2/2/1 3/3/1
f 1/1/2 3/3/2 4/4/2
f 1/1/3 4/4/3 5/5/3
f 2/2/4 6/6/4 7/7/4
f 2/2/5 7/7/5 3/3/5
f 4/4/6 8/8/6 5/5/6
f 5/5/7 8/8/7 9/9/7
f 6/6/8 10/10/8 11/11/8
f 6/6/9 11/11/9 7/7/9
f 8/8/10 12/12/10 9/9/10
f 9/9/11 12/12/11 10/10/11
f 10/10/12 12/12/12 11/11/12
o Shape_IndexedFaceSet.001_Shape_IndexedFaceSet.005
v -0.000000 -0.000000 -1.126030
v -0.919402 -0.000000 -0.650115
v -0.336524 0.855600 -0.650115
v 0.673049 0.626342 -0.650115
v 0.829230 -0.397085 -0.650115
v -1.009570 -0.397085 0.301719
v -0.919402 0.626342 0.174198
v 1.099750 0.167828 0.174198
v 0.739059 -0.794170 0.301719
v -0.180343 -0.794170 0.777637
v -0.492706 0.167828 0.998511
v 0.516867 -0.061429 0.998511
vt 0.327973 1.000000
vt 0.775992 0.957253
vt 0.775992 0.128250
vt 0.000000 0.276337
vt 0.387996 0.000000
vt 0.775992 0.202293
vt 1.000000 0.521377
vt 0.327973 0.170999
vt 0.103963 0.606875
vt 0.775992 0.680918
vt 0.387996 0.957253
vt 0.000000 0.754962
vn -0.2036 -0.8966 -0.3933
vn 0.2036 0.8966 0.3933
usemtl None
s off
f 18/13/13 14/14/13 17/15/13
f 24/16/14 20/17/14 16/18/14
f 14/14/13 13/19/13 17/15/13
f 17/15/13 21/20/13 22/21/13
f 22/21/13 18/13/13 17/15/13
f 16/18/14 15/22/14 24/16/14
f 15/22/14 19/23/14 24/16/14
f 19/23/14 23/24/14 24/16/14
o Shape_IndexedLineSet_Shape_IndexedLineSet.002
v -0.000000 -0.000000 -1.126030
v -0.336524 0.855600 -0.650115
v -0.000000 -0.000000 -1.126030
v 0.673049 0.626342 -0.650115
v -0.919402 -0.000000 -0.650115
v -0.336524 0.855600 -0.650115
v -0.919402 -0.000000 -0.650115
v -0.919402 0.626342 0.174198
v 0.673049 0.626342 -0.650115
v 0.829230 -0.397085 -0.650115
v 0.829230 -0.397085 -0.650115
v 1.099750 0.167828 0.174198
v -1.009570 -0.397085 0.301719
v -0.919402 0.626342 0.174198
v -1.009570 -0.397085 0.301719
v -0.492706 0.167828 0.998511
v 1.099750 0.167828 0.174198
v 0.739059 -0.794170 0.301719
v 0.739059 -0.794170 0.301719
v 0.516867 -0.061429 0.998511
v -0.180343 -0.794170 0.777637
v -0.492706 0.167828 0.998511
v -0.180343 -0.794170 0.777637
v 0.516867 -0.061429 0.998511
l 25 26
l 27 28
l 29 30
l 31 32
l 33 34
l 35 36
l 37 38
l 39 40
l 41 42
l 43 44
l 45 46
l 47 48
