# Blender v2.93.4 OBJ File: ''
# www.blender.org
mtllib octagonal_antiprism.mtl
o Shape_IndexedFaceSet_Shape_IndexedFaceSet.006
v -0.000000 -0.000000 -1.073430
v -0.726983 -0.000000 -0.789770
v -0.308153 0.658442 -0.789770
v 0.465743 0.558200 -0.789770
v 0.702991 -0.185223 -0.789770
v -1.052100 -0.185223 -0.104968
v -0.877546 0.558200 -0.265645
v 0.990805 0.316195 -0.265645
v 0.970188 -0.447167 -0.104968
v -0.784904 -0.447167 0.579835
v -0.908892 0.316195 0.475580
v 0.959458 0.074190 0.475580
v 0.645070 -0.632390 0.579835
v -0.081913 -0.632390 0.863490
v -0.383830 0.074190 0.999705
v 0.390066 -0.026052 0.999705
vt 1.000000 0.484998
vt 0.863173 0.840856
vt 0.863173 0.635839
vt 0.863173 0.257017
vt 0.863173 0.140885
vt 0.532851 1.000000
vt 0.610356 0.914556
vt 0.610356 0.000000
vt 0.532851 0.010092
vt 0.202529 0.869208
vt 0.252818 0.929900
vt 0.252818 0.015344
vt 0.202529 0.169237
vt 0.065705 0.525094
vt 0.000000 0.672882
vt 0.000000 0.294061
vn -0.3542 0.2253 -0.9076
vn 0.0539 0.4163 -0.9076
vn 0.3999 0.1276 -0.9076
vn -0.9089 0.1276 -0.3970
vn -0.6544 0.4162 -0.6313
vn 0.7388 0.2358 -0.6313
vn 0.9114 -0.1082 -0.3970
vn -0.9394 -0.1082 0.3252
vn -0.9711 0.2358 0.0359
vn 0.9992 -0.0194 0.0359
vn 0.8809 -0.3440 0.3252
vn -0.4279 -0.3440 0.8358
vn -0.7108 -0.0194 0.7031
vn 0.6824 -0.1999 0.7031
vn 0.3261 -0.4416 0.8358
vn -0.0259 -0.1999 0.9795
usemtl None
s off
f 1/1/1 2/2/1 3/3/1
f 1/1/2 3/3/2 4/4/2
f 1/1/3 4/4/3 5/5/3
f 2/2/4 6/6/4 7/7/4
f 2/2/5 7/7/5 3/3/5
f 4/4/6 8/8/6 5/5/6
f 5/5/7 8/8/7 9/9/7
f 6/6/8 10/10/8 11/11/8
f 6/6/9 11/11/9 7/7/9
f 8/8/10 12/12/10 9/9/10
f 9/9/11 12/12/11 13/13/11
f 10/10/12 14/14/12 15/15/12
f 10/10/13 15/15/13 11/11/13
f 12/12/14 16/16/14 13/13/14
f 13/13/15 16/16/15 14/14/15
f 14/14/16 16/16/16 15/15/16
o Shape_IndexedFaceSet.001_Shape_IndexedFaceSet.007
v -0.000000 -0.000000 -1.073430
v -0.726983 -0.000000 -0.789770
v -0.308153 0.658442 -0.789770
v 0.465743 0.558200 -0.789770
v 0.702991 -0.185223 -0.789770
v -1.052100 -0.185223 -0.104968
v -0.877546 0.558200 -0.265645
v 0.990805 0.316195 -0.265645
v 0.970188 -0.447167 -0.104968
v -0.784904 -0.447167 0.579835
v -0.908892 0.316195 0.475580
v 0.959458 0.074190 0.475580
v 0.645070 -0.632390 0.579835
v -0.081913 -0.632390 0.863490
v -0.383830 0.074190 0.999705
v 0.390066 -0.026052 0.999705
vt 0.863173 0.840856
vt 0.863173 0.140885
vt 0.202529 0.169237
vt 0.000000 0.672882
vt 0.252818 0.015344
vt 0.863173 0.257017
vt 1.000000 0.484998
vt 0.532851 0.010092
vt 0.065705 0.525094
vt 0.202529 0.869208
vt 0.532851 1.000000
vt 0.863173 0.635839
vt 0.610356 0.914556
vt 0.252818 0.929900
vt 0.000000 0.294061
vt 0.610356 0.000000
vn -0.1220 -0.9420 -0.3127
vn 0.1220 0.9420 0.3127
usemtl None
s off
f 18/17/17 21/18/17 29/19/17
f 31/20/18 28/21/18 20/22/18
f 18/17/17 17/23/17 21/18/17
f 21/18/17 25/24/17 29/19/17
f 29/19/17 30/25/17 26/26/17
f 26/26/17 22/27/17 29/19/17
f 22/27/17 18/17/17 29/19/17
f 20/22/18 19/28/18 23/29/18
f 23/29/18 27/30/18 20/22/18
f 27/30/18 31/20/18 20/22/18
f 31/20/18 32/31/18 28/21/18
f 28/21/18 24/32/18 20/22/18
o Shape_IndexedLineSet_Shape_IndexedLineSet.003
v -0.000000 -0.000000 -1.073430
v -0.308153 0.658442 -0.789770
v -0.000000 -0.000000 -1.073430
v 0.465743 0.558200 -0.789770
v -0.726983 -0.000000 -0.789770
v -0.308153 0.658442 -0.789770
v -0.726983 -0.000000 -0.789770
v -0.877546 0.558200 -0.265645
v 0.465743 0.558200 -0.789770
v 0.702991 -0.185223 -0.789770
v 0.702991 -0.185223 -0.789770
v 0.990805 0.316195 -0.265645
v -1.052100 -0.185223 -0.104968
v -0.877546 0.558200 -0.265645
v -1.052100 -0.185223 -0.104968
v -0.908892 0.316195 0.475580
v 0.990805 0.316195 -0.265645
v 0.970188 -0.447167 -0.104968
v 0.970188 -0.447167 -0.104968
v 0.959458 0.074190 0.475580
v -0.784904 -0.447167 0.579835
v -0.908892 0.316195 0.475580
v -0.784904 -0.447167 0.579835
v -0.383830 0.074190 0.999705
v 0.959458 0.074190 0.475580
v 0.645070 -0.632390 0.579835
v 0.645070 -0.632390 0.579835
v 0.390066 -0.026052 0.999705
v -0.081913 -0.632390 0.863490
v -0.383830 0.074190 0.999705
v -0.081913 -0.632390 0.863490
v 0.390066 -0.026052 0.999705
l 33 34
l 35 36
l 37 38
l 39 40
l 41 42
l 43 44
l 45 46
l 47 48
l 49 50
l 51 52
l 53 54
l 55 56
l 57 58
l 59 60
l 61 62
l 63 64
