# Blender v3.0.1 OBJ File: ''
# www.blender.org
mtllib compound_of_icosidodecadodecahedron_and_dual.mtl
o Shape_IndexedFaceSet.001_Shape_IndexedFaceSet.012
v -0.000000 -0.000000 -1.224750
v -1.154700 -0.000000 -0.408248
v -0.823908 0.809017 -0.408248
v 0.577350 1.000000 -0.408248
v 1.112580 0.309017 -0.408248
v 0.577350 -1.000000 -0.408248
v -0.288675 -1.118030 -0.408248
v -0.110264 0.809017 -0.912871
v -0.577350 1.000000 0.408248
v -0.755761 0.309017 0.912871
v -0.577350 -1.000000 0.408248
v 0.288675 1.118030 0.408248
v -1.112580 -0.309017 0.408248
v -0.645497 -0.500000 -0.912871
v 0.755761 -0.309017 -0.912871
v 1.154700 0.000000 0.408248
v 0.645497 0.500000 0.912871
v 0.823908 -0.809017 0.408248
v 0.110264 -0.809017 0.912871
v 0.000000 0.000000 1.224750
v -0.546874 0.223607 -0.773397
v 0.467086 0.361803 -0.773397
v 0.079788 -0.585410 -0.773397
v -0.755761 -0.585410 -0.182574
v -0.884861 0.361803 0.182574
v -0.129099 0.947214 -0.182574
v 0.755761 0.585410 0.182574
v 0.884861 -0.361803 -0.182574
v 0.129099 -0.947214 0.182574
v -0.079788 0.585410 0.773397
v -0.467086 -0.361803 0.773397
v 0.546874 -0.223607 0.773397
vt 0.872676 0.172746
vt 0.333334 0.143237
vt 0.666666 0.625000
vt 0.000000 0.500000
vt 0.333334 0.750000
vt 0.872676 0.779509
vt 0.666666 0.250000
vt 0.872676 0.547746
vt 0.333334 0.375000
vt 0.666666 0.018239
vt 0.127324 0.452254
vt 0.127324 0.220491
vt 0.127324 0.827254
vt 0.333334 0.981762
vt 0.666666 0.856763
vt 0.333334 0.750000
vt 0.333334 0.000000
vt 0.666666 0.250000
vt 0.666666 1.000000
vt 1.000000 0.500000
vt 0.815737 0.736803
vt 0.815737 0.297746
vt 0.815737 0.465451
vt 0.574535 0.827254
vt 0.425465 0.883156
vt 0.574535 0.555902
vt 0.425465 0.172746
vt 0.574535 0.116844
vt 0.425465 0.444098
vt 0.184263 0.534549
vt 0.184263 0.702254
vt 0.184263 0.263196
vn 0.4714 -0.8165 -0.3333
vn 0.0900 -0.6606 0.7454
vn -0.2357 -0.9129 -0.3333
vn 0.4714 0.8165 -0.3333
vn 0.0000 0.0000 1.0000
vn -0.9428 -0.0000 -0.3333
vn -0.6171 0.2523 0.7454
vn 0.6727 -0.6606 0.3333
vn 0.9428 0.0000 0.3333
vn 0.2357 0.9129 0.3333
vn 0.5270 0.4083 0.7454
vn 0.9084 0.2523 -0.3333
vn -0.0000 -0.0000 -1.0000
vn -0.4714 -0.8165 0.3333
vn -0.4714 0.8165 0.3333
vn -0.9084 -0.2523 0.3333
vn -0.6727 0.6606 -0.3333
vn 0.6171 -0.2523 -0.7454
vn -0.0900 0.6606 -0.7454
vn -0.5270 -0.4083 -0.7454
vn -0.5619 0.2298 -0.7947
vn -0.5619 0.2297 -0.7947
vn 0.4799 0.3717 -0.7947
vn 0.4799 0.3718 -0.7947
vn 0.0820 -0.6015 -0.7947
vn -0.7765 -0.6015 -0.1876
vn -0.9092 0.3717 0.1876
vn -0.1327 0.9733 -0.1876
vn -0.1326 0.9733 -0.1876
vn -0.1326 0.9732 -0.1876
vn 0.7765 0.6015 0.1876
vn 0.9092 -0.3717 -0.1876
vn 0.1326 -0.9732 0.1876
vn 0.1326 -0.9733 0.1876
vn 0.1327 -0.9733 0.1876
vn -0.0820 0.6015 0.7947
vn -0.4799 -0.3717 0.7947
vn -0.4799 -0.3718 0.7947
vn 0.5619 -0.2298 0.7947
vn 0.5619 -0.2297 0.7947
usemtl Shape.016
s off
f 15/1/1 18/2/1 7/3/1
f 20/4/2 11/5/2 18/2/2
f 11/5/3 14/6/3 6/7/3
f 8/8/4 12/9/4 5/10/4
f 19/11/5 17/12/5 10/13/5
f 13/14/6 3/15/6 14/6/6
f 20/4/7 9/16/7 13/14/7
f 19/11/8 6/7/8 16/17/8
f 18/2/9 5/10/9 17/12/9
f 17/12/10 4/18/10 9/16/10
f 16/17/11 12/9/11 20/4/11
f 15/1/12 4/18/12 16/17/12
f 14/6/13 8/8/13 15/1/13
f 13/14/14 7/3/14 19/11/14
f 12/9/15 3/15/15 10/13/15
f 10/13/16 2/19/16 11/5/16
f 8/8/17 2/19/17 9/16/17
f 5/10/18 6/7/18 1/20/18
f 3/15/19 4/18/19 1/20/19
f 2/19/20 1/20/20 7/3/20
f 21/21/21 1/20/21 2/19/21
f 21/21/21 2/19/21 8/8/21
f 21/21/21 8/8/21 14/6/21
f 21/21/21 14/6/21 3/15/21
f 21/21/22 3/15/22 1/20/22
f 22/22/23 1/20/23 4/18/23
f 22/22/23 4/18/23 15/1/23
f 22/22/23 15/1/23 8/8/23
f 22/22/24 8/8/24 5/10/24
f 22/22/24 5/10/24 1/20/24
f 23/23/25 1/20/25 6/7/25
f 23/23/25 6/7/25 14/6/25
f 23/23/25 14/6/25 15/1/25
f 23/23/25 15/1/25 7/3/25
f 23/23/25 7/3/25 1/20/25
f 24/24/26 2/19/26 7/3/26
f 24/24/26 7/3/26 13/14/26
f 24/24/26 13/14/26 14/6/26
f 24/24/26 14/6/26 11/5/26
f 24/24/26 11/5/26 2/19/26
f 25/25/27 2/19/27 10/13/27
f 25/25/27 10/13/27 3/15/27
f 25/25/27 3/15/27 13/14/27
f 25/25/27 13/14/27 9/16/27
f 25/25/27 9/16/27 2/19/27
f 26/26/28 3/15/28 12/9/28
f 26/26/29 12/9/29 8/8/29
f 26/26/30 8/8/30 9/16/30
f 26/26/30 9/16/30 4/18/30
f 26/26/30 4/18/30 3/15/30
f 27/27/31 4/18/31 17/12/31
f 27/27/31 17/12/31 5/10/31
f 27/27/31 5/10/31 12/9/31
f 27/27/31 12/9/31 16/17/31
f 27/27/31 16/17/31 4/18/31
f 28/28/32 5/10/32 18/2/32
f 28/28/32 18/2/32 15/1/32
f 28/28/32 15/1/32 16/17/32
f 28/28/32 16/17/32 6/7/32
f 28/28/32 6/7/32 5/10/32
f 29/29/33 6/7/33 19/11/33
f 29/29/34 19/11/34 7/3/34
f 29/29/35 7/3/35 18/2/35
f 29/29/33 18/2/33 11/5/33
f 29/29/33 11/5/33 6/7/33
f 30/30/36 9/16/36 20/4/36
f 30/30/36 20/4/36 12/9/36
f 30/30/36 12/9/36 10/13/36
f 30/30/36 10/13/36 17/12/36
f 30/30/36 17/12/36 9/16/36
f 31/31/37 10/13/37 11/5/37
f 31/31/37 11/5/37 20/4/37
f 31/31/38 20/4/38 13/14/38
f 31/31/38 13/14/38 19/11/38
f 31/31/37 19/11/37 10/13/37
f 32/32/39 16/17/39 20/4/39
f 32/32/40 20/4/40 18/2/40
f 32/32/39 18/2/39 17/12/39
f 32/32/39 17/12/39 19/11/39
f 32/32/39 19/11/39 16/17/39
