# Blender 3.1.0
# www.blender.org
mtllib great_dodecicosidodecahedron.mtl
o Shape_IndexedFaceSet.002
v -0.000000 -0.000000 -1.395430
v -1.394910 -0.000000 -0.037828
v 0.481931 1.309020 -0.037828
v 1.321280 0.447214 -0.037828
v -0.036816 -1.394430 -0.037828
v -0.050879 1.309020 0.480728
v -0.073632 0.447214 1.319770
v 1.023430 -0.361803 -0.876870
v 0.445114 -0.085410 1.319770
v -1.210830 0.500000 0.480728
v 0.467868 -1.223610 0.480728
v -0.334666 1.032620 -0.876870
v 1.307220 -0.085410 0.480728
v -0.904291 -0.361803 0.999284
v 0.513375 0.500000 -1.197360
v -0.867475 1.032620 -0.358314
v 0.651949 -0.723607 0.999284
v -0.669331 -1.170820 -0.358314
v 1.009370 -0.894427 -0.358314
v -0.646578 -0.309017 -1.197360
v -1.188080 -0.638197 -0.358314
v -0.325975 -0.638197 -1.197360
v -0.706148 0.670820 0.999284
v -0.385545 -0.894427 0.999284
v 0.981243 -0.723607 0.678799
v -0.340037 -1.170820 -0.678799
v -1.179390 -0.309017 -0.678799
v 1.018060 0.670820 -0.678799
v 0.340037 1.170820 0.678799
v -0.981243 0.723607 -0.678799
v 0.697457 1.000000 -0.678799
v -1.018060 -0.670820 0.678799
v 0.697457 -1.000000 -0.678799
v -0.697457 -1.000000 0.678799
v 1.179390 0.309017 0.678799
v -0.697457 1.000000 0.678799
v 0.669331 1.170820 0.358314
v -0.651949 0.723607 -0.999284
v 0.706148 -0.670820 -0.999284
v 0.646578 0.309017 1.197360
v 0.904291 0.361803 -0.999284
v -0.513375 -0.500000 1.197360
v 0.325975 0.638197 1.197360
v 0.867475 -1.032620 0.358314
v 0.385545 0.894427 -0.999284
v -1.009370 0.894427 0.358314
v 1.188080 0.638197 0.358314
v -1.023430 0.361803 0.876870
v 1.210830 -0.500000 -0.480728
v 0.334666 -1.032620 0.876870
v 0.050879 -1.309020 -0.480728
v -1.307220 0.085410 -0.480728
v -0.467868 1.223610 -0.480728
v 0.073632 -0.447214 -1.319770
v -0.445114 0.085410 -1.319770
v -0.481931 -1.309020 0.037828
v -1.321280 -0.447214 0.037828
v 1.394910 0.000000 0.037828
v 0.036816 1.394430 0.037828
v 0.000000 0.000000 1.395430
v -0.348728 0.500000 -0.358314
v 0.498395 0.485410 -0.644964
v 0.490622 -0.361803 -0.358314
v -0.371482 -0.361803 0.480728
v -0.658238 0.485410 0.480728
v 0.674703 0.138197 0.160243
v 0.155956 0.670820 0.160243
v 0.467868 -0.670820 0.480728
v 0.141894 0.138197 0.678799
v -0.141894 -0.138197 -0.678799
v -0.905209 -0.185410 -0.214988
v -0.209237 -0.900000 -0.214988
v -0.674703 -0.138197 -0.160243
v -0.190370 -0.185410 -0.910704
v 0.190370 0.185410 0.910704
v -0.155956 -0.670820 -0.160243
v 0.905209 0.185410 0.214988
v -0.490622 0.361803 0.358314
v 0.209237 0.900000 0.214988
v 0.348728 -0.500000 0.358314
v 0.371482 0.361803 -0.480728
v 0.658238 -0.485410 -0.480728
v -0.467868 0.670820 -0.480728
v -0.498395 -0.485410 0.644964
v -0.000000 -0.000000 -1.395430
v -1.394910 -0.000000 -0.037828
v 0.481931 1.309020 -0.037828
v 1.321280 0.447214 -0.037828
v -0.036816 -1.394430 -0.037828
v -0.050879 1.309020 0.480728
v -0.073632 0.447214 1.319770
v 1.023430 -0.361803 -0.876870
v 0.445114 -0.085410 1.319770
v -1.210830 0.500000 0.480728
v 0.467868 -1.223610 0.480728
v -0.334666 1.032620 -0.876870
v 1.307220 -0.085410 0.480728
v -0.904291 -0.361803 0.999284
v 0.513375 0.500000 -1.197360
v -0.867475 1.032620 -0.358314
v 0.651949 -0.723607 0.999284
v -0.669331 -1.170820 -0.358314
v 1.009370 -0.894427 -0.358314
v -0.646578 -0.309017 -1.197360
v -1.188080 -0.638197 -0.358314
v -0.325975 -0.638197 -1.197360
v -0.706148 0.670820 0.999284
v -0.385545 -0.894427 0.999284
v 0.981243 -0.723607 0.678799
v -0.340037 -1.170820 -0.678799
v -1.179390 -0.309017 -0.678799
v 1.018060 0.670820 -0.678799
v 0.340037 1.170820 0.678799
v -0.981243 0.723607 -0.678799
v 0.697457 1.000000 -0.678799
v -1.018060 -0.670820 0.678799
v 0.697457 -1.000000 -0.678799
v -0.697457 -1.000000 0.678799
v 1.179390 0.309017 0.678799
v -0.697457 1.000000 0.678799
v 0.669331 1.170820 0.358314
v -0.651949 0.723607 -0.999284
v 0.706148 -0.670820 -0.999284
v 0.646578 0.309017 1.197360
v 0.904291 0.361803 -0.999284
v -0.513375 -0.500000 1.197360
v 0.325975 0.638197 1.197360
v 0.867475 -1.032620 0.358314
v 0.385545 0.894427 -0.999284
v -1.009370 0.894427 0.358314
v 1.188080 0.638197 0.358314
v -1.023430 0.361803 0.876870
v 1.210830 -0.500000 -0.480728
v 0.334666 -1.032620 0.876870
v 0.050879 -1.309020 -0.480728
v -1.307220 0.085410 -0.480728
v -0.467868 1.223610 -0.480728
v 0.073632 -0.447214 -1.319770
v -0.445114 0.085410 -1.319770
v -0.481931 -1.309020 0.037828
v -1.321280 -0.447214 0.037828
v 1.394910 0.000000 0.037828
v 0.036816 1.394430 0.037828
v 0.000000 0.000000 1.395430
v -0.348728 0.500000 -0.358314
v 0.498395 0.485410 -0.644964
v 0.490622 -0.361803 -0.358314
v -0.371482 -0.361803 0.480728
v -0.658238 0.485410 0.480728
v 0.674703 0.138197 0.160243
v 0.155956 0.670820 0.160243
v 0.467868 -0.670820 0.480728
v 0.141894 0.138197 0.678799
v -0.141894 -0.138197 -0.678799
v -0.905209 -0.185410 -0.214988
v -0.209237 -0.900000 -0.214988
v -0.674703 -0.138197 -0.160243
v -0.190370 -0.185410 -0.910704
v 0.190370 0.185410 0.910704
v -0.155956 -0.670820 -0.160243
v 0.905209 0.185410 0.214988
v -0.490622 0.361803 0.358314
v 0.209237 0.900000 0.214988
v 0.348728 -0.500000 0.358314
v 0.371482 0.361803 -0.480728
v 0.658238 -0.485410 -0.480728
v -0.467868 0.670820 -0.480728
v -0.498395 -0.485410 0.644964
v -0.000000 -0.000000 -1.395430
v -1.394910 -0.000000 -0.037828
v 0.481931 1.309020 -0.037828
v 1.321280 0.447214 -0.037828
v -0.036816 -1.394430 -0.037828
v -0.050879 1.309020 0.480728
v -0.073632 0.447214 1.319770
v 1.023430 -0.361803 -0.876870
v 0.445114 -0.085410 1.319770
v -1.210830 0.500000 0.480728
v 0.467868 -1.223610 0.480728
v -0.334666 1.032620 -0.876870
v 1.307220 -0.085410 0.480728
v -0.904291 -0.361803 0.999284
v 0.513375 0.500000 -1.197360
v -0.867475 1.032620 -0.358314
v 0.651949 -0.723607 0.999284
v -0.669331 -1.170820 -0.358314
v 1.009370 -0.894427 -0.358314
v -0.646578 -0.309017 -1.197360
v -1.188080 -0.638197 -0.358314
v -0.325975 -0.638197 -1.197360
v -0.706148 0.670820 0.999284
v -0.385545 -0.894427 0.999284
v 0.981243 -0.723607 0.678799
v -0.340037 -1.170820 -0.678799
v -1.179390 -0.309017 -0.678799
v 1.018060 0.670820 -0.678799
v 0.340037 1.170820 0.678799
v -0.981243 0.723607 -0.678799
v 0.697457 1.000000 -0.678799
v -1.018060 -0.670820 0.678799
v 0.697457 -1.000000 -0.678799
v -0.697457 -1.000000 0.678799
v 1.179390 0.309017 0.678799
v -0.697457 1.000000 0.678799
v 0.669331 1.170820 0.358314
v -0.651949 0.723607 -0.999284
v 0.706148 -0.670820 -0.999284
v 0.646578 0.309017 1.197360
v 0.904291 0.361803 -0.999284
v -0.513375 -0.500000 1.197360
v 0.325975 0.638197 1.197360
v 0.867475 -1.032620 0.358314
v 0.385545 0.894427 -0.999284
v -1.009370 0.894427 0.358314
v 1.188080 0.638197 0.358314
v -1.023430 0.361803 0.876870
v 1.210830 -0.500000 -0.480728
v 0.334666 -1.032620 0.876870
v 0.050879 -1.309020 -0.480728
v -1.307220 0.085410 -0.480728
v -0.467868 1.223610 -0.480728
v 0.073632 -0.447214 -1.319770
v -0.445114 0.085410 -1.319770
v -0.481931 -1.309020 0.037828
v -1.321280 -0.447214 0.037828
v 1.394910 0.000000 0.037828
v 0.036816 1.394430 0.037828
v 0.000000 0.000000 1.395430
v -0.348728 0.500000 -0.358314
v 0.498395 0.485410 -0.644964
v 0.490622 -0.361803 -0.358314
v -0.371482 -0.361803 0.480728
v -0.658238 0.485410 0.480728
v 0.674703 0.138197 0.160243
v 0.155956 0.670820 0.160243
v 0.467868 -0.670820 0.480728
v 0.141894 0.138197 0.678799
v -0.141894 -0.138197 -0.678799
v -0.905209 -0.185410 -0.214988
v -0.209237 -0.900000 -0.214988
v -0.674703 -0.138197 -0.160243
v -0.190370 -0.185410 -0.910704
v 0.190370 0.185410 0.910704
v -0.155956 -0.670820 -0.160243
v 0.905209 0.185410 0.214988
v -0.490622 0.361803 0.358314
v 0.209237 0.900000 0.214988
v 0.348728 -0.500000 0.358314
v 0.371482 0.361803 -0.480728
v 0.658238 -0.485410 -0.480728
v -0.467868 0.670820 -0.480728
v -0.498395 -0.485410 0.644964
vn -0.4932 0.7071 -0.5067
vn 0.6938 -0.5117 -0.5067
vn -0.5254 -0.5117 0.6799
vn 0.9542 0.1954 0.2266
vn 0.2206 0.9487 0.2266
vn 0.2007 0.1954 0.9600
vn -0.2007 -0.1954 -0.9600
vn -0.9542 -0.1954 -0.2266
vn -0.2206 -0.9487 -0.2266
vn -0.6938 0.5117 0.5067
vn 0.4932 -0.7071 0.5067
vn 0.5254 0.5117 -0.6799
vn 0.5254 0.5117 -0.6798
vn -0.5254 -0.5117 0.6798
vn -0.5769 -0.5619 -0.5928
vn -0.1144 0.6946 0.7103
vn 0.6913 -0.1326 0.7103
vn 0.7131 0.6946 -0.0951
vn 0.4054 -0.9092 -0.0951
vn -0.8982 0.4293 -0.0951
vn -0.1060 -0.9092 0.4027
vn -0.0707 0.4293 -0.9004
vn 0.4272 -0.0820 -0.9004
vn -0.9117 -0.0820 0.4027
vn 0.1060 0.9092 -0.4027
vn 0.0707 -0.4293 0.9004
vn 0.9117 0.0820 -0.4027
vn -0.4272 0.0820 0.9004
vn -0.4054 0.9092 0.0951
vn 0.8982 -0.4293 0.0951
vn -0.7131 -0.6946 0.0951
vn 0.1144 -0.6946 -0.7103
vn -0.6913 0.1326 -0.7103
vn 0.5769 0.5619 0.5928
vt 1.000000 0.500000
vt 0.513554 1.000000
vt 0.513554 0.327254
vt 0.513554 0.026392
vt 0.513554 0.513197
vt 0.327749 0.518237
vt 0.027110 0.526393
vt 0.814193 0.133156
vt 0.027110 0.340451
vt 0.327749 0.934017
vt 0.327749 0.332295
vt 0.814193 0.619960
vt 0.327749 0.031432
vt 0.141944 0.824140
vt 0.929029 0.315983
vt 0.628388 0.810943
vt 0.141944 0.266311
vt 0.628388 0.739919
vt 0.628388 0.138195
vt 0.929029 0.731763
vt 0.628388 0.925863
vt 0.929029 0.616844
vt 0.141944 0.753116
vt 0.141944 0.638197
vt 0.256778 0.148277
vt 0.743222 0.621885
vt 0.743222 0.922748
vt 0.743222 0.135080
vt 0.256778 0.378115
vt 0.743222 0.851723
vt 0.743222 0.249999
vt 0.256778 0.864920
vt 0.743222 0.249999
vt 0.256778 0.750001
vt 0.256778 0.077252
vt 0.256778 0.750001
vt 0.371612 0.260081
vt 0.858056 0.733689
vt 0.858056 0.246884
vt 0.070971 0.268237
vt 0.858056 0.175860
vt 0.070971 0.684017
vt 0.070971 0.383156
vt 0.371612 0.189057
vt 0.858056 0.361803
vt 0.371612 0.861805
vt 0.371612 0.074137
vt 0.185807 0.866844
vt 0.672251 0.065983
vt 0.185807 0.380040
vt 0.672251 0.481763
vt 0.672251 0.968568
vt 0.672251 0.667705
vt 0.972890 0.473607
vt 0.972890 0.659549
vt 0.486446 0.672746
vt 0.486446 0.973608
vt 0.486446 0.000000
vt 0.486446 0.486803
vt 0.000000 0.500000
vt 0.628388 0.625000
vt 0.628388 0.324138
vt 0.327749 0.633156
vt 0.442583 0.258155
vt 0.442583 0.444098
vt 0.256778 0.449139
vt 0.743222 0.550861
vt 0.557417 0.741845
vt 0.557417 0.555902
vt 0.371612 0.675862
vt 0.371612 0.375000
vt 0.672251 0.366844
vt 1.000000 0.500000
vt 0.513554 1.000000
vt 0.513554 0.327254
vt 0.513554 0.026392
vt 0.513554 0.513197
vt 0.327749 0.518237
vt 0.027110 0.526393
vt 0.814193 0.133156
vt 0.027110 0.340451
vt 0.327749 0.934017
vt 0.327749 0.332295
vt 0.814193 0.619960
vt 0.327749 0.031432
vt 0.141944 0.824140
vt 0.929029 0.315983
vt 0.628388 0.810943
vt 0.141944 0.266311
vt 0.628388 0.739919
vt 0.628388 0.138195
vt 0.929029 0.731763
vt 0.628388 0.925863
vt 0.929029 0.616844
vt 0.141944 0.753116
vt 0.141944 0.638197
vt 0.256778 0.148277
vt 0.743222 0.621885
vt 0.743222 0.922748
vt 0.743222 0.135080
vt 0.256778 0.378115
vt 0.743222 0.851723
vt 0.743222 0.249999
vt 0.256778 0.864920
vt 0.743222 0.249999
vt 0.256778 0.750001
vt 0.256778 0.077252
vt 0.256778 0.750001
vt 0.371612 0.260081
vt 0.858056 0.733689
vt 0.858056 0.246884
vt 0.070971 0.268237
vt 0.858056 0.175860
vt 0.070971 0.684017
vt 0.070971 0.383156
vt 0.371612 0.189057
vt 0.858056 0.361803
vt 0.371612 0.861805
vt 0.371612 0.074137
vt 0.185807 0.866844
vt 0.672251 0.065983
vt 0.185807 0.380040
vt 0.672251 0.481763
vt 0.672251 0.968568
vt 0.672251 0.667705
vt 0.972890 0.473607
vt 0.972890 0.659549
vt 0.486446 0.672746
vt 0.486446 0.973608
vt 0.486446 0.000000
vt 0.486446 0.486803
vt 0.000000 0.500000
vt 0.731099 0.321352
vt 0.327749 0.735943
vt 0.327749 0.332295
vt 0.577033 0.824469
vt 0.577033 0.575000
vt 0.826317 0.568237
vt 0.173683 0.431763
vt 0.422967 0.175531
vt 0.422967 0.425000
vt 0.672251 0.264057
vt 0.672251 0.667705
vt 0.268901 0.678648
vt 1.000000 0.500000
vt 0.513554 1.000000
vt 0.513554 0.327254
vt 0.513554 0.026392
vt 0.513554 0.513197
vt 0.327749 0.518237
vt 0.027110 0.526393
vt 0.814193 0.133156
vt 0.027110 0.340451
vt 0.327749 0.934017
vt 0.327749 0.332295
vt 0.814193 0.619960
vt 0.327749 0.031432
vt 0.141944 0.824140
vt 0.929029 0.315983
vt 0.628388 0.810943
vt 0.141944 0.266311
vt 0.628388 0.739919
vt 0.628388 0.138195
vt 0.929029 0.731763
vt 0.628388 0.925863
vt 0.929029 0.616844
vt 0.141944 0.753116
vt 0.141944 0.638197
vt 0.256778 0.148277
vt 0.743222 0.621885
vt 0.743222 0.922748
vt 0.743222 0.135080
vt 0.256778 0.378115
vt 0.743222 0.851723
vt 0.743222 0.249999
vt 0.256778 0.864920
vt 0.743222 0.249999
vt 0.256778 0.750001
vt 0.256778 0.077252
vt 0.256778 0.750001
vt 0.371612 0.260081
vt 0.858056 0.733689
vt 0.858056 0.246884
vt 0.070971 0.268237
vt 0.858056 0.175860
vt 0.070971 0.684017
vt 0.070971 0.383156
vt 0.371612 0.189057
vt 0.858056 0.361803
vt 0.371612 0.861805
vt 0.371612 0.074137
vt 0.185807 0.866844
vt 0.672251 0.065983
vt 0.185807 0.380040
vt 0.672251 0.481763
vt 0.672251 0.968568
vt 0.672251 0.667705
vt 0.972890 0.473607
vt 0.972890 0.659549
vt 0.486446 0.672746
vt 0.486446 0.973608
vt 0.486446 0.000000
vt 0.486446 0.486803
vt 0.000000 0.500000
s 0
usemtl Shape.005
f 61/61/1 1/1/1 2/2/1
f 61/61/1 2/2/1 6/6/1
f 61/61/1 6/6/1 15/15/1
f 61/61/1 15/15/1 27/27/1
f 61/61/1 27/27/1 36/36/1
f 61/61/1 36/36/1 31/31/1
f 61/61/1 31/31/1 20/20/1
f 61/61/1 20/20/1 10/10/1
f 61/61/1 10/10/1 3/3/1
f 61/61/1 3/3/1 1/1/1
f 63/62/2 1/1/2 4/4/2
f 63/62/2 4/4/2 11/11/2
f 63/62/2 11/11/2 22/22/2
f 63/62/2 22/22/2 28/28/2
f 63/62/2 28/28/2 25/25/2
f 63/62/2 25/25/2 26/26/2
f 63/62/2 26/26/2 15/15/2
f 63/62/2 15/15/2 13/13/2
f 63/62/2 13/13/2 5/5/2
f 63/62/2 5/5/2 1/1/2
f 64/63/3 2/2/3 5/5/3
f 64/63/3 5/5/3 9/9/3
f 64/63/3 9/9/3 10/10/3
f 64/63/3 10/10/3 18/18/3
f 64/63/3 18/18/3 17/17/3
f 64/63/3 17/17/3 23/23/3
f 64/63/3 23/23/3 21/21/3
f 64/63/3 21/21/3 11/11/3
f 64/63/3 11/11/3 7/7/3
f 64/63/3 7/7/3 2/2/3
f 66/64/4 3/3/4 9/9/4
f 66/64/4 9/9/4 19/19/4
f 66/64/4 19/19/4 31/31/4
f 66/64/4 31/31/4 43/43/4
f 66/64/4 43/43/4 44/44/4
f 66/64/4 44/44/4 41/41/4
f 66/64/4 41/41/4 29/29/4
f 66/64/4 29/29/4 17/17/4
f 66/64/4 17/17/4 8/8/4
f 66/64/4 8/8/4 3/3/4
f 67/65/5 4/4/5 12/12/5
f 67/65/5 12/12/5 23/23/5
f 67/65/5 23/23/5 35/35/5
f 67/65/5 35/35/5 45/45/5
f 67/65/5 45/45/5 46/46/5
f 67/65/5 46/46/5 40/40/5
f 67/65/5 40/40/5 28/28/5
f 67/65/5 28/28/5 16/16/5
f 67/65/5 16/16/5 7/7/5
f 67/65/5 7/7/5 4/4/5
f 69/66/6 6/6/6 14/14/6
f 69/66/6 14/14/6 25/25/6
f 69/66/6 25/25/6 37/37/6
f 69/66/6 37/37/6 48/48/6
f 69/66/6 48/48/6 50/50/6
f 69/66/6 50/50/6 47/47/6
f 69/66/6 47/47/6 36/36/6
f 69/66/6 36/36/6 24/24/6
f 69/66/6 24/24/6 13/13/6
f 69/66/6 13/13/6 6/6/6
f 70/67/7 8/8/7 18/18/7
f 70/67/7 18/18/7 30/30/7
f 70/67/7 30/30/7 41/41/7
f 70/67/7 41/41/7 51/51/7
f 70/67/7 51/51/7 52/52/7
f 70/67/7 52/52/7 45/45/7
f 70/67/7 45/45/7 33/33/7
f 70/67/7 33/33/7 21/21/7
f 70/67/7 21/21/7 12/12/7
f 70/67/7 12/12/7 8/8/7
f 73/68/8 14/14/8 16/16/8
f 73/68/8 16/16/8 22/22/8
f 73/68/8 22/22/8 34/34/8
f 73/68/8 34/34/8 46/46/8
f 73/68/8 46/46/8 55/55/8
f 73/68/8 55/55/8 56/56/8
f 73/68/8 56/56/8 48/48/8
f 73/68/8 48/48/8 38/38/8
f 73/68/8 38/38/8 26/26/8
f 73/68/8 26/26/8 14/14/8
f 76/69/9 19/19/9 24/24/9
f 76/69/9 24/24/9 27/27/9
f 76/69/9 27/27/9 39/39/9
f 76/69/9 39/39/9 50/50/9
f 76/69/9 50/50/9 57/57/9
f 76/69/9 57/57/9 54/54/9
f 76/69/9 54/54/9 44/44/9
f 76/69/9 44/44/9 32/32/9
f 76/69/9 32/32/9 20/20/9
f 76/69/9 20/20/9 19/19/9
f 78/70/10 29/29/10 30/30/10
f 78/70/10 30/30/10 32/32/10
f 78/70/10 32/32/10 43/43/10
f 78/70/10 43/43/10 53/53/10
f 78/70/10 53/53/10 57/57/10
f 78/70/10 57/57/10 60/60/10
f 78/70/10 60/60/10 59/59/10
f 78/70/10 59/59/10 52/52/10
f 78/70/10 52/52/10 42/42/10
f 78/70/10 42/42/10 29/29/10
f 80/71/11 33/33/11 35/35/11
f 80/71/11 35/35/11 42/42/11
f 80/71/11 42/42/11 51/51/11
f 80/71/11 51/51/11 58/58/11
f 80/71/11 58/58/11 60/60/11
f 80/71/11 60/60/11 56/56/11
f 80/71/11 56/56/11 49/49/11
f 80/71/11 49/49/11 40/40/11
f 80/71/11 40/40/11 34/34/11
f 80/71/11 34/34/11 33/33/11
f 81/72/12 37/37/12 49/49/12
f 81/72/12 49/49/12 55/55/12
f 81/72/12 55/55/12 59/59/12
f 81/72/12 59/59/12 58/58/12
f 81/72/12 58/58/12 54/54/12
f 81/72/12 54/54/12 53/53/12
f 81/72/12 53/53/12 47/47/12
f 81/72/12 47/47/12 39/39/12
f 81/72/12 39/39/12 38/38/12
f 81/72/12 38/38/12 37/37/12
usemtl Shape.003
f 146/133/13 85/73/13 87/75/13
f 146/133/12 87/75/12 92/80/12
f 146/133/12 92/80/12 96/84/12
f 146/133/12 96/84/12 88/76/12
f 146/133/13 88/76/13 85/73/13
f 149/134/10 86/74/10 91/79/10
f 149/134/10 91/79/10 100/88/10
f 149/134/10 100/88/10 98/86/10
f 149/134/10 98/86/10 90/78/10
f 149/134/10 90/78/10 86/74/10
f 152/135/11 89/77/11 97/85/11
f 152/135/11 97/85/11 108/96/11
f 152/135/11 108/96/11 103/91/11
f 152/135/11 103/91/11 93/81/11
f 152/135/11 93/81/11 89/77/11
f 155/136/8 94/82/8 104/92/8
f 155/136/8 104/92/8 116/104/8
f 155/136/8 116/104/8 114/102/8
f 155/136/8 114/102/8 102/90/8
f 155/136/8 102/90/8 94/82/8
f 156/137/9 95/83/9 105/93/9
f 156/137/9 105/93/9 117/105/9
f 156/137/9 117/105/9 118/106/9
f 156/137/9 118/106/9 106/94/9
f 156/137/9 106/94/9 95/83/9
f 158/138/7 99/87/7 110/98/7
f 158/138/7 110/98/7 122/110/7
f 158/138/7 122/110/7 123/111/7
f 158/138/7 123/111/7 111/99/7
f 158/138/7 111/99/7 99/87/7
f 159/139/6 101/89/6 113/101/6
f 159/139/6 113/101/6 126/114/6
f 159/139/6 126/114/6 119/107/6
f 159/139/6 119/107/6 107/95/6
f 159/139/6 107/95/6 101/89/6
f 161/140/4 109/97/4 112/100/4
f 161/140/4 112/100/4 124/112/4
f 161/140/4 124/112/4 133/121/4
f 161/140/4 133/121/4 121/109/4
f 161/140/4 121/109/4 109/97/4
f 163/141/5 115/103/5 120/108/5
f 163/141/5 120/108/5 131/119/5
f 163/141/5 131/119/5 137/125/5
f 163/141/5 137/125/5 127/115/5
f 163/141/5 127/115/5 115/103/5
f 166/142/2 125/113/2 128/116/2
f 166/142/2 128/116/2 138/126/2
f 166/142/2 138/126/2 142/130/2
f 166/142/2 142/130/2 135/123/2
f 166/142/2 135/123/2 125/113/2
f 167/143/1 129/117/1 136/124/1
f 167/143/1 136/124/1 143/131/1
f 167/143/1 143/131/1 139/127/1
f 167/143/1 139/127/1 130/118/1
f 167/143/1 130/118/1 129/117/1
f 168/144/3 132/120/3 140/128/3
f 168/144/14 140/128/14 144/132/14
f 168/144/14 144/132/14 141/129/14
f 168/144/3 141/129/3 134/122/3
f 168/144/3 134/122/3 132/120/3
usemtl Shape.004
f 169/145/15 173/149/15 170/146/15
f 171/147/16 178/154/16 177/153/16
f 172/148/17 175/151/17 179/155/17
f 174/150/18 181/157/18 183/159/18
f 176/152/19 185/161/19 186/162/19
f 180/156/20 189/165/20 191/167/20
f 182/158/21 194/170/21 193/169/21
f 184/160/22 196/172/22 190/166/22
f 187/163/23 188/164/23 199/175/23
f 192/168/24 204/180/24 195/171/24
f 197/173/25 209/185/25 198/174/25
f 200/176/26 212/188/26 211/187/26
f 201/177/27 213/189/27 203/179/27
f 202/178/28 208/184/28 214/190/28
f 205/181/29 206/182/29 216/192/29
f 207/183/30 215/191/30 218/194/30
f 210/186/31 220/196/31 219/195/31
f 217/193/32 224/200/32 223/199/32
f 221/197/33 222/198/33 225/201/33
f 226/202/34 227/203/34 228/204/34
