# Blender 3.1.0
# www.blender.org
mtllib great_inverted_pentagonal_hexecontahedron.mtl
o Shape_IndexedFaceSet
v -0.775169 1.003710 -0.631753
v -0.224658 0.859884 -0.631753
v 0.185148 1.254610 -0.631753
v 1.167070 -0.496276 -0.631753
v -0.775169 -1.003710 -0.631753
v -0.383274 -0.496276 1.270530
v -0.439432 0.000000 0.997940
v -0.383274 0.496276 1.270530
v 1.360830 0.245378 0.308812
v 0.087186 0.879660 -1.107270
v -0.506323 0.724597 -1.107270
v -1.306950 -0.451620 0.308812
v 0.091544 0.620329 1.270530
v 1.120780 -0.809890 0.308812
v 0.999827 -0.425161 -0.092565
v 1.360830 -0.245378 0.308812
v 0.280954 1.378660 -0.166701
v -0.917209 0.306715 1.035420
v -0.917209 -0.306715 1.035420
v 0.280954 -1.378660 -0.166701
v 0.074692 -0.966161 -0.499938
v -0.348787 -1.065050 -0.866866
v -1.228580 -0.151652 0.689231
v -0.347817 1.331280 -0.337870
v 1.145750 0.468677 0.689231
v 0.825174 -0.758336 -0.866866
v -0.648605 -1.184840 0.427675
v -0.814819 -0.703398 0.174031
v -0.798053 -1.158780 -0.166701
v -0.254704 0.374951 -1.342380
v 1.389440 -0.051554 -0.272489
v 1.001030 -0.964953 -0.272489
v -0.446749 -0.076669 -1.342380
v -0.682081 -0.171960 -0.833175
v -1.039170 -0.606683 -0.748002
v 0.708113 -1.227010 0.021393
v -0.053284 0.000000 1.415840
v 0.708113 1.227010 0.021393
v -1.039170 0.606683 -0.748002
v 0.220653 -0.927045 -1.048500
v 0.609855 -1.120870 -0.615770
v 0.710267 -0.264543 1.197070
v 0.682081 0.171960 0.833175
v 0.417056 0.257796 1.329300
v -0.708113 1.227010 -0.021393
v -1.204930 -0.705622 -0.240163
v -0.963120 -0.747794 0.721558
v -0.588551 1.206160 0.454119
v -0.074692 0.966161 0.499938
v 0.224377 0.995280 0.983114
v -0.561176 -0.852062 0.983114
v -1.219160 -0.020852 -0.721558
v -0.853029 0.306715 -1.088900
v 1.084580 0.620329 -0.668076
v 0.814819 0.703398 -0.174031
v 1.331020 0.468677 -0.127182
v 0.254704 -0.374951 1.342380
v -0.311519 -1.344170 -0.321887
v -1.302290 0.400441 -0.388738
v 0.561176 0.852062 -0.983114
v 0.686199 0.710951 1.015440
v 1.160620 -0.134212 0.801485
v 0.795751 0.434180 -1.088900
v 0.439432 -0.000000 -0.997940
v 0.550104 -0.521391 -1.197070
v 1.039170 -0.606683 0.748002
v 0.401459 1.275930 0.467194
v -0.100958 1.406260 0.140257
v 1.228580 0.151652 -0.689231
v -0.561789 -0.641181 -1.131690
v -0.236144 -1.158780 0.780329
v -0.825174 0.758336 0.866866
v 1.098350 0.843628 0.298933
v 0.699601 1.089010 -0.576251
v -1.022330 0.879660 0.434140
v -0.999827 0.425161 0.092565
v -1.240480 0.330671 0.599426
v -0.280954 -1.378660 0.166701
v 0.082977 -0.181127 -1.402770
v 0.234796 0.409448 -1.335910
v -1.360830 -0.245378 -0.308812
v -0.387483 0.952160 0.975034
v 0.649084 -0.766769 0.999098
v 0.224658 -0.859884 0.631753
v 0.714922 -1.116610 0.499521
v -0.091544 -0.620329 -1.270530
v -1.413500 0.034497 0.090860
v -1.060540 0.922781 -0.176579
v 0.775169 1.003710 0.631753
v 0.990623 -0.141110 -1.003090
v 0.167821 -1.358880 0.364314
v 0.061293 -0.792833 1.172650
v -0.084557 0.323644 -0.631753
v -0.551264 0.000000 0.455100
v 0.012983 0.696983 -0.158286
v -0.352248 0.601560 -0.158286
v 0.712874 0.028723 0.044655
v 0.473856 -0.533361 0.044655
v -0.019626 0.188745 0.689201
v -0.019626 -0.188745 0.689201
v 0.290976 -0.456968 -0.466392
v -0.412531 0.370824 -0.450905
v 0.178425 0.525221 -0.450905
v -0.490304 -0.474719 -0.212723
v -0.341499 -0.500671 0.379097
v 0.491458 -0.414086 -0.313064
v 0.639179 -0.066699 -0.313064
v -0.560850 0.166013 -0.410967
v -0.348196 -0.305396 0.544518
v -0.348196 0.305396 0.544518
v -0.276015 -0.594381 -0.285543
v -0.036510 -0.713655 -0.019254
v 0.192341 0.311145 0.614168
v 0.484291 -0.208949 0.482504
v -0.591882 -0.221810 0.333891
v -0.683849 -0.205771 -0.031874
v 0.139173 0.698200 0.064461
v 0.610699 -0.259690 0.265737
v -0.381628 -0.417299 -0.437297
v -0.156318 -0.215722 -0.663352
v 0.652467 0.264745 0.123304
v 0.407087 0.415745 -0.415263
v 0.313910 -0.628730 -0.131025
v -0.073618 -0.435739 -0.561889
v 0.649916 0.069912 0.289360
v 0.469480 0.391347 0.370733
v -0.025552 0.086836 -0.709094
v -0.278720 -0.656978 0.041272
v -0.037147 0.418755 0.578162
v -0.346323 0.498958 0.376973
v -0.267083 0.144785 -0.647079
v -0.631643 -0.181373 -0.281315
v 0.263909 0.646481 -0.153042
v 0.415562 0.553158 0.179811
v -0.676254 -0.002771 0.231692
v -0.459045 0.543857 0.067116
v 0.201495 -0.059859 0.683245
v 0.439566 -0.251965 -0.504285
v 0.532992 0.111461 -0.463146
v -0.237351 0.671665 0.059488
v 0.262906 0.541893 0.385019
v 0.260877 -0.654992 0.118052
v 0.195322 -0.306661 0.615480
v 0.647229 0.179820 -0.244472
v -0.565521 0.361599 -0.245844
v -0.699764 0.023764 -0.144130
v 0.245533 0.320852 -0.589725
v 0.094368 -0.267184 -0.656289
v -0.141351 -0.455750 0.532278
v -0.100835 -0.671031 0.224850
v -0.527481 0.318664 0.362249
v 0.443913 -0.429799 0.359475
vn -0.0000 -0.0000 -1.0000
vn -0.9794 -0.0000 0.2018
vn 0.2476 0.9476 0.2018
vn -0.6795 0.7054 0.2018
vn 0.8543 0.4791 0.2018
vn 0.2476 -0.9476 0.2018
vn 0.3700 0.4791 0.7960
vn 0.3700 -0.4791 0.7960
vn 0.6672 -0.2369 -0.7062
vn -0.8325 0.1198 -0.5410
vn 0.6675 0.5117 -0.5410
vn -0.4661 -0.5330 -0.7062
vn -0.0884 -0.5988 0.7960
vn 0.2923 -0.6449 -0.7062
vn 0.6672 0.2369 -0.7062
vn -0.7719 0.5857 -0.2472
vn -0.7720 0.5857 -0.2472
vn -0.4640 -0.7752 0.4287
vn -0.4640 0.7752 0.4287
vn -0.7719 -0.5857 -0.2472
vn -0.7720 -0.5857 -0.2472
vn -0.1640 -0.8884 0.4287
vn -0.1634 0.6255 0.7629
vn 0.5776 -0.6946 0.4287
vn -0.7239 0.1090 0.6812
vn -0.9573 0.1497 -0.2472
vn 0.4246 0.8492 -0.3140
vn 0.5949 -0.2530 0.7629
vn -0.3170 -0.8949 -0.3140
vn 0.2549 -0.3833 -0.8878
vn 0.2548 -0.3833 -0.8878
vn 0.8777 -0.0000 0.4792
vn 0.2549 0.3833 -0.8878
vn 0.2548 0.3833 -0.8878
vn 0.7254 -0.6729 0.1450
vn 0.7254 -0.6728 0.1450
vn -0.2582 -0.1830 -0.9486
vn 0.9980 0.0132 -0.0615
vn 0.5400 0.8291 0.1450
vn -0.4847 0.2204 -0.8465
vn 0.0710 -0.9956 -0.0615
vn -0.0229 0.1399 0.9899
vn -0.8077 0.3435 0.4792
vn -0.0263 0.5318 -0.8465
vn -0.9516 -0.2961 0.0819
vn -0.1086 0.9689 -0.2222
vn 0.2764 0.7321 0.6227
vn -0.7613 -0.4132 0.4997
vn -0.2100 0.9743 0.0819
vn -0.1402 -0.3162 0.9383
vn 0.6959 -0.6395 -0.3266
vn 0.9331 0.2829 -0.2222
vn -0.5311 0.7818 -0.3266
vn 0.7387 0.4524 0.4997
vn 0.4475 -0.8410 -0.3039
vn 0.2812 0.0431 0.9587
vn 0.2811 0.0431 0.9587
vn 0.8644 -0.2156 -0.4543
vn -0.4803 0.5117 -0.7124
vn -0.4803 0.5116 -0.7124
vn -0.4802 0.5117 -0.7124
vn -0.8210 -0.3459 -0.4543
vn 0.2034 0.8144 -0.5435
vn -0.1803 -0.6782 -0.7124
vn -0.5734 -0.3353 0.7475
vn -0.4706 -0.8817 -0.0328
vn -0.4706 -0.8818 -0.0328
vn -0.3837 0.4027 0.8310
vn 0.9121 -0.2694 0.3089
vt 0.726455 0.772264
vt 0.726455 0.575859
vt 0.726455 0.429653
vt 0.726455 0.079335
vt 0.726455 0.772264
vt 0.051554 0.632448
vt 0.148265 0.652483
vt 0.051554 0.632448
vt 0.392757 0.010207
vt 0.895161 0.464603
vt 0.895161 0.676348
vt 0.392757 0.961986
vt 0.051554 0.463048
vt 0.392757 0.095849
vt 0.535159 0.139002
vt 0.392757 0.010207
vt 0.561462 0.395473
vt 0.134967 0.822939
vt 0.134967 0.822939
vt 0.561462 0.395473
vt 0.679689 0.469060
vt 0.809869 0.620144
vt 0.257790 0.934026
vt 0.622190 0.619798
vt 0.257790 0.086941
vt 0.809869 0.201312
vt 0.350586 0.727110
vt 0.440575 0.786410
vt 0.561462 0.780428
vt 0.978575 0.586578
vt 0.598993 0.000000
vt 0.598993 0.138572
vt 0.978575 0.655094
vt 0.797916 0.739053
vt 0.767698 0.866451
vt 0.494728 0.243076
vt 0.000000 0.514718
vt 0.494728 0.243076
vt 0.767698 0.866451
vt 0.874310 0.416986
vt 0.720784 0.278131
vt 0.077616 0.242307
vt 0.206721 0.252363
vt 0.030703 0.346916
vt 0.509909 0.748340
vt 0.587525 0.925589
vt 0.246321 0.839319
vt 0.341204 0.705684
vt 0.324948 0.522356
vt 0.153525 0.415657
vt 0.153525 0.695918
vt 0.758316 0.930666
vt 0.888644 0.800042
vt 0.739342 0.108764
vt 0.564062 0.205007
vt 0.547441 0.020842
vt 0.026062 0.404838
vt 0.616519 0.606848
vt 0.640237 0.960324
vt 0.851112 0.295498
vt 0.142056 0.250894
vt 0.217964 0.081636
vt 0.888644 0.211809
vt 0.856372 0.338933
vt 0.927021 0.299448
vt 0.236939 0.124965
vt 0.336565 0.352480
vt 0.452557 0.531727
vt 0.746847 0.057390
vt 0.903825 0.696137
vt 0.225470 0.579957
vt 0.194768 0.790104
vt 0.396262 0.103852
vt 0.706764 0.246113
vt 0.348292 0.860443
vt 0.469478 0.852415
vt 0.289651 0.938272
vt 0.443176 0.595944
vt 1.000000 0.466104
vt 0.976279 0.411940
vt 0.611880 0.981209
vt 0.156391 0.633950
vt 0.147854 0.264136
vt 0.278182 0.415557
vt 0.325096 0.240647
vt 0.953083 0.528368
vt 0.470083 1.000000
vt 0.564966 0.874075
vt 0.278182 0.219152
vt 0.858200 0.142285
vt 0.373065 0.435835
vt 0.086280 0.473841
vt 0.726455 0.525875
vt 0.340856 0.692382
vt 0.558476 0.491076
vt 0.558476 0.621379
vt 0.486476 0.241377
vt 0.486476 0.326651
vt 0.257800 0.502710
vt 0.257800 0.502710
vt 0.667787 0.391897
vt 0.662293 0.642886
vt 0.662293 0.432052
vt 0.577789 0.670633
vt 0.367821 0.617544
vt 0.613389 0.320371
vt 0.613389 0.267669
vt 0.648123 0.695802
vt 0.309132 0.619933
vt 0.309132 0.619933
vt 0.603625 0.594181
vt 0.509150 0.508734
vt 0.284421 0.427087
vt 0.331133 0.322928
vt 0.383859 0.706873
vt 0.513627 0.739684
vt 0.479449 0.446056
vt 0.408039 0.277830
vt 0.657465 0.631861
vt 0.737666 0.551477
vt 0.458572 0.262929
vt 0.649648 0.350472
vt 0.548804 0.383715
vt 0.701668 0.521973
vt 0.399658 0.263839
vt 0.370788 0.328213
vt 0.753894 0.504824
vt 0.487676 0.595147
vt 0.297195 0.508961
vt 0.368574 0.619265
vt 0.731892 0.590995
vt 0.602125 0.721058
vt 0.556615 0.401554
vt 0.438524 0.347449
vt 0.420118 0.736974
vt 0.478507 0.659481
vt 0.259914 0.423821
vt 0.681231 0.338885
vt 0.666636 0.305553
vt 0.481213 0.580387
vt 0.365720 0.401912
vt 0.460435 0.402635
vt 0.283956 0.426023
vt 0.589053 0.264797
vt 0.589540 0.697468
vt 0.553454 0.745362
vt 0.711544 0.408110
vt 0.735160 0.462041
vt 0.313474 0.546138
vt 0.422545 0.531683
vt 0.373798 0.683897
vt 0.374782 0.337334
s 0
usemtl Shape
f 93/93/1 5/5/1 1/1/1
f 93/93/1 1/1/1 2/2/1
f 93/93/1 2/2/1 3/3/1
f 93/93/1 3/3/1 4/4/1
f 93/93/1 4/4/1 5/5/1
f 94/94/2 1/1/2 5/5/2
f 94/94/2 5/5/2 6/6/2
f 94/94/2 6/6/2 7/7/2
f 94/94/2 7/7/2 8/8/2
f 94/94/2 8/8/2 1/1/2
f 95/95/3 2/2/3 1/1/3
f 95/95/3 1/1/3 8/8/3
f 95/95/3 8/8/3 9/9/3
f 95/95/3 9/9/3 10/10/3
f 95/95/3 10/10/3 2/2/3
f 96/96/4 3/3/4 2/2/4
f 96/96/4 2/2/4 11/11/4
f 96/96/4 11/11/4 12/12/4
f 96/96/4 12/12/4 13/13/4
f 96/96/4 13/13/4 3/3/4
f 97/97/5 4/4/5 3/3/5
f 97/97/5 3/3/5 13/13/5
f 97/97/5 13/13/5 14/14/5
f 97/97/5 14/14/5 15/15/5
f 97/97/5 15/15/5 4/4/5
f 98/98/6 5/5/6 4/4/6
f 98/98/6 4/4/6 15/15/6
f 98/98/6 15/15/6 16/16/6
f 98/98/6 16/16/6 6/6/6
f 98/98/6 6/6/6 5/5/6
f 99/99/7 7/7/7 6/6/7
f 99/99/7 6/6/7 16/16/7
f 99/99/7 16/16/7 17/17/7
f 99/99/7 17/17/7 18/18/7
f 99/99/7 18/18/7 7/7/7
f 100/100/8 8/8/8 7/7/8
f 100/100/8 7/7/8 19/19/8
f 100/100/8 19/19/8 20/20/8
f 100/100/8 20/20/8 9/9/8
f 100/100/8 9/9/8 8/8/8
f 101/101/9 10/10/9 9/9/9
f 101/101/9 9/9/9 20/20/9
f 101/101/9 20/20/9 21/21/9
f 101/101/9 21/21/9 22/22/9
f 101/101/9 22/22/9 10/10/9
f 102/102/10 2/2/10 10/10/10
f 102/102/10 10/10/10 22/22/10
f 102/102/10 22/22/10 23/23/10
f 102/102/10 23/23/10 24/24/10
f 102/102/10 24/24/10 2/2/10
f 103/103/11 11/11/11 2/2/11
f 103/103/11 2/2/11 24/24/11
f 103/103/11 24/24/11 25/25/11
f 103/103/11 25/25/11 26/26/11
f 103/103/11 26/26/11 11/11/11
f 104/104/12 12/12/12 11/11/12
f 104/104/12 11/11/12 26/26/12
f 104/104/12 26/26/12 27/27/12
f 104/104/12 27/27/12 28/28/12
f 104/104/12 28/28/12 12/12/12
f 105/105/13 13/13/13 12/12/13
f 105/105/13 12/12/13 28/28/13
f 105/105/13 28/28/13 29/29/13
f 105/105/13 29/29/13 14/14/13
f 105/105/13 14/14/13 13/13/13
f 106/106/14 15/15/14 14/14/14
f 106/106/14 14/14/14 29/29/14
f 106/106/14 29/29/14 30/30/14
f 106/106/14 30/30/14 31/31/14
f 106/106/14 31/31/14 15/15/14
f 107/107/15 16/16/15 15/15/15
f 107/107/15 15/15/15 32/32/15
f 107/107/15 32/32/15 33/33/15
f 107/107/15 33/33/15 17/17/15
f 107/107/15 17/17/15 16/16/15
f 108/108/16 18/18/16 17/17/16
f 108/108/17 17/17/17 33/33/17
f 108/108/17 33/33/17 34/34/17
f 108/108/16 34/34/16 35/35/16
f 108/108/16 35/35/16 18/18/16
f 109/109/18 7/7/18 18/18/18
f 109/109/18 18/18/18 35/35/18
f 109/109/18 35/35/18 36/36/18
f 109/109/18 36/36/18 37/37/18
f 109/109/18 37/37/18 7/7/18
f 110/110/19 19/19/19 7/7/19
f 110/110/19 7/7/19 37/37/19
f 110/110/19 37/37/19 38/38/19
f 110/110/19 38/38/19 39/39/19
f 110/110/19 39/39/19 19/19/19
f 111/111/20 20/20/20 19/19/20
f 111/111/21 19/19/21 39/39/21
f 111/111/21 39/39/21 40/40/21
f 111/111/21 40/40/21 21/21/21
f 111/111/21 21/21/21 20/20/21
f 112/112/22 22/22/22 21/21/22
f 112/112/22 21/21/22 41/41/22
f 112/112/22 41/41/22 42/42/22
f 112/112/22 42/42/22 23/23/22
f 112/112/22 23/23/22 22/22/22
f 113/113/23 24/24/23 23/23/23
f 113/113/23 23/23/23 42/42/23
f 113/113/23 42/42/23 43/43/23
f 113/113/23 43/43/23 25/25/23
f 113/113/23 25/25/23 24/24/23
f 114/114/24 26/26/24 25/25/24
f 114/114/24 25/25/24 43/43/24
f 114/114/24 43/43/24 44/44/24
f 114/114/24 44/44/24 27/27/24
f 114/114/24 27/27/24 26/26/24
f 115/115/25 28/28/25 27/27/25
f 115/115/25 27/27/25 44/44/25
f 115/115/25 44/44/25 45/45/25
f 115/115/25 45/45/25 46/46/25
f 115/115/25 46/46/25 28/28/25
f 116/116/26 29/29/26 28/28/26
f 116/116/26 28/28/26 47/47/26
f 116/116/26 47/47/26 48/48/26
f 116/116/26 48/48/26 30/30/26
f 116/116/26 30/30/26 29/29/26
f 117/117/27 31/31/27 30/30/27
f 117/117/27 30/30/27 48/48/27
f 117/117/27 48/48/27 49/49/27
f 117/117/27 49/49/27 50/50/27
f 117/117/27 50/50/27 31/31/27
f 118/118/28 15/15/28 31/31/28
f 118/118/28 31/31/28 50/50/28
f 118/118/28 50/50/28 51/51/28
f 118/118/28 51/51/28 32/32/28
f 118/118/28 32/32/28 15/15/28
f 119/119/29 33/33/29 32/32/29
f 119/119/29 32/32/29 51/51/29
f 119/119/29 51/51/29 52/52/29
f 119/119/29 52/52/29 34/34/29
f 119/119/29 34/34/29 33/33/29
f 120/120/30 35/35/30 34/34/30
f 120/120/30 34/34/30 53/53/30
f 120/120/31 53/53/31 54/54/31
f 120/120/30 54/54/30 36/36/30
f 120/120/30 36/36/30 35/35/30
f 121/121/32 37/37/32 36/36/32
f 121/121/32 36/36/32 54/54/32
f 121/121/32 54/54/32 55/55/32
f 121/121/32 55/55/32 38/38/32
f 121/121/32 38/38/32 37/37/32
f 122/122/33 39/39/33 38/38/33
f 122/122/34 38/38/34 55/55/34
f 122/122/33 55/55/33 56/56/33
f 122/122/33 56/56/33 40/40/33
f 122/122/33 40/40/33 39/39/33
f 123/123/35 21/21/35 40/40/35
f 123/123/35 40/40/35 56/56/35
f 123/123/35 56/56/35 57/57/35
f 123/123/36 57/57/36 58/58/36
f 123/123/36 58/58/36 21/21/36
f 124/124/37 41/41/37 21/21/37
f 124/124/37 21/21/37 58/58/37
f 124/124/37 58/58/37 59/59/37
f 124/124/37 59/59/37 60/60/37
f 124/124/37 60/60/37 41/41/37
f 125/125/38 42/42/38 41/41/38
f 125/125/38 41/41/38 60/60/38
f 125/125/38 60/60/38 61/61/38
f 125/125/38 61/61/38 43/43/38
f 125/125/38 43/43/38 42/42/38
f 126/126/39 44/44/39 43/43/39
f 126/126/39 43/43/39 62/62/39
f 126/126/39 62/62/39 63/63/39
f 126/126/39 63/63/39 45/45/39
f 126/126/39 45/45/39 44/44/39
f 127/127/40 46/46/40 45/45/40
f 127/127/40 45/45/40 63/63/40
f 127/127/40 63/63/40 64/64/40
f 127/127/40 64/64/40 65/65/40
f 127/127/40 65/65/40 46/46/40
f 128/128/41 28/28/41 46/46/41
f 128/128/41 46/46/41 65/65/41
f 128/128/41 65/65/41 66/66/41
f 128/128/41 66/66/41 47/47/41
f 128/128/41 47/47/41 28/28/41
f 129/129/42 48/48/42 47/47/42
f 129/129/42 47/47/42 66/66/42
f 129/129/42 66/66/42 67/67/42
f 129/129/42 67/67/42 49/49/42
f 129/129/42 49/49/42 48/48/42
f 130/130/43 50/50/43 49/49/43
f 130/130/43 49/49/43 68/68/43
f 130/130/43 68/68/43 52/52/43
f 130/130/43 52/52/43 51/51/43
f 130/130/43 51/51/43 50/50/43
f 131/131/44 34/34/44 52/52/44
f 131/131/44 52/52/44 68/68/44
f 131/131/44 68/68/44 69/69/44
f 131/131/44 69/69/44 70/70/44
f 131/131/44 70/70/44 34/34/44
f 132/132/45 53/53/45 34/34/45
f 132/132/45 34/34/45 70/70/45
f 132/132/45 70/70/45 71/71/45
f 132/132/45 71/71/45 72/72/45
f 132/132/45 72/72/45 53/53/45
f 133/133/46 54/54/46 53/53/46
f 133/133/46 53/53/46 72/72/46
f 133/133/46 72/72/46 73/73/46
f 133/133/46 73/73/46 55/55/46
f 133/133/46 55/55/46 54/54/46
f 134/134/47 56/56/47 55/55/47
f 134/134/47 55/55/47 74/74/47
f 134/134/47 74/74/47 75/75/47
f 134/134/47 75/75/47 57/57/47
f 134/134/47 57/57/47 56/56/47
f 135/135/48 58/58/48 57/57/48
f 135/135/48 57/57/48 75/75/48
f 135/135/48 75/75/48 76/76/48
f 135/135/48 76/76/48 59/59/48
f 135/135/48 59/59/48 58/58/48
f 136/136/49 60/60/49 59/59/49
f 136/136/49 59/59/49 76/76/49
f 136/136/49 76/76/49 77/77/49
f 136/136/49 77/77/49 61/61/49
f 136/136/49 61/61/49 60/60/49
f 137/137/50 43/43/50 61/61/50
f 137/137/50 61/61/50 77/77/50
f 137/137/50 77/77/50 78/78/50
f 137/137/50 78/78/50 62/62/50
f 137/137/50 62/62/50 43/43/50
f 138/138/51 63/63/51 62/62/51
f 138/138/51 62/62/51 78/78/51
f 138/138/51 78/78/51 79/79/51
f 138/138/51 79/79/51 64/64/51
f 138/138/51 64/64/51 63/63/51
f 139/139/52 65/65/52 64/64/52
f 139/139/52 64/64/52 80/80/52
f 139/139/52 80/80/52 67/67/52
f 139/139/52 67/67/52 66/66/52
f 139/139/52 66/66/52 65/65/52
f 140/140/53 49/49/53 67/67/53
f 140/140/53 67/67/53 80/80/53
f 140/140/53 80/80/53 81/81/53
f 140/140/53 81/81/53 82/82/53
f 140/140/53 82/82/53 49/49/53
f 141/141/54 68/68/54 49/49/54
f 141/141/54 49/49/54 82/82/54
f 141/141/54 82/82/54 83/83/54
f 141/141/54 83/83/54 69/69/54
f 141/141/54 69/69/54 68/68/54
f 142/142/55 70/70/55 69/69/55
f 142/142/55 69/69/55 83/83/55
f 142/142/55 83/83/55 84/84/55
f 142/142/55 84/84/55 71/71/55
f 142/142/55 71/71/55 70/70/55
f 143/143/56 72/72/56 71/71/56
f 143/143/57 71/71/57 84/84/57
f 143/143/57 84/84/57 85/85/57
f 143/143/57 85/85/57 73/73/57
f 143/143/57 73/73/57 72/72/57
f 144/144/58 55/55/58 73/73/58
f 144/144/58 73/73/58 85/85/58
f 144/144/58 85/85/58 86/86/58
f 144/144/58 86/86/58 74/74/58
f 144/144/58 74/74/58 55/55/58
f 145/145/59 75/75/59 74/74/59
f 145/145/60 74/74/60 86/86/60
f 145/145/60 86/86/60 87/87/60
f 145/145/60 87/87/60 76/76/60
f 145/145/61 76/76/61 75/75/61
f 146/146/62 77/77/62 76/76/62
f 146/146/62 76/76/62 88/88/62
f 146/146/62 88/88/62 79/79/62
f 146/146/62 79/79/62 78/78/62
f 146/146/62 78/78/62 77/77/62
f 147/147/63 64/64/63 79/79/63
f 147/147/63 79/79/63 88/88/63
f 147/147/63 88/88/63 89/89/63
f 147/147/63 89/89/63 90/90/63
f 147/147/63 90/90/63 64/64/63
f 148/148/64 80/80/64 64/64/64
f 148/148/64 64/64/64 90/90/64
f 148/148/64 90/90/64 91/91/64
f 148/148/64 91/91/64 81/81/64
f 148/148/64 81/81/64 80/80/64
f 149/149/65 82/82/65 81/81/65
f 149/149/65 81/81/65 91/91/65
f 149/149/65 91/91/65 84/84/65
f 149/149/65 84/84/65 83/83/65
f 149/149/65 83/83/65 82/82/65
f 150/150/66 85/85/66 84/84/66
f 150/150/67 84/84/67 92/92/67
f 150/150/67 92/92/67 87/87/67
f 150/150/67 87/87/67 86/86/67
f 150/150/66 86/86/66 85/85/66
f 151/151/68 76/76/68 87/87/68
f 151/151/68 87/87/68 92/92/68
f 151/151/68 92/92/68 89/89/68
f 151/151/68 89/89/68 88/88/68
f 151/151/68 88/88/68 76/76/68
f 152/152/69 90/90/69 89/89/69
f 152/152/69 89/89/69 92/92/69
f 152/152/69 92/92/69 84/84/69
f 152/152/69 84/84/69 91/91/69
f 152/152/69 91/91/69 90/90/69
