# Blender 3.1.0
# www.blender.org
mtllib great_snub_icosidodecahedron.mtl
o Shape_IndexedFaceSet
v -0.000000 -0.000000 -1.265300
v -1.225370 -0.000000 -0.315357
v -0.244474 1.200730 -0.315357
v 1.127820 0.479118 -0.315357
v 1.127820 -0.479118 -0.315357
v -0.244474 -1.200730 -0.315357
v -0.586498 -0.479118 1.013630
v -0.478498 1.009560 0.593982
v -1.084730 0.267462 0.593982
v 0.352473 0.670295 1.013630
v 0.835141 -0.742094 0.593982
v 0.430788 -0.775229 -0.902453
v 0.430788 0.775229 -0.902453
v 0.835141 0.742094 0.593982
v 0.352473 -0.670295 1.013630
v 0.563855 -1.116280 0.192271
v 0.800414 0.211656 0.956828
v 0.714948 0.966406 -0.394825
v -0.706065 0.576794 -0.877360
v -0.804338 -0.893383 -0.394825
v -0.047710 -0.826549 0.956828
v -0.346015 0.046356 1.216180
v -0.622687 -1.084560 0.192271
v -0.911712 -0.000000 -0.877360
v -0.622687 1.084560 0.192271
v -0.653937 0.507767 0.956828
v -0.955431 -0.806947 0.192271
v -0.124184 -0.609928 -1.101610
v 1.130870 0.118154 -0.555116
v 1.183690 -0.348307 0.280251
v 0.482043 -0.393787 -1.101610
v 0.744740 -0.953750 -0.369732
v 1.082470 0.183007 0.629088
v -0.002853 1.233870 0.280251
v -1.221670 0.327829 -0.031980
v -1.043050 -0.342466 0.629088
v 0.247051 0.296111 1.205100
v 0.297613 1.229380 -0.031980
v -0.994644 0.550916 -0.555116
v -0.162167 0.920051 -0.853339
v 0.510716 1.024190 0.539608
v -0.029792 -0.248965 1.240210
v -0.050287 -1.262520 0.067086
v -0.475340 -0.356478 -1.117120
v 0.776804 0.519007 -0.853339
v -0.142596 0.576794 -1.117120
v -0.541519 -0.872905 -0.738765
v 0.305069 -1.103060 0.539608
v 1.263350 0.020478 0.067086
v 0.375807 0.202609 -1.191090
v -0.971169 -0.394662 -0.708556
v -0.991791 0.657639 0.429931
v -1.215640 -0.254806 0.241385
v -0.624450 1.018600 -0.416522
v 0.863170 0.925101 0.010283
v 0.948697 -0.445983 -0.708556
v 0.356445 -1.140370 -0.416522
v -0.621095 -0.815118 0.742162
v -0.258895 0.661249 1.047240
v 0.865568 -0.385616 0.838493
v 0.623443 -0.000000 -0.740184
v -0.747826 0.610909 -0.064022
v -0.174015 -0.854675 0.419289
v 0.375271 -0.133797 0.881943
v 0.020636 0.771983 0.583240
v 0.868127 0.394421 0.165349
v -0.020636 -0.771983 -0.583240
v -0.868127 -0.394421 -0.165349
v -0.375271 0.133797 -0.881943
v 0.174015 0.854675 -0.419289
v -0.623443 0.000000 0.740184
v 0.747826 -0.610909 0.064022
vn 0.6442 -0.0000 -0.7648
vn -0.7727 0.6313 -0.0662
vn -0.1798 -0.8832 0.4333
vn -0.1798 -0.8831 0.4333
vn 0.3878 -0.1383 0.9113
vn 0.3878 -0.1382 0.9113
vn 0.0213 0.7977 0.6027
vn 0.8970 0.4076 0.1709
vn 0.8971 0.4076 0.1709
vn -0.0213 -0.7977 -0.6027
vn -0.8971 -0.4076 -0.1709
vn -0.8970 -0.4076 -0.1709
vn -0.3878 0.1383 -0.9113
vn 0.1798 0.8831 -0.4333
vn 0.1798 0.8832 -0.4333
vn -0.6442 -0.0000 0.7648
vn 0.7727 -0.6313 0.0662
vt 1.000000 0.505738
vt 0.620858 0.505738
vt 0.620858 0.986725
vt 0.620858 0.697663
vt 0.620858 0.313814
vt 0.620858 0.024752
vt 0.090433 0.313814
vt 0.257923 0.910146
vt 0.257923 0.612878
vt 0.090433 0.774244
vt 0.257923 0.208471
vt 0.855180 0.195198
vt 0.855180 0.816278
vt 0.257923 0.803005
vt 0.090433 0.237233
vt 0.418254 0.058581
vt 0.113104 0.590523
vt 0.652576 0.892860
vt 0.845165 0.736790
vt 0.652576 0.147868
vt 0.113104 0.174641
vt 0.009591 0.524307
vt 0.418254 0.071287
vt 0.845165 0.505738
vt 0.418254 0.940190
vt 0.113104 0.709139
vt 0.418254 0.182493
vt 0.934668 0.261414
vt 0.716551 0.553068
vt 0.383139 0.366214
vt 0.934668 0.347996
vt 0.642561 0.123687
vt 0.243911 0.579047
vt 0.383139 1.000000
vt 0.507757 0.637060
vt 0.243911 0.368554
vt 0.014013 0.624354
vt 0.507757 0.998201
vt 0.716551 0.726423
vt 0.835578 0.874291
vt 0.279625 0.916007
vt 0.000000 0.406008
vt 0.468218 0.000000
vt 0.940858 0.362941
vt 0.835578 0.713641
vt 0.940858 0.736790
vt 0.789849 0.156071
vt 0.279625 0.063876
vt 0.468218 0.513941
vt 0.970381 0.586899
vt 0.777792 0.347645
vt 0.323399 0.769174
vt 0.398651 0.403668
vt 0.661235 0.913767
vt 0.490889 0.876314
vt 0.777792 0.327087
vt 0.661235 0.048931
vt 0.198781 0.179220
vt 0.077018 0.770620
vt 0.160333 0.351269
vt 0.790416 0.505738
vt 0.520545 0.750455
vt 0.327646 0.163374
vt 0.142992 0.452142
vt 0.262210 0.814978
vt 0.428999 0.663735
vt 0.727776 0.196499
vt 0.560987 0.347742
vt 0.846994 0.559334
vt 0.662340 0.848103
vt 0.199571 0.505738
vt 0.469441 0.261021
s 0
usemtl Shape.002
f 61/61/1 1/1/1 4/4/1
f 61/61/1 4/4/1 12/12/1
f 61/61/1 12/12/1 13/13/1
f 61/61/1 13/13/1 5/5/1
f 61/61/1 5/5/1 1/1/1
f 62/62/2 2/2/2 8/8/2
f 62/62/2 8/8/2 19/19/2
f 62/62/2 19/19/2 9/9/2
f 62/62/2 9/9/2 3/3/2
f 62/62/2 3/3/2 2/2/2
f 63/63/3 6/6/3 15/15/3
f 63/63/4 15/15/4 27/27/4
f 63/63/4 27/27/4 16/16/4
f 63/63/3 16/16/3 7/7/3
f 63/63/3 7/7/3 6/6/3
f 64/64/5 10/10/5 21/21/5
f 64/64/5 21/21/5 33/33/5
f 64/64/6 33/33/6 22/22/6
f 64/64/5 22/22/5 11/11/5
f 64/64/5 11/11/5 10/10/5
f 65/65/7 14/14/7 25/25/7
f 65/65/7 25/25/7 37/37/7
f 65/65/7 37/37/7 38/38/7
f 65/65/7 38/38/7 26/26/7
f 65/65/7 26/26/7 14/14/7
f 66/66/8 17/17/8 29/29/8
f 66/66/9 29/29/9 41/41/9
f 66/66/9 41/41/9 30/30/9
f 66/66/9 30/30/9 18/18/9
f 66/66/9 18/18/9 17/17/9
f 67/67/10 20/20/10 31/31/10
f 67/67/10 31/31/10 43/43/10
f 67/67/10 43/43/10 44/44/10
f 67/67/10 44/44/10 32/32/10
f 67/67/10 32/32/10 20/20/10
f 68/68/11 23/23/11 35/35/11
f 68/68/11 35/35/11 47/47/11
f 68/68/11 47/47/11 36/36/11
f 68/68/12 36/36/12 24/24/12
f 68/68/11 24/24/11 23/23/11
f 69/69/13 28/28/13 39/39/13
f 69/69/13 39/39/13 50/50/13
f 69/69/13 50/50/13 51/51/13
f 69/69/13 51/51/13 40/40/13
f 69/69/13 40/40/13 28/28/13
f 70/70/14 34/34/14 45/45/14
f 70/70/14 45/45/14 54/54/14
f 70/70/15 54/54/15 55/55/15
f 70/70/14 55/55/14 46/46/14
f 70/70/14 46/46/14 34/34/14
f 71/71/16 42/42/16 52/52/16
f 71/71/16 52/52/16 58/58/16
f 71/71/16 58/58/16 59/59/16
f 71/71/16 59/59/16 53/53/16
f 71/71/16 53/53/16 42/42/16
f 72/72/17 48/48/17 56/56/17
f 72/72/17 56/56/17 60/60/17
f 72/72/17 60/60/17 57/57/17
f 72/72/17 57/57/17 49/49/17
f 72/72/17 49/49/17 48/48/17
o Shape_IndexedFaceSet.001
v -0.000000 -0.000000 -1.265300
v -1.225370 -0.000000 -0.315357
v -0.244474 1.200730 -0.315357
v 1.127820 0.479118 -0.315357
v 1.127820 -0.479118 -0.315357
v -0.244474 -1.200730 -0.315357
v -0.586498 -0.479118 1.013630
v -0.478498 1.009560 0.593982
v -1.084730 0.267462 0.593982
v 0.352473 0.670295 1.013630
v 0.835141 -0.742094 0.593982
v 0.430788 -0.775229 -0.902453
v 0.430788 0.775229 -0.902453
v 0.835141 0.742094 0.593982
v 0.352473 -0.670295 1.013630
v 0.563855 -1.116280 0.192271
v 0.800414 0.211656 0.956828
v 0.714948 0.966406 -0.394825
v -0.706065 0.576794 -0.877360
v -0.804338 -0.893383 -0.394825
v -0.047710 -0.826549 0.956828
v -0.346015 0.046356 1.216180
v -0.622687 -1.084560 0.192271
v -0.911712 -0.000000 -0.877360
v -0.622687 1.084560 0.192271
v -0.653937 0.507767 0.956828
v -0.955431 -0.806947 0.192271
v -0.124184 -0.609928 -1.101610
v 1.130870 0.118154 -0.555116
v 1.183690 -0.348307 0.280251
v 0.482043 -0.393787 -1.101610
v 0.744740 -0.953750 -0.369732
v 1.082470 0.183007 0.629088
v -0.002853 1.233870 0.280251
v -1.221670 0.327829 -0.031980
v -1.043050 -0.342466 0.629088
v 0.247051 0.296111 1.205100
v 0.297613 1.229380 -0.031980
v -0.994644 0.550916 -0.555116
v -0.162167 0.920051 -0.853339
v 0.510716 1.024190 0.539608
v -0.029792 -0.248965 1.240210
v -0.050287 -1.262520 0.067086
v -0.475340 -0.356478 -1.117120
v 0.776804 0.519007 -0.853339
v -0.142596 0.576794 -1.117120
v -0.541519 -0.872905 -0.738765
v 0.305069 -1.103060 0.539608
v 1.263350 0.020478 0.067086
v 0.375807 0.202609 -1.191090
v -0.971169 -0.394662 -0.708556
v -0.991791 0.657639 0.429931
v -1.215640 -0.254806 0.241385
v -0.624450 1.018600 -0.416522
v 0.863170 0.925101 0.010283
v 0.948697 -0.445983 -0.708556
v 0.356445 -1.140370 -0.416522
v -0.621095 -0.815118 0.742162
v -0.258895 0.661249 1.047240
v 0.865568 -0.385616 0.838493
v 0.623443 -0.000000 -0.740184
v -0.747826 0.610909 -0.064022
v -0.174015 -0.854675 0.419289
v 0.375271 -0.133797 0.881943
v 0.020636 0.771983 0.583240
v 0.868127 0.394421 0.165349
v -0.020636 -0.771983 -0.583240
v -0.868127 -0.394421 -0.165349
v -0.375271 0.133797 -0.881943
v 0.174015 0.854675 -0.419289
v -0.623443 0.000000 0.740184
v 0.747826 -0.610909 0.064022
vn -0.5479 0.4476 -0.7067
vn 0.3293 0.6262 -0.7067
vn 0.3293 -0.6262 -0.7067
vn -0.5479 -0.4476 -0.7067
vn -0.7665 -0.6262 0.1427
vn -0.8537 0.1977 0.4817
vn -0.3641 0.7971 0.4817
vn 0.4607 0.8760 0.1427
vn 0.8631 0.1518 0.4817
vn 0.8923 -0.3870 -0.2325
vn 0.8923 0.3870 -0.2325
vn 0.8631 -0.1518 0.4817
vn 0.4607 -0.8760 0.1427
vn 0.2899 -0.5158 0.8062
vn -0.0986 0.2766 0.9559
vn 0.3865 0.8154 0.4309
vn -0.1750 0.9515 -0.2528
vn -0.9673 -0.0183 -0.2528
vn -0.7219 -0.5414 0.4309
vn -0.2907 0.0415 0.9559
vn -0.0498 -0.6636 0.7464
vn 0.2398 -0.9699 -0.0433
vn -0.4114 -0.6932 -0.5918
vn -0.0187 -0.0000 -0.9998
vn -0.4114 0.6932 -0.5918
vn 0.2398 0.9699 -0.0433
vn 0.1989 0.2160 0.9559
vn -0.4685 -0.3614 0.8062
vn -0.1923 -0.9442 -0.2673
vn 0.5854 -0.5994 -0.5459
vn 0.9301 -0.2932 0.2214
vn 0.8874 0.0836 -0.4533
vn 0.1830 0.4284 -0.8848
vn -0.3833 -0.2648 -0.8848
vn -0.0400 -0.9966 0.0717
vn 0.6633 -0.5954 0.4533
vn 0.2735 0.5454 0.7923
vn -0.5854 0.5994 0.5459
vn -0.8165 -0.2648 0.5131
vn -0.9608 0.2766 -0.0209
vn -0.5288 0.3870 0.7554
vn -0.5036 0.8529 0.1378
vn -0.9707 0.0938 0.2214
vn -0.7732 -0.3228 -0.5459
vn 0.3148 0.1596 -0.9356
vn 0.5515 0.7688 -0.3239
vn 0.6205 0.1591 0.7679
vn 0.4114 -0.6932 0.5918
vn 0.6022 -0.7472 -0.2812
vn 0.3900 -0.2949 -0.8723
vn 0.9707 -0.0938 -0.2214
vn 0.6920 0.7216 0.0209
vn -0.5096 0.7971 -0.3239
vn -0.7104 0.0118 -0.7037
vn -0.4769 -0.8642 0.1603
vn -0.1830 -0.4284 0.8848
vn 0.6767 -0.2932 0.6754
vn 0.6739 0.5763 0.4623
vn 0.7219 0.5414 -0.4309
vn -0.1197 0.7391 -0.6628
vn -0.7921 0.4410 -0.4219
vn -0.2398 0.9699 0.0433
vn -0.1904 0.5341 0.8237
vn -0.4830 -0.6584 0.5773
vn -0.6491 -0.6985 -0.3014
vn -0.8631 0.1518 -0.4817
vn -0.1204 0.4403 -0.8898
vn 0.6222 0.3936 -0.6767
vn 0.0986 -0.2766 -0.9559
vn 0.2655 -0.9028 -0.3384
vn 0.7439 -0.3419 -0.5742
vn -0.0891 -0.4967 -0.8634
vn -0.4607 -0.8760 -0.1427
vn -0.9632 -0.2058 0.1728
vn -0.7824 0.5312 0.3251
vn -0.0075 0.9710 0.2389
vn 0.5479 0.4476 0.7067
vn 0.9980 0.0349 0.0523
vn 0.2240 -0.8727 0.4339
vn -0.0054 -0.2011 0.9796
vt 1.000000 0.505738
vt 0.620858 0.505738
vt 0.620858 0.986725
vt 0.620858 0.697663
vt 0.620858 0.313814
vt 0.620858 0.024752
vt 0.090433 0.313814
vt 0.257923 0.910146
vt 0.257923 0.612878
vt 0.090433 0.774244
vt 0.257923 0.208471
vt 0.855180 0.195198
vt 0.855180 0.816278
vt 0.257923 0.803005
vt 0.090433 0.237233
vt 0.418254 0.058581
vt 0.113104 0.590523
vt 0.652576 0.892860
vt 0.845165 0.736790
vt 0.652576 0.147868
vt 0.113104 0.174641
vt 0.009591 0.524307
vt 0.418254 0.071287
vt 0.845165 0.505738
vt 0.418254 0.940190
vt 0.113104 0.709139
vt 0.418254 0.182493
vt 0.934668 0.261414
vt 0.716551 0.553068
vt 0.383139 0.366214
vt 0.934668 0.347996
vt 0.642561 0.123687
vt 0.243911 0.579047
vt 0.383139 1.000000
vt 0.507757 0.637060
vt 0.243911 0.368554
vt 0.014013 0.624354
vt 0.507757 0.998201
vt 0.716551 0.726423
vt 0.835578 0.874291
vt 0.279625 0.916007
vt 0.000000 0.406008
vt 0.468218 0.000000
vt 0.940858 0.362941
vt 0.835578 0.713641
vt 0.940858 0.736790
vt 0.789849 0.156071
vt 0.279625 0.063876
vt 0.468218 0.513941
vt 0.970381 0.586899
vt 0.777792 0.347645
vt 0.323399 0.769174
vt 0.398651 0.403668
vt 0.661235 0.913767
vt 0.490889 0.876314
vt 0.777792 0.327087
vt 0.661235 0.048931
vt 0.198781 0.179220
vt 0.077018 0.770620
vt 0.160333 0.351269
s 0
usemtl Shape.003
f 73/73/18 74/74/18 75/75/18
f 73/73/19 75/75/19 76/76/19
f 73/73/20 77/77/20 78/78/20
f 73/73/21 78/78/21 74/74/21
f 74/74/22 78/78/22 79/79/22
f 74/74/23 79/79/23 80/80/23
f 75/75/24 81/81/24 82/82/24
f 75/75/25 82/82/25 76/76/25
f 76/76/26 82/82/26 83/83/26
f 76/76/27 83/83/27 84/84/27
f 77/77/28 85/85/28 86/86/28
f 77/77/29 86/86/29 87/87/29
f 77/77/30 87/87/30 78/78/30
f 79/79/31 88/88/31 89/89/31
f 79/79/32 89/89/32 80/80/32
f 80/80/33 89/89/33 90/90/33
f 80/80/34 90/90/34 91/91/34
f 81/81/35 91/91/35 92/92/35
f 81/81/36 92/92/36 93/93/36
f 81/81/37 93/93/37 82/82/37
f 83/83/38 94/94/38 95/95/38
f 83/83/39 95/95/39 84/84/39
f 84/84/40 95/95/40 96/96/40
f 84/84/41 96/96/41 85/85/41
f 85/85/42 96/96/42 97/97/42
f 85/85/43 97/97/43 86/86/43
f 86/86/44 98/98/44 87/87/44
f 87/87/45 98/98/45 99/99/45
f 88/88/46 99/99/46 100/100/46
f 88/88/47 100/100/47 101/101/47
f 88/88/48 101/101/48 89/89/48
f 90/90/49 102/102/49 103/103/49
f 90/90/50 103/103/50 91/91/50
f 91/91/51 103/103/51 92/92/51
f 92/92/52 104/104/52 93/93/52
f 93/93/53 104/104/53 105/105/53
f 94/94/54 105/105/54 106/106/54
f 94/94/55 106/106/55 107/107/55
f 94/94/56 107/107/56 95/95/56
f 96/96/57 108/108/57 97/97/57
f 97/97/58 108/108/58 109/109/58
f 98/98/59 110/110/59 111/111/59
f 98/98/60 111/111/60 99/99/60
f 99/99/61 111/111/61 100/100/61
f 100/100/62 112/112/62 101/101/62
f 101/101/63 112/112/63 113/113/63
f 102/102/64 113/113/64 114/114/64
f 102/102/65 114/114/65 115/115/65
f 102/102/66 115/115/66 103/103/66
f 104/104/67 116/116/67 117/117/67
f 104/104/68 117/117/68 105/105/68
f 105/105/69 117/117/69 106/106/69
f 106/106/70 118/118/70 107/107/70
f 107/107/71 118/118/71 119/119/71
f 108/108/72 119/119/72 120/120/72
f 108/108/73 120/120/73 109/109/73
f 109/109/74 120/120/74 121/121/74
f 109/109/75 121/121/75 110/110/75
f 110/110/76 121/121/76 122/122/76
f 110/110/77 122/122/77 111/111/77
f 112/112/78 123/123/78 124/124/78
f 112/112/79 124/124/79 113/113/79
f 113/113/80 124/124/80 114/114/80
f 114/114/81 125/125/81 115/115/81
f 115/115/82 125/125/82 116/116/82
f 116/116/83 125/125/83 126/126/83
f 116/116/84 126/126/84 117/117/84
f 118/118/85 127/127/85 128/128/85
f 118/118/86 128/128/86 119/119/86
f 119/119/87 128/128/87 120/120/87
f 121/121/88 129/129/88 122/122/88
f 122/122/89 129/129/89 123/123/89
f 123/123/90 129/129/90 130/130/90
f 123/123/91 130/130/91 124/124/91
f 125/125/92 131/131/92 126/126/92
f 126/126/93 131/131/93 127/127/93
f 127/127/94 131/131/94 132/132/94
f 127/127/95 132/132/95 128/128/95
f 129/129/96 132/132/96 130/130/96
f 130/130/97 132/132/97 131/131/97
