# Blender v3.0.1 OBJ File: ''
# www.blender.org
mtllib great_icosacronic_hexecontahedron.mtl
o Shape_IndexedFaceSet_Shape_IndexedFaceSet.013
v -0.440828 1.618030 -0.897591
v 0.229923 0.478430 -0.897591
v 1.538800 0.666667 -0.897591
v -0.440828 -0.917288 -0.897591
v -1.651060 0.666667 0.669025
v -0.850886 0.478430 -0.366781
v 1.345020 0.133831 0.120125
v -0.160193 -0.333333 -1.865810
v -0.735810 1.133830 0.120125
v 0.905163 -0.365488 -0.366781
v 1.552050 -0.872678 0.669025
v -1.378610 -0.333333 -1.267420
v -0.727202 0.133831 1.137840
v 0.544894 1.133830 -0.508858
v -0.419390 -0.872678 1.637250
v -0.843622 -0.365488 0.492088
v -0.146943 -1.872680 -0.299197
v 0.329499 -0.704314 -0.694840
v 0.080559 1.026660 0.164029
v -0.601021 1.284700 1.267420
v 1.378610 0.333333 1.267420
v 0.751310 0.704314 0.164029
v -0.755799 -0.182744 -0.694840
v -1.370420 -1.284700 -0.299197
v 0.241676 -0.887058 0.492088
v 0.601021 -1.284700 -1.267420
v 0.558821 -0.484203 1.137840
v -0.751310 -0.704314 -0.164029
v 1.370420 1.284700 0.299197
v -0.329499 0.704314 0.694840
v 0.160193 0.333333 1.865810
v -0.087823 -0.182744 -1.022900
v -0.558821 0.484203 -1.137840
v 1.651060 -0.666667 -0.669025
v -0.544894 -1.133830 0.508858
v 0.087823 0.182744 1.022900
v 0.727202 -0.133831 -1.137840
v 0.146943 1.872680 0.299197
v -1.552050 0.872678 -0.669025
v 0.755799 0.182744 0.694840
v -0.080559 -1.026660 -0.164029
v -1.538800 -0.666667 0.897591
v 0.735810 -1.133830 -0.120125
v -1.345020 -0.133831 -0.120125
v 0.419390 0.872678 -1.637250
v 0.843622 0.365488 -0.492088
v 0.850886 -0.478430 0.366781
v -0.905163 0.365488 0.366781
v -0.241676 0.887058 -0.492088
v 0.440828 -1.618030 0.897591
v -0.229923 -0.478430 0.897591
v 0.440828 0.917288 0.897591
v 0.221768 0.461461 -0.897591
v -0.845900 0.461461 -0.373235
v 0.243480 0.474240 -0.885218
v 0.218181 0.486398 -0.885218
v 0.888798 -0.372197 -0.373235
v -0.849382 0.474240 -0.348488
v -0.833916 0.486398 -0.368508
v -0.838725 -0.372197 0.475192
v 0.341846 -0.694124 -0.684931
v 0.095932 1.015810 0.163496
v 0.733229 0.709536 0.163496
v -0.755556 -0.166737 -0.684931
v 0.233378 -0.887425 0.475192
v 0.900783 -0.347259 -0.368508
v 0.900952 -0.366931 -0.348488
v -0.751017 -0.694124 -0.148201
v 0.070738 1.015810 0.175869
v -0.318868 0.709536 0.680205
v -0.080130 -0.166737 -1.016650
v -0.842311 -0.347259 0.487566
v -0.826571 -0.366931 0.499940
v 0.255091 -0.874646 0.487566
v 0.318698 -0.689864 -0.700226
v 0.318868 -0.709536 -0.680205
v 0.072785 1.020070 0.148201
v 0.103108 0.182149 1.011920
v 0.077809 0.194308 1.011920
v 0.751017 0.694124 0.148201
v 0.748969 0.689864 0.175869
v -0.753235 -0.194308 -0.680205
v -0.737768 -0.182149 -0.700226
v 0.229896 -0.874646 0.499940
v 0.753235 0.194308 0.680205
v -0.072785 -1.020070 -0.148201
v -0.748969 -0.689864 -0.175869
v -0.733229 -0.709536 -0.163496
v 0.737768 0.182149 0.700226
v -0.341846 0.694124 0.684931
v -0.318698 0.689864 0.700226
v -0.077809 -0.194308 -1.011920
v -0.103108 -0.182149 -1.011920
v 0.826571 0.366931 -0.499940
v 0.833916 -0.486398 0.368508
v -0.900952 0.366931 0.348488
v 0.080130 0.166737 1.016650
v -0.229896 0.874646 -0.499940
v 0.849382 -0.474240 0.348488
v -0.900783 0.347259 0.368508
v -0.070738 -1.015810 -0.175869
v 0.755556 0.166737 0.684931
v -0.095932 -1.015810 -0.163496
v -0.218181 -0.486398 0.885218
v -0.255091 0.874646 -0.487566
v -0.243480 -0.474240 0.885218
v 0.842311 0.347259 -0.487566
v 0.838725 0.372197 -0.475192
v 0.845900 -0.461461 0.373235
v -0.888798 0.372197 0.373235
v -0.233378 0.887425 -0.475192
v -0.221768 -0.461461 0.897591
vt 0.623209 0.740537
vt 0.255087 0.740537
vt 0.932009 0.740537
vt 0.627739 0.740537
vt 0.677998 0.740537
vt 0.623209 0.600020
vt 0.677998 0.320715
vt 0.627739 0.598290
vt 0.626621 0.737221
vt 0.535733 0.467809
vt 0.411001 1.000000
vt 0.629867 0.737221
vt 0.802729 0.467809
vt 0.400625 0.600020
vt 0.402416 0.598290
vt 0.266998 0.320715
vt 0.626621 0.593388
vt 0.411001 0.839643
vt 0.535733 0.195081
vt 0.629867 0.598753
vt 0.802729 0.636364
vt 0.400625 0.372658
vt 0.266998 0.061250
vt 0.402416 0.368130
vt 0.314671 0.683548
vt 0.000000 0.580179
vt 0.311950 0.686203
vt 0.771218 0.456186
vt 0.774115 0.456043
vt 0.843011 0.160357
vt 0.689444 0.456186
vt 0.588999 0.160357
vt 0.688050 0.456043
vt 0.455482 0.683548
vt 0.451208 0.686203
vt 0.156989 0.580179
vt 0.263060 0.372658
vt 0.263158 0.368130
vt 0.407283 0.598753
vt 0.156989 0.839643
vt 0.402030 0.593388
vt 0.370719 0.195081
vt 0.314671 0.539715
vt 0.311950 0.543957
vt 0.771218 0.452871
vt 0.843011 0.419821
vt 0.689444 0.317719
vt 0.688050 0.313797
vt 0.588999 0.000000
vt 0.455482 0.772442
vt 0.451208 0.774117
vt 0.407283 0.369342
vt 0.402030 0.366026
vt 0.266472 0.369342
vt 0.315808 0.687647
vt 0.629281 0.804919
vt 0.322002 0.679285
vt 0.310556 0.682281
vt 0.197271 0.363636
vt 0.772356 0.460285
vt 0.548633 0.228826
vt 0.548792 0.225883
vt 0.551880 0.228826
vt 0.685329 0.460285
vt 0.464268 0.804919
vt 1.000000 0.419821
vt 0.684192 0.452871
vt 0.448120 0.682281
vt 0.733002 0.679285
vt 0.451367 0.687647
vt 0.266472 0.366026
vt 0.551880 0.317719
vt 0.548792 0.313797
vt 0.227644 0.539715
vt 0.225885 0.543957
vt 0.315808 0.547129
vt 0.322002 0.259463
vt 0.310556 0.543814
vt 0.197271 0.532191
vt 0.548633 0.312353
vt 0.685329 0.316452
vt 0.464268 0.532191
vt 0.684192 0.312353
vt 0.448120 0.771174
vt 0.733002 0.938750
vt 0.451367 0.771174
vt 0.597969 0.633974
vt 0.597584 0.631870
vt 0.370133 0.401247
vt 0.372261 0.401710
vt 0.597969 0.406612
vt 0.597584 0.401710
vt 0.544518 0.227558
vt 0.733528 0.633974
vt 0.736842 0.631870
vt 0.373379 0.406612
vt 0.067991 0.259463
vt 0.592717 0.401247
vt 0.228782 0.547129
vt 0.544518 0.316452
vt 0.228782 0.543814
vt 0.370133 0.262779
vt 0.372261 0.259463
vt 0.733528 0.630658
vt 0.373379 0.262779
vt 0.592717 0.630658
vt 0.599375 0.627342
vt 0.744913 0.259463
vt 0.376791 0.399980
vt 0.599375 0.399980
vt 0.736940 0.627342
vt 0.376791 0.259463
vn -0.0000 -0.0000 -1.0000
vn -0.7914 -0.0000 -0.6113
vn 0.6820 0.4014 -0.6113
vn -0.1126 0.7833 -0.6113
vn -0.1127 0.7833 -0.6113
vn 0.4944 -0.6179 -0.6113
vn -0.9007 0.4014 0.1660
vn -0.4149 0.7833 -0.4629
vn -0.7860 -0.6179 0.0175
vn -0.7861 -0.6179 0.0175
vn 0.7549 -0.4646 -0.4629
vn 0.5726 0.8028 0.1660
vn 0.5724 0.8029 0.1661
vn 0.5725 0.8030 0.1658
vn 0.2691 0.9487 0.1660
vn -0.8344 0.2992 -0.4629
vn 0.0086 -0.9998 0.0175
vn 0.8709 0.1654 -0.4629
vn 0.8762 -0.4525 0.1660
vn -0.8278 -0.4646 0.3144
vn -0.2187 0.8028 0.5546
vn -0.2187 0.8030 0.5544
vn -0.2185 0.8029 0.5546
vn -0.0332 0.9487 0.3144
vn -0.0331 0.9487 0.3144
vn 0.1438 0.2992 -0.9433
vn -0.8987 0.1654 0.4062
vn -0.4043 -0.4525 0.7948
vn 0.6906 -0.5984 0.4062
vn 0.0278 -0.3308 -0.9433
vn 0.0332 -0.9487 -0.3144
vn 0.0331 -0.9487 -0.3144
vn -0.1545 0.9367 -0.3141
vn -0.1544 0.9366 -0.3144
vn -0.1542 0.9367 -0.3143
vn 0.5781 0.1850 0.7947
vn 0.5781 0.1848 0.7948
vn 0.5780 0.1849 0.7948
vn -0.2167 0.5668 0.7948
vn -0.2169 0.5668 0.7948
vn -0.2167 0.5670 0.7947
vn 0.8278 0.4646 -0.3144
vn 0.7635 0.3308 0.5547
vn 0.7635 0.3308 0.5546
vn -0.7615 -0.5668 -0.3144
vn -0.7615 -0.5668 -0.3145
vn -0.2757 -0.1849 -0.9433
vn -0.1008 -0.5984 0.7948
vn -0.1007 -0.5984 0.7948
vn 0.7615 0.5668 0.3144
vn 0.7615 0.5668 0.3145
vn 0.1544 -0.9366 0.3144
vn 0.1545 -0.9367 0.3141
vn 0.1542 -0.9367 0.3143
vn -0.7635 -0.3308 -0.5547
vn -0.7635 -0.3308 -0.5546
vn -0.2691 -0.9487 -0.1660
vn 0.2757 0.1849 0.9433
vn -0.7549 0.4646 0.4629
vn -0.0278 0.3308 0.9433
vn 0.2167 -0.5670 -0.7947
vn 0.2169 -0.5668 -0.7948
vn 0.2167 -0.5668 -0.7948
vn -0.5781 -0.1850 -0.7947
vn -0.5780 -0.1849 -0.7948
vn -0.5781 -0.1848 -0.7948
vn 0.4043 0.4525 -0.7948
vn 0.4149 -0.7833 0.4629
vn -0.8762 0.4525 -0.1660
vn -0.1438 -0.2992 0.9433
vn 0.1008 0.5984 -0.7948
vn 0.1007 0.5984 -0.7948
vn 0.9007 -0.4014 -0.1660
vn -0.8709 -0.1654 0.4629
vn 0.2187 -0.8028 -0.5546
vn 0.2185 -0.8029 -0.5546
vn 0.2187 -0.8030 -0.5544
vn 0.8344 -0.2992 0.4629
vn -0.5725 -0.8030 -0.1658
vn -0.5724 -0.8029 -0.1661
vn -0.5726 -0.8028 -0.1660
vn 0.1127 -0.7833 0.6113
vn 0.1126 -0.7833 0.6113
vn -0.6906 0.5984 -0.4062
vn -0.6820 -0.4014 0.6113
vn 0.8987 -0.1654 -0.4062
vn 0.7861 0.6179 -0.0175
vn 0.7860 0.6179 -0.0175
vn 0.7914 0.0000 0.6113
vn -0.4944 0.6179 0.6113
vn -0.0086 0.9998 -0.0175
vn 0.0000 -0.0000 1.0000
usemtl Shape.018
s off
f 53/1/1 4/2/1 1/3/1
f 53/1/1 1/3/1 2/4/1
f 53/1/1 2/4/1 3/5/1
f 53/1/1 3/5/1 4/2/1
f 54/6/2 4/2/2 5/7/2
f 54/6/2 5/7/2 6/8/2
f 54/6/2 6/8/2 1/3/2
f 54/6/2 1/3/2 4/2/2
f 55/9/3 1/3/3 7/10/3
f 55/9/3 7/10/3 8/11/3
f 55/9/3 8/11/3 2/4/3
f 55/9/3 2/4/3 1/3/3
f 56/12/4 2/4/4 8/11/4
f 56/12/5 8/11/5 9/13/5
f 56/12/5 9/13/5 3/5/5
f 56/12/5 3/5/5 2/4/5
f 57/14/6 3/5/6 10/15/6
f 57/14/6 10/15/6 11/16/6
f 57/14/6 11/16/6 4/2/6
f 57/14/6 4/2/6 3/5/6
f 58/17/7 1/3/7 6/8/7
f 58/17/7 6/8/7 12/18/7
f 58/17/7 12/18/7 13/19/7
f 58/17/7 13/19/7 1/3/7
f 59/20/8 6/8/8 5/7/8
f 59/20/8 5/7/8 14/21/8
f 59/20/8 14/21/8 12/18/8
f 59/20/8 12/18/8 6/8/8
f 60/22/9 5/7/9 4/2/9
f 60/22/9 4/2/9 15/23/9
f 60/22/10 15/23/10 16/24/10
f 60/22/9 16/24/9 5/7/9
f 61/25/11 8/11/11 7/10/11
f 61/25/11 7/10/11 17/26/11
f 61/25/11 17/26/11 18/27/11
f 61/25/11 18/27/11 8/11/11
f 62/28/12 7/10/12 1/3/12
f 62/28/13 1/3/13 19/29/13
f 62/28/14 19/29/14 20/30/14
f 62/28/12 20/30/12 7/10/12
f 63/31/15 3/5/15 9/13/15
f 63/31/15 9/13/15 21/32/15
f 63/31/15 21/32/15 22/33/15
f 63/31/15 22/33/15 3/5/15
f 64/34/16 9/13/16 8/11/16
f 64/34/16 8/11/16 23/35/16
f 64/34/16 23/35/16 24/36/16
f 64/34/16 24/36/16 9/13/16
f 65/37/17 4/2/17 11/16/17
f 65/37/17 11/16/17 25/38/17
f 65/37/17 25/38/17 15/23/17
f 65/37/17 15/23/17 4/2/17
f 66/39/18 11/16/18 10/15/18
f 66/39/18 10/15/18 26/40/18
f 66/39/18 26/40/18 14/21/18
f 66/39/18 14/21/18 11/16/18
f 67/41/19 10/15/19 3/5/19
f 67/41/19 3/5/19 27/42/19
f 67/41/19 27/42/19 26/40/19
f 67/41/19 26/40/19 10/15/19
f 68/43/20 12/18/20 28/44/20
f 68/43/20 28/44/20 17/26/20
f 68/43/20 17/26/20 13/19/20
f 68/43/20 13/19/20 12/18/20
f 69/45/21 13/19/21 29/46/21
f 69/45/22 29/46/22 19/29/22
f 69/45/23 19/29/23 1/3/23
f 69/45/21 1/3/21 13/19/21
f 70/47/24 5/7/24 30/48/24
f 70/47/25 30/48/25 31/49/25
f 70/47/24 31/49/24 14/21/24
f 70/47/24 14/21/24 5/7/24
f 71/50/26 14/21/26 26/40/26
f 71/50/26 26/40/26 32/51/26
f 71/50/26 32/51/26 12/18/26
f 71/50/26 12/18/26 14/21/26
f 72/52/27 15/23/27 9/13/27
f 72/52/27 9/13/27 24/36/27
f 72/52/27 24/36/27 16/24/27
f 72/52/27 16/24/27 15/23/27
f 73/53/28 16/24/28 24/36/28
f 73/53/28 24/36/28 27/42/28
f 73/53/28 27/42/28 5/7/28
f 73/53/28 5/7/28 16/24/28
f 74/54/29 7/10/29 15/23/29
f 74/54/29 15/23/29 25/38/29
f 74/54/29 25/38/29 17/26/29
f 74/54/29 17/26/29 7/10/29
f 75/55/30 17/26/30 33/56/30
f 75/55/30 33/56/30 34/57/30
f 75/55/30 34/57/30 18/27/30
f 75/55/30 18/27/30 17/26/30
f 76/58/31 18/27/31 34/57/31
f 76/58/31 34/57/31 35/59/31
f 76/58/31 35/59/31 8/11/31
f 76/58/32 8/11/32 18/27/32
f 77/60/33 19/29/33 29/46/33
f 77/60/34 29/46/34 33/56/34
f 77/60/34 33/56/34 20/30/34
f 77/60/35 20/30/35 19/29/35
f 78/61/36 20/30/36 36/62/36
f 78/61/37 36/62/37 15/23/37
f 78/61/38 15/23/38 7/10/38
f 78/61/38 7/10/38 20/30/38
f 79/63/39 9/13/39 15/23/39
f 79/63/40 15/23/40 36/62/40
f 79/63/41 36/62/41 21/32/41
f 79/63/39 21/32/39 9/13/39
f 80/64/42 21/32/42 37/65/42
f 80/64/42 37/65/42 38/66/42
f 80/64/42 38/66/42 22/33/42
f 80/64/42 22/33/42 21/32/42
f 81/67/43 22/33/43 38/66/43
f 81/67/44 38/66/44 27/42/44
f 81/67/44 27/42/44 3/5/44
f 81/67/44 3/5/44 22/33/44
f 82/68/45 8/11/45 35/59/45
f 82/68/45 35/59/45 39/69/45
f 82/68/46 39/69/46 23/35/46
f 82/68/45 23/35/45 8/11/45
f 83/70/47 23/35/47 39/69/47
f 83/70/47 39/69/47 37/65/47
f 83/70/47 37/65/47 24/36/47
f 83/70/47 24/36/47 23/35/47
f 84/71/48 11/16/48 13/19/48
f 84/71/48 13/19/48 17/26/48
f 84/71/49 17/26/49 25/38/49
f 84/71/48 25/38/48 11/16/48
f 85/72/50 14/21/50 31/49/50
f 85/72/50 31/49/50 40/73/50
f 85/72/51 40/73/51 11/16/51
f 85/72/50 11/16/50 14/21/50
f 86/74/52 27/42/52 24/36/52
f 86/74/53 24/36/53 41/75/53
f 86/74/54 41/75/54 26/40/54
f 86/74/52 26/40/52 27/42/52
f 87/76/55 17/26/55 28/44/55
f 87/76/56 28/44/56 42/77/56
f 87/76/56 42/77/56 33/56/56
f 87/76/56 33/56/56 17/26/56
f 88/78/57 28/44/57 12/18/57
f 88/78/57 12/18/57 43/79/57
f 88/78/57 43/79/57 42/77/57
f 88/78/57 42/77/57 28/44/57
f 89/80/58 29/46/58 13/19/58
f 89/80/58 13/19/58 11/16/58
f 89/80/58 11/16/58 40/73/58
f 89/80/58 40/73/58 29/46/58
f 90/81/59 31/49/59 30/48/59
f 90/81/59 30/48/59 38/66/59
f 90/81/59 38/66/59 44/82/59
f 90/81/59 44/82/59 31/49/59
f 91/83/60 30/48/60 5/7/60
f 91/83/60 5/7/60 27/42/60
f 91/83/60 27/42/60 38/66/60
f 91/83/60 38/66/60 30/48/60
f 92/84/61 12/18/61 32/51/61
f 92/84/62 32/51/62 45/85/62
f 92/84/63 45/85/63 43/79/63
f 92/84/63 43/79/63 12/18/63
f 93/86/64 32/51/64 26/40/64
f 93/86/65 26/40/65 44/82/65
f 93/86/65 44/82/65 45/85/65
f 93/86/66 45/85/66 32/51/66
f 94/87/67 34/57/67 33/56/67
f 94/87/67 33/56/67 29/46/67
f 94/87/67 29/46/67 46/88/67
f 94/87/67 46/88/67 34/57/67
f 95/89/68 35/59/68 34/57/68
f 95/89/68 34/57/68 47/90/68
f 95/89/68 47/90/68 21/32/68
f 95/89/68 21/32/68 35/59/68
f 96/91/69 20/30/69 33/56/69
f 96/91/69 33/56/69 42/77/69
f 96/91/69 42/77/69 48/92/69
f 96/91/69 48/92/69 20/30/69
f 97/93/70 36/62/70 20/30/70
f 97/93/70 20/30/70 35/59/70
f 97/93/70 35/59/70 21/32/70
f 97/93/70 21/32/70 36/62/70
f 98/94/71 38/66/71 37/65/71
f 98/94/71 37/65/71 39/69/71
f 98/94/71 39/69/71 49/95/71
f 98/94/72 49/95/72 38/66/72
f 99/96/73 37/65/73 21/32/73
f 99/96/73 21/32/73 47/90/73
f 99/96/73 47/90/73 50/97/73
f 99/96/73 50/97/73 37/65/73
f 100/98/74 39/69/74 35/59/74
f 100/98/74 35/59/74 20/30/74
f 100/98/74 20/30/74 48/92/74
f 100/98/74 48/92/74 39/69/74
f 101/99/75 24/36/75 37/65/75
f 101/99/75 37/65/75 50/97/75
f 101/99/76 50/97/76 41/75/76
f 101/99/77 41/75/77 24/36/77
f 102/100/78 40/73/78 31/49/78
f 102/100/78 31/49/78 43/79/78
f 102/100/78 43/79/78 29/46/78
f 102/100/78 29/46/78 40/73/78
f 103/101/79 26/40/79 41/75/79
f 103/101/80 41/75/80 50/97/80
f 103/101/81 50/97/81 44/82/81
f 103/101/81 44/82/81 26/40/81
f 104/102/82 43/79/82 31/49/82
f 104/102/83 31/49/83 51/103/83
f 104/102/82 51/103/82 42/77/82
f 104/102/82 42/77/82 43/79/82
f 105/104/84 38/66/84 49/95/84
f 105/104/84 49/95/84 45/85/84
f 105/104/84 45/85/84 44/82/84
f 105/104/84 44/82/84 38/66/84
f 106/105/85 44/82/85 50/97/85
f 106/105/85 50/97/85 51/103/85
f 106/105/85 51/103/85 31/49/85
f 106/105/85 31/49/85 44/82/85
f 107/106/86 45/85/86 46/88/86
f 107/106/86 46/88/86 29/46/86
f 107/106/86 29/46/86 43/79/86
f 107/106/86 43/79/86 45/85/86
f 108/107/87 46/88/87 45/85/87
f 108/107/88 45/85/88 52/108/88
f 108/107/88 52/108/88 34/57/88
f 108/107/88 34/57/88 46/88/88
f 109/109/89 34/57/89 52/108/89
f 109/109/89 52/108/89 50/97/89
f 109/109/89 50/97/89 47/90/89
f 109/109/89 47/90/89 34/57/89
f 110/110/90 42/77/90 52/108/90
f 110/110/90 52/108/90 39/69/90
f 110/110/90 39/69/90 48/92/90
f 110/110/90 48/92/90 42/77/90
f 111/111/91 39/69/91 52/108/91
f 111/111/91 52/108/91 45/85/91
f 111/111/91 45/85/91 49/95/91
f 111/111/91 49/95/91 39/69/91
f 112/112/92 42/77/92 51/103/92
f 112/112/92 51/103/92 50/97/92
f 112/112/92 50/97/92 52/108/92
f 112/112/92 52/108/92 42/77/92
o Shape_IndexedLineSet_Shape_IndexedLineSet.005
v -0.440828 1.618030 -0.897591
v 0.229923 0.478430 -0.897591
v -0.440828 1.618030 -0.897591
v -0.440828 -0.917288 -0.897591
v -0.440828 1.618030 -0.897591
v -0.850886 0.478430 -0.366781
v -0.440828 1.618030 -0.897591
v 1.345020 0.133831 0.120125
v -0.440828 1.618030 -0.897591
v -0.727202 0.133831 1.137840
v -0.440828 1.618030 -0.897591
v 0.080559 1.026660 0.164029
v 0.229923 0.478430 -0.897591
v 1.538800 0.666667 -0.897591
v 0.229923 0.478430 -0.897591
v -0.160193 -0.333333 -1.865810
v 1.538800 0.666667 -0.897591
v -0.440828 -0.917288 -0.897591
v 1.538800 0.666667 -0.897591
v -0.735810 1.133830 0.120125
v 1.538800 0.666667 -0.897591
v 0.905163 -0.365488 -0.366781
v 1.538800 0.666667 -0.897591
v 0.751310 0.704314 0.164029
v 1.538800 0.666667 -0.897591
v 0.558821 -0.484203 1.137840
v -0.440828 -0.917288 -0.897591
v -1.651060 0.666667 0.669025
v -0.440828 -0.917288 -0.897591
v 1.552050 -0.872678 0.669025
v -0.440828 -0.917288 -0.897591
v -0.419390 -0.872678 1.637250
v -1.651060 0.666667 0.669025
v -0.850886 0.478430 -0.366781
v -1.651060 0.666667 0.669025
v 0.544894 1.133830 -0.508858
v -1.651060 0.666667 0.669025
v -0.843622 -0.365488 0.492088
v -1.651060 0.666667 0.669025
v 0.558821 -0.484203 1.137840
v -1.651060 0.666667 0.669025
v -0.329499 0.704314 0.694840
v -0.850886 0.478430 -0.366781
v -1.378610 -0.333333 -1.267420
v 1.345020 0.133831 0.120125
v -0.160193 -0.333333 -1.865810
v 1.345020 0.133831 0.120125
v -0.419390 -0.872678 1.637250
v 1.345020 0.133831 0.120125
v -0.146943 -1.872680 -0.299197
v 1.345020 0.133831 0.120125
v -0.601021 1.284700 1.267420
v -0.160193 -0.333333 -1.865810
v -0.735810 1.133830 0.120125
v -0.160193 -0.333333 -1.865810
v 0.329499 -0.704314 -0.694840
v -0.160193 -0.333333 -1.865810
v -0.755799 -0.182744 -0.694840
v -0.160193 -0.333333 -1.865810
v -0.544894 -1.133830 0.508858
v -0.735810 1.133830 0.120125
v -0.419390 -0.872678 1.637250
v -0.735810 1.133830 0.120125
v 1.378610 0.333333 1.267420
v -0.735810 1.133830 0.120125
v -1.370420 -1.284700 -0.299197
v 0.905163 -0.365488 -0.366781
v 1.552050 -0.872678 0.669025
v 0.905163 -0.365488 -0.366781
v 0.601021 -1.284700 -1.267420
v 1.552050 -0.872678 0.669025
v -0.727202 0.133831 1.137840
v 1.552050 -0.872678 0.669025
v 0.544894 1.133830 -0.508858
v 1.552050 -0.872678 0.669025
v 0.241676 -0.887058 0.492088
v 1.552050 -0.872678 0.669025
v 0.755799 0.182744 0.694840
v -1.378610 -0.333333 -1.267420
v -0.727202 0.133831 1.137840
v -1.378610 -0.333333 -1.267420
v 0.544894 1.133830 -0.508858
v -1.378610 -0.333333 -1.267420
v -0.751310 -0.704314 -0.164029
v -1.378610 -0.333333 -1.267420
v -0.087823 -0.182744 -1.022900
v -1.378610 -0.333333 -1.267420
v 0.735810 -1.133830 -0.120125
v -0.727202 0.133831 1.137840
v -0.146943 -1.872680 -0.299197
v -0.727202 0.133831 1.137840
v 1.370420 1.284700 0.299197
v 0.544894 1.133830 -0.508858
v 0.601021 -1.284700 -1.267420
v 0.544894 1.133830 -0.508858
v 0.160193 0.333333 1.865810
v -0.419390 -0.872678 1.637250
v -0.843622 -0.365488 0.492088
v -0.419390 -0.872678 1.637250
v 0.241676 -0.887058 0.492088
v -0.419390 -0.872678 1.637250
v 0.087823 0.182744 1.022900
v -0.843622 -0.365488 0.492088
v -1.370420 -1.284700 -0.299197
v -0.146943 -1.872680 -0.299197
v 0.329499 -0.704314 -0.694840
v -0.146943 -1.872680 -0.299197
v 0.241676 -0.887058 0.492088
v -0.146943 -1.872680 -0.299197
v -0.751310 -0.704314 -0.164029
v -0.146943 -1.872680 -0.299197
v -0.558821 0.484203 -1.137840
v 0.329499 -0.704314 -0.694840
v 1.651060 -0.666667 -0.669025
v 0.080559 1.026660 0.164029
v -0.601021 1.284700 1.267420
v 0.080559 1.026660 0.164029
v 1.370420 1.284700 0.299197
v -0.601021 1.284700 1.267420
v -0.558821 0.484203 -1.137840
v -0.601021 1.284700 1.267420
v -0.544894 -1.133830 0.508858
v -0.601021 1.284700 1.267420
v 0.087823 0.182744 1.022900
v -0.601021 1.284700 1.267420
v -0.905163 0.365488 0.366781
v 1.378610 0.333333 1.267420
v 0.751310 0.704314 0.164029
v 1.378610 0.333333 1.267420
v -0.544894 -1.133830 0.508858
v 1.378610 0.333333 1.267420
v 0.087823 0.182744 1.022900
v 1.378610 0.333333 1.267420
v 0.727202 -0.133831 -1.137840
v 1.378610 0.333333 1.267420
v 0.850886 -0.478430 0.366781
v 0.751310 0.704314 0.164029
v 0.146943 1.872680 0.299197
v -0.755799 -0.182744 -0.694840
v -1.370420 -1.284700 -0.299197
v -0.755799 -0.182744 -0.694840
v -1.552050 0.872678 -0.669025
v -1.370420 -1.284700 -0.299197
v 0.558821 -0.484203 1.137840
v -1.370420 -1.284700 -0.299197
v 0.727202 -0.133831 -1.137840
v -1.370420 -1.284700 -0.299197
v -0.080559 -1.026660 -0.164029
v 0.601021 -1.284700 -1.267420
v 0.558821 -0.484203 1.137840
v 0.601021 -1.284700 -1.267420
v -0.087823 -0.182744 -1.022900
v 0.601021 -1.284700 -1.267420
v -0.080559 -1.026660 -0.164029
v 0.601021 -1.284700 -1.267420
v -1.345020 -0.133831 -0.120125
v 0.558821 -0.484203 1.137840
v 0.146943 1.872680 0.299197
v -0.751310 -0.704314 -0.164029
v -1.538800 -0.666667 0.897591
v 1.370420 1.284700 0.299197
v -0.558821 0.484203 -1.137840
v 1.370420 1.284700 0.299197
v 0.755799 0.182744 0.694840
v 1.370420 1.284700 0.299197
v 0.735810 -1.133830 -0.120125
v 1.370420 1.284700 0.299197
v 0.843622 0.365488 -0.492088
v -0.329499 0.704314 0.694840
v 0.160193 0.333333 1.865810
v -0.329499 0.704314 0.694840
v 0.146943 1.872680 0.299197
v 0.160193 0.333333 1.865810
v 0.755799 0.182744 0.694840
v 0.160193 0.333333 1.865810
v 0.735810 -1.133830 -0.120125
v 0.160193 0.333333 1.865810
v -1.345020 -0.133831 -0.120125
v 0.160193 0.333333 1.865810
v -0.229923 -0.478430 0.897591
v -0.087823 -0.182744 -1.022900
v 0.419390 0.872678 -1.637250
v -0.558821 0.484203 -1.137840
v 1.651060 -0.666667 -0.669025
v -0.558821 0.484203 -1.137840
v -1.538800 -0.666667 0.897591
v 1.651060 -0.666667 -0.669025
v -0.544894 -1.133830 0.508858
v 1.651060 -0.666667 -0.669025
v 0.843622 0.365488 -0.492088
v 1.651060 -0.666667 -0.669025
v 0.850886 -0.478430 0.366781
v 1.651060 -0.666667 -0.669025
v 0.440828 0.917288 0.897591
v -0.544894 -1.133830 0.508858
v -1.552050 0.872678 -0.669025
v 0.727202 -0.133831 -1.137840
v 0.146943 1.872680 0.299197
v 0.727202 -0.133831 -1.137840
v -1.552050 0.872678 -0.669025
v 0.727202 -0.133831 -1.137840
v 0.440828 -1.618030 0.897591
v 0.146943 1.872680 0.299197
v -1.345020 -0.133831 -0.120125
v 0.146943 1.872680 0.299197
v -0.241676 0.887058 -0.492088
v -1.552050 0.872678 -0.669025
v -0.905163 0.365488 0.366781
v -1.552050 0.872678 -0.669025
v -0.241676 0.887058 -0.492088
v -1.552050 0.872678 -0.669025
v 0.440828 0.917288 0.897591
v -0.080559 -1.026660 -0.164029
v 0.440828 -1.618030 0.897591
v -1.538800 -0.666667 0.897591
v 0.735810 -1.133830 -0.120125
v -1.538800 -0.666667 0.897591
v -0.905163 0.365488 0.366781
v -1.538800 -0.666667 0.897591
v -0.229923 -0.478430 0.897591
v -1.538800 -0.666667 0.897591
v 0.440828 0.917288 0.897591
v 0.735810 -1.133830 -0.120125
v 0.419390 0.872678 -1.637250
v -1.345020 -0.133831 -0.120125
v 0.419390 0.872678 -1.637250
v -1.345020 -0.133831 -0.120125
v 0.440828 -1.618030 0.897591
v 0.419390 0.872678 -1.637250
v 0.843622 0.365488 -0.492088
v 0.419390 0.872678 -1.637250
v -0.241676 0.887058 -0.492088
v 0.419390 0.872678 -1.637250
v 0.440828 0.917288 0.897591
v 0.850886 -0.478430 0.366781
v 0.440828 -1.618030 0.897591
v 0.440828 -1.618030 0.897591
v -0.229923 -0.478430 0.897591
v 0.440828 -1.618030 0.897591
v 0.440828 0.917288 0.897591
l 113 114
l 115 116
l 117 118
l 119 120
l 121 122
l 123 124
l 125 126
l 127 128
l 129 130
l 131 132
l 133 134
l 135 136
l 137 138
l 139 140
l 141 142
l 143 144
l 145 146
l 147 148
l 149 150
l 151 152
l 153 154
l 155 156
l 157 158
l 159 160
l 161 162
l 163 164
l 165 166
l 167 168
l 169 170
l 171 172
l 173 174
l 175 176
l 177 178
l 179 180
l 181 182
l 183 184
l 185 186
l 187 188
l 189 190
l 191 192
l 193 194
l 195 196
l 197 198
l 199 200
l 201 202
l 203 204
l 205 206
l 207 208
l 209 210
l 211 212
l 213 214
l 215 216
l 217 218
l 219 220
l 221 222
l 223 224
l 225 226
l 227 228
l 229 230
l 231 232
l 233 234
l 235 236
l 237 238
l 239 240
l 241 242
l 243 244
l 245 246
l 247 248
l 249 250
l 251 252
l 253 254
l 255 256
l 257 258
l 259 260
l 261 262
l 263 264
l 265 266
l 267 268
l 269 270
l 271 272
l 273 274
l 275 276
l 277 278
l 279 280
l 281 282
l 283 284
l 285 286
l 287 288
l 289 290
l 291 292
l 293 294
l 295 296
l 297 298
l 299 300
l 301 302
l 303 304
l 305 306
l 307 308
l 309 310
l 311 312
l 313 314
l 315 316
l 317 318
l 319 320
l 321 322
l 323 324
l 325 326
l 327 328
l 329 330
l 331 332
l 333 334
l 335 336
l 337 338
l 339 340
l 341 342
l 343 344
l 345 346
l 347 348
l 349 350
l 351 352
