# Blender v3.0.1 OBJ File: ''
# www.blender.org
mtllib great_pentagonal_hexecontahedron.mtl
o Shape_IndexedLineSet_Shape_IndexedLineSet.001
v -0.612684 0.500510 -0.790328
v 0.368211 0.700224 -0.790328
v -0.612684 0.500510 -0.790328
v -0.612684 -0.500510 -0.790328
v -0.612684 0.500510 -0.790328
v -0.798488 0.652295 -0.068359
v 0.368211 0.700224 -0.790328
v 0.665678 -0.000000 -0.790328
v 0.368211 0.700224 -0.790328
v 0.515134 0.979628 0.159614
v 0.665678 -0.000000 -0.790328
v 0.368211 -0.700224 -0.790328
v 0.665678 -0.000000 -0.790328
v 0.997802 -0.432762 -0.260034
v 0.665678 -0.000000 -0.790328
v 0.997802 0.432762 -0.260034
v 0.665678 -0.000000 -0.790328
v -0.020898 -0.000000 -1.118070
v 0.368211 -0.700224 -0.790328
v -0.612684 -0.500510 -0.790328
v 0.368211 -0.700224 -0.790328
v 0.515134 -0.979628 0.159614
v -0.612684 -0.500510 -0.790328
v -0.857158 -0.700224 0.159614
v -0.857158 -0.700224 0.159614
v -0.954708 0.221106 0.538660
v -0.857158 -0.700224 0.159614
v -0.185804 -0.912575 0.447694
v -0.954708 0.221106 0.538660
v -0.798488 0.652295 -0.068359
v -0.954708 0.221106 0.538660
v -0.110288 0.309332 1.068950
v -0.798488 0.652295 -0.068359
v -0.407135 0.891402 0.538660
v -0.798488 0.652295 -0.068359
v -0.195753 1.064080 -0.282700
v -0.798488 0.652295 -0.068359
v -1.081750 -0.020478 -0.282700
v -0.407135 0.891402 0.538660
v 0.515134 0.979628 0.159614
v -0.407135 0.891402 0.538660
v -0.325117 0.046356 1.068950
v 0.515134 0.979628 0.159614
v 0.965158 0.169785 0.538660
v 0.965158 0.169785 0.538660
v 0.997802 -0.432762 -0.260034
v 0.965158 0.169785 0.538660
v 0.400694 -0.142861 0.941690
v 0.997802 -0.432762 -0.260034
v 0.268127 -1.084560 -0.048436
v 0.997802 0.432762 -0.260034
v 0.965158 -0.169785 0.538660
v 0.997802 0.432762 -0.260034
v 0.268127 1.084560 -0.048436
v 0.965158 -0.169785 0.538660
v 0.515134 -0.979628 0.159614
v 0.965158 -0.169785 0.538660
v 0.222456 0.241584 1.068950
v 0.515134 -0.979628 0.159614
v -0.185804 -0.912575 0.447694
v -0.185804 -0.912575 0.447694
v 0.324204 -0.576794 0.901505
v -0.185804 -0.912575 0.447694
v -0.523920 -0.404113 0.901505
v -0.185804 -0.912575 0.447694
v -0.214987 -1.055910 -0.298901
v 0.324204 -0.576794 0.901505
v -0.110288 0.309332 1.068950
v 0.324204 -0.576794 0.901505
v 1.040070 -0.327829 0.247594
v -0.110288 0.309332 1.068950
v 0.432203 0.911880 0.481857
v 0.432203 0.911880 0.481857
v -0.195753 1.064080 -0.282700
v 0.432203 0.911880 0.481857
v 0.926939 0.421141 0.176551
v -0.195753 1.064080 -0.282700
v 0.204636 0.479118 -0.989485
v -1.081750 -0.020478 -0.282700
v -0.807318 -0.605443 0.481857
v -1.081750 -0.020478 -0.282700
v -0.428658 -0.296111 -0.989485
v -0.807318 -0.605443 0.481857
v -0.325117 0.046356 1.068950
v -0.807318 -0.605443 0.481857
v -0.044730 -1.114490 0.080146
v -0.325117 0.046356 1.068950
v 0.400694 -0.142861 0.941690
v 0.400694 -0.142861 0.941690
v -0.055673 -0.742094 0.834690
v 0.400694 -0.142861 0.941690
v 0.741760 -0.665811 0.506950
v 0.400694 -0.142861 0.941690
v 0.305791 0.609928 0.885996
v -0.055673 -0.742094 0.834690
v 0.268127 -1.084560 -0.048436
v -0.055673 -0.742094 0.834690
v -0.913029 -0.296111 0.573766
v 0.268127 -1.084560 -0.048436
v -0.460026 -0.775229 -0.661746
v -0.460026 -0.775229 -0.661746
v -0.020898 -0.000000 -1.118070
v -0.460026 -0.775229 -0.661746
v -0.926939 -0.421141 -0.176551
v -0.020898 -0.000000 -1.118070
v -0.460026 0.775229 -0.661746
v -0.460026 0.775229 -0.661746
v 0.268127 1.084560 -0.048436
v -0.460026 0.775229 -0.661746
v -1.074370 0.309332 -0.023343
v 0.268127 1.084560 -0.048436
v 0.022034 0.824282 0.622752
v 0.022034 0.824282 0.622752
v 0.222456 0.241584 1.068950
v 0.022034 0.824282 0.622752
v -0.591359 0.432762 0.844702
v 0.022034 0.824282 0.622752
v -0.563133 0.953750 0.154118
v 0.022034 0.824282 0.622752
v 0.753648 0.644418 0.516963
v 0.222456 0.241584 1.068950
v -0.523920 -0.404113 0.901505
v -0.523920 -0.404113 0.901505
v -1.085450 0.104933 0.247594
v -0.214987 -1.055910 -0.298901
v 0.654659 -0.670295 -0.610439
v -0.214987 -1.055910 -0.298901
v -0.864627 -0.360963 -0.610439
v 0.654659 -0.670295 -0.610439
v 1.040070 -0.327829 0.247594
v 0.654659 -0.670295 -0.610439
v 0.352026 0.178522 -1.046290
v 1.040070 -0.327829 0.247594
v 0.926939 0.421141 0.176551
v 0.926939 0.421141 0.176551
v 0.992355 0.093501 -0.506950
v 0.926939 0.421141 0.176551
v 0.616676 0.859684 -0.362168
v 0.926939 0.421141 0.176551
v 0.693872 0.177957 0.858710
v 0.992355 0.093501 -0.506950
v 0.204636 0.479118 -0.989485
v 0.992355 0.093501 -0.506950
v 0.673377 -0.835596 -0.314409
v 0.204636 0.479118 -0.989485
v -0.428658 -0.296111 -0.989485
v -0.428658 -0.296111 -0.989485
v -0.022034 -0.824282 -0.622752
v -0.022034 -0.824282 -0.622752
v -0.044730 -1.114490 0.080146
v -0.022034 -0.824282 -0.622752
v 0.673377 -0.835596 -0.314409
v -0.022034 -0.824282 -0.622752
v 0.436096 -0.329810 -0.975477
v -0.022034 -0.824282 -0.622752
v -0.725825 -0.781069 -0.337074
v -0.044730 -1.114490 0.080146
v 0.741760 -0.665811 0.506950
v 0.741760 -0.665811 0.506950
v 1.085450 -0.104933 -0.247594
v 0.305791 0.609928 0.885996
v -0.654659 0.670295 0.610439
v 0.305791 0.609928 0.885996
v 0.773823 0.806947 0.023343
v -0.654659 0.670295 0.610439
v -0.913029 -0.296111 0.573766
v -0.654659 0.670295 0.610439
v -0.569867 0.891402 -0.362168
v -0.913029 -0.296111 0.573766
v -0.926939 -0.421141 -0.176551
v -0.926939 -0.421141 -0.176551
v -1.074370 0.309332 -0.023343
v -0.926939 -0.421141 -0.176551
v -0.794402 0.013221 -0.786931
v -0.926939 -0.421141 -0.176551
v -0.533341 -0.966406 0.179211
v -1.074370 0.309332 -0.023343
v -0.591359 0.432762 0.844702
v -0.591359 0.432762 0.844702
v -0.204636 -0.479118 0.989485
v -0.563133 0.953750 0.154118
v -1.085450 0.104933 0.247594
v -0.563133 0.953750 0.154118
v -0.133898 0.826549 -0.741214
v -1.085450 0.104933 0.247594
v -0.864627 -0.360963 -0.610439
v -0.864627 -0.360963 -0.610439
v -0.400694 0.142861 -0.941690
v -0.400694 0.142861 -0.941690
v 0.352026 0.178522 -1.046290
v -0.400694 0.142861 -0.941690
v -0.133898 0.826549 -0.741214
v -0.400694 0.142861 -0.941690
v -0.885831 0.493129 -0.471844
v -0.400694 0.142861 -0.941690
v -0.099589 -0.555402 -0.965464
v 0.352026 0.178522 -1.046290
v 0.616676 0.859684 -0.362168
v 0.616676 0.859684 -0.362168
v -0.268127 1.084560 0.048436
v 0.693872 0.177957 0.858710
v 0.460026 -0.775229 0.661746
v 0.693872 0.177957 0.858710
v -0.212948 0.597272 0.921102
v 0.460026 -0.775229 0.661746
v 0.673377 -0.835596 -0.314409
v 0.460026 -0.775229 0.661746
v -0.540104 -0.736254 0.645545
v 0.436096 -0.329810 -0.975477
v 1.085450 -0.104933 -0.247594
v 0.436096 -0.329810 -0.975477
v -0.134633 0.492339 -0.994981
v 1.085450 -0.104933 -0.247594
v 0.773823 0.806947 0.023343
v 0.773823 0.806947 0.023343
v 0.185804 0.912575 -0.447694
v 0.185804 0.912575 -0.447694
v -0.569867 0.891402 -0.362168
v 0.185804 0.912575 -0.447694
v -0.134633 0.492339 -0.994981
v 0.185804 0.912575 -0.447694
v 0.695813 0.440143 -0.756722
v 0.185804 0.912575 -0.447694
v -0.008410 1.085840 0.267191
v -0.569867 0.891402 -0.362168
v -0.794402 0.013221 -0.786931
v -0.794402 0.013221 -0.786931
v 0.110288 -0.309332 -1.068950
v -0.533341 -0.966406 0.179211
v -0.204636 -0.479118 0.989485
v -0.533341 -0.966406 0.179211
v 0.296891 -1.009560 -0.378368
v -0.204636 -0.479118 0.989485
v 0.756755 -0.327829 0.755222
v 0.756755 -0.327829 0.755222
v 0.753648 0.644418 0.516963
v 0.756755 -0.327829 0.755222
v 0.798488 -0.652295 0.068359
v 0.753648 0.644418 0.516963
v 0.807318 0.605443 -0.481857
v 0.807318 0.605443 -0.481857
v -0.133898 0.826549 -0.741214
v 0.807318 0.605443 -0.481857
v 0.831841 -0.382356 -0.642148
v -0.885831 0.493129 -0.471844
v -0.268127 1.084560 0.048436
v -0.885831 0.493129 -0.471844
v -1.077130 -0.230153 0.193219
v -0.268127 1.084560 0.048436
v -0.212948 0.597272 0.921102
v -0.212948 0.597272 0.921102
v -0.665678 0.000000 0.790328
v -0.665678 0.000000 0.790328
v -0.540104 -0.736254 0.645545
v -0.665678 0.000000 0.790328
v -1.077130 -0.230153 0.193219
v -0.665678 0.000000 0.790328
v -0.874935 0.594011 0.363523
v -0.665678 0.000000 0.790328
v -0.006011 -0.224877 1.095400
v -0.540104 -0.736254 0.645545
v -0.725825 -0.781069 -0.337074
v -0.725825 -0.781069 -0.337074
v -0.965158 0.169785 -0.538660
v -0.965158 0.169785 -0.538660
v -0.134633 0.492339 -0.994981
v -0.965158 0.169785 -0.538660
v -0.874935 0.594011 0.363523
v 0.695813 0.440143 -0.756722
v 0.110288 -0.309332 -1.068950
v 0.695813 0.440143 -0.756722
v 1.116050 0.038975 0.058449
v 0.110288 -0.309332 -1.068950
v 0.296891 -1.009560 -0.378368
v 0.296891 -1.009560 -0.378368
v 0.798488 -0.652295 0.068359
v 0.798488 -0.652295 0.068359
v 0.831841 -0.382356 -0.642148
v 0.798488 -0.652295 0.068359
v 1.116050 0.038975 0.058449
v 0.798488 -0.652295 0.068359
v 0.250485 -0.975857 0.485254
v 0.831841 -0.382356 -0.642148
v -0.099589 -0.555402 -0.965464
v -0.099589 -0.555402 -0.965464
v -0.515134 -0.979628 -0.159614
v -0.515134 -0.979628 -0.159614
v -1.077130 -0.230153 0.193219
v -0.515134 -0.979628 -0.159614
v 0.250485 -0.975857 0.485254
v -0.874935 0.594011 0.363523
v -0.008410 1.085840 0.267191
v -0.008410 1.085840 0.267191
v 0.612684 0.500510 0.790328
v 0.612684 0.500510 0.790328
v 1.116050 0.038975 0.058449
v 0.612684 0.500510 0.790328
v -0.006011 -0.224877 1.095400
v 0.250485 -0.975857 0.485254
v -0.006011 -0.224877 1.095400
l 1 2
l 3 4
l 5 6
l 7 8
l 9 10
l 11 12
l 13 14
l 15 16
l 17 18
l 19 20
l 21 22
l 23 24
l 25 26
l 27 28
l 29 30
l 31 32
l 33 34
l 35 36
l 37 38
l 39 40
l 41 42
l 43 44
l 45 46
l 47 48
l 49 50
l 51 52
l 53 54
l 55 56
l 57 58
l 59 60
l 61 62
l 63 64
l 65 66
l 67 68
l 69 70
l 71 72
l 73 74
l 75 76
l 77 78
l 79 80
l 81 82
l 83 84
l 85 86
l 87 88
l 89 90
l 91 92
l 93 94
l 95 96
l 97 98
l 99 100
l 101 102
l 103 104
l 105 106
l 107 108
l 109 110
l 111 112
l 113 114
l 115 116
l 117 118
l 119 120
l 121 122
l 123 124
l 125 126
l 127 128
l 129 130
l 131 132
l 133 134
l 135 136
l 137 138
l 139 140
l 141 142
l 143 144
l 145 146
l 147 148
l 149 150
l 151 152
l 153 154
l 155 156
l 157 158
l 159 160
l 161 162
l 163 164
l 165 166
l 167 168
l 169 170
l 171 172
l 173 174
l 175 176
l 177 178
l 179 180
l 181 182
l 183 184
l 185 186
l 187 188
l 189 190
l 191 192
l 193 194
l 195 196
l 197 198
l 199 200
l 201 202
l 203 204
l 205 206
l 207 208
l 209 210
l 211 212
l 213 214
l 215 216
l 217 218
l 219 220
l 221 222
l 223 224
l 225 226
l 227 228
l 229 230
l 231 232
l 233 234
l 235 236
l 237 238
l 239 240
l 241 242
l 243 244
l 245 246
l 247 248
l 249 250
l 251 252
l 253 254
l 255 256
l 257 258
l 259 260
l 261 262
l 263 264
l 265 266
l 267 268
l 269 270
l 271 272
l 273 274
l 275 276
l 277 278
l 279 280
l 281 282
l 283 284
l 285 286
l 287 288
l 289 290
l 291 292
l 293 294
l 295 296
l 297 298
l 299 300
o untitled-Shape_IndexedFaceSet
v 0.368211 -0.700224 -0.790328
v -0.612684 -0.500510 -0.790328
v -0.612684 0.500510 -0.790328
v 0.368211 0.700224 -0.790328
v 0.665678 -0.000000 -0.790328
v -0.798488 0.652295 -0.068359
v -0.857158 -0.700224 0.159614
v -0.954708 0.221106 0.538660
v 0.515134 0.979628 0.159614
v -0.407135 0.891402 0.538660
v 0.997802 -0.432762 -0.260034
v 0.965158 0.169785 0.538660
v 0.515134 -0.979628 0.159614
v 0.997802 0.432762 -0.260034
v 0.965158 -0.169785 0.538660
v -0.185804 -0.912575 0.447694
v -0.110288 0.309332 1.068950
v 0.324204 -0.576794 0.901505
v -0.195753 1.064080 -0.282700
v 0.432203 0.911880 0.481857
v -0.325117 0.046356 1.068950
v -1.081750 -0.020478 -0.282700
v -0.807318 -0.605443 0.481857
v 0.400694 -0.142861 0.941690
v 0.268127 -1.084560 -0.048436
v -0.055673 -0.742094 0.834690
v -0.020898 -0.000000 -1.118070
v -0.460026 -0.775229 -0.661746
v 0.268127 1.084560 -0.048436
v -0.460026 0.775229 -0.661746
v 0.222456 0.241584 1.068950
v 0.022034 0.824282 0.622752
v -0.523920 -0.404113 0.901505
v 1.040070 -0.327829 0.247594
v -0.214987 -1.055910 -0.298901
v 0.654659 -0.670295 -0.610439
v 0.926939 0.421141 0.176551
v 0.204636 0.479118 -0.989485
v 0.992355 0.093501 -0.506950
v -0.428658 -0.296111 -0.989485
v -0.044730 -1.114490 0.080146
v -0.022034 -0.824282 -0.622752
v 0.741760 -0.665811 0.506950
v -0.913029 -0.296111 0.573766
v 0.305791 0.609928 0.885996
v -0.654659 0.670295 0.610439
v -0.926939 -0.421141 -0.176551
v -1.074370 0.309332 -0.023343
v -0.591359 0.432762 0.844702
v -0.563133 0.953750 0.154118
v -1.085450 0.104933 0.247594
v -0.864627 -0.360963 -0.610439
v 0.352026 0.178522 -1.046290
v -0.400694 0.142861 -0.941690
v 0.616676 0.859684 -0.362168
v 0.673377 -0.835596 -0.314409
v 0.693872 0.177957 0.858710
v 0.460026 -0.775229 0.661746
v 0.436096 -0.329810 -0.975477
v 1.085450 -0.104933 -0.247594
v 0.773823 0.806947 0.023343
v -0.569867 0.891402 -0.362168
v 0.185804 0.912575 -0.447694
v -0.794402 0.013221 -0.786931
v -0.533341 -0.966406 0.179211
v -0.204636 -0.479118 0.989485
v 0.753648 0.644418 0.516963
v 0.756755 -0.327829 0.755222
v -0.133898 0.826549 -0.741214
v 0.807318 0.605443 -0.481857
v -0.885831 0.493129 -0.471844
v -0.268127 1.084560 0.048436
v -0.212948 0.597272 0.921102
v -0.540104 -0.736254 0.645545
v -0.665678 0.000000 0.790328
v -0.725825 -0.781069 -0.337074
v -0.134633 0.492339 -0.994981
v -0.965158 0.169785 -0.538660
v 0.695813 0.440143 -0.756722
v 0.110288 -0.309332 -1.068950
v 0.296891 -1.009560 -0.378368
v 0.798488 -0.652295 0.068359
v 0.831841 -0.382356 -0.642148
v -0.099589 -0.555402 -0.965464
v -1.077130 -0.230153 0.193219
v -0.515134 -0.979628 -0.159614
v -0.874935 0.594011 0.363523
v -0.008410 1.085840 0.267191
v 1.116050 0.038975 0.058449
v 0.612684 0.500510 0.790328
v 0.250485 -0.975857 0.485254
v -0.006011 -0.224877 1.095400
vn 0.0000 0.0000 -1.0000
vn -0.9684 0.0000 -0.2492
vn -0.1932 0.9490 -0.2492
vn 0.8913 0.3787 -0.2492
vn 0.8913 -0.3787 -0.2492
vn -0.1932 -0.9490 -0.2492
vn -0.4635 -0.3787 0.8011
vn -0.3782 0.7979 0.4694
vn -0.8573 0.2114 0.4694
vn 0.2786 0.5298 0.8011
vn 0.6600 -0.5865 0.4694
vn 0.3405 -0.6127 -0.7132
vn 0.3405 0.6127 -0.7132
vn 0.6600 0.5865 0.4694
vn 0.2786 -0.5298 0.8011
vn 0.2786 -0.5297 0.8011
vn 0.4456 -0.8822 0.1520
vn 0.6326 0.1673 0.7562
vn 0.5650 0.7638 -0.3120
vn -0.5580 0.4559 -0.6934
vn -0.6357 -0.7061 -0.3120
vn -0.0377 -0.6532 0.7562
vn -0.2735 0.0366 0.9612
vn -0.4921 -0.8572 0.1520
vn -0.7206 -0.0000 -0.6934
vn -0.7205 0.0000 -0.6934
vn -0.4921 0.8572 0.1520
vn -0.5168 0.4013 0.7562
vn -0.7551 -0.6378 0.1520
vn -0.0981 -0.4820 -0.8706
vn 0.8938 0.0934 -0.4387
vn 0.9355 -0.2753 0.2215
vn 0.3810 -0.3112 -0.8706
vn 0.5886 -0.7538 -0.2922
vn 0.8555 0.1446 0.4972
vn -0.0023 0.9752 0.2215
vn -0.9655 0.2591 -0.0253
vn -0.8244 -0.2707 0.4972
vn -0.8243 -0.2707 0.4972
vn 0.1953 0.2340 0.9524
vn 0.2352 0.9716 -0.0253
vn -0.7861 0.4354 -0.4387
vn -0.1282 0.7271 -0.6744
vn 0.4036 0.8094 0.4265
vn -0.0235 -0.1968 0.9802
vn -0.0397 -0.9978 0.0530
vn -0.3757 -0.2817 -0.8829
vn 0.6139 0.4102 -0.6744
vn -0.1127 0.4559 -0.8829
vn -0.4280 -0.6899 -0.5839
vn 0.2411 -0.8718 0.4265
vn 0.9985 0.0162 0.0530
vn 0.2970 0.1601 -0.9414
vn -0.7675 -0.3119 -0.5600
vn -0.7838 0.5198 0.3398
vn -0.9608 -0.2014 0.1908
vn -0.4935 0.8050 -0.3292
vn 0.6822 0.7311 0.0081
vn 0.7498 -0.3525 -0.5600
vn 0.2817 -0.9013 -0.3292
vn -0.4909 -0.6442 0.5866
vn -0.2046 0.5226 0.8277
vn 0.6841 -0.3048 0.6627
usemtl None
s off
f 301//1 302//1 303//1
f 303//1 304//1 305//1
f 303//1 305//1 301//1
f 306//2 303//2 302//2
f 302//2 307//2 308//2
f 302//2 308//2 306//2
f 309//3 304//3 303//3
f 303//3 306//3 310//3
f 303//3 310//3 309//3
f 311//4 305//4 304//4
f 304//4 309//4 312//4
f 304//4 312//4 311//4
f 313//5 301//5 305//5
f 305//5 314//5 315//5
f 305//5 315//5 313//5
f 307//6 302//6 301//6
f 301//6 313//6 316//6
f 301//6 316//6 307//6
f 317//7 308//7 307//7
f 307//7 316//7 318//7
f 307//7 318//7 317//7
f 319//8 306//8 308//8
f 308//8 317//8 320//8
f 308//8 320//8 319//8
f 321//9 310//9 306//9
f 306//9 322//9 323//9
f 306//9 323//9 321//9
f 312//10 309//10 310//10
f 310//10 321//10 324//10
f 310//10 324//10 312//10
f 325//11 311//11 312//11
f 312//11 324//11 326//11
f 312//11 326//11 325//11
f 327//12 305//12 311//12
f 311//12 325//12 328//12
f 311//12 328//12 327//12
f 329//13 314//13 305//13
f 305//13 327//13 330//13
f 305//13 330//13 329//13
f 331//14 315//14 314//14
f 314//14 329//14 332//14
f 314//14 332//14 331//14
f 316//15 313//15 315//15
f 315//16 331//16 333//16
f 315//15 333//15 316//15
f 334//17 318//17 316//17
f 316//17 335//17 336//17
f 316//17 336//17 334//17
f 320//18 317//18 318//18
f 318//18 334//18 337//18
f 318//18 337//18 320//18
f 338//19 319//19 320//19
f 320//19 337//19 339//19
f 320//19 339//19 338//19
f 322//20 306//20 319//20
f 319//20 338//20 340//20
f 319//20 340//20 322//20
f 341//21 323//21 322//21
f 322//21 340//21 342//21
f 322//21 342//21 341//21
f 324//22 321//22 323//22
f 323//22 341//22 343//22
f 323//22 343//22 324//22
f 344//23 326//23 324//23
f 324//23 345//23 346//23
f 324//23 346//23 344//23
f 328//24 325//24 326//24
f 326//24 344//24 347//24
f 326//24 347//24 328//24
f 330//25 327//25 328//25
f 328//26 347//26 348//26
f 328//25 348//25 330//25
f 332//27 329//27 330//27
f 330//27 348//27 349//27
f 330//27 349//27 332//27
f 333//28 331//28 332//28
f 332//28 350//28 351//28
f 332//28 351//28 333//28
f 335//29 316//29 333//29
f 333//29 351//29 352//29
f 333//29 352//29 335//29
f 353//30 336//30 335//30
f 335//30 352//30 354//30
f 335//30 354//30 353//30
f 337//31 334//31 336//31
f 336//31 353//31 355//31
f 336//31 355//31 337//31
f 356//32 339//32 337//32
f 337//32 357//32 358//32
f 337//32 358//32 356//32
f 340//33 338//33 339//33
f 339//33 356//33 342//33
f 339//33 342//33 340//33
f 343//34 341//34 342//34
f 342//34 359//34 360//34
f 342//34 360//34 343//34
f 345//35 324//35 343//35
f 343//35 360//35 361//35
f 343//35 361//35 345//35
f 362//36 346//36 345//36
f 345//36 361//36 363//36
f 345//36 363//36 362//36
f 347//37 344//37 346//37
f 346//37 362//37 364//37
f 346//37 364//37 347//37
f 349//38 348//38 347//38
f 347//39 365//39 366//39
f 347//39 366//39 349//39
f 367//40 332//40 349//40
f 349//40 366//40 368//40
f 349//40 368//40 367//40
f 369//41 350//41 332//41
f 332//41 367//41 370//41
f 332//41 370//41 369//41
f 352//42 351//42 350//42
f 350//42 369//42 354//42
f 350//42 354//42 352//42
f 355//43 353//43 354//43
f 354//43 371//43 372//43
f 354//43 372//43 355//43
f 357//44 337//44 355//44
f 355//44 372//44 373//44
f 355//44 373//44 357//44
f 374//45 358//45 357//45
f 357//45 373//45 375//45
f 357//45 375//45 374//45
f 342//46 356//46 358//46
f 358//46 374//46 376//46
f 358//46 376//46 342//46
f 377//47 359//47 342//47
f 342//47 376//47 378//47
f 342//47 378//47 377//47
f 361//48 360//48 359//48
f 359//48 377//48 363//48
f 359//48 363//48 361//48
f 364//49 362//49 363//49
f 363//49 379//49 380//49
f 363//49 380//49 364//49
f 365//50 347//50 364//50
f 364//50 380//50 381//50
f 364//50 381//50 365//50
f 368//51 366//51 365//51
f 365//51 381//51 382//51
f 365//51 382//51 368//51
f 370//52 367//52 368//52
f 368//52 382//52 383//52
f 368//52 383//52 370//52
f 354//53 369//53 370//53
f 370//53 383//53 384//53
f 370//53 384//53 354//53
f 385//54 371//54 354//54
f 354//54 384//54 386//54
f 354//54 386//54 385//54
f 373//55 372//55 371//55
f 371//55 385//55 375//55
f 371//55 375//55 373//55
f 376//56 374//56 375//56
f 375//56 387//56 378//56
f 375//56 378//56 376//56
f 363//57 377//57 378//57
f 378//57 387//57 388//57
f 378//57 388//57 363//57
f 389//58 379//58 363//58
f 363//58 388//58 390//58
f 363//58 390//58 389//58
f 381//59 380//59 379//59
f 379//59 389//59 382//59
f 379//59 382//59 381//59
f 384//60 383//60 382//60
f 382//60 391//60 386//60
f 382//60 386//60 384//60
f 375//61 385//61 386//61
f 386//61 391//61 392//61
f 386//61 392//61 375//61
f 388//62 387//62 375//62
f 375//62 392//62 390//62
f 375//62 390//62 388//62
f 382//63 389//63 390//63
f 390//63 392//63 391//63
f 390//63 391//63 382//63
