# Blender 3.1.0
# www.blender.org
mtllib great_snub_icosidisdodecahedron.mtl
o Shape_IndexedFaceSet
v -0.000000 -0.000000 -1.414210
v -1.414210 0.000000 0.000000
v -0.000000 1.414210 -0.000000
v -1.111790 0.874032 0.000000
v 0.874032 1.111790 -0.000000
v 1.414210 0.000000 -0.000000
v 0.000000 -1.414210 0.000000
v 0.000000 0.000000 1.414210
v 0.000000 -1.111790 0.874032
v 0.000000 0.874032 1.111790
v -0.874032 0.000000 1.111790
v 1.111790 0.000000 0.874032
v 0.874032 -0.000000 -1.111790
v -1.111790 -0.000000 -0.874032
v 0.687122 0.874032 -0.874032
v -0.540182 -0.687122 -1.111790
v -0.874032 -1.111790 0.000000
v 1.111790 -0.874032 -0.000000
v 0.687122 -0.540182 1.111790
v 0.874032 -0.687122 -0.874032
v -0.000000 1.111790 -0.874032
v -0.000000 -0.874032 -1.111790
v -0.874032 0.687122 0.874032
v -1.111790 -0.540182 -0.687122
v 1.111790 0.687122 -0.540182
v -0.874032 0.874032 -0.687122
v -0.687122 -1.111790 -0.540182
v 0.874032 -0.874032 0.687122
v 0.687122 1.111790 0.540182
v -0.540182 1.111790 0.687122
v -0.687122 -0.874032 0.874032
v 0.540182 -1.111790 -0.687122
v 0.540182 0.687122 1.111790
v 0.449368 -1.227300 0.540182
v -1.227300 -0.146940 0.687122
v -0.687122 0.540182 -1.111790
v 1.227300 0.146940 -0.687122
v 0.146940 1.298700 0.540182
v 1.111790 0.540182 0.687122
v -1.111790 -0.687122 0.540182
v 0.540182 0.449368 -1.227300
v 0.687122 -1.227300 -0.146940
v -0.687122 1.227300 0.146940
v 0.540182 0.146940 1.298700
v -1.227300 0.540182 0.449368
v -0.146940 0.687122 -1.227300
v 1.227300 -0.540182 -0.449368
v 0.146940 -0.687122 1.227300
v 1.298700 0.540182 0.146940
v -1.298700 -0.540182 -0.146940
v -0.449368 1.227300 -0.540182
v 0.333851 -0.449368 -1.298700
v -0.146940 -1.298700 -0.540182
v -1.298700 0.333851 -0.449368
v -0.540182 -0.449368 1.227300
v -0.540182 -0.146940 -1.298700
v -0.449368 -1.298700 0.333851
v 0.449368 1.298700 -0.333851
v -0.333851 0.449368 1.298700
v 1.298700 -0.333851 0.449368
v -0.307290 0.632456 -0.632456
v 0.632456 0.307290 -0.632456
v -0.632456 -0.307290 0.632456
v -0.632456 0.632456 0.307290
v -0.888085 -0.106327 -0.307290
v 0.888085 0.106327 0.307290
v 0.632456 -0.632456 -0.307290
v 0.307290 -0.632456 0.632456
v -0.307290 -0.888085 -0.106327
v 0.307290 0.888085 0.106327
v 0.106327 0.307290 0.888085
v -0.106327 -0.307290 -0.888085
vn -0.3249 0.6687 -0.6687
vn 0.6687 0.3249 -0.6687
vn -0.6687 -0.3249 0.6687
vn -0.6687 0.6687 0.3249
vn -0.9390 -0.1124 -0.3249
vn 0.9390 0.1124 0.3249
vn 0.6687 -0.6687 -0.3249
vn 0.3249 -0.6687 0.6687
vn -0.3249 -0.9390 -0.1124
vn 0.3249 0.9390 0.1124
vn 0.1124 0.3249 0.9390
vn -0.1124 -0.3249 -0.9390
vt 0.500000 0.500000
vt 1.000000 0.500000
vt 0.500000 1.000000
vt 0.893078 0.809018
vt 0.190982 0.893078
vt 0.000000 0.500000
vt 0.500000 0.000000
vt 0.500000 0.500000
vt 0.500000 0.106922
vt 0.500000 0.809018
vt 0.809018 0.500000
vt 0.106922 0.500000
vt 0.190982 0.500000
vt 0.893078 0.500000
vt 0.257065 0.809018
vt 0.690984 0.257065
vt 0.809018 0.106922
vt 0.106922 0.190982
vt 0.257065 0.309016
vt 0.190982 0.257065
vt 0.500000 0.893078
vt 0.500000 0.190982
vt 0.809018 0.742935
vt 0.893078 0.309016
vt 0.106922 0.742935
vt 0.809018 0.809018
vt 0.742935 0.106922
vt 0.190982 0.190982
vt 0.257065 0.893078
vt 0.690984 0.893078
vt 0.742935 0.190982
vt 0.309016 0.106922
vt 0.309016 0.742935
vt 0.341124 0.066083
vt 0.933917 0.448049
vt 0.742935 0.690984
vt 0.066083 0.551951
vt 0.448049 0.959161
vt 0.106922 0.690984
vt 0.893078 0.257065
vt 0.309016 0.658876
vt 0.257065 0.066083
vt 0.742935 0.933917
vt 0.309016 0.551951
vt 0.933917 0.690984
vt 0.551951 0.742935
vt 0.066083 0.309016
vt 0.448049 0.257065
vt 0.040839 0.690984
vt 0.959161 0.309016
vt 0.658876 0.933917
vt 0.381966 0.341124
vt 0.551951 0.040839
vt 0.959161 0.618034
vt 0.690984 0.341124
vt 0.690984 0.448049
vt 0.658876 0.040839
vt 0.341124 0.959161
vt 0.618034 0.658876
vt 0.040839 0.381966
vt 0.608644 0.723608
vt 0.276392 0.608644
vt 0.723608 0.391356
vt 0.723608 0.723608
vt 0.813986 0.462408
vt 0.186014 0.537592
vt 0.276392 0.276392
vt 0.391356 0.276392
vt 0.608644 0.186014
vt 0.391356 0.813986
vt 0.462408 0.608644
vt 0.537592 0.391356
s 0
usemtl Shape
f 61/61/1 4/4/1 15/15/1
f 61/61/1 15/15/1 14/14/1
f 61/61/1 14/14/1 3/3/1
f 61/61/1 3/3/1 1/1/1
f 61/61/1 1/1/1 4/4/1
f 62/62/2 1/1/2 5/5/2
f 62/62/2 5/5/2 20/20/2
f 62/62/2 20/20/2 21/21/2
f 62/62/2 21/21/2 6/6/2
f 62/62/2 6/6/2 1/1/2
f 63/63/3 9/9/3 23/23/3
f 63/63/3 23/23/3 17/17/3
f 63/63/3 17/17/3 8/8/3
f 63/63/3 8/8/3 2/2/3
f 63/63/3 2/2/3 9/9/3
f 64/64/4 2/2/4 10/10/4
f 64/64/4 10/10/4 26/26/4
f 64/64/4 26/26/4 11/11/4
f 64/64/4 11/11/4 3/3/4
f 64/64/4 3/3/4 2/2/4
f 65/65/5 4/4/5 16/16/5
f 65/65/5 16/16/5 35/35/5
f 65/65/5 35/35/5 36/36/5
f 65/65/5 36/36/5 17/17/5
f 65/65/5 17/17/5 4/4/5
f 66/66/6 19/19/6 37/37/6
f 66/66/6 37/37/6 33/33/6
f 66/66/6 33/33/6 18/18/6
f 66/66/6 18/18/6 5/5/6
f 66/66/6 5/5/6 19/19/6
f 67/67/7 7/7/7 13/13/7
f 67/67/7 13/13/7 28/28/7
f 67/67/7 28/28/7 22/22/7
f 67/67/7 22/22/7 6/6/7
f 67/67/7 6/6/7 7/7/7
f 68/68/8 7/7/8 12/12/8
f 68/68/8 12/12/8 31/31/8
f 68/68/8 31/31/8 18/18/8
f 68/68/8 18/18/8 8/8/8
f 68/68/8 8/8/8 7/7/8
f 69/69/9 9/9/9 24/24/9
f 69/69/9 24/24/9 42/42/9
f 69/69/9 42/42/9 40/40/9
f 69/69/9 40/40/9 22/22/9
f 69/69/9 22/22/9 9/9/9
f 70/70/10 25/25/10 43/43/10
f 70/70/10 43/43/10 39/39/10
f 70/70/10 39/39/10 21/21/10
f 70/70/10 21/21/10 10/10/10
f 70/70/10 10/10/10 25/25/10
f 71/71/11 12/12/11 30/30/11
f 71/71/11 30/30/11 48/48/11
f 71/71/11 48/48/11 29/29/11
f 71/71/11 29/29/11 11/11/11
f 71/71/11 11/11/11 12/12/11
f 72/72/12 13/13/12 27/27/12
f 72/72/12 27/27/12 46/46/12
f 72/72/12 46/46/12 32/32/12
f 72/72/12 32/32/12 14/14/12
f 72/72/12 14/14/12 13/13/12
f 70/70/10 15/15/10 30/30/10
f 70/70/10 30/30/10 49/49/10
f 70/70/10 49/49/10 51/51/10
f 70/70/10 51/51/10 33/33/10
f 70/70/10 33/33/10 15/15/10
f 69/69/9 34/34/9 50/50/9
f 69/69/9 50/50/9 32/32/9
f 69/69/9 32/32/9 31/31/9
f 69/69/9 31/31/9 16/16/9
f 69/69/9 16/16/9 34/34/9
f 71/71/11 19/19/11 38/38/11
f 71/71/11 38/38/11 55/55/11
f 71/71/11 55/55/11 39/39/11
f 71/71/11 39/39/11 23/23/11
f 71/71/11 23/23/11 19/19/11
f 72/72/12 24/24/12 41/41/12
f 72/72/12 41/41/12 53/53/12
f 72/72/12 53/53/12 36/36/12
f 72/72/12 36/36/12 20/20/12
f 72/72/12 20/20/12 24/24/12
f 66/66/6 25/25/6 44/44/6
f 66/66/6 44/44/6 47/47/6
f 66/66/6 47/47/6 29/29/6
f 66/66/6 29/29/6 28/28/6
f 66/66/6 28/28/6 25/25/6
f 65/65/5 27/27/5 45/45/5
f 65/65/5 45/45/5 56/56/5
f 65/65/5 56/56/5 40/40/5
f 65/65/5 40/40/5 26/26/5
f 65/65/5 26/26/5 27/27/5
f 67/67/7 34/34/7 52/52/7
f 67/67/7 52/52/7 60/60/7
f 67/67/7 60/60/7 53/53/7
f 67/67/7 53/53/7 37/37/7
f 67/67/7 37/37/7 34/34/7
f 64/64/4 38/38/4 54/54/4
f 64/64/4 54/54/4 59/59/4
f 64/64/4 59/59/4 51/51/4
f 64/64/4 51/51/4 35/35/4
f 64/64/4 35/35/4 38/38/4
f 61/61/1 41/41/1 54/54/1
f 61/61/1 54/54/1 58/58/1
f 61/61/1 58/58/1 56/56/1
f 61/61/1 56/56/1 43/43/1
f 61/61/1 43/43/1 41/41/1
f 68/68/8 44/44/8 57/57/8
f 68/68/8 57/57/8 60/60/8
f 68/68/8 60/60/8 55/55/8
f 68/68/8 55/55/8 42/42/8
f 68/68/8 42/42/8 44/44/8
f 63/63/3 45/45/3 57/57/3
f 63/63/3 57/57/3 59/59/3
f 63/63/3 59/59/3 50/50/3
f 63/63/3 50/50/3 48/48/3
f 63/63/3 48/48/3 45/45/3
f 62/62/2 49/49/2 52/52/2
f 62/62/2 52/52/2 58/58/2
f 62/62/2 58/58/2 47/47/2
f 62/62/2 47/47/2 46/46/2
f 62/62/2 46/46/2 49/49/2
o Shape_IndexedFaceSet.001
v -0.000000 -0.000000 -1.414210
v -1.414210 0.000000 0.000000
v -0.000000 1.414210 -0.000000
v -1.111790 0.874032 0.000000
v 0.874032 1.111790 -0.000000
v 1.414210 0.000000 -0.000000
v 0.000000 -1.414210 0.000000
v 0.000000 0.000000 1.414210
v 0.000000 -1.111790 0.874032
v 0.000000 0.874032 1.111790
v -0.874032 0.000000 1.111790
v 1.111790 0.000000 0.874032
v 0.874032 -0.000000 -1.111790
v -1.111790 -0.000000 -0.874032
v 0.687122 0.874032 -0.874032
v -0.540182 -0.687122 -1.111790
v -0.874032 -1.111790 0.000000
v 1.111790 -0.874032 -0.000000
v 0.687122 -0.540182 1.111790
v 0.874032 -0.687122 -0.874032
v -0.000000 1.111790 -0.874032
v -0.000000 -0.874032 -1.111790
v -0.874032 0.687122 0.874032
v -1.111790 -0.540182 -0.687122
v 1.111790 0.687122 -0.540182
v -0.874032 0.874032 -0.687122
v -0.687122 -1.111790 -0.540182
v 0.874032 -0.874032 0.687122
v 0.687122 1.111790 0.540182
v -0.540182 1.111790 0.687122
v -0.687122 -0.874032 0.874032
v 0.540182 -1.111790 -0.687122
v 0.540182 0.687122 1.111790
v 0.449368 -1.227300 0.540182
v -1.227300 -0.146940 0.687122
v -0.687122 0.540182 -1.111790
v 1.227300 0.146940 -0.687122
v 0.146940 1.298700 0.540182
v 1.111790 0.540182 0.687122
v -1.111790 -0.687122 0.540182
v 0.540182 0.449368 -1.227300
v 0.687122 -1.227300 -0.146940
v -0.687122 1.227300 0.146940
v 0.540182 0.146940 1.298700
v -1.227300 0.540182 0.449368
v -0.146940 0.687122 -1.227300
v 1.227300 -0.540182 -0.449368
v 0.146940 -0.687122 1.227300
v 1.298700 0.540182 0.146940
v -1.298700 -0.540182 -0.146940
v -0.449368 1.227300 -0.540182
v 0.333851 -0.449368 -1.298700
v -0.146940 -1.298700 -0.540182
v -1.298700 0.333851 -0.449368
v -0.540182 -0.449368 1.227300
v -0.540182 -0.146940 -1.298700
v -0.449368 -1.298700 0.333851
v 0.449368 1.298700 -0.333851
v -0.333851 0.449368 1.298700
v 1.298700 -0.333851 0.449368
v -0.307290 0.632456 -0.632456
v 0.632456 0.307290 -0.632456
v -0.632456 -0.307290 0.632456
v -0.632456 0.632456 0.307290
v -0.888085 -0.106327 -0.307290
v 0.888085 0.106327 0.307290
v 0.632456 -0.632456 -0.307290
v 0.307290 -0.632456 0.632456
v -0.307290 -0.888085 -0.106327
v 0.307290 0.888085 0.106327
v 0.106327 0.307290 0.888085
v -0.106327 -0.307290 -0.888085
vn -0.5774 0.5774 -0.5774
vn -0.0971 0.8107 -0.5774
vn 0.5774 -0.5774 -0.5774
vn -0.5774 -0.5774 -0.5774
vn -0.5774 -0.5774 0.5774
vn -0.5774 -0.0971 0.8107
vn 0.0971 0.5774 0.8107
vn 0.8107 0.5774 -0.0971
vn -0.0971 0.5774 -0.8107
vn -0.3939 0.4331 -0.8107
vn -0.8107 -0.0971 0.5774
vn -0.0971 0.8107 0.5774
vn 0.8107 0.0971 0.5774
vn 0.9942 -0.0472 0.0971
vn 0.5774 0.8107 0.0971
vn 0.5774 -0.0971 0.8107
vn 0.5774 -0.8107 -0.0971
vn 0.8107 -0.5774 -0.0971
vn -0.8107 -0.3939 0.4331
vn 0.0971 0.9942 -0.0472
vn -0.9942 -0.0971 -0.0472
vn -0.2805 -0.8107 0.5139
vn 0.2805 0.0971 0.9549
vn -0.0472 0.0971 0.9942
vn 0.4331 -0.8107 -0.3939
vn -0.5139 -0.8107 -0.2805
vn -0.9549 0.0971 0.2805
vn -0.3939 0.8107 -0.4331
vn 0.9549 0.2805 0.0971
vn 0.5139 -0.2805 -0.8107
vn -0.0472 -0.9942 -0.0971
vn -0.5381 -0.8415 0.0472
vn -0.2805 -0.5139 -0.8107
vn 0.2805 -0.9549 0.0971
vn -0.4331 -0.3939 0.8107
vn 0.8415 0.3697 0.3939
vn -0.0971 -0.0472 -0.9942
vn -0.8107 0.5139 -0.2805
vn 0.0971 0.9549 0.2805
vn -0.8107 -0.2805 -0.5139
vn 0.0971 0.2805 -0.9549
vn 0.8107 -0.4331 -0.3939
vn 0.0472 -0.5381 -0.8415
vn 0.3939 0.8415 0.3697
vn -0.8415 0.0472 -0.5381
vn 0.7216 0.5139 -0.4640
vn -0.2805 0.9549 -0.0971
vn -0.1605 0.3939 0.9050
vn 0.3697 0.3939 0.8415
vn 0.6907 0.0472 -0.7216
vn 0.8107 -0.5139 0.2805
vn -0.2497 -0.9549 0.1605
vn -0.4640 0.7216 0.5139
vn -0.0971 -0.2805 0.9549
vn 0.9050 -0.1605 0.3939
vn -0.2104 -0.9050 -0.3696
vn -0.7216 0.6907 0.0472
vn 0.2805 0.8107 -0.5139
vn 0.1605 -0.2497 -0.9549
vn -0.6907 0.4830 0.5381
vn 0.5139 -0.4640 0.7216
vn 0.9549 -0.0971 -0.2805
vn 0.3939 0.9050 -0.1605
vn 0.0472 -0.7216 0.6907
vn -0.5139 0.2805 0.8107
vn -0.9549 0.1605 -0.2497
vn -0.3696 -0.2104 -0.9050
vn 0.5381 -0.6907 0.4830
vn -0.9050 -0.3696 -0.2104
vn 0.0971 -0.8107 -0.5774
vn 0.4640 0.2497 -0.8499
vn 0.4830 0.5381 -0.6907
vn -0.8499 0.4640 0.2497
vn -0.5774 0.0971 -0.8107
vn 0.8499 0.2104 -0.4830
vn 0.2497 -0.8499 0.4640
vn -0.8107 -0.5774 0.0971
vn -0.4830 0.8499 0.2104
vn 0.2104 -0.4830 0.8499
vn 0.5774 0.5774 0.5774
vt 0.500000 0.500000
vt 1.000000 0.500000
vt 0.500000 1.000000
vt 0.893078 0.809018
vt 0.190982 0.893078
vt 0.000000 0.500000
vt 0.500000 0.000000
vt 0.500000 0.500000
vt 0.500000 0.106922
vt 0.500000 0.809018
vt 0.809018 0.500000
vt 0.106922 0.500000
vt 0.190982 0.500000
vt 0.893078 0.500000
vt 0.257065 0.809018
vt 0.690984 0.257065
vt 0.809018 0.106922
vt 0.106922 0.190982
vt 0.257065 0.309016
vt 0.190982 0.257065
vt 0.500000 0.893078
vt 0.500000 0.190982
vt 0.809018 0.742935
vt 0.893078 0.309016
vt 0.106922 0.742935
vt 0.809018 0.809018
vt 0.742935 0.106922
vt 0.190982 0.190982
vt 0.257065 0.893078
vt 0.690984 0.893078
vt 0.742935 0.190982
vt 0.309016 0.106922
vt 0.309016 0.742935
vt 0.341124 0.066083
vt 0.933917 0.448049
vt 0.742935 0.690984
vt 0.066083 0.551951
vt 0.448049 0.959161
vt 0.106922 0.690984
vt 0.893078 0.257065
vt 0.309016 0.658876
vt 0.257065 0.066083
vt 0.742935 0.933917
vt 0.309016 0.551951
vt 0.933917 0.690984
vt 0.551951 0.742935
vt 0.066083 0.309016
vt 0.448049 0.257065
vt 0.040839 0.690984
vt 0.959161 0.309016
vt 0.658876 0.933917
vt 0.381966 0.341124
vt 0.551951 0.040839
vt 0.959161 0.618034
vt 0.690984 0.341124
vt 0.690984 0.448049
vt 0.658876 0.040839
vt 0.341124 0.959161
vt 0.618034 0.658876
vt 0.040839 0.381966
s 0
usemtl Shape.001
f 73/73/13 74/74/13 75/75/13
f 73/73/14 76/76/14 77/77/14
f 73/73/15 78/78/15 79/79/15
f 73/73/16 79/79/16 74/74/16
f 74/74/17 79/79/17 80/80/17
f 74/74/18 81/81/18 82/82/18
f 75/75/19 83/83/19 84/84/19
f 75/75/20 84/84/20 85/85/20
f 75/75/21 85/85/21 86/86/21
f 76/76/22 87/87/22 88/88/22
f 76/76/23 89/89/23 80/80/23
f 76/76/24 80/80/24 77/77/24
f 77/77/25 80/80/25 90/90/25
f 77/77/26 91/91/26 92/92/26
f 78/78/27 93/93/27 82/82/27
f 78/78/28 82/82/28 81/81/28
f 78/78/29 81/81/29 94/94/29
f 79/79/30 85/85/30 84/84/30
f 81/81/31 95/95/31 96/96/31
f 82/82/32 97/97/32 98/98/32
f 83/83/33 98/98/33 99/99/33
f 83/83/34 99/99/34 100/100/34
f 83/83/35 100/100/35 101/101/35
f 84/84/36 102/102/36 103/103/36
f 85/85/37 100/100/37 99/99/37
f 86/86/38 104/104/38 103/103/38
f 86/86/39 103/103/39 102/102/39
f 86/86/40 102/102/40 87/87/40
f 87/87/41 105/105/41 90/90/41
f 87/87/42 90/90/42 88/88/42
f 88/88/43 90/90/43 103/103/43
f 88/88/44 106/106/44 107/107/44
f 89/89/45 108/108/45 92/92/45
f 89/89/46 92/92/46 91/91/46
f 89/89/47 91/91/47 95/95/47
f 91/91/48 109/109/48 110/110/48
f 92/92/49 96/96/49 93/93/49
f 93/93/50 96/96/50 95/95/50
f 93/93/51 95/95/51 111/111/51
f 94/94/52 112/112/52 98/98/52
f 94/94/53 98/98/53 97/97/53
f 94/94/54 97/97/54 100/100/54
f 96/96/55 113/113/55 114/114/55
f 97/97/56 115/115/56 116/116/56
f 99/99/57 117/117/57 118/118/57
f 101/101/58 119/119/58 118/118/58
f 101/101/59 118/118/59 117/117/59
f 101/101/60 117/117/60 120/120/60
f 102/102/61 120/120/61 121/121/61
f 104/104/62 118/118/62 121/121/62
f 104/104/63 121/121/63 120/120/63
f 104/104/64 120/120/64 122/122/64
f 105/105/65 123/123/65 107/107/65
f 105/105/66 107/107/66 106/106/66
f 105/105/67 106/106/67 109/109/67
f 106/106/68 122/122/68 124/124/68
f 107/107/69 110/110/69 108/108/69
f 108/108/70 110/110/70 109/109/70
f 108/108/71 109/109/71 125/125/71
f 110/110/72 126/126/72 127/127/72
f 111/111/73 127/127/73 114/114/73
f 111/111/74 114/114/74 113/113/74
f 111/111/75 113/113/75 115/115/75
f 112/112/76 114/114/76 116/116/76
f 112/112/77 116/116/77 115/115/77
f 112/112/78 115/115/78 128/128/78
f 113/113/79 125/125/79 126/126/79
f 116/116/80 129/129/80 119/119/80
f 117/117/81 128/128/81 129/129/81
f 119/119/82 129/129/82 128/128/82
f 119/119/83 128/128/83 130/130/83
f 121/121/84 124/124/84 123/123/84
f 122/122/85 131/131/85 123/123/85
f 122/122/86 123/123/86 124/124/86
f 124/124/87 130/130/87 132/132/87
f 125/125/88 132/132/88 127/127/88
f 125/125/89 127/127/89 126/126/89
f 126/126/90 131/131/90 130/130/90
f 129/129/91 132/132/91 131/131/91
f 130/130/92 131/131/92 132/132/92
