# Blender 3.1.0
# www.blender.org
mtllib great_hexagonal_hexecontahedron.mtl
o Shape_IndexedFaceSet
v -0.707107 0.707107 -0.707107
v -0.343561 0.707107 -0.707107
v -0.118877 0.992909 -0.707107
v 0.707107 0.343561 -0.707107
v 0.707107 -0.707107 -0.707107
v -0.707107 -0.707107 -0.707107
v -0.707107 -0.707107 0.707107
v -0.707107 -0.343561 0.707107
v -0.707107 -0.118877 0.992909
v -0.707107 0.707107 0.343561
v 0.118877 0.707107 0.992909
v 0.992909 0.707107 -0.118877
v -0.118877 0.707107 -0.992909
v -0.482423 0.530471 -0.992909
v -0.992909 -0.118877 -0.343561
v -0.992909 -0.118877 0.707107
v -0.118877 0.992909 0.707107
v 0.992909 0.118877 0.707107
v 0.992909 0.118877 0.343561
v 1.217590 -0.057758 0.118877
v 0.707107 0.992909 0.118877
v 0.707107 -0.118877 0.992909
v 0.707107 -0.992909 -0.118877
v 0.707107 -0.707107 -0.343561
v 0.992909 -0.707107 -0.118877
v 0.343561 -0.707107 0.707107
v -0.992909 -0.482423 0.530471
v -0.343561 -0.992909 -0.118877
v 0.343561 0.992909 0.118877
v 0.118877 1.217590 -0.057759
v -1.217590 -0.118877 -0.057758
v -0.343561 -0.992909 0.629363
v 0.343561 0.118877 1.169540
v 0.118877 0.343561 0.992909
v -0.057758 0.118877 1.217590
v 0.530471 -0.992909 -0.482423
v -0.118877 -0.343561 -0.992909
v -0.629363 -0.992909 -0.343561
v -1.169540 0.118877 0.343561
v -0.482423 0.992909 -0.530471
v 0.343561 0.992909 0.118877
v 1.169540 0.343561 0.118877
v 0.629363 -0.343561 -0.992909
v -0.057759 -1.217590 -0.118877
v -0.343561 -0.992909 -0.118877
v -0.659059 -1.030680 0.057759
v -0.343561 -0.629363 -0.992909
v 0.343561 -1.169540 0.118877
v -0.530471 -0.482423 0.992909
v 1.030680 0.452727 0.482423
v 0.118877 0.343561 0.992909
v -0.118877 -0.343561 -0.992909
v -0.118877 -0.057759 -1.217590
v -0.992909 0.629363 -0.343561
v 0.118877 1.169540 0.343561
v -0.992909 -0.343561 -0.629363
v 0.118877 0.343561 -1.169540
v 0.992909 -0.530471 -0.482423
v 0.057758 -0.659059 -1.030680
v 0.482423 1.030680 0.452727
v 0.992909 0.118877 0.343561
v -0.992909 -0.118877 -0.343561
v -1.030680 0.057758 -0.659059
v 0.883742 0.629363 -0.568245
v -0.343561 1.169540 -0.118877
v -0.196621 0.482423 1.108430
v 0.452727 0.482423 1.030680
v 0.845969 0.057758 -0.883742
v 0.992909 -0.629363 0.343561
v -0.305788 -1.169540 0.196621
v -0.568245 0.883742 0.629363
v -0.118877 -0.343561 1.169540
v 1.108430 -0.196621 0.482423
v -0.257739 -1.108430 -0.452727
v 0.707107 -0.707107 -0.343561
v -0.707107 0.707107 0.343561
v -0.883742 0.845969 0.057759
v 0.343561 0.992909 -0.629363
v 0.196621 -0.305788 -1.169540
v -0.845969 0.591590 0.659059
v 0.629363 -0.568245 0.883742
v 1.169540 -0.118877 -0.343561
v 0.482423 1.108430 -0.196621
v 0.057759 -0.883742 0.845969
v -0.629363 0.343561 0.992909
v -1.169540 0.196621 -0.305788
v -0.452727 -0.257739 -1.108430
v -0.343561 0.707107 -0.707107
v 0.343561 -0.707107 0.707107
v 0.659059 -0.845969 0.591590
v -1.108430 -0.452727 -0.257739
v -0.707107 -0.343561 0.707107
v 0.707107 0.343561 -0.707107
v 0.118877 -0.992909 -0.707107
v 0.568245 0.305788 -1.040960
v 0.591590 0.659059 -0.845969
v -1.040960 0.568245 0.305788
v -0.707107 0.118877 -0.992909
v 1.040960 0.257739 -0.591590
v 0.305788 -1.040960 0.568245
v -0.992909 -0.707107 0.118877
v -0.591590 1.040960 0.257739
v 0.257739 -0.591590 1.040960
v 0.707107 0.707107 0.707107
v -0.077073 0.222745 -0.707107
v -0.707107 -0.077073 0.222745
v -0.127478 0.707107 -0.198255
v -0.508259 0.497607 -0.222745
v 0.612127 0.418229 0.077073
v 0.707107 -0.198255 -0.127478
v 0.222745 -0.707107 -0.077073
v -0.198255 -0.127478 0.707107
v -0.222745 -0.508259 0.497607
v 0.077073 0.612127 0.418229
v -0.281158 0.127478 0.678421
v 0.418229 0.077073 0.612127
v 0.497607 -0.222745 -0.508259
v -0.477107 0.198255 -0.537233
v 0.139010 0.537233 -0.497607
v -0.317724 -0.528858 -0.418229
v -0.537233 -0.477107 0.198255
v 0.678421 -0.281158 0.127478
v 0.528858 -0.132427 0.508259
v 0.281158 -0.319071 -0.612127
v 0.127478 0.678421 -0.281158
v 0.198255 -0.537233 -0.477107
v -0.497607 0.139010 0.537233
v -0.418229 -0.317724 -0.528858
v 0.508259 0.528858 -0.132427
v -0.612127 0.281158 -0.319071
v -0.528858 -0.418229 -0.317724
v 0.537233 -0.497607 0.139010
v 0.299818 0.477107 0.487886
v -0.132427 0.508259 0.528858
v -0.319071 -0.612127 0.281158
v 0.073548 -0.678421 -0.299818
v 0.487886 0.299818 0.477107
v 0.072716 -0.729884 0.132427
v -0.654990 0.157283 0.319071
v -0.299818 0.073548 -0.678421
v 0.729884 0.059166 -0.139010
v -0.157283 0.655644 0.317724
v 0.477107 0.487886 0.299818
v -0.678421 -0.299818 0.073548
v 0.132427 0.072716 -0.729884
v 0.319071 -0.654990 0.157283
v -0.139010 0.729884 0.059166
v 0.317724 -0.157283 0.655644
v -0.729884 0.132427 0.072716
v 0.157283 0.319071 -0.654990
v 0.654990 -0.073548 -0.348044
v 0.059166 -0.139010 0.729884
v 0.655644 0.317724 -0.157283
v -0.560376 -0.487886 -0.059166
v -0.348044 0.654990 -0.073548
v 0.346986 -0.072716 -0.655644
v -0.059166 -0.560376 -0.487886
v -0.655644 0.346986 -0.072716
v -0.073548 -0.348044 0.654990
v -0.487886 -0.059166 -0.560376
v -0.072716 -0.655644 0.346986
v 0.348044 0.560376 -0.346986
v -0.346986 0.348044 0.560376
v 0.560376 -0.346986 0.348044
vn -0.0000 -0.0000 -1.0000
vn -1.0000 -0.0000 -0.0000
vn -0.0000 1.0000 -0.0000
vn -0.7862 0.6180 -0.0000
vn 0.6180 0.7862 -0.0000
vn 1.0000 -0.0000 -0.0000
vn -0.0000 -1.0000 -0.0000
vn -0.0000 -0.0000 1.0000
vn -0.0000 -0.7862 0.6180
vn -0.0000 0.6180 0.7862
vn -0.6180 -0.0000 0.7862
vn 0.7862 -0.0000 0.6180
vn 0.6180 -0.0000 -0.7862
vn -0.7862 -0.0000 -0.6180
vn 0.4859 0.6180 -0.6180
vn -0.3820 -0.4859 -0.7862
vn -0.6180 -0.7862 -0.0000
vn 0.7862 -0.6180 -0.0000
vn 0.4859 -0.3820 0.7861
vn 0.4859 -0.3820 0.7862
vn 0.6180 -0.4859 -0.6180
vn -0.0000 0.7862 -0.6180
vn -0.0000 -0.6180 -0.7862
vn -0.6180 0.4859 0.6180
vn -0.7862 -0.3820 -0.4859
vn 0.7861 0.4859 -0.3820
vn 0.7862 0.4859 -0.3820
vn -0.6180 0.6180 -0.4859
vn -0.4859 -0.7862 -0.3820
vn 0.6180 -0.6180 0.4859
vn 0.4859 0.7861 0.3820
vn 0.4859 0.7862 0.3820
vn -0.3820 0.7861 0.4859
vn -0.3820 0.7862 0.4859
vn -0.4859 -0.6180 0.6180
vn 0.3820 -0.7862 -0.4859
vn 0.3820 0.4859 0.7862
vn 0.3820 0.4859 0.7861
vn 0.3177 -0.8678 0.3820
vn 0.3178 -0.8678 0.3820
vn -0.8678 -0.1039 0.4859
vn -0.4859 0.3820 -0.7862
vn 0.8678 0.1039 -0.4859
vn 0.1039 0.9183 0.3820
vn 0.7861 0.3820 0.4859
vn 0.7862 0.3820 0.4859
vn -0.7862 -0.4859 0.3820
vn 0.3820 0.3177 -0.8678
vn 0.3820 0.3178 -0.8678
vn 0.4859 -0.8678 -0.1039
vn -0.4859 0.8678 0.1039
vn 0.3820 0.1039 0.9183
vn -0.8678 0.3820 0.3177
vn -0.8678 0.3820 0.3178
vn -0.1039 0.4859 -0.8678
vn 0.8678 -0.3820 -0.3178
vn 0.8678 -0.3820 -0.3177
vn 0.1039 -0.4859 0.8678
vn 0.9183 0.3820 0.1039
vn -0.9183 -0.3820 -0.1039
vn -0.3178 0.8678 -0.3820
vn -0.3177 0.8678 -0.3820
vn 0.2361 -0.3178 -0.9183
vn 0.2361 -0.3177 -0.9183
vn -0.1039 -0.9183 -0.3820
vn -0.9183 0.2361 -0.3178
vn -0.9183 0.2361 -0.3177
vn -0.3820 -0.3178 0.8678
vn -0.3820 -0.3177 0.8678
vn -0.3820 -0.1039 -0.9183
vn -0.3178 -0.9183 0.2361
vn -0.3177 -0.9183 0.2361
vn 0.3178 0.9183 -0.2361
vn 0.3177 0.9183 -0.2361
vn -0.2361 0.3178 0.9183
vn -0.2361 0.3177 0.9183
vn 0.9183 -0.2361 0.3178
vn 0.9183 -0.2361 0.3177
vt 0.790372 0.790372
vt 0.641082 0.790372
vt 0.548817 0.907735
vt 0.209628 0.641082
vt 0.209628 0.209628
vt 0.790372 0.209628
vt 0.790372 0.209628
vt 0.790372 0.358918
vt 0.790372 0.451183
vt 0.790372 0.790372
vt 0.451183 0.790372
vt 0.092265 0.790372
vt 0.548817 0.790372
vt 0.698106 0.717836
vt 0.907735 0.451183
vt 0.907735 0.451183
vt 0.548817 0.907735
vt 0.092265 0.548817
vt 0.092265 0.548817
vt 0.000000 0.476282
vt 0.209628 0.907735
vt 0.209628 0.451183
vt 0.209628 0.092265
vt 0.209628 0.209628
vt 0.092265 0.209628
vt 0.358918 0.209628
vt 0.907735 0.301894
vt 0.641082 0.092265
vt 0.358918 0.907735
vt 0.451183 1.000000
vt 1.000000 0.451183
vt 0.641082 0.092265
vt 0.358918 0.548817
vt 0.451183 0.641082
vt 0.523718 0.548817
vt 0.282164 0.092265
vt 0.548817 0.358918
vt 0.758446 0.092265
vt 0.980268 0.548817
vt 0.698106 0.907735
vt 0.358918 0.907735
vt 0.019732 0.641082
vt 0.241554 0.358918
vt 0.523718 0.000000
vt 0.641082 0.092265
vt 0.770641 0.076754
vt 0.641082 0.241554
vt 0.358918 0.019732
vt 0.717836 0.301894
vt 0.076754 0.685911
vt 0.451183 0.641082
vt 0.548817 0.358918
vt 0.548817 0.476282
vt 0.907735 0.758446
vt 0.451183 0.980268
vt 0.907735 0.358918
vt 0.451183 0.641082
vt 0.092265 0.282164
vt 0.476282 0.229359
vt 0.301894 0.923246
vt 0.092265 0.548817
vt 0.907735 0.451183
vt 0.923246 0.523718
vt 0.137094 0.758446
vt 0.641082 0.980268
vt 0.580742 0.698106
vt 0.314089 0.698106
vt 0.152605 0.523718
vt 0.092265 0.241554
vt 0.625571 0.019732
vt 0.733348 0.862906
vt 0.548817 0.358918
vt 0.044826 0.419258
vt 0.605840 0.044826
vt 0.209628 0.209628
vt 0.790372 0.790372
vt 0.862906 0.847395
vt 0.358918 0.907735
vt 0.419258 0.374429
vt 0.847395 0.742935
vt 0.241554 0.266652
vt 0.019732 0.451183
vt 0.301894 0.955174
vt 0.476282 0.137094
vt 0.758446 0.641082
vt 0.980268 0.580742
vt 0.685911 0.394160
vt 0.641082 0.790372
vt 0.358918 0.209628
vt 0.229359 0.152605
vt 0.955174 0.314089
vt 0.790372 0.358918
vt 0.209628 0.641082
vt 0.451183 0.092265
vt 0.266652 0.625571
vt 0.257065 0.770641
vt 0.927467 0.733348
vt 0.790372 0.548817
vt 0.072533 0.605840
vt 0.374429 0.072533
vt 0.907735 0.209628
vt 0.742935 0.927467
vt 0.394160 0.257065
vt 0.209628 0.790372
vt 0.531650 0.591470
vt 0.790372 0.468350
vt 0.552348 0.790372
vt 0.708715 0.704341
vt 0.248632 0.671745
vt 0.209628 0.418587
vt 0.408530 0.209628
vt 0.581413 0.447652
vt 0.591470 0.291285
vt 0.468350 0.751368
vt 0.615457 0.552348
vt 0.328255 0.531650
vt 0.295659 0.408530
vt 0.695923 0.581413
vt 0.442916 0.720613
vt 0.630472 0.282826
vt 0.720613 0.304077
vt 0.221408 0.384543
vt 0.282826 0.445619
vt 0.384543 0.368974
vt 0.447652 0.778592
vt 0.418587 0.279387
vt 0.704341 0.557084
vt 0.671745 0.369528
vt 0.291285 0.717174
vt 0.751368 0.615457
vt 0.717174 0.328255
vt 0.279387 0.295659
vt 0.376881 0.695923
vt 0.554381 0.708715
vt 0.631026 0.248632
vt 0.469798 0.221408
vt 0.299651 0.623119
vt 0.470139 0.200275
vt 0.768970 0.564588
vt 0.623119 0.530202
vt 0.200275 0.524297
vt 0.564588 0.769238
vt 0.304077 0.700349
vt 0.778592 0.376881
vt 0.445619 0.529861
vt 0.368974 0.231030
vt 0.557084 0.799725
vt 0.369528 0.435412
vt 0.799725 0.554381
vt 0.435412 0.631026
vt 0.231030 0.469798
vt 0.475703 0.442916
vt 0.230762 0.630472
vt 0.730117 0.299651
vt 0.642923 0.768970
vt 0.357511 0.470139
vt 0.524297 0.269883
vt 0.769238 0.642489
vt 0.530202 0.357077
vt 0.700349 0.475703
vt 0.529861 0.230762
vt 0.357077 0.730117
vt 0.642489 0.642923
vt 0.269883 0.357511
s 0
usemtl Shape.005
f 105/105/1 6/6/1 1/1/1
f 105/105/1 1/1/1 2/2/1
f 105/105/1 2/2/1 3/3/1
f 105/105/1 3/3/1 4/4/1
f 105/105/1 4/4/1 5/5/1
f 105/105/1 5/5/1 6/6/1
f 106/106/2 1/1/2 6/6/2
f 106/106/2 6/6/2 7/7/2
f 106/106/2 7/7/2 8/8/2
f 106/106/2 8/8/2 9/9/2
f 106/106/2 9/9/2 10/10/2
f 106/106/2 10/10/2 1/1/2
f 107/107/3 2/2/3 1/1/3
f 107/107/3 1/1/3 10/10/3
f 107/107/3 10/10/3 11/11/3
f 107/107/3 11/11/3 12/12/3
f 107/107/3 12/12/3 13/13/3
f 107/107/3 13/13/3 2/2/3
f 108/108/4 3/3/4 2/2/4
f 108/108/4 2/2/4 14/14/4
f 108/108/4 14/14/4 15/15/4
f 108/108/4 15/15/4 16/16/4
f 108/108/4 16/16/4 17/17/4
f 108/108/4 17/17/4 3/3/4
f 109/109/5 4/4/5 3/3/5
f 109/109/5 3/3/5 17/17/5
f 109/109/5 17/17/5 18/18/5
f 109/109/5 18/18/5 19/19/5
f 109/109/5 19/19/5 20/20/5
f 109/109/5 20/20/5 4/4/5
f 110/110/6 5/5/6 4/4/6
f 110/110/6 4/4/6 21/21/6
f 110/110/6 21/21/6 22/22/6
f 110/110/6 22/22/6 23/23/6
f 110/110/6 23/23/6 24/24/6
f 110/110/6 24/24/6 5/5/6
f 111/111/7 6/6/7 5/5/7
f 111/111/7 5/5/7 24/24/7
f 111/111/7 24/24/7 25/25/7
f 111/111/7 25/25/7 26/26/7
f 111/111/7 26/26/7 7/7/7
f 111/111/7 7/7/7 6/6/7
f 112/112/8 8/8/8 7/7/8
f 112/112/8 7/7/8 26/26/8
f 112/112/8 26/26/8 18/18/8
f 112/112/8 18/18/8 17/17/8
f 112/112/8 17/17/8 16/16/8
f 112/112/8 16/16/8 8/8/8
f 113/113/9 9/9/9 8/8/9
f 113/113/9 8/8/9 27/27/9
f 113/113/9 27/27/9 28/28/9
f 113/113/9 28/28/9 23/23/9
f 113/113/9 23/23/9 22/22/9
f 113/113/9 22/22/9 9/9/9
f 114/114/10 10/10/10 9/9/10
f 114/114/10 9/9/10 22/22/10
f 114/114/10 22/22/10 21/21/10
f 114/114/10 21/21/10 29/29/10
f 114/114/10 29/29/10 30/30/10
f 114/114/10 30/30/10 10/10/10
f 115/115/11 11/11/11 10/10/11
f 115/115/11 10/10/11 31/31/11
f 115/115/11 31/31/11 32/32/11
f 115/115/11 32/32/11 33/33/11
f 115/115/11 33/33/11 34/34/11
f 115/115/11 34/34/11 11/11/11
f 116/116/12 12/12/12 11/11/12
f 116/116/12 11/11/12 34/34/12
f 116/116/12 34/34/12 35/35/12
f 116/116/12 35/35/12 26/26/12
f 116/116/12 26/26/12 25/25/12
f 116/116/12 25/25/12 12/12/12
f 117/117/13 13/13/13 12/12/13
f 117/117/13 12/12/13 25/25/13
f 117/117/13 25/25/13 24/24/13
f 117/117/13 24/24/13 36/36/13
f 117/117/13 36/36/13 37/37/13
f 117/117/13 37/37/13 13/13/13
f 118/118/14 2/2/14 13/13/14
f 118/118/14 13/13/14 37/37/14
f 118/118/14 37/37/14 38/38/14
f 118/118/14 38/38/14 39/39/14
f 118/118/14 39/39/14 40/40/14
f 118/118/14 40/40/14 2/2/14
f 119/119/15 14/14/15 2/2/15
f 119/119/15 2/2/15 40/40/15
f 119/119/15 40/40/15 41/41/15
f 119/119/15 41/41/15 42/42/15
f 119/119/15 42/42/15 43/43/15
f 119/119/15 43/43/15 14/14/15
f 120/120/16 15/15/16 14/14/16
f 120/120/16 14/14/16 43/43/16
f 120/120/16 43/43/16 44/44/16
f 120/120/16 44/44/16 45/45/16
f 120/120/16 45/45/16 46/46/16
f 120/120/16 46/46/16 15/15/16
f 121/121/17 16/16/17 15/15/17
f 121/121/17 15/15/17 47/47/17
f 121/121/17 47/47/17 48/48/17
f 121/121/17 48/48/17 49/49/17
f 121/121/17 49/49/17 8/8/17
f 121/121/17 8/8/17 16/16/17
f 122/122/18 19/19/18 18/18/18
f 122/122/18 18/18/18 26/26/18
f 122/122/18 26/26/18 44/44/18
f 122/122/18 44/44/18 43/43/18
f 122/122/18 43/43/18 42/42/18
f 122/122/18 42/42/18 19/19/18
f 123/123/19 20/20/19 19/19/19
f 123/123/20 19/19/20 50/50/20
f 123/123/20 50/50/20 51/51/20
f 123/123/20 51/51/20 49/49/20
f 123/123/20 49/49/20 48/48/20
f 123/123/20 48/48/20 20/20/20
f 124/124/21 4/4/21 20/20/21
f 124/124/21 20/20/21 48/48/21
f 124/124/21 48/48/21 47/47/21
f 124/124/21 47/47/21 52/52/21
f 124/124/21 52/52/21 53/53/21
f 124/124/21 53/53/21 4/4/21
f 125/125/22 21/21/22 4/4/22
f 125/125/22 4/4/22 53/53/22
f 125/125/22 53/53/22 54/54/22
f 125/125/22 54/54/22 55/55/22
f 125/125/22 55/55/22 29/29/22
f 125/125/22 29/29/22 21/21/22
f 126/126/23 24/24/23 23/23/23
f 126/126/23 23/23/23 28/28/23
f 126/126/23 28/28/23 56/56/23
f 126/126/23 56/56/23 57/57/23
f 126/126/23 57/57/23 58/58/23
f 126/126/23 58/58/23 24/24/23
f 127/127/24 27/27/24 8/8/24
f 127/127/24 8/8/24 49/49/24
f 127/127/24 49/49/24 51/51/24
f 127/127/24 51/51/24 55/55/24
f 127/127/24 55/55/24 54/54/24
f 127/127/24 54/54/24 27/27/24
f 128/128/25 28/28/25 27/27/25
f 128/128/25 27/27/25 54/54/25
f 128/128/25 54/54/25 53/53/25
f 128/128/25 53/53/25 52/52/25
f 128/128/25 52/52/25 59/59/25
f 128/128/25 59/59/25 28/28/25
f 129/129/26 30/30/26 29/29/26
f 129/129/27 29/29/27 60/60/27
f 129/129/27 60/60/27 61/61/27
f 129/129/27 61/61/27 58/58/27
f 129/129/27 58/58/27 57/57/27
f 129/129/27 57/57/27 30/30/27
f 130/130/28 10/10/28 30/30/28
f 130/130/28 30/30/28 57/57/28
f 130/130/28 57/57/28 56/56/28
f 130/130/28 56/56/28 62/62/28
f 130/130/28 62/62/28 31/31/28
f 130/130/28 31/31/28 10/10/28
f 131/131/29 32/32/29 31/31/29
f 131/131/29 31/31/29 62/62/29
f 131/131/29 62/62/29 63/63/29
f 131/131/29 63/63/29 37/37/29
f 131/131/29 37/37/29 36/36/29
f 131/131/29 36/36/29 32/32/29
f 132/132/30 33/33/30 32/32/30
f 132/132/30 32/32/30 36/36/30
f 132/132/30 36/36/30 24/24/30
f 132/132/30 24/24/30 58/58/30
f 132/132/30 58/58/30 61/61/30
f 132/132/30 61/61/30 33/33/30
f 133/133/31 34/34/31 33/33/31
f 133/133/32 33/33/32 61/61/32
f 133/133/32 61/61/32 64/64/32
f 133/133/32 64/64/32 65/65/32
f 133/133/32 65/65/32 66/66/32
f 133/133/31 66/66/31 34/34/31
f 134/134/33 35/35/33 34/34/33
f 134/134/34 34/34/34 67/67/34
f 134/134/34 67/67/34 41/41/34
f 134/134/34 41/41/34 40/40/34
f 134/134/34 40/40/34 39/39/34
f 134/134/34 39/39/34 35/35/34
f 135/135/35 26/26/35 35/35/35
f 135/135/35 35/35/35 39/39/35
f 135/135/35 39/39/35 38/38/35
f 135/135/35 38/38/35 45/45/35
f 135/135/35 45/45/35 44/44/35
f 135/135/35 44/44/35 26/26/35
f 136/136/36 38/38/36 37/37/36
f 136/136/36 37/37/36 68/68/36
f 136/136/36 68/68/36 69/69/36
f 136/136/36 69/69/36 70/70/36
f 136/136/36 70/70/36 45/45/36
f 136/136/36 45/45/36 38/38/36
f 137/137/37 42/42/37 41/41/37
f 137/137/37 41/41/37 71/71/37
f 137/137/37 71/71/37 72/72/37
f 137/137/37 72/72/37 73/73/37
f 137/137/38 73/73/38 19/19/38
f 137/137/38 19/19/38 42/42/38
f 138/138/39 46/46/39 45/45/39
f 138/138/39 45/45/39 74/74/39
f 138/138/40 74/74/40 75/75/40
f 138/138/39 75/75/39 73/73/39
f 138/138/39 73/73/39 72/72/39
f 138/138/39 72/72/39 46/46/39
f 139/139/41 15/15/41 46/46/41
f 139/139/41 46/46/41 72/72/41
f 139/139/41 72/72/41 71/71/41
f 139/139/41 71/71/41 76/76/41
f 139/139/41 76/76/41 77/77/41
f 139/139/41 77/77/41 15/15/41
f 140/140/42 47/47/42 15/15/42
f 140/140/42 15/15/42 77/77/42
f 140/140/42 77/77/42 78/78/42
f 140/140/42 78/78/42 79/79/42
f 140/140/42 79/79/42 52/52/42
f 140/140/42 52/52/42 47/47/42
f 141/141/43 50/50/43 19/19/43
f 141/141/43 19/19/43 73/73/43
f 141/141/43 73/73/43 75/75/43
f 141/141/43 75/75/43 79/79/43
f 141/141/43 79/79/43 78/78/43
f 141/141/43 78/78/43 50/50/43
f 142/142/44 51/51/44 50/50/44
f 142/142/44 50/50/44 78/78/44
f 142/142/44 78/78/44 77/77/44
f 142/142/44 77/77/44 76/76/44
f 142/142/44 76/76/44 80/80/44
f 142/142/44 80/80/44 51/51/44
f 143/143/45 29/29/45 55/55/45
f 143/143/46 55/55/46 51/51/46
f 143/143/46 51/51/46 81/81/46
f 143/143/46 81/81/46 82/82/46
f 143/143/46 82/82/46 83/83/46
f 143/143/46 83/83/46 29/29/46
f 144/144/47 56/56/47 28/28/47
f 144/144/47 28/28/47 84/84/47
f 144/144/47 84/84/47 85/85/47
f 144/144/47 85/85/47 86/86/47
f 144/144/47 86/86/47 62/62/47
f 144/144/47 62/62/47 56/56/47
f 145/145/48 59/59/48 52/52/48
f 145/145/48 52/52/48 87/87/48
f 145/145/49 87/87/49 88/88/49
f 145/145/48 88/88/48 83/83/48
f 145/145/48 83/83/48 82/82/48
f 145/145/48 82/82/48 59/59/48
f 146/146/50 28/28/50 59/59/50
f 146/146/50 59/59/50 82/82/50
f 146/146/50 82/82/50 81/81/50
f 146/146/50 81/81/50 89/89/50
f 146/146/50 89/89/50 84/84/50
f 146/146/50 84/84/50 28/28/50
f 147/147/51 60/60/51 29/29/51
f 147/147/51 29/29/51 83/83/51
f 147/147/51 83/83/51 88/88/51
f 147/147/51 88/88/51 86/86/51
f 147/147/51 86/86/51 85/85/51
f 147/147/51 85/85/51 60/60/51
f 148/148/52 61/61/52 60/60/52
f 148/148/52 60/60/52 85/85/52
f 148/148/52 85/85/52 84/84/52
f 148/148/52 84/84/52 89/89/52
f 148/148/52 89/89/52 90/90/52
f 148/148/52 90/90/52 61/61/52
f 149/149/53 63/63/53 62/62/53
f 149/149/53 62/62/53 91/91/53
f 149/149/54 91/91/54 92/92/54
f 149/149/54 92/92/54 66/66/54
f 149/149/53 66/66/53 65/65/53
f 149/149/53 65/65/53 63/63/53
f 150/150/55 37/37/55 63/63/55
f 150/150/55 63/63/55 65/65/55
f 150/150/55 65/65/55 64/64/55
f 150/150/55 64/64/55 93/93/55
f 150/150/55 93/93/55 68/68/55
f 150/150/55 68/68/55 37/37/55
f 151/151/56 64/64/56 61/61/56
f 151/151/56 61/61/56 90/90/56
f 151/151/56 90/90/56 94/94/56
f 151/151/56 94/94/56 95/95/56
f 151/151/57 95/95/57 93/93/57
f 151/151/56 93/93/56 64/64/56
f 152/152/58 34/34/58 66/66/58
f 152/152/58 66/66/58 92/92/58
f 152/152/58 92/92/58 70/70/58
f 152/152/58 70/70/58 69/69/58
f 152/152/58 69/69/58 67/67/58
f 152/152/58 67/67/58 34/34/58
f 153/153/59 41/41/59 67/67/59
f 153/153/59 67/67/59 69/69/59
f 153/153/59 69/69/59 68/68/59
f 153/153/59 68/68/59 93/93/59
f 153/153/59 93/93/59 96/96/59
f 153/153/59 96/96/59 41/41/59
f 154/154/60 45/45/60 70/70/60
f 154/154/60 70/70/60 92/92/60
f 154/154/60 92/92/60 97/97/60
f 154/154/60 97/97/60 98/98/60
f 154/154/60 98/98/60 74/74/60
f 154/154/60 74/74/60 45/45/60
f 155/155/61 71/71/61 41/41/61
f 155/155/61 41/41/61 96/96/61
f 155/155/61 96/96/61 98/98/61
f 155/155/61 98/98/61 97/97/61
f 155/155/62 97/97/62 76/76/62
f 155/155/61 76/76/61 71/71/61
f 156/156/63 75/75/63 74/74/63
f 156/156/63 74/74/63 98/98/63
f 156/156/63 98/98/63 96/96/63
f 156/156/63 96/96/63 93/93/63
f 156/156/64 93/93/64 99/99/64
f 156/156/63 99/99/63 75/75/63
f 157/157/65 52/52/65 79/79/65
f 157/157/65 79/79/65 75/75/65
f 157/157/65 75/75/65 100/100/65
f 157/157/65 100/100/65 101/101/65
f 157/157/65 101/101/65 87/87/65
f 157/157/65 87/87/65 52/52/65
f 158/158/66 80/80/66 76/76/66
f 158/158/67 76/76/67 102/102/67
f 158/158/66 102/102/66 88/88/66
f 158/158/66 88/88/66 87/87/66
f 158/158/66 87/87/66 101/101/66
f 158/158/66 101/101/66 80/80/66
f 159/159/68 51/51/68 80/80/68
f 159/159/68 80/80/68 101/101/68
f 159/159/68 101/101/68 100/100/68
f 159/159/69 100/100/69 89/89/69
f 159/159/68 89/89/68 81/81/68
f 159/159/68 81/81/68 51/51/68
f 160/160/70 62/62/70 86/86/70
f 160/160/70 86/86/70 88/88/70
f 160/160/70 88/88/70 95/95/70
f 160/160/70 95/95/70 94/94/70
f 160/160/70 94/94/70 91/91/70
f 160/160/70 91/91/70 62/62/70
f 161/161/71 90/90/71 89/89/71
f 161/161/72 89/89/72 103/103/72
f 161/161/71 103/103/71 92/92/71
f 161/161/71 92/92/71 91/91/71
f 161/161/71 91/91/71 94/94/71
f 161/161/71 94/94/71 90/90/71
f 162/162/73 93/93/73 95/95/73
f 162/162/73 95/95/73 88/88/73
f 162/162/73 88/88/73 102/102/73
f 162/162/73 102/102/73 104/104/73
f 162/162/74 104/104/74 99/99/74
f 162/162/74 99/99/74 93/93/74
f 163/163/75 97/97/75 92/92/75
f 163/163/75 92/92/75 103/103/75
f 163/163/75 103/103/75 104/104/75
f 163/163/76 104/104/76 102/102/76
f 163/163/76 102/102/76 76/76/76
f 163/163/75 76/76/75 97/97/75
f 164/164/77 75/75/77 99/99/77
f 164/164/77 99/99/77 104/104/77
f 164/164/78 104/104/78 103/103/78
f 164/164/78 103/103/78 89/89/78
f 164/164/77 89/89/77 100/100/77
f 164/164/77 100/100/77 75/75/77
