# Blender 3.1.0
# www.blender.org
mtllib small_icosacronic_hexecontahedron.mtl
o Shape_IndexedFaceSet
v -0.290446 0.618034 -0.956891
v 0.261661 0.160358 -0.956891
v 0.418846 -0.539345 -0.956891
v -0.290446 -0.177998 -0.956891
v -0.880068 -0.539345 -0.562630
v -0.749403 0.160358 -0.650002
v 0.425796 0.686023 -0.616241
v 0.931174 0.078689 -0.713225
v 0.492807 0.793989 -0.713225
v 0.804554 0.067989 -0.616241
v -0.197296 -0.740536 -0.650002
v -1.170510 0.078689 -0.075297
v -0.696495 0.686023 -0.275591
v -1.011350 0.067989 -0.065058
v -0.806108 0.793989 -0.318964
v 0.361892 -0.466005 -0.826775
v -0.336156 -0.206011 -1.107490
v 0.461222 1.078690 0.075297
v 0.846753 0.518928 -0.153445
v -0.104145 0.938749 -0.343113
v 1.170510 -0.078689 0.075297
v 0.789183 -0.518928 -0.343113
v -0.250952 0.533995 -0.826775
v 0.341552 -1.078690 -0.318964
v -0.398506 -0.932011 -0.065058
v 0.295108 -0.932011 -0.275591
v -0.461222 -1.078690 -0.075297
v -0.760398 -0.466005 -0.486125
v -0.789183 0.518928 0.343113
v -0.341552 1.078690 0.318964
v -0.846753 -0.518928 0.153445
v -0.931174 -0.078689 0.713225
v 0.760398 0.466005 0.486125
v 0.880068 0.539345 0.562630
v 1.011350 -0.067989 0.065058
v -0.295108 0.932011 0.275591
v 0.696495 -0.686023 0.275591
v 0.806108 -0.793989 0.318964
v 0.398506 0.932011 0.065058
v 0.104145 -0.938749 0.343113
v -0.492807 -0.793989 0.713225
v -0.361892 0.466005 0.826775
v -0.804554 -0.067989 0.616241
v -0.418846 0.539345 0.956891
v -0.425796 -0.686023 0.616241
v 0.336156 0.206011 1.107490
v 0.749403 -0.160358 0.650002
v 0.197296 0.740536 0.650002
v 0.290446 -0.618034 0.956891
v 0.250952 -0.533995 0.826775
v -0.261661 -0.160358 0.956891
v 0.290446 0.177998 0.956891
vn -0.0000 -0.0000 -1.0000
vn -0.5559 -0.0000 -0.8313
vn 0.3547 0.4279 -0.8313
vn 0.5423 0.1218 -0.8313
vn -0.2523 -0.4953 -0.8313
vn -0.7570 0.4279 -0.4938
vn -0.9129 0.1218 -0.3896
vn 0.3231 -0.1426 -0.9356
vn 0.6764 0.6251 -0.3896
vn 0.1536 0.8559 -0.4938
vn 0.8324 -0.2516 -0.4938
vn 0.8640 0.3190 -0.3896
vn 0.0196 0.3526 -0.9356
vn -0.3058 -0.8687 -0.3896
vn 0.0377 -0.8687 -0.4938
vn -0.7886 -0.1426 -0.5981
vn -0.7788 0.6251 0.0521
vn -0.4022 0.8559 -0.3251
vn -0.9664 -0.2516 0.0521
vn -0.9348 0.3190 0.1564
vn -0.5363 0.3526 -0.7668
vn 0.6131 -0.5161 -0.5981
vn 0.0708 -0.6379 -0.7668
vn 0.8421 0.5161 0.1564
vn 0.9664 0.2516 -0.0521
vn -0.2034 0.9777 -0.0521
vn 0.7788 -0.6251 -0.0521
vn 0.5800 -0.7469 -0.3251
vn 0.6629 0.7469 -0.0521
vn -0.1815 0.7806 -0.5981
vn -0.1401 -0.9777 0.1564
vn -0.6629 -0.7469 0.0521
vn 0.2034 -0.9777 0.0521
vn -0.4851 -0.6379 -0.5981
vn -0.8421 -0.5161 -0.1564
vn -0.6131 0.5161 0.5981
vn -0.8324 0.2516 0.4938
vn 0.1401 0.9777 -0.1564
vn -0.6764 -0.6251 0.3896
vn -0.5800 0.7469 0.3251
vn 0.9348 -0.3190 -0.1564
vn 0.7886 0.1426 0.5981
vn 0.4851 0.6379 0.5981
vn 0.9129 -0.1218 0.3896
vn -0.0377 0.8687 0.4938
vn 0.4022 -0.8559 0.3251
vn 0.7570 -0.4279 0.4938
vn 0.3058 0.8687 0.3896
vn 0.1815 -0.7806 0.5981
vn -0.8640 -0.3190 0.3896
vn -0.1536 -0.8559 0.4938
vn -0.3231 0.1426 0.9356
vn -0.0708 0.6379 0.7668
vn -0.5423 -0.1218 0.8313
vn -0.3547 -0.4279 0.8313
vn 0.5363 -0.3526 0.7668
vn 0.5559 -0.0000 0.8313
vn 0.2523 0.4953 0.8313
vn -0.0196 -0.3526 0.9356
vn -0.0000 -0.0000 1.0000
vt 0.624068 0.932009
vt 0.388228 0.932009
vt 0.321084 0.932009
vt 0.624068 0.932009
vt 0.875934 0.754011
vt 0.820118 0.793457
vt 0.318115 0.778215
vt 0.102236 0.822001
vt 0.289490 0.822001
vt 0.156323 0.778215
vt 0.584278 0.793457
vt 1.000000 0.533994
vt 0.797518 0.624421
vt 0.932013 0.529372
vt 0.844341 0.644003
vt 0.345413 0.873265
vt 0.643594 1.000000
vt 0.302982 0.466006
vt 0.138297 0.569276
vt 0.544487 0.654906
vt 0.000000 0.466006
vt 0.162889 0.654906
vt 0.607198 0.873265
vt 0.354101 0.644003
vt 0.670228 0.529372
vt 0.373940 0.624421
vt 0.697018 0.533994
vt 0.824815 0.719472
vt 0.837111 0.345094
vt 0.645899 0.355997
vt 0.861703 0.430724
vt 0.897764 0.177999
vt 0.175185 0.280528
vt 0.124066 0.245989
vt 0.067987 0.470628
vt 0.626060 0.375579
vt 0.202482 0.375579
vt 0.155659 0.355997
vt 0.329773 0.470628
vt 0.455513 0.345094
vt 0.710510 0.177999
vt 0.654587 0.126735
vt 0.843677 0.221785
vt 0.678916 0.067991
vt 0.681885 0.221785
vt 0.356406 0.000000
vt 0.179882 0.206543
vt 0.415722 0.206543
vt 0.375932 0.067991
vt 0.392802 0.126735
vt 0.611772 0.067991
vt 0.375932 0.067991
s 0
usemtl Shape.009
f 4/4/1 1/1/1 2/2/1 3/3/1
f 4/4/2 5/5/2 6/6/2 1/1/2
f 1/1/3 7/7/3 8/8/3 2/2/3
f 2/2/4 9/9/4 10/10/4 3/3/4
f 3/3/5 11/11/5 5/5/5 4/4/5
f 1/1/6 6/6/6 12/12/6 13/13/6
f 6/6/7 5/5/7 14/14/7 15/15/7
f 2/2/8 8/8/8 16/16/8 17/17/8
f 8/8/9 7/7/9 18/18/9 19/19/9
f 7/7/10 1/1/10 20/20/10 18/18/10
f 3/3/11 10/10/11 21/21/11 22/22/11
f 10/10/12 9/9/12 19/19/12 21/21/12
f 9/9/13 2/2/13 17/17/13 23/23/13
f 5/5/14 11/11/14 24/24/14 25/25/14
f 11/11/15 3/3/15 26/26/15 27/27/15
f 6/6/16 17/17/16 28/28/16 12/12/16
f 12/12/17 29/29/17 30/30/17 13/13/17
f 13/13/18 30/30/18 20/20/18 1/1/18
f 5/5/19 31/31/19 32/32/19 14/14/19
f 14/14/20 32/32/20 29/29/20 15/15/20
f 15/15/21 23/23/21 17/17/21 6/6/21
f 8/8/22 22/22/22 24/24/22 16/16/22
f 16/16/23 24/24/23 11/11/23 17/17/23
f 18/18/24 33/33/24 21/21/24 19/19/24
f 19/19/25 34/34/25 35/35/25 8/8/25
f 20/20/26 15/15/26 36/36/26 18/18/26
f 21/21/27 37/37/27 24/24/27 22/22/27
f 22/22/28 38/38/28 26/26/28 3/3/28
f 9/9/29 39/39/29 34/34/29 19/19/29
f 23/23/30 15/15/30 20/20/30 9/9/30
f 24/24/31 40/40/31 41/41/31 25/25/31
f 25/25/32 41/41/32 31/31/32 5/5/32
f 26/26/33 38/38/33 40/40/33 27/27/33
f 27/27/34 28/28/34 17/17/34 11/11/34
f 12/12/35 28/28/35 27/27/35 31/31/35
f 30/30/36 29/29/36 32/32/36 42/42/36
f 29/29/37 12/12/37 43/43/37 44/44/37
f 20/20/38 30/30/38 39/39/38 9/9/38
f 32/32/39 31/31/39 27/27/39 45/45/39
f 15/15/40 29/29/40 44/44/40 36/36/40
f 22/22/41 8/8/41 35/35/41 38/38/41
f 21/21/42 33/33/42 46/46/42 47/47/42
f 33/33/43 18/18/43 48/48/43 46/46/43
f 35/35/44 34/34/44 47/47/44 38/38/44
f 18/18/45 36/36/45 44/44/45 48/48/45
f 24/24/46 37/37/46 49/49/46 40/40/46
f 37/37/47 21/21/47 47/47/47 49/49/47
f 34/34/48 39/39/48 30/30/48 48/48/48
f 41/41/49 40/40/49 38/38/49 50/50/49
f 31/31/50 41/41/50 43/43/50 12/12/50
f 27/27/51 40/40/51 49/49/51 45/45/51
f 32/32/52 51/51/52 46/46/52 42/42/52
f 42/42/53 46/46/53 48/48/53 30/30/53
f 43/43/54 41/41/54 51/51/54 44/44/54
f 45/45/55 49/49/55 51/51/55 32/32/55
f 46/46/56 50/50/56 38/38/56 47/47/56
f 34/34/57 52/52/57 49/49/57 47/47/57
f 44/44/58 52/52/58 34/34/58 48/48/58
f 50/50/59 46/46/59 51/51/59 41/41/59
f 44/44/60 51/51/60 49/49/60 52/52/60
