# Blender 3.1.0
# www.blender.org
mtllib small_dodecicosacron.mtl
o Shape_IndexedFaceSet
v -0.290446 2.618030 -0.956891
v 0.418846 -0.539345 -0.956891
v 2.200920 -1.447210 -0.956891
v -0.290446 0.618034 -0.956891
v -2.361470 -1.447210 0.427935
v -0.880068 -0.539345 -0.562630
v 0.492807 0.793989 -0.713225
v -0.550229 -2.065250 -1.812760
v 0.931174 0.078689 -0.713225
v -2.089980 0.447214 -1.812760
v -0.806108 0.793989 -0.318964
v 0.729735 0.447214 -2.668630
v -1.170510 0.078689 -0.075297
v 1.170510 -0.078689 0.075297
v 2.089980 -0.447214 1.812760
v 2.361470 1.447210 -0.427935
v -0.336156 -0.206011 -1.107490
v 0.341552 -1.078690 -0.318964
v -0.461222 -1.078690 -0.075297
v 0.461222 1.078690 0.075297
v 0.550229 2.065250 1.812760
v -0.729735 -0.447214 2.668630
v -0.931174 -0.078689 0.713225
v -2.200920 1.447210 0.956891
v -0.341552 1.078690 0.318964
v 0.806108 -0.793989 0.318964
v 0.880068 0.539345 0.562630
v -0.492807 -0.793989 0.713225
v 0.290446 -2.618030 0.956891
v -0.418846 0.539345 0.956891
v 0.290446 -0.618034 0.956891
v 0.336156 0.206011 1.107490
v 0.261661 0.160358 -0.956891
v -0.197296 -0.740536 -0.650002
v -0.749403 0.160358 -0.650002
v 0.789183 -0.518928 -0.343113
v -0.104145 0.938749 -0.343113
v -0.846753 -0.518928 0.153445
v -0.789183 0.518928 0.343113
v 0.846753 0.518928 -0.153445
v 0.104145 -0.938749 0.343113
v 0.197296 0.740536 0.650002
v -0.261661 -0.160358 0.956891
v 0.749403 -0.160358 0.650002
vn -0.0000 -0.0000 -1.0000
vn -0.5559 -0.0000 -0.8313
vn 0.5423 0.1218 -0.8313
vn -0.2523 -0.4953 -0.8313
vn 0.3547 0.4279 -0.8313
vn -0.9129 0.1218 -0.3896
vn -0.7570 0.4279 -0.4938
vn 0.8323 -0.2516 -0.4938
vn 0.8324 -0.2516 -0.4938
vn 0.0196 0.3526 -0.9356
vn 0.8640 0.3190 -0.3896
vn -0.3058 -0.8687 -0.3896
vn 0.0377 -0.8687 -0.4938
vn 0.1536 0.8559 -0.4938
vn 0.3231 -0.1426 -0.9356
vn 0.6764 0.6251 -0.3896
vn -0.9664 -0.2516 0.0521
vn -0.5363 0.3526 -0.7668
vn -0.9348 0.3190 0.1564
vn -0.4022 0.8559 -0.3251
vn -0.7886 -0.1426 -0.5981
vn -0.7886 -0.1427 -0.5981
vn -0.7788 0.6251 0.0521
vn 0.7788 -0.6251 -0.0521
vn 0.5800 -0.7469 -0.3251
vn -0.1815 0.7806 -0.5981
vn 0.8421 0.5161 0.1564
vn 0.6629 0.7469 -0.0521
vn -0.6629 -0.7469 0.0521
vn 0.0708 -0.6379 -0.7668
vn -0.1401 -0.9777 0.1564
vn -0.4851 -0.6379 -0.5981
vn 0.2034 -0.9777 0.0521
vn -0.2034 0.9777 -0.0521
vn 0.6131 -0.5161 -0.5981
vn 0.9664 0.2516 -0.0521
vn -0.6764 -0.6251 0.3896
vn -0.6131 0.5161 0.5981
vn -0.5800 0.7469 0.3251
vn 0.1401 0.9777 -0.1564
vn -0.8421 -0.5161 -0.1564
vn -0.8323 0.2516 0.4938
vn -0.8324 0.2516 0.4938
vn 0.7570 -0.4279 0.4938
vn 0.4022 -0.8559 0.3251
vn 0.9348 -0.3190 -0.1564
vn 0.7886 0.1427 0.5981
vn 0.7886 0.1426 0.5981
vn 0.4851 0.6379 0.5981
vn 0.3058 0.8687 0.3896
vn -0.8640 -0.3190 0.3896
vn 0.1815 -0.7806 0.5981
vn -0.1536 -0.8559 0.4938
vn -0.0377 0.8687 0.4938
vn 0.9129 -0.1218 0.3896
vn -0.3547 -0.4279 0.8313
vn -0.3231 0.1426 0.9356
vn -0.0708 0.6379 0.7668
vn -0.5423 -0.1218 0.8313
vn 0.5559 -0.0000 0.8313
vn 0.5363 -0.3526 0.7668
vn 0.2523 0.4953 0.8313
vn -0.0196 -0.3526 0.9356
vn -0.0000 -0.0000 1.0000
vt 0.679285 1.000000
vt 0.679285 0.396994
vt 0.679285 0.223607
vt 0.679285 0.618034
vt 0.419821 0.223607
vt 0.605416 0.396994
vt 0.633631 0.651639
vt 0.839642 0.105572
vt 0.633631 0.515028
vt 0.839642 0.585410
vt 0.559762 0.651639
vt 1.000000 0.585410
vt 0.514108 0.515028
vt 0.485892 0.484972
vt 0.160358 0.414590
vt 0.580179 0.776393
vt 0.707502 0.460655
vt 0.559762 0.293988
vt 0.514108 0.293988
vt 0.485892 0.706012
vt 0.160358 0.894428
vt 0.000000 0.414590
vt 0.366369 0.484972
vt 0.320715 0.776393
vt 0.440238 0.706012
vt 0.440238 0.348361
vt 0.394584 0.603006
vt 0.366369 0.348361
vt 0.320715 0.000000
vt 0.320715 0.603006
vt 0.320715 0.381966
vt 0.292498 0.539345
vt 0.679285 0.530626
vt 0.621786 0.358570
vt 0.621786 0.530626
vt 0.564286 0.400893
vt 0.564286 0.679285
vt 0.471250 0.400893
vt 0.435714 0.599107
vt 0.528750 0.599107
vt 0.435714 0.320715
vt 0.378214 0.641430
vt 0.320715 0.469374
vt 0.378214 0.469374
s 0
usemtl Shape.010
f 4/4/1 1/1/1 33/33/1
f 33/33/1 3/3/1 2/2/1
f 35/35/2 1/1/2 4/4/2
f 35/35/2 6/6/2 5/5/2
f 1/1/3 7/7/3 33/33/3
f 33/33/3 2/2/3 8/8/3
f 2/2/4 3/3/4 34/34/4
f 5/5/4 6/6/4 34/34/4
f 33/33/5 9/9/5 3/3/5
f 10/10/5 4/4/5 33/33/5
f 35/35/6 11/11/6 1/1/6
f 35/35/6 8/8/6 6/6/6
f 5/5/7 13/13/7 35/35/7
f 4/4/7 12/12/7 35/35/7
f 36/36/8 8/8/8 2/2/8
f 14/14/9 15/15/9 36/36/9
f 8/8/10 17/17/10 33/33/10
f 7/7/10 16/16/10 33/33/10
f 7/7/11 1/1/11 40/40/11
f 40/40/11 15/15/11 14/14/11
f 3/3/12 18/18/12 34/34/12
f 6/6/12 10/10/12 34/34/12
f 34/34/13 19/19/13 5/5/13
f 34/34/13 12/12/13 2/2/13
f 4/4/14 10/10/14 37/37/14
f 37/37/14 21/21/14 20/20/14
f 33/33/15 17/17/15 10/10/15
f 33/33/15 16/16/15 9/9/15
f 40/40/16 3/3/16 9/9/16
f 20/20/16 21/21/16 40/40/16
f 6/6/17 8/8/17 38/38/17
f 22/22/17 23/23/17 38/38/17
f 35/35/18 17/17/18 8/8/18
f 24/24/18 11/11/18 35/35/18
f 39/39/19 1/1/19 11/11/19
f 39/39/19 23/23/19 22/22/19
f 37/37/20 12/12/20 4/4/20
f 37/37/20 25/25/20 21/21/20
f 12/12/21 17/17/21 35/35/21
f 35/35/22 13/13/22 24/24/22
f 13/13/23 5/5/23 39/39/23
f 21/21/23 25/25/23 39/39/23
f 36/36/24 18/18/24 8/8/24
f 16/16/24 14/14/24 36/36/24
f 15/15/25 26/26/25 36/36/25
f 36/36/25 2/2/25 12/12/25
f 37/37/26 16/16/26 7/7/26
f 37/37/26 11/11/26 24/24/26
f 1/1/27 20/20/27 40/40/27
f 40/40/27 14/14/27 3/3/27
f 40/40/28 27/27/28 15/15/28
f 12/12/28 7/7/28 40/40/28
f 38/38/29 10/10/29 6/6/29
f 38/38/29 28/28/29 22/22/29
f 10/10/30 17/17/30 34/34/30
f 34/34/30 18/18/30 29/29/30
f 18/18/31 3/3/31 41/41/31
f 22/22/31 28/28/31 41/41/31
f 34/34/32 17/17/32 12/12/32
f 29/29/32 19/19/32 34/34/32
f 41/41/33 5/5/33 19/19/33
f 41/41/33 26/26/33 15/15/33
f 10/10/34 11/11/34 37/37/34
f 37/37/34 20/20/34 16/16/34
f 9/9/35 16/16/35 36/36/35
f 29/29/35 18/18/35 36/36/35
f 21/21/36 27/27/36 40/40/36
f 40/40/36 9/9/36 12/12/36
f 8/8/37 19/19/37 38/38/37
f 23/23/37 24/24/37 38/38/37
f 39/39/38 25/25/38 1/1/38
f 39/39/38 5/5/38 23/23/38
f 22/22/39 30/30/39 39/39/39
f 11/11/39 10/10/39 39/39/39
f 37/37/40 7/7/40 12/12/40
f 37/37/40 24/24/40 25/25/40
f 38/38/41 24/24/41 13/13/41
f 19/19/41 29/29/41 38/38/41
f 39/39/42 30/30/42 21/21/42
f 39/39/43 10/10/43 13/13/43
f 14/14/44 16/16/44 44/44/44
f 44/44/44 22/22/44 31/31/44
f 41/41/45 8/8/45 18/18/45
f 31/31/45 22/22/45 41/41/45
f 12/12/46 9/9/46 36/36/46
f 26/26/46 29/29/46 36/36/46
f 44/44/47 3/3/47 14/14/47
f 32/32/48 22/22/48 44/44/48
f 20/20/49 1/1/49 42/42/49
f 42/42/49 22/22/49 32/32/49
f 42/42/50 15/15/50 27/27/50
f 25/25/50 24/24/50 42/42/50
f 38/38/51 13/13/51 10/10/51
f 38/38/51 29/29/51 28/28/51
f 3/3/52 26/26/52 41/41/52
f 28/28/52 5/5/52 41/41/52
f 15/15/53 31/31/53 41/41/53
f 19/19/53 8/8/53 41/41/53
f 42/42/54 16/16/54 20/20/54
f 30/30/54 22/22/54 42/42/54
f 27/27/55 21/21/55 44/44/55
f 44/44/55 29/29/55 26/26/55
f 43/43/56 24/24/56 23/23/56
f 43/43/56 31/31/56 15/15/56
f 23/23/57 5/5/57 43/43/57
f 15/15/57 32/32/57 43/43/57
f 42/42/58 1/1/58 25/25/58
f 42/42/58 32/32/58 15/15/58
f 43/43/59 21/21/59 30/30/59
f 43/43/59 28/28/59 29/29/59
f 16/16/60 27/27/60 44/44/60
f 44/44/60 31/31/60 29/29/60
f 44/44/61 26/26/61 3/3/61
f 21/21/61 32/32/61 44/44/61
f 24/24/62 30/30/62 42/42/62
f 42/42/62 27/27/62 16/16/62
f 43/43/63 5/5/63 28/28/63
f 43/43/63 32/32/63 21/21/63
f 43/43/64 30/30/64 24/24/64
f 43/43/64 29/29/64 31/31/64
