# Blender v2.93.4 OBJ File: ''
# www.blender.org
mtllib compound_of_truncated_icosahedron_and_dual.mtl
o Shape_IndexedFaceSet_Shape_IndexedFaceSet.027
v -0.000000 -0.000000 -1.021000
v -0.403548 -0.000000 -0.937864
v 0.227464 0.333333 -0.937864
v 0.147123 -0.375774 -0.937864
v -0.579632 0.333333 -0.771593
v -0.505832 -0.375774 -0.803348
v 0.602051 0.290893 -0.771593
v 0.051381 0.666667 -0.771593
v -0.165499 -0.608015 -0.803348
v 0.521710 -0.418215 -0.771593
v -0.858000 0.290893 -0.470806
v -0.352168 0.666667 -0.688458
v -0.784200 -0.418215 -0.502561
v 0.657475 0.597996 -0.502561
v 0.749174 -0.084881 -0.688458
v 0.317142 0.830237 -0.502561
v -0.103533 -0.882697 -0.502561
v 0.583675 -0.692896 -0.470806
v -0.802576 0.597996 -0.201774
v -0.960284 -0.084881 -0.336290
v -0.489955 0.830237 -0.336290
v -0.722234 -0.692896 -0.201774
v 0.860021 0.529326 -0.150394
v 0.951720 -0.153552 -0.336290
v 0.179355 0.993808 -0.150394
v -0.381901 -0.925138 -0.201774
v 0.271054 -0.925138 -0.336290
v 0.849436 -0.529326 -0.201774
v -0.849436 0.529326 0.201774
v -1.007140 -0.153552 0.067258
v -0.224193 0.993808 -0.067258
v -0.860021 -0.529326 0.150394
v 0.722234 0.692896 0.201774
v 1.007140 0.153552 -0.067258
v 0.381901 0.925138 0.201774
v -0.179355 -0.993808 0.150394
v 0.224193 -0.993808 0.067258
v 0.802576 -0.597996 0.201774
v -0.583675 0.692896 0.470806
v -0.951720 0.153552 0.336290
v -0.271054 0.925138 0.336290
v -0.657475 -0.597996 0.502561
v 0.784200 0.418215 0.502561
v 0.960284 0.084881 0.336290
v 0.103533 0.882697 0.502561
v -0.317142 -0.830237 0.502561
v 0.489955 -0.830237 0.336290
v 0.858000 -0.290893 0.470806
v -0.521710 0.418215 0.771593
v -0.749174 0.084881 0.688458
v -0.602051 -0.290893 0.771593
v 0.505832 0.375774 0.803348
v 0.165499 0.608015 0.803348
v -0.051381 -0.666667 0.771593
v 0.352168 -0.666667 0.688458
v 0.579632 -0.333333 0.771593
v -0.147123 0.375774 0.937864
v -0.227464 -0.333333 0.937864
v 0.403548 0.000000 0.937864
v 0.000000 0.000000 1.021000
vt 0.893412 0.582163
vt 0.893412 0.751123
vt 0.959287 0.700344
vt 0.746112 0.342553
vt 0.746112 0.173593
vt 0.877861 0.201109
vt 0.730561 0.925959
vt 0.598812 0.898443
vt 0.664687 0.743241
vt 0.664687 0.027514
vt 0.598812 0.078293
vt 0.730561 0.210231
vt 0.598812 0.858557
vt 0.426350 0.926962
vt 0.467063 1.000000
vt 0.467063 0.388698
vt 0.426350 0.589042
vt 0.598812 0.689597
vt 0.253888 0.110680
vt 0.335313 0.023262
vt 0.532937 0.000000
vt 0.532937 0.611302
vt 0.253888 0.448601
vt 0.401188 0.310403
vt 0.335313 0.972486
vt 0.122139 0.759006
vt 0.269439 0.789769
vt 0.122139 0.212239
vt 0.162851 0.325164
vt 0.335313 0.256759
vt 0.122139 0.525508
vt 0.040713 0.612926
vt 0.122139 0.798891
vt 0.106588 0.417837
vt 0.000000 0.500000
vt 0.040713 0.299656
vt 1.000000 0.500000
vt 0.959287 0.426960
vt 0.959287 0.387074
vt 0.877861 0.474492
vt 0.837149 0.674836
vt 0.877861 0.787761
vt 0.877861 0.240994
vt 0.837149 0.128069
vt 0.664687 0.976738
vt 0.746112 0.889320
vt 0.746112 0.551400
vt 0.664687 0.365434
vt 0.573650 0.073038
vt 0.401188 0.141443
vt 0.573650 0.410958
vt 0.335313 0.634566
vt 0.401188 0.921707
vt 0.162851 0.871931
vt 0.401188 0.101557
vt 0.269439 0.074041
vt 0.253888 0.826407
vt 0.253888 0.657447
vt 0.106588 0.248877
vt 0.040713 0.573040
vn -0.1935 -0.2836 -0.9392
vn 0.3870 0.5671 -0.7271
vn -0.6429 0.5671 -0.5149
vn 0.7624 -0.3919 -0.5149
vn -0.9039 -0.3918 -0.1716
vn -0.0354 -0.9845 -0.1716
vn 0.9039 0.3919 0.1716
vn 0.0354 0.9845 0.1716
vn -0.7624 0.3919 0.5149
vn 0.6429 -0.5671 0.5149
vn -0.3870 -0.5671 0.7271
vn 0.1935 0.2836 0.9392
vn -0.6428 0.5671 -0.5149
vn -0.9039 -0.3919 -0.1716
vn 0.9039 0.3918 0.1716
vn 0.6428 -0.5671 0.5149
usemtl None
s off
f 9/1/1 6/2/1 2/3/1
f 16/4/2 14/5/2 7/6/2
f 11/7/3 19/8/3 21/9/3
f 24/10/4 28/11/4 18/12/4
f 22/13/5 32/14/5 30/15/5
f 37/16/6 36/17/6 26/18/6
f 43/19/7 44/20/7 34/21/7
f 31/22/8 45/23/8 35/24/8
f 40/25/9 49/26/9 39/27/9
f 56/28/10 55/29/10 47/30/10
f 54/31/11 58/32/11 51/33/11
f 53/34/12 60/35/12 59/36/12
f 2/3/1 1/37/1 4/38/1
f 4/38/1 9/1/1 2/3/1
f 7/6/2 3/39/2 8/40/2
f 8/40/2 16/4/2 7/6/2
f 12/41/3 5/42/3 21/9/3
f 5/42/13 11/7/13 21/9/13
f 18/12/4 10/43/4 15/44/4
f 15/44/4 24/10/4 18/12/4
f 20/45/14 13/46/14 30/15/14
f 13/46/14 22/13/14 30/15/14
f 26/18/6 17/47/6 27/48/6
f 27/48/6 37/16/6 26/18/6
f 34/21/15 23/49/15 33/50/15
f 33/50/7 43/19/7 34/21/7
f 35/24/8 25/51/8 31/22/8
f 31/22/8 41/52/8 45/23/8
f 39/27/9 29/53/9 40/25/9
f 40/25/9 50/54/9 49/26/9
f 47/30/10 38/55/10 48/56/10
f 48/56/16 56/28/16 47/30/16
f 51/33/11 42/57/11 46/58/11
f 46/58/11 54/31/11 51/33/11
f 59/36/12 52/59/12 53/34/12
f 53/34/12 57/60/12 60/35/12
o Shape_IndexedFaceSet.001_Shape_IndexedFaceSet.028
v -0.000000 -0.000000 -1.021000
v -0.403548 -0.000000 -0.937864
v 0.227464 0.333333 -0.937864
v 0.147123 -0.375774 -0.937864
v -0.579632 0.333333 -0.771593
v -0.505832 -0.375774 -0.803348
v 0.602051 0.290893 -0.771593
v 0.051381 0.666667 -0.771593
v -0.165499 -0.608015 -0.803348
v 0.521710 -0.418215 -0.771593
v -0.858000 0.290893 -0.470806
v -0.352168 0.666667 -0.688458
v -0.784200 -0.418215 -0.502561
v 0.657475 0.597996 -0.502561
v 0.749174 -0.084881 -0.688458
v 0.317142 0.830237 -0.502561
v -0.103533 -0.882697 -0.502561
v 0.583675 -0.692896 -0.470806
v -0.802576 0.597996 -0.201774
v -0.960284 -0.084881 -0.336290
v -0.489955 0.830237 -0.336290
v -0.722234 -0.692896 -0.201774
v 0.860021 0.529326 -0.150394
v 0.951720 -0.153552 -0.336290
v 0.179355 0.993808 -0.150394
v -0.381901 -0.925138 -0.201774
v 0.271054 -0.925138 -0.336290
v 0.849436 -0.529326 -0.201774
v -0.849436 0.529326 0.201774
v -1.007140 -0.153552 0.067258
v -0.224193 0.993808 -0.067258
v -0.860021 -0.529326 0.150394
v 0.722234 0.692896 0.201774
v 1.007140 0.153552 -0.067258
v 0.381901 0.925138 0.201774
v -0.179355 -0.993808 0.150394
v 0.224193 -0.993808 0.067258
v 0.802576 -0.597996 0.201774
v -0.583675 0.692896 0.470806
v -0.951720 0.153552 0.336290
v -0.271054 0.925138 0.336290
v -0.657475 -0.597996 0.502561
v 0.784200 0.418215 0.502561
v 0.960284 0.084881 0.336290
v 0.103533 0.882697 0.502561
v -0.317142 -0.830237 0.502561
v 0.489955 -0.830237 0.336290
v 0.858000 -0.290893 0.470806
v -0.521710 0.418215 0.771593
v -0.749174 0.084881 0.688458
v -0.602051 -0.290893 0.771593
v 0.505832 0.375774 0.803348
v 0.165499 0.608015 0.803348
v -0.051381 -0.666667 0.771593
v 0.352168 -0.666667 0.688458
v 0.579632 -0.333333 0.771593
v -0.147123 0.375774 0.937864
v -0.227464 -0.333333 0.937864
v 0.403548 0.000000 0.937864
v 0.000000 0.000000 1.021000
vt 0.837149 0.674836
vt 0.877861 0.474492
vt 0.959287 0.387074
vt 0.837149 0.128069
vt 0.959287 0.426960
vt 0.893412 0.751123
vt 0.664687 0.976738
vt 0.877861 0.787761
vt 0.746112 0.551400
vt 0.893412 0.582163
vt 0.877861 0.240994
vt 0.598812 0.858557
vt 0.746112 0.889320
vt 0.532937 0.000000
vt 0.664687 0.027514
vt 0.532937 0.611302
vt 0.573650 0.410958
vt 0.746112 0.342553
vt 0.335313 0.972486
vt 0.401188 0.921707
vt 0.598812 0.898443
vt 0.401188 0.141443
vt 0.573650 0.073038
vt 0.598812 0.078293
vt 0.335313 0.256759
vt 0.664687 0.365434
vt 0.335313 0.634566
vt 0.664687 0.743241
vt 0.253888 0.657447
vt 0.253888 0.826407
vt 0.426350 0.926962
vt 0.401188 0.101557
vt 0.122139 0.798891
vt 0.162851 0.871931
vt 0.106588 0.417837
vt 0.106588 0.248877
vt 0.253888 0.110680
vt 0.122139 0.525508
vt 0.467063 0.388698
vt 0.253888 0.448601
vt 0.122139 0.212239
vt 0.335313 0.023262
vt 0.040713 0.612926
vt 0.040713 0.573040
vt 0.040713 0.299656
vt 0.000000 0.500000
vt 1.000000 0.500000
vt 0.959287 0.700344
vt 0.877861 0.201109
vt 0.730561 0.925959
vt 0.730561 0.210231
vt 0.598812 0.689597
vt 0.746112 0.173593
vt 0.467063 1.000000
vt 0.401188 0.310403
vt 0.269439 0.789769
vt 0.426350 0.589042
vt 0.269439 0.074041
vt 0.162851 0.325164
vt 0.122139 0.759006
vn -0.1885 0.3568 -0.9150
vn 0.4010 -0.0454 -0.9150
vn -0.7300 -0.0454 -0.6820
vn 0.2238 -0.6963 -0.6820
vn -0.4751 -0.6963 -0.5380
vn 0.8613 0.2379 -0.4490
vn -0.0925 0.8887 -0.4490
vn -0.9686 0.2379 -0.0720
vn 0.5563 0.8152 -0.1610
vn 0.5746 -0.8152 -0.0720
vn -0.5746 0.8152 0.0720
vn -0.5563 -0.8152 0.1610
vn 0.9686 -0.2379 0.0720
vn -0.8613 -0.2379 0.4490
vn 0.4751 0.6963 0.5380
vn 0.0925 -0.8887 0.4490
vn -0.2238 0.6963 0.6820
vn 0.7300 0.0454 0.6820
vn -0.4010 0.0454 0.9150
vn 0.1885 -0.3568 0.9150
usemtl None
s off
f 72/61/17 68/62/17 63/63/17
f 63/63/18 75/64/18 64/65/18
f 66/66/19 80/67/19 65/68/19
f 77/69/20 69/70/20 70/71/20
f 82/72/21 73/73/21 69/70/21
f 94/74/22 84/75/22 75/64/22
f 91/76/23 85/77/23 76/78/23
f 100/79/24 89/80/24 79/81/24
f 93/82/25 83/83/25 76/78/25
f 88/84/26 107/85/26 87/86/26
f 89/80/27 101/87/27 81/88/27
f 106/89/28 102/90/28 92/91/28
f 98/92/29 88/84/29 94/74/29
f 111/93/30 110/94/30 100/79/30
f 113/95/31 112/96/31 103/97/31
f 114/98/32 106/89/32 97/99/32
f 113/95/33 105/100/33 101/87/33
f 112/96/34 116/101/34 104/102/34
f 110/94/35 118/103/35 117/104/35
f 119/105/36 120/106/36 118/103/36
f 63/63/17 61/107/17 62/108/17
f 62/108/17 65/68/17 63/63/17
f 65/68/17 72/61/17 63/63/17
f 64/65/18 61/107/18 63/63/18
f 63/63/18 67/109/18 75/64/18
f 75/64/18 70/71/18 64/65/18
f 65/68/19 62/108/19 66/66/19
f 66/66/19 73/73/19 80/67/19
f 80/67/19 71/110/19 65/68/19
f 69/70/20 64/65/20 70/71/20
f 70/71/20 78/111/20 87/86/20
f 87/86/20 77/69/20 70/71/20
f 73/73/21 66/66/21 69/70/21
f 69/70/21 77/69/21 86/112/21
f 86/112/21 82/72/21 69/70/21
f 75/64/22 67/109/22 94/74/22
f 67/109/22 74/113/22 94/74/22
f 74/113/22 83/83/22 94/74/22
f 76/78/23 68/62/23 91/76/23
f 68/62/23 72/61/23 91/76/23
f 72/61/23 81/88/23 91/76/23
f 79/81/24 71/110/24 80/67/24
f 80/67/24 90/114/24 79/81/24
f 90/114/24 100/79/24 79/81/24
f 83/83/25 74/113/25 76/78/25
f 76/78/25 85/77/25 95/115/25
f 95/115/25 93/82/25 76/78/25
f 87/86/26 78/111/26 88/84/26
f 88/84/26 98/92/26 107/85/26
f 107/85/26 97/99/26 87/86/26
f 81/88/27 79/81/27 89/80/27
f 89/80/27 99/116/27 101/87/27
f 101/87/27 91/76/27 81/88/27
f 92/91/28 82/72/28 86/112/28
f 86/112/28 96/117/28 92/91/28
f 96/117/28 106/89/28 92/91/28
f 88/84/29 84/75/29 94/74/29
f 94/74/29 104/102/29 108/118/29
f 108/118/29 98/92/29 94/74/29
f 100/79/30 90/114/30 111/93/30
f 90/114/30 92/91/30 111/93/30
f 92/91/30 102/90/30 111/93/30
f 103/97/31 93/82/31 113/95/31
f 93/82/31 95/115/31 113/95/31
f 95/115/31 105/100/31 113/95/31
f 106/89/32 96/117/32 97/99/32
f 97/99/32 107/85/32 115/119/32
f 115/119/32 114/98/32 97/99/32
f 101/87/33 99/116/33 113/95/33
f 99/116/33 109/120/33 113/95/33
f 109/120/33 117/104/33 113/95/33
f 104/102/34 103/97/34 112/96/34
f 112/96/34 119/105/34 116/101/34
f 116/101/34 108/118/34 104/102/34
f 117/104/35 109/120/35 110/94/35
f 110/94/35 111/93/35 118/103/35
f 118/103/35 120/106/35 117/104/35
f 118/103/36 114/98/36 115/119/36
f 115/119/36 116/101/36 118/103/36
f 116/101/36 119/105/36 118/103/36
o Shape_IndexedLineSet_Shape_IndexedLineSet.012
v -0.000000 -0.000000 -1.021000
v 0.227464 0.333333 -0.937864
v -0.403548 -0.000000 -0.937864
v -0.579632 0.333333 -0.771593
v 0.147123 -0.375774 -0.937864
v 0.521710 -0.418215 -0.771593
v -0.505832 -0.375774 -0.803348
v -0.784200 -0.418215 -0.502561
v 0.602051 0.290893 -0.771593
v 0.749174 -0.084881 -0.688458
v 0.051381 0.666667 -0.771593
v -0.352168 0.666667 -0.688458
v -0.165499 -0.608015 -0.803348
v -0.103533 -0.882697 -0.502561
v -0.858000 0.290893 -0.470806
v -0.960284 -0.084881 -0.336290
v 0.657475 0.597996 -0.502561
v 0.860021 0.529326 -0.150394
v 0.317142 0.830237 -0.502561
v 0.179355 0.993808 -0.150394
v 0.583675 -0.692896 -0.470806
v 0.271054 -0.925138 -0.336290
v -0.802576 0.597996 -0.201774
v -0.849436 0.529326 0.201774
v -0.489955 0.830237 -0.336290
v -0.224193 0.993808 -0.067258
v -0.722234 -0.692896 -0.201774
v -0.381901 -0.925138 -0.201774
v 0.951720 -0.153552 -0.336290
v 1.007140 0.153552 -0.067258
v 0.849436 -0.529326 -0.201774
v 0.802576 -0.597996 0.201774
v -1.007140 -0.153552 0.067258
v -0.951720 0.153552 0.336290
v -0.860021 -0.529326 0.150394
v -0.657475 -0.597996 0.502561
v 0.722234 0.692896 0.201774
v 0.381901 0.925138 0.201774
v -0.179355 -0.993808 0.150394
v -0.317142 -0.830237 0.502561
v 0.224193 -0.993808 0.067258
v 0.489955 -0.830237 0.336290
v -0.583675 0.692896 0.470806
v -0.271054 0.925138 0.336290
v 0.784200 0.418215 0.502561
v 0.505832 0.375774 0.803348
v 0.960284 0.084881 0.336290
v 0.858000 -0.290893 0.470806
v 0.103533 0.882697 0.502561
v 0.165499 0.608015 0.803348
v -0.521710 0.418215 0.771593
v -0.147123 0.375774 0.937864
v -0.749174 0.084881 0.688458
v -0.602051 -0.290893 0.771593
v -0.051381 -0.666667 0.771593
v 0.352168 -0.666667 0.688458
v 0.579632 -0.333333 0.771593
v 0.403548 0.000000 0.937864
v -0.227464 -0.333333 0.937864
v 0.000000 0.000000 1.021000
l 121 122
l 123 124
l 125 126
l 127 128
l 129 130
l 131 132
l 133 134
l 135 136
l 137 138
l 139 140
l 141 142
l 143 144
l 145 146
l 147 148
l 149 150
l 151 152
l 153 154
l 155 156
l 157 158
l 159 160
l 161 162
l 163 164
l 165 166
l 167 168
l 169 170
l 171 172
l 173 174
l 175 176
l 177 178
l 179 180
o Shape_IndexedFaceSet.002_Shape_IndexedFaceSet.029
v -0.201774 0.381966 -0.979432
v 0.429238 -0.048633 -0.979432
v -0.201774 -0.295686 -0.979432
v -0.781406 -0.048633 -0.730026
v 0.403548 0.591372 -0.758194
v 0.239594 -0.745356 -0.730026
v -0.670364 0.591372 -0.536956
v -0.508626 -0.745356 -0.575884
v 0.921987 0.254644 -0.480619
v -0.099013 0.951367 -0.480619
v 0.795067 -0.408628 -0.536956
v -1.036880 0.254644 -0.077071
v -0.942559 -0.408628 -0.178985
v 0.595510 0.872678 -0.172336
v -0.036873 -1.026660 -0.178985
v 0.615135 -0.872678 -0.077071
v -0.615135 0.872678 0.077071
v -0.595510 -0.872678 0.172336
v 0.942559 0.408628 0.178985
v 1.036880 -0.254644 0.077071
v 0.036873 1.026660 0.178985
v -0.795067 0.408628 0.536956
v -0.921987 -0.254644 0.480619
v 0.508626 0.745356 0.575884
v 0.099013 -0.951367 0.480619
v 0.670364 -0.591372 0.536956
v -0.239594 0.745356 0.730026
v -0.403548 -0.591372 0.758194
v 0.781406 0.048633 0.730026
v -0.429238 0.048633 0.979432
v 0.201774 0.295686 0.979432
v 0.201774 -0.381966 0.979432
vt 0.597299 0.355996
vt 0.597299 0.686024
vt 0.293015 0.476315
vt 0.876806 0.476315
vt 0.305403 0.788008
vt 0.384464 0.137000
vt 0.823260 0.788008
vt 0.745268 0.137000
vt 0.055403 0.624016
vt 0.547746 0.963331
vt 0.116606 0.300992
vt 1.000000 0.624016
vt 0.954517 0.300992
vt 0.212836 0.925008
vt 0.517781 0.000000
vt 0.203372 0.074992
vt 0.796628 0.925008
vt 0.787164 0.074992
vt 0.045483 0.699008
vt 0.000000 0.375984
vt 0.482219 1.000000
vt 0.883394 0.699008
vt 0.944597 0.375984
vt 0.254732 0.863000
vt 0.452254 0.036669
vt 0.176740 0.211992
vt 0.615536 0.863000
vt 0.694597 0.211992
vt 0.123194 0.523685
vt 0.706985 0.523685
vt 0.402701 0.644004
vt 0.402701 0.313976
vn 0.0000 -0.0000 -1.0000
vn -0.3952 -0.0000 -0.9186
vn 0.2228 0.3265 -0.9186
vn 0.1441 -0.3680 -0.9186
vn -0.5677 0.3265 -0.7557
vn -0.4954 -0.3680 -0.7868
vn 0.5897 0.2849 -0.7557
vn 0.0503 0.6530 -0.7557
vn -0.1621 -0.5955 -0.7868
vn 0.5110 -0.4096 -0.7557
vn -0.8404 0.2849 -0.4611
vn -0.3449 0.6530 -0.6743
vn -0.7681 -0.4096 -0.4922
vn 0.6440 0.5857 -0.4922
vn 0.7338 -0.0831 -0.6743
vn 0.3106 0.8132 -0.4922
vn -0.1014 -0.8645 -0.4922
vn 0.5717 -0.6786 -0.4611
vn -0.7861 0.5857 -0.1976
vn -0.9405 -0.0831 -0.3294
vn -0.4799 0.8132 -0.3294
vn -0.7074 -0.6786 -0.1976
vn 0.8423 0.5184 -0.1473
vn 0.9321 -0.1504 -0.3294
vn 0.1757 0.9734 -0.1473
vn -0.3740 -0.9061 -0.1976
vn 0.2655 -0.9061 -0.3294
vn 0.8320 -0.5184 -0.1976
vn -0.8320 0.5184 0.1976
vn -0.9864 -0.1504 0.0659
vn -0.2196 0.9734 -0.0659
vn -0.8423 -0.5184 0.1473
vn 0.7074 0.6786 0.1976
vn 0.9864 0.1504 -0.0659
vn 0.3740 0.9061 0.1976
vn -0.1757 -0.9734 0.1473
vn 0.2196 -0.9734 0.0659
vn 0.7861 -0.5857 0.1976
vn -0.5717 0.6786 0.4611
vn -0.9321 0.1504 0.3294
vn -0.2655 0.9061 0.3294
vn -0.6440 -0.5857 0.4922
vn 0.7681 0.4096 0.4922
vn 0.9405 0.0831 0.3294
vn 0.1014 0.8645 0.4922
vn -0.3106 -0.8132 0.4922
vn 0.4799 -0.8132 0.3294
vn 0.8404 -0.2849 0.4611
vn -0.5110 0.4096 0.7557
vn -0.7338 0.0831 0.6743
vn -0.5897 -0.2849 0.7557
vn 0.4954 0.3680 0.7868
vn 0.1621 0.5955 0.7868
vn -0.0503 -0.6530 0.7557
vn 0.3449 -0.6530 0.6743
vn 0.5677 -0.3265 0.7557
vn -0.1441 0.3680 0.9186
vn -0.2228 -0.3265 0.9186
vn 0.3952 0.0000 0.9186
vn 0.0000 0.0000 1.0000
usemtl None
s off
f 183/121/37 181/122/37 182/123/37
f 183/121/38 184/124/38 181/122/38
f 181/122/39 185/125/39 182/123/39
f 182/123/40 186/126/40 183/121/40
f 181/122/41 184/124/41 187/127/41
f 184/124/42 183/121/42 188/128/42
f 182/123/43 185/125/43 189/129/43
f 185/125/44 181/122/44 190/130/44
f 183/121/45 186/126/45 188/128/45
f 186/126/46 182/123/46 191/131/46
f 184/124/47 192/132/47 187/127/47
f 187/127/48 190/130/48 181/122/48
f 188/128/49 193/133/49 184/124/49
f 185/125/50 194/134/50 189/129/50
f 189/129/51 191/131/51 182/123/51
f 190/130/52 194/134/52 185/125/52
f 186/126/53 195/135/53 188/128/53
f 191/131/54 196/136/54 186/126/54
f 187/127/55 192/132/55 197/137/55
f 192/132/56 184/124/56 193/133/56
f 190/130/57 187/127/57 197/137/57
f 193/133/58 188/128/58 198/138/58
f 189/129/59 194/134/59 199/139/59
f 191/131/60 189/129/60 200/140/60
f 194/134/61 190/130/61 201/141/61
f 188/128/62 195/135/62 198/138/62
f 195/135/63 186/126/63 196/136/63
f 196/136/64 191/131/64 200/140/64
f 192/132/65 202/142/65 197/137/65
f 193/133/66 203/143/66 192/132/66
f 197/137/67 201/141/67 190/130/67
f 198/138/68 203/143/68 193/133/68
f 194/134/69 204/144/69 199/139/69
f 199/139/70 200/140/70 189/129/70
f 201/141/71 204/144/71 194/134/71
f 195/135/72 205/145/72 198/138/72
f 196/136/73 205/145/73 195/135/73
f 200/140/74 206/146/74 196/136/74
f 197/137/75 202/142/75 207/147/75
f 202/142/76 192/132/76 203/143/76
f 201/141/77 197/137/77 207/147/77
f 203/143/78 198/138/78 208/148/78
f 199/139/79 204/144/79 209/149/79
f 200/140/80 199/139/80 209/149/80
f 204/144/81 201/141/81 207/147/81
f 198/138/82 205/145/82 208/148/82
f 205/145/83 196/136/83 206/146/83
f 206/146/84 200/140/84 209/149/84
f 202/142/85 210/150/85 207/147/85
f 203/143/86 210/150/86 202/142/86
f 208/148/87 210/150/87 203/143/87
f 204/144/88 211/151/88 209/149/88
f 207/147/89 211/151/89 204/144/89
f 205/145/90 212/152/90 208/148/90
f 206/146/91 212/152/91 205/145/91
f 209/149/92 212/152/92 206/146/92
f 207/147/93 210/150/93 211/151/93
f 210/150/94 208/148/94 212/152/94
f 209/149/95 211/151/95 212/152/95
f 210/150/96 212/152/96 211/151/96
o Shape_IndexedLineSet.001_Shape_IndexedLineSet.013
v -0.201774 0.381966 -0.979432
v 0.429238 -0.048633 -0.979432
v -0.201774 0.381966 -0.979432
v -0.201774 -0.295686 -0.979432
v -0.201774 0.381966 -0.979432
v -0.781406 -0.048633 -0.730026
v -0.201774 0.381966 -0.979432
v 0.403548 0.591372 -0.758194
v -0.201774 0.381966 -0.979432
v -0.670364 0.591372 -0.536956
v -0.201774 0.381966 -0.979432
v -0.099013 0.951367 -0.480619
v 0.429238 -0.048633 -0.979432
v -0.201774 -0.295686 -0.979432
v 0.429238 -0.048633 -0.979432
v 0.403548 0.591372 -0.758194
v 0.429238 -0.048633 -0.979432
v 0.239594 -0.745356 -0.730026
v 0.429238 -0.048633 -0.979432
v 0.921987 0.254644 -0.480619
v 0.429238 -0.048633 -0.979432
v 0.795067 -0.408628 -0.536956
v -0.201774 -0.295686 -0.979432
v -0.781406 -0.048633 -0.730026
v -0.201774 -0.295686 -0.979432
v 0.239594 -0.745356 -0.730026
v -0.201774 -0.295686 -0.979432
v -0.508626 -0.745356 -0.575884
v -0.781406 -0.048633 -0.730026
v -0.670364 0.591372 -0.536956
v -0.781406 -0.048633 -0.730026
v -0.508626 -0.745356 -0.575884
v -0.781406 -0.048633 -0.730026
v -1.036880 0.254644 -0.077071
v -0.781406 -0.048633 -0.730026
v -0.942559 -0.408628 -0.178985
v 0.403548 0.591372 -0.758194
v 0.921987 0.254644 -0.480619
v 0.403548 0.591372 -0.758194
v -0.099013 0.951367 -0.480619
v 0.403548 0.591372 -0.758194
v 0.595510 0.872678 -0.172336
v 0.239594 -0.745356 -0.730026
v -0.508626 -0.745356 -0.575884
v 0.239594 -0.745356 -0.730026
v 0.795067 -0.408628 -0.536956
v 0.239594 -0.745356 -0.730026
v -0.036873 -1.026660 -0.178985
v 0.239594 -0.745356 -0.730026
v 0.615135 -0.872678 -0.077071
v -0.670364 0.591372 -0.536956
v -0.099013 0.951367 -0.480619
v -0.670364 0.591372 -0.536956
v -1.036880 0.254644 -0.077071
v -0.670364 0.591372 -0.536956
v -0.615135 0.872678 0.077071
v -0.508626 -0.745356 -0.575884
v -0.942559 -0.408628 -0.178985
v -0.508626 -0.745356 -0.575884
v -0.036873 -1.026660 -0.178985
v -0.508626 -0.745356 -0.575884
v -0.595510 -0.872678 0.172336
v 0.921987 0.254644 -0.480619
v 0.795067 -0.408628 -0.536956
v 0.921987 0.254644 -0.480619
v 0.595510 0.872678 -0.172336
v 0.921987 0.254644 -0.480619
v 0.942559 0.408628 0.178985
v 0.921987 0.254644 -0.480619
v 1.036880 -0.254644 0.077071
v -0.099013 0.951367 -0.480619
v 0.595510 0.872678 -0.172336
v -0.099013 0.951367 -0.480619
v -0.615135 0.872678 0.077071
v -0.099013 0.951367 -0.480619
v 0.036873 1.026660 0.178985
v 0.795067 -0.408628 -0.536956
v 0.615135 -0.872678 -0.077071
v 0.795067 -0.408628 -0.536956
v 1.036880 -0.254644 0.077071
v -1.036880 0.254644 -0.077071
v -0.942559 -0.408628 -0.178985
v -1.036880 0.254644 -0.077071
v -0.615135 0.872678 0.077071
v -1.036880 0.254644 -0.077071
v -0.795067 0.408628 0.536956
v -1.036880 0.254644 -0.077071
v -0.921987 -0.254644 0.480619
v -0.942559 -0.408628 -0.178985
v -0.595510 -0.872678 0.172336
v -0.942559 -0.408628 -0.178985
v -0.921987 -0.254644 0.480619
v 0.595510 0.872678 -0.172336
v 0.942559 0.408628 0.178985
v 0.595510 0.872678 -0.172336
v 0.036873 1.026660 0.178985
v 0.595510 0.872678 -0.172336
v 0.508626 0.745356 0.575884
v -0.036873 -1.026660 -0.178985
v 0.615135 -0.872678 -0.077071
v -0.036873 -1.026660 -0.178985
v -0.595510 -0.872678 0.172336
v -0.036873 -1.026660 -0.178985
v 0.099013 -0.951367 0.480619
v 0.615135 -0.872678 -0.077071
v 1.036880 -0.254644 0.077071
v 0.615135 -0.872678 -0.077071
v 0.099013 -0.951367 0.480619
v 0.615135 -0.872678 -0.077071
v 0.670364 -0.591372 0.536956
v -0.615135 0.872678 0.077071
v 0.036873 1.026660 0.178985
v -0.615135 0.872678 0.077071
v -0.795067 0.408628 0.536956
v -0.615135 0.872678 0.077071
v -0.239594 0.745356 0.730026
v -0.595510 -0.872678 0.172336
v -0.921987 -0.254644 0.480619
v -0.595510 -0.872678 0.172336
v 0.099013 -0.951367 0.480619
v -0.595510 -0.872678 0.172336
v -0.403548 -0.591372 0.758194
v 0.942559 0.408628 0.178985
v 1.036880 -0.254644 0.077071
v 0.942559 0.408628 0.178985
v 0.508626 0.745356 0.575884
v 0.942559 0.408628 0.178985
v 0.781406 0.048633 0.730026
v 1.036880 -0.254644 0.077071
v 0.670364 -0.591372 0.536956
v 1.036880 -0.254644 0.077071
v 0.781406 0.048633 0.730026
v 0.036873 1.026660 0.178985
v 0.508626 0.745356 0.575884
v 0.036873 1.026660 0.178985
v -0.239594 0.745356 0.730026
v -0.795067 0.408628 0.536956
v -0.921987 -0.254644 0.480619
v -0.795067 0.408628 0.536956
v -0.239594 0.745356 0.730026
v -0.795067 0.408628 0.536956
v -0.429238 0.048633 0.979432
v -0.921987 -0.254644 0.480619
v -0.403548 -0.591372 0.758194
v -0.921987 -0.254644 0.480619
v -0.429238 0.048633 0.979432
v 0.508626 0.745356 0.575884
v -0.239594 0.745356 0.730026
v 0.508626 0.745356 0.575884
v 0.781406 0.048633 0.730026
v 0.508626 0.745356 0.575884
v 0.201774 0.295686 0.979432
v 0.099013 -0.951367 0.480619
v 0.670364 -0.591372 0.536956
v 0.099013 -0.951367 0.480619
v -0.403548 -0.591372 0.758194
v 0.099013 -0.951367 0.480619
v 0.201774 -0.381966 0.979432
v 0.670364 -0.591372 0.536956
v 0.781406 0.048633 0.730026
v 0.670364 -0.591372 0.536956
v 0.201774 -0.381966 0.979432
v -0.239594 0.745356 0.730026
v -0.429238 0.048633 0.979432
v -0.239594 0.745356 0.730026
v 0.201774 0.295686 0.979432
v -0.403548 -0.591372 0.758194
v -0.429238 0.048633 0.979432
v -0.403548 -0.591372 0.758194
v 0.201774 -0.381966 0.979432
v 0.781406 0.048633 0.730026
v 0.201774 0.295686 0.979432
v 0.781406 0.048633 0.730026
v 0.201774 -0.381966 0.979432
v -0.429238 0.048633 0.979432
v 0.201774 0.295686 0.979432
v -0.429238 0.048633 0.979432
v 0.201774 -0.381966 0.979432
v 0.201774 0.295686 0.979432
v 0.201774 -0.381966 0.979432
l 213 214
l 215 216
l 217 218
l 219 220
l 221 222
l 223 224
l 225 226
l 227 228
l 229 230
l 231 232
l 233 234
l 235 236
l 237 238
l 239 240
l 241 242
l 243 244
l 245 246
l 247 248
l 249 250
l 251 252
l 253 254
l 255 256
l 257 258
l 259 260
l 261 262
l 263 264
l 265 266
l 267 268
l 269 270
l 271 272
l 273 274
l 275 276
l 277 278
l 279 280
l 281 282
l 283 284
l 285 286
l 287 288
l 289 290
l 291 292
l 293 294
l 295 296
l 297 298
l 299 300
l 301 302
l 303 304
l 305 306
l 307 308
l 309 310
l 311 312
l 313 314
l 315 316
l 317 318
l 319 320
l 321 322
l 323 324
l 325 326
l 327 328
l 329 330
l 331 332
l 333 334
l 335 336
l 337 338
l 339 340
l 341 342
l 343 344
l 345 346
l 347 348
l 349 350
l 351 352
l 353 354
l 355 356
l 357 358
l 359 360
l 361 362
l 363 364
l 365 366
l 367 368
l 369 370
l 371 372
l 373 374
l 375 376
l 377 378
l 379 380
l 381 382
l 383 384
l 385 386
l 387 388
l 389 390
l 391 392
