# Blender v2.93.4 OBJ File: ''
# www.blender.org
mtllib compound_of_icosidodecahedron_and_dual.mtl
o Shape_IndexedFaceSet_Shape_IndexedFaceSet.003
v -0.000000 -0.000000 -1.051460
v -0.618034 -0.000000 -0.850651
v -0.276393 0.552786 -0.850651
v 0.618034 -0.000000 -0.850651
v 0.276393 -0.552786 -0.850651
v -1.000000 -0.000000 -0.324920
v -0.723607 -0.552786 -0.525731
v 0.170820 0.894427 -0.525731
v -0.447214 0.894427 -0.324920
v 1.000000 -0.000000 -0.324920
v 0.723607 0.552786 -0.525731
v -0.170820 -0.894427 -0.525731
v 0.447214 -0.894427 -0.324920
v -1.000000 0.000000 0.324920
v -0.894427 0.552786 0.000000
v -0.552786 -0.894427 0.000000
v 0.552786 0.894427 -0.000000
v -0.447214 0.894427 0.324920
v 1.000000 0.000000 0.324920
v 0.894427 -0.552786 -0.000000
v 0.447214 -0.894427 0.324920
v -0.618034 0.000000 0.850651
v -0.723607 -0.552786 0.525731
v -0.170820 -0.894427 0.525731
v 0.723607 0.552786 0.525731
v 0.170820 0.894427 0.525731
v -0.276393 0.552786 0.850651
v 0.618034 0.000000 0.850651
v 0.276393 -0.552786 0.850651
v 0.000000 0.000000 1.051460
vt 1.000000 0.500000
vt 0.904509 0.809017
vt 0.904509 0.638197
vt 0.904509 0.190983
vt 0.904509 0.361804
vt 0.750000 0.861803
vt 0.654509 1.000000
vt 0.654509 0.723607
vt 0.750000 0.414590
vt 0.750000 0.138196
vt 0.654509 0.000000
vt 0.654509 0.276393
vt 0.750000 0.585410
vt 0.345491 1.000000
vt 0.500000 0.947213
vt 0.500000 0.776393
vt 0.500000 0.223607
vt 0.345491 0.723607
vt 0.345491 0.000000
vt 0.500000 0.052786
vt 0.345491 0.276393
vt 0.250000 0.861803
vt 0.095491 0.809017
vt 0.250000 0.585410
vt 0.250000 0.414590
vt 0.250000 0.138196
vt 0.095491 0.638197
vt 0.095491 0.190983
vt 0.095491 0.361804
vt 0.000000 0.500000
vn -0.3035 0.1876 -0.9342
vn 0.3035 -0.1876 -0.9342
vn -0.7947 -0.1876 -0.5774
vn -0.1876 0.7947 -0.5774
vn 0.7947 0.1876 -0.5774
vn 0.1876 -0.7947 -0.5774
vn -0.9822 0.1876 0.0000
vn -0.4911 -0.7947 -0.3568
vn 0.4911 0.7947 -0.3568
vn -0.6071 0.7947 0.0000
vn 0.9822 -0.1876 0.0000
vn 0.6071 -0.7947 -0.0000
vn -0.7947 -0.1876 0.5774
vn -0.4911 -0.7947 0.3568
vn 0.4911 0.7947 0.3568
vn -0.1876 0.7947 0.5774
vn 0.7947 0.1876 0.5774
vn 0.1876 -0.7947 0.5774
vn -0.3035 0.1876 0.9342
vn 0.3035 -0.1876 0.9342
usemtl None
s off
f 1/1/1 2/2/1 3/3/1
f 1/1/2 4/4/2 5/5/2
f 2/2/3 7/6/3 6/7/3
f 3/3/4 9/8/4 8/9/4
f 4/4/5 11/10/5 10/11/5
f 5/5/6 13/12/6 12/13/6
f 6/7/7 14/14/7 15/15/7
f 7/6/8 12/13/8 16/16/8
f 8/9/9 17/17/9 11/10/9
f 9/8/10 15/15/10 18/18/10
f 10/11/11 19/19/11 20/20/11
f 13/12/12 20/20/12 21/21/12
f 14/14/13 23/22/13 22/23/13
f 16/16/14 24/24/14 23/22/14
f 17/17/15 26/25/15 25/26/15
f 18/18/16 27/27/16 26/25/16
f 19/19/17 25/26/17 28/28/17
f 21/21/18 29/29/18 24/24/18
f 22/23/19 30/30/19 27/27/19
f 28/28/20 30/30/20 29/29/20
o Shape_IndexedFaceSet.001_Shape_IndexedFaceSet.004
v -0.000000 -0.000000 -1.051460
v -0.618034 -0.000000 -0.850651
v -0.276393 0.552786 -0.850651
v 0.618034 -0.000000 -0.850651
v 0.276393 -0.552786 -0.850651
v -1.000000 -0.000000 -0.324920
v -0.723607 -0.552786 -0.525731
v 0.170820 0.894427 -0.525731
v -0.447214 0.894427 -0.324920
v 1.000000 -0.000000 -0.324920
v 0.723607 0.552786 -0.525731
v -0.170820 -0.894427 -0.525731
v 0.447214 -0.894427 -0.324920
v -1.000000 0.000000 0.324920
v -0.894427 0.552786 0.000000
v -0.552786 -0.894427 0.000000
v 0.552786 0.894427 -0.000000
v -0.447214 0.894427 0.324920
v 1.000000 0.000000 0.324920
v 0.894427 -0.552786 -0.000000
v 0.447214 -0.894427 0.324920
v -0.618034 0.000000 0.850651
v -0.723607 -0.552786 0.525731
v -0.170820 -0.894427 0.525731
v 0.723607 0.552786 0.525731
v 0.170820 0.894427 0.525731
v -0.276393 0.552786 0.850651
v 0.618034 0.000000 0.850651
v 0.276393 -0.552786 0.850651
v 0.000000 0.000000 1.051460
vt 1.000000 0.500000
vt 0.904509 0.638197
vt 0.750000 0.414590
vt 0.750000 0.138196
vt 0.904509 0.190983
vt 0.904509 0.361804
vt 0.750000 0.585410
vt 0.750000 0.861803
vt 0.904509 0.809017
vt 0.654509 1.000000
vt 0.500000 0.947213
vt 0.654509 0.723607
vt 0.654509 0.000000
vt 0.500000 0.052786
vt 0.654509 0.276393
vt 0.500000 0.776393
vt 0.250000 0.861803
vt 0.345491 1.000000
vt 0.345491 0.723607
vt 0.250000 0.414590
vt 0.500000 0.223607
vt 0.250000 0.138196
vt 0.345491 0.000000
vt 0.345491 0.276393
vt 0.250000 0.585410
vt 0.095491 0.809017
vt 0.095491 0.638197
vt 0.095491 0.190983
vt 0.095491 0.361804
vt 0.000000 0.500000
vn 0.2764 0.4472 -0.8507
vn -0.2764 -0.4472 -0.8507
vn -0.7236 0.4472 -0.5257
vn 0.7236 -0.4472 -0.5257
vn -0.8944 -0.4472 0.0000
vn 0.0000 1.0000 0.0000
vn 0.8944 0.4472 -0.0000
vn 0.0000 -1.0000 -0.0000
vn -0.7236 0.4472 0.5257
vn 0.7236 -0.4472 0.5257
vn -0.2764 -0.4472 0.8507
vn 0.2764 0.4472 0.8507
usemtl None
s off
f 31/31/21 33/32/21 38/33/21 41/34/21 34/35/21
f 31/31/22 35/36/22 42/37/22 37/38/22 32/39/22
f 32/39/23 36/40/23 45/41/23 39/42/23 33/32/23
f 34/35/24 40/43/24 50/44/24 43/45/24 35/36/24
f 36/40/25 37/38/25 46/46/25 53/47/25 44/48/25
f 38/33/26 39/42/26 48/49/26 56/50/26 47/51/26
f 40/43/27 41/34/27 47/51/27 55/52/27 49/53/27
f 42/37/28 43/45/28 51/54/28 54/55/28 46/46/28
f 44/48/29 52/56/29 57/57/29 48/49/29 45/41/29
f 49/53/30 58/58/30 59/59/30 51/54/30 50/44/30
f 52/56/31 53/47/31 54/55/31 59/59/31 60/60/31
f 55/52/32 56/50/32 57/57/32 60/60/32 58/58/32
o Shape_IndexedFaceSet.002_Shape_IndexedFaceSet.005
v -0.309017 0.190983 -0.951056
v 0.309017 0.500000 -0.951056
v 0.309017 -0.190983 -0.951056
v -0.309017 -0.500000 -0.951056
v -0.809017 -0.190983 -0.587785
v -0.809017 0.500000 -0.587785
v -0.190983 0.809017 -0.587785
v 0.809017 0.190983 -0.587785
v 0.809017 -0.500000 -0.587785
v 0.190983 -0.809017 -0.587785
v -1.000000 -0.500000 0.000000
v -1.000000 0.190983 0.000000
v -0.500000 -0.809017 -0.363271
v -0.000000 1.118030 -0.000000
v 0.500000 0.809017 -0.363271
v -0.618034 0.809017 0.000000
v 1.000000 0.500000 -0.000000
v 1.000000 -0.190983 -0.000000
v 0.000000 -1.118030 0.000000
v 0.618034 -0.809017 -0.000000
v -0.809017 -0.190983 0.587785
v -0.809017 0.500000 0.587785
v -0.500000 -0.809017 0.363271
v 0.500000 0.809017 0.363271
v -0.190983 0.809017 0.587785
v 0.809017 0.190983 0.587785
v 0.809017 -0.500000 0.587785
v 0.190983 -0.809017 0.587785
v -0.309017 -0.500000 0.951056
v -0.309017 0.190983 0.951056
v 0.309017 0.500000 0.951056
v 0.309017 -0.190983 0.951056
vt 0.276392 0.654508
vt 0.585410 0.654508
vt 0.723608 0.345491
vt 0.414589 0.345491
vt 0.414589 0.904508
vt 0.723608 0.904508
vt 0.861805 0.595492
vt 0.585410 0.095491
vt 0.276392 0.095491
vt 0.138195 0.404509
vt 0.276392 1.000000
vt 0.585410 1.000000
vt 0.138195 0.750000
vt 1.000000 0.500000
vt 0.861805 0.250000
vt 0.861805 0.809017
vt 0.723608 0.000000
vt 0.414589 0.000000
vt 0.000000 0.500000
vt 0.138195 0.190983
vt 0.414589 0.904508
vt 0.723608 0.904508
vt 0.138195 0.750000
vt 0.861805 0.250000
vt 0.861805 0.595492
vt 0.585410 0.095491
vt 0.276392 0.095491
vt 0.138195 0.404509
vt 0.276392 0.654508
vt 0.585410 0.654508
vt 0.723608 0.345491
vt 0.414589 0.345491
vn 0.0000 -0.0000 -1.0000
vn -0.5878 -0.0000 -0.8090
vn -0.2629 0.5257 -0.8090
vn 0.5878 -0.0000 -0.8090
vn 0.2629 -0.5257 -0.8090
vn -0.9511 0.0000 -0.3090
vn -0.6882 -0.5257 -0.5000
vn 0.1625 0.8507 -0.5000
vn -0.4253 0.8507 -0.3090
vn 0.9511 0.0000 -0.3090
vn 0.6882 0.5257 -0.5000
vn -0.1625 -0.8507 -0.5000
vn 0.4253 -0.8507 -0.3090
vn -0.9511 0.0000 0.3090
vn -0.8507 0.5257 0.0000
vn -0.5257 -0.8507 0.0000
vn 0.5257 0.8507 -0.0000
vn -0.4253 0.8507 0.3090
vn 0.9511 0.0000 0.3090
vn 0.8507 -0.5257 -0.0000
vn 0.4253 -0.8507 0.3090
vn -0.5878 0.0000 0.8090
vn -0.6882 -0.5257 0.5000
vn -0.1625 -0.8507 0.5000
vn 0.6882 0.5257 0.5000
vn 0.1625 0.8507 0.5000
vn -0.2629 0.5257 0.8090
vn 0.5878 0.0000 0.8090
vn 0.2629 -0.5257 0.8090
vn 0.0000 0.0000 1.0000
usemtl None
s off
f 64/61/33 61/62/33 62/63/33 63/64/33
f 64/61/34 65/65/34 66/66/34 61/62/34
f 61/62/35 66/66/35 67/67/35 62/63/35
f 62/63/36 68/68/36 69/69/36 63/64/36
f 63/64/37 69/69/37 70/70/37 64/61/37
f 66/66/38 65/65/38 71/71/38 72/72/38
f 65/65/39 64/61/39 73/73/39 71/71/39
f 62/63/40 67/67/40 74/74/40 75/75/40
f 67/67/41 66/66/41 76/76/41 74/74/41
f 69/69/42 68/68/42 77/77/42 78/78/42
f 68/68/43 62/63/43 75/75/43 77/77/43
f 64/61/44 70/70/44 79/79/44 73/73/44
f 70/70/45 69/69/45 80/80/45 79/79/45
f 71/71/46 81/81/46 82/82/46 72/72/46
f 72/72/47 82/82/47 76/76/47 66/66/47
f 73/73/48 79/79/48 83/83/48 71/71/48
f 74/74/49 84/84/49 77/77/49 75/75/49
f 76/76/50 82/82/50 85/85/50 74/74/50
f 77/77/51 86/86/51 87/87/51 78/78/51
f 78/78/52 87/87/52 80/80/52 69/69/52
f 80/80/53 87/87/53 88/88/53 79/79/53
f 82/82/54 81/81/54 89/89/54 90/90/54
f 81/81/55 71/71/55 83/83/55 89/89/55
f 83/83/56 79/79/56 88/88/56 89/89/56
f 77/77/57 84/84/57 91/91/57 86/86/57
f 84/84/58 74/74/58 85/85/58 91/91/58
f 85/85/59 82/82/59 90/90/59 91/91/59
f 87/87/60 86/86/60 91/91/60 92/92/60
f 88/88/61 87/87/61 92/92/61 89/89/61
f 89/89/62 92/92/62 91/91/62 90/90/62
o Shape_IndexedLineSet_Shape_IndexedLineSet.001
v -0.309017 0.190983 -0.951056
v 0.309017 0.500000 -0.951056
v -0.309017 0.190983 -0.951056
v -0.309017 -0.500000 -0.951056
v -0.309017 0.190983 -0.951056
v -0.809017 0.500000 -0.587785
v 0.309017 0.500000 -0.951056
v 0.309017 -0.190983 -0.951056
v 0.309017 0.500000 -0.951056
v -0.190983 0.809017 -0.587785
v 0.309017 0.500000 -0.951056
v 0.809017 0.190983 -0.587785
v 0.309017 0.500000 -0.951056
v 0.500000 0.809017 -0.363271
v 0.309017 -0.190983 -0.951056
v -0.309017 -0.500000 -0.951056
v 0.309017 -0.190983 -0.951056
v 0.809017 -0.500000 -0.587785
v -0.309017 -0.500000 -0.951056
v -0.809017 -0.190983 -0.587785
v -0.309017 -0.500000 -0.951056
v 0.190983 -0.809017 -0.587785
v -0.309017 -0.500000 -0.951056
v -0.500000 -0.809017 -0.363271
v -0.809017 -0.190983 -0.587785
v -0.809017 0.500000 -0.587785
v -0.809017 -0.190983 -0.587785
v -1.000000 -0.500000 0.000000
v -0.809017 0.500000 -0.587785
v -0.190983 0.809017 -0.587785
v -0.809017 0.500000 -0.587785
v -1.000000 0.190983 0.000000
v -0.809017 0.500000 -0.587785
v -0.618034 0.809017 0.000000
v -0.190983 0.809017 -0.587785
v -0.000000 1.118030 -0.000000
v 0.809017 0.190983 -0.587785
v 0.809017 -0.500000 -0.587785
v 0.809017 0.190983 -0.587785
v 1.000000 0.500000 -0.000000
v 0.809017 -0.500000 -0.587785
v 0.190983 -0.809017 -0.587785
v 0.809017 -0.500000 -0.587785
v 1.000000 -0.190983 -0.000000
v 0.809017 -0.500000 -0.587785
v 0.618034 -0.809017 -0.000000
v 0.190983 -0.809017 -0.587785
v 0.000000 -1.118030 0.000000
v -1.000000 -0.500000 0.000000
v -1.000000 0.190983 0.000000
v -1.000000 -0.500000 0.000000
v -0.500000 -0.809017 -0.363271
v -1.000000 -0.500000 0.000000
v -0.809017 -0.190983 0.587785
v -1.000000 -0.500000 0.000000
v -0.500000 -0.809017 0.363271
v -1.000000 0.190983 0.000000
v -0.809017 0.500000 0.587785
v -0.500000 -0.809017 -0.363271
v 0.000000 -1.118030 0.000000
v -0.000000 1.118030 -0.000000
v 0.500000 0.809017 -0.363271
v -0.000000 1.118030 -0.000000
v -0.618034 0.809017 0.000000
v -0.000000 1.118030 -0.000000
v 0.500000 0.809017 0.363271
v -0.000000 1.118030 -0.000000
v -0.190983 0.809017 0.587785
v 0.500000 0.809017 -0.363271
v 1.000000 0.500000 -0.000000
v -0.618034 0.809017 0.000000
v -0.809017 0.500000 0.587785
v 1.000000 0.500000 -0.000000
v 1.000000 -0.190983 -0.000000
v 1.000000 0.500000 -0.000000
v 0.500000 0.809017 0.363271
v 1.000000 0.500000 -0.000000
v 0.809017 0.190983 0.587785
v 1.000000 -0.190983 -0.000000
v 0.809017 -0.500000 0.587785
v 0.000000 -1.118030 0.000000
v 0.618034 -0.809017 -0.000000
v 0.000000 -1.118030 0.000000
v -0.500000 -0.809017 0.363271
v 0.000000 -1.118030 0.000000
v 0.190983 -0.809017 0.587785
v 0.618034 -0.809017 -0.000000
v 0.809017 -0.500000 0.587785
v -0.809017 -0.190983 0.587785
v -0.809017 0.500000 0.587785
v -0.809017 -0.190983 0.587785
v -0.309017 -0.500000 0.951056
v -0.809017 0.500000 0.587785
v -0.190983 0.809017 0.587785
v -0.809017 0.500000 0.587785
v -0.309017 0.190983 0.951056
v -0.500000 -0.809017 0.363271
v -0.309017 -0.500000 0.951056
v 0.500000 0.809017 0.363271
v 0.309017 0.500000 0.951056
v -0.190983 0.809017 0.587785
v 0.309017 0.500000 0.951056
v 0.809017 0.190983 0.587785
v 0.809017 -0.500000 0.587785
v 0.809017 0.190983 0.587785
v 0.309017 0.500000 0.951056
v 0.809017 -0.500000 0.587785
v 0.190983 -0.809017 0.587785
v 0.809017 -0.500000 0.587785
v 0.309017 -0.190983 0.951056
v 0.190983 -0.809017 0.587785
v -0.309017 -0.500000 0.951056
v -0.309017 -0.500000 0.951056
v -0.309017 0.190983 0.951056
v -0.309017 -0.500000 0.951056
v 0.309017 -0.190983 0.951056
v -0.309017 0.190983 0.951056
v 0.309017 0.500000 0.951056
v 0.309017 0.500000 0.951056
v 0.309017 -0.190983 0.951056
l 93 94
l 95 96
l 97 98
l 99 100
l 101 102
l 103 104
l 105 106
l 107 108
l 109 110
l 111 112
l 113 114
l 115 116
l 117 118
l 119 120
l 121 122
l 123 124
l 125 126
l 127 128
l 129 130
l 131 132
l 133 134
l 135 136
l 137 138
l 139 140
l 141 142
l 143 144
l 145 146
l 147 148
l 149 150
l 151 152
l 153 154
l 155 156
l 157 158
l 159 160
l 161 162
l 163 164
l 165 166
l 167 168
l 169 170
l 171 172
l 173 174
l 175 176
l 177 178
l 179 180
l 181 182
l 183 184
l 185 186
l 187 188
l 189 190
l 191 192
l 193 194
l 195 196
l 197 198
l 199 200
l 201 202
l 203 204
l 205 206
l 207 208
l 209 210
l 211 212
