# Blender v2.93.4 OBJ File: ''
# www.blender.org
mtllib compound_of_truncated_dodecahedron_and_dual.mtl
o Shape_IndexedFaceSet_Shape_IndexedFaceSet.024
v -0.000000 -0.000000 -1.014490
v -0.336763 -0.000000 -0.956959
v 0.290223 0.170820 -0.956959
v -0.163468 -0.294427 -0.956959
v -0.591433 0.170820 -0.806354
v 0.596346 0.152786 -0.806354
v 0.423052 0.447214 -0.806354
v -0.137742 -0.600000 -0.806354
v -0.830204 0.152786 -0.562670
v -0.666736 0.447214 -0.620196
v 0.801441 -0.047214 -0.620196
v 0.347749 0.723607 -0.620196
v 0.067353 -0.800000 -0.620196
v -0.269410 -0.800000 -0.562670
v -0.961872 -0.047214 -0.318986
v -0.533907 0.723607 -0.469591
v 0.827167 -0.352786 -0.469591
v 0.959996 -0.076393 -0.318986
v 0.399202 0.876393 -0.318986
v 0.093079 0.894427 -0.469591
v 0.373476 -0.818034 -0.469591
v -0.508181 -0.818034 -0.318986
v -0.936146 -0.352786 -0.168381
v -1.011450 -0.076393 0.017777
v -0.482454 0.876393 -0.168381
v -0.243684 0.894427 -0.412065
v 0.663699 -0.647214 -0.412065
v 1.011450 0.076393 -0.017777
v 0.557757 0.847214 -0.017777
v 0.532031 -0.847214 -0.168381
v -0.557757 -0.847214 0.017777
v -0.762851 -0.647214 -0.168381
v -0.959996 0.076393 0.318986
v -0.532031 0.847214 0.168381
v 0.961872 0.047214 0.318986
v 0.936146 0.352786 0.168381
v 0.762851 0.647214 0.168381
v 0.508181 0.818034 0.318986
v 0.482454 -0.876393 0.168381
v -0.399202 -0.876393 0.318986
v -0.801441 0.047214 0.620196
v -0.827167 0.352786 0.469591
v -0.663699 0.647214 0.412065
v -0.373476 0.818034 0.469591
v 0.830204 -0.152786 0.562670
v 0.269410 0.800000 0.562670
v 0.533907 -0.723607 0.469591
v 0.243684 -0.894427 0.412065
v -0.093079 -0.894427 0.469591
v -0.347749 -0.723607 0.620196
v -0.596346 -0.152786 0.806354
v -0.067353 0.800000 0.620196
v 0.666736 -0.447214 0.620196
v 0.591433 -0.170820 0.806354
v 0.137742 0.600000 0.806354
v -0.423052 -0.447214 0.806354
v -0.290223 -0.170820 0.956959
v 0.336763 0.000000 0.956959
v 0.163468 0.294427 0.956959
v 0.000000 0.000000 1.014490
vt 1.000000 0.500000
vt 0.971645 0.580809
vt 0.971645 0.666475
vt 0.971645 0.356531
vt 0.897418 0.290869
vt 0.897418 0.205202
vt 0.897418 0.792369
vt 0.777317 0.910403
vt 0.805669 0.829594
vt 0.897418 0.568091
vt 0.805669 0.466705
vt 0.777317 0.633180
vt 0.805669 0.103816
vt 0.657215 0.025436
vt 0.731442 0.091098
vt 0.805669 0.328094
vt 0.731442 0.453987
vt 0.657215 0.302659
vt 0.657215 0.975492
vt 0.582988 0.962774
vt 0.491239 1.000000
vt 0.731442 0.763932
vt 0.582988 0.738496
vt 0.703090 0.620463
vt 0.731442 0.315376
vt 0.703090 0.171907
vt 0.582988 0.236996
vt 0.657215 0.751214
vt 0.491239 0.775721
vt 0.582988 0.877108
vt 0.508761 0.000000
vt 0.417012 0.037226
vt 0.342785 0.024508
vt 0.508761 0.224279
vt 0.342785 0.248786
vt 0.417012 0.122892
vt 0.342785 0.974564
vt 0.194331 0.896184
vt 0.268558 0.908902
vt 0.417012 0.763004
vt 0.296910 0.828093
vt 0.268558 0.684624
vt 0.417012 0.261504
vt 0.268558 0.236069
vt 0.296910 0.379537
vt 0.342785 0.697341
vt 0.268558 0.546013
vt 0.194331 0.671906
vt 0.222683 0.089597
vt 0.102582 0.207631
vt 0.194331 0.170406
vt 0.222683 0.366820
vt 0.194331 0.533295
vt 0.102582 0.431909
vt 0.102582 0.794798
vt 0.102582 0.709131
vt 0.028355 0.643469
vt 0.028355 0.333525
vt 0.028355 0.419191
vt 0.000000 0.500000
vn -0.1676 -0.0986 -0.9809
vn 0.4387 0.2582 -0.8608
vn -0.6995 0.2582 -0.6663
vn -0.1138 -0.7369 -0.6663
vn 0.8671 -0.1596 -0.4719
vn 0.2814 0.8355 -0.4719
vn -0.9746 -0.1596 -0.1573
vn -0.4221 0.8355 -0.3517
vn 0.5256 -0.7746 -0.3517
vn -0.6126 -0.7746 -0.1573
vn 0.9746 0.1596 0.1573
vn 0.6126 0.7746 0.1573
vn -0.8671 0.1596 0.4719
vn -0.5256 0.7746 0.3517
vn 0.4221 -0.8355 0.3517
vn -0.2814 -0.8355 0.4719
vn 0.6995 -0.2582 0.6663
vn 0.1138 0.7369 0.6663
vn -0.4387 -0.2582 0.8608
vn 0.1676 0.0986 0.9809
usemtl None
s off
f 1/1/1 4/2/1 2/3/1
f 3/4/2 7/5/2 6/6/2
f 5/7/3 9/8/3 10/9/3
f 8/10/4 13/11/4 14/12/4
f 11/13/5 18/14/5 17/15/5
f 12/16/6 20/17/6 19/18/6
f 15/19/7 23/20/7 24/21/7
f 16/22/8 25/23/8 26/24/8
f 21/25/9 27/26/9 30/27/9
f 22/28/10 31/29/10 32/30/10
f 28/31/11 36/32/11 35/33/11
f 29/34/12 38/35/12 37/36/12
f 33/37/13 41/38/13 42/39/13
f 34/40/14 43/41/14 44/42/14
f 39/43/15 47/44/15 48/45/15
f 40/46/16 49/47/16 50/48/16
f 45/49/17 54/50/17 53/51/17
f 46/52/18 52/53/18 55/54/18
f 51/55/19 56/56/19 57/57/19
f 58/58/20 59/59/20 60/60/20
o Shape_IndexedFaceSet.001_Shape_IndexedFaceSet.025
v -0.000000 -0.000000 -1.014490
v -0.336763 -0.000000 -0.956959
v 0.290223 0.170820 -0.956959
v -0.163468 -0.294427 -0.956959
v -0.591433 0.170820 -0.806354
v 0.596346 0.152786 -0.806354
v 0.423052 0.447214 -0.806354
v -0.137742 -0.600000 -0.806354
v -0.830204 0.152786 -0.562670
v -0.666736 0.447214 -0.620196
v 0.801441 -0.047214 -0.620196
v 0.347749 0.723607 -0.620196
v 0.067353 -0.800000 -0.620196
v -0.269410 -0.800000 -0.562670
v -0.961872 -0.047214 -0.318986
v -0.533907 0.723607 -0.469591
v 0.827167 -0.352786 -0.469591
v 0.959996 -0.076393 -0.318986
v 0.399202 0.876393 -0.318986
v 0.093079 0.894427 -0.469591
v 0.373476 -0.818034 -0.469591
v -0.508181 -0.818034 -0.318986
v -0.936146 -0.352786 -0.168381
v -1.011450 -0.076393 0.017777
v -0.482454 0.876393 -0.168381
v -0.243684 0.894427 -0.412065
v 0.663699 -0.647214 -0.412065
v 1.011450 0.076393 -0.017777
v 0.557757 0.847214 -0.017777
v 0.532031 -0.847214 -0.168381
v -0.557757 -0.847214 0.017777
v -0.762851 -0.647214 -0.168381
v -0.959996 0.076393 0.318986
v -0.532031 0.847214 0.168381
v 0.961872 0.047214 0.318986
v 0.936146 0.352786 0.168381
v 0.762851 0.647214 0.168381
v 0.508181 0.818034 0.318986
v 0.482454 -0.876393 0.168381
v -0.399202 -0.876393 0.318986
v -0.801441 0.047214 0.620196
v -0.827167 0.352786 0.469591
v -0.663699 0.647214 0.412065
v -0.373476 0.818034 0.469591
v 0.830204 -0.152786 0.562670
v 0.269410 0.800000 0.562670
v 0.533907 -0.723607 0.469591
v 0.243684 -0.894427 0.412065
v -0.093079 -0.894427 0.469591
v -0.347749 -0.723607 0.620196
v -0.596346 -0.152786 0.806354
v -0.067353 0.800000 0.620196
v 0.666736 -0.447214 0.620196
v 0.591433 -0.170820 0.806354
v 0.137742 0.600000 0.806354
v -0.423052 -0.447214 0.806354
v -0.290223 -0.170820 0.956959
v 0.336763 0.000000 0.956959
v 0.163468 0.294427 0.956959
v 0.000000 0.000000 1.014490
vt 0.971645 0.666475
vt 0.805669 0.829594
vt 0.805669 0.328094
vt 0.805669 0.103816
vt 0.805669 0.466705
vt 0.971645 0.580809
vt 0.777317 0.633180
vt 0.657215 0.975492
vt 0.897418 0.792369
vt 0.417012 0.122892
vt 0.508761 0.000000
vt 0.342785 0.974564
vt 0.582988 0.738496
vt 0.268558 0.546013
vt 0.491239 0.775721
vt 0.194331 0.170406
vt 0.417012 0.261504
vt 0.703090 0.171907
vt 0.731442 0.453987
vt 0.222683 0.366820
vt 0.342785 0.697341
vt 0.102582 0.709131
vt 0.194331 0.896184
vt 0.342785 0.248786
vt 0.102582 0.431909
vt 0.028355 0.333525
vt 0.102582 0.794798
vt 0.000000 0.500000
vt 0.268558 0.684624
vt 0.194331 0.671906
vt 0.296910 0.379537
vt 0.971645 0.356531
vt 1.000000 0.500000
vt 0.731442 0.763932
vt 0.703090 0.620463
vt 0.897418 0.290869
vt 0.897418 0.205202
vt 0.731442 0.091098
vt 0.731442 0.315376
vt 0.897418 0.568091
vt 0.657215 0.751214
vt 0.582988 0.877108
vt 0.582988 0.962774
vt 0.777317 0.910403
vt 0.657215 0.302659
vt 0.508761 0.224279
vt 0.417012 0.037226
vt 0.657215 0.025436
vt 0.491239 1.000000
vt 0.268558 0.908902
vt 0.296910 0.828093
vt 0.417012 0.763004
vt 0.582988 0.236996
vt 0.342785 0.024508
vt 0.222683 0.089597
vt 0.268558 0.236069
vt 0.194331 0.533295
vt 0.028355 0.419191
vt 0.102582 0.207631
vt 0.028355 0.643469
vn -0.1432 0.5257 -0.8385
vn 0.3901 -0.3804 -0.8385
vn -0.6463 -0.3804 -0.6615
vn 0.7989 0.4702 -0.3750
vn -0.8781 0.4702 -0.0885
vn -0.0151 -0.9960 -0.0885
vn 0.8781 -0.4702 0.0885
vn 0.0151 0.9960 0.0885
vn -0.7989 -0.4702 0.3750
vn 0.6463 0.3804 0.6615
vn -0.3901 0.3804 0.8385
vn 0.1432 -0.5257 0.8385
vn -0.1432 0.5258 -0.8385
vn 0.1432 -0.5258 0.8385
usemtl None
s off
f 62/61/21 70/62/21 72/63/21
f 71/64/22 73/65/22 64/66/22
f 74/67/23 75/68/23 65/69/23
f 97/70/24 88/71/24 71/64/24
f 93/72/25 85/73/25 70/62/25
f 109/74/26 91/75/26 74/67/26
f 113/76/27 99/77/27 87/78/27
f 80/79/28 85/73/28 106/80/28
f 100/81/29 116/82/29 101/83/29
f 98/84/30 115/85/30 118/86/30
f 111/87/31 120/88/31 104/89/31
f 118/86/32 110/90/32 108/91/32
f 63/92/33 61/93/33 62/61/33
f 62/61/21 65/69/21 70/62/21
f 70/62/21 76/94/21 72/63/21
f 76/94/21 86/95/21 72/63/21
f 86/95/21 80/79/21 72/63/21
f 72/63/21 67/96/21 63/92/21
f 63/92/21 62/61/21 72/63/21
f 64/66/22 61/93/22 63/92/22
f 63/92/22 66/97/22 64/66/22
f 66/97/22 71/64/22 64/66/22
f 71/64/22 77/98/22 73/65/22
f 77/98/22 87/78/22 73/65/22
f 87/78/22 81/99/22 73/65/22
f 73/65/22 68/100/22 64/66/22
f 65/69/23 62/61/23 64/66/23
f 64/66/23 68/100/23 65/69/23
f 68/100/23 74/67/23 65/69/23
f 74/67/23 82/101/23 75/68/23
f 82/101/23 92/102/23 75/68/23
f 92/102/23 83/103/23 75/68/23
f 75/68/23 69/104/23 65/69/23
f 71/64/24 66/97/24 67/96/24
f 67/96/24 72/63/24 79/105/24
f 79/105/24 89/106/24 97/70/24
f 97/70/24 96/107/24 88/71/24
f 88/71/24 78/108/24 71/64/24
f 71/64/24 67/96/24 79/105/24
f 79/105/24 97/70/24 71/64/24
f 70/62/25 69/104/25 75/68/25
f 75/68/25 84/109/25 93/72/25
f 93/72/25 102/110/25 85/73/25
f 102/110/25 103/111/25 85/73/25
f 103/111/25 94/112/25 85/73/25
f 85/73/25 76/94/25 70/62/25
f 70/62/25 75/68/25 93/72/25
f 74/67/26 73/65/26 99/77/26
f 73/65/26 81/99/26 99/77/26
f 81/99/26 90/113/26 99/77/26
f 99/77/26 108/91/26 109/74/26
f 109/74/26 100/81/26 91/75/26
f 91/75/26 82/101/26 74/67/26
f 99/77/26 109/74/26 74/67/26
f 87/78/27 77/98/27 95/114/27
f 77/98/27 78/108/27 95/114/27
f 78/108/27 88/71/27 95/114/27
f 95/114/27 105/115/27 113/76/27
f 113/76/27 107/116/27 99/77/27
f 99/77/27 90/113/27 87/78/27
f 95/114/27 113/76/27 87/78/27
f 89/106/28 79/105/28 80/79/28
f 80/79/28 86/95/28 85/73/28
f 85/73/28 94/112/28 104/89/28
f 104/89/28 112/117/28 85/73/28
f 112/117/28 106/80/28 85/73/28
f 106/80/28 98/84/28 89/106/28
f 89/106/28 80/79/28 106/80/28
f 84/109/29 83/103/29 92/102/29
f 92/102/29 91/75/29 100/81/29
f 100/81/29 110/90/29 116/82/29
f 116/82/29 111/87/29 101/83/29
f 101/83/29 93/72/29 84/109/29
f 84/109/29 92/102/29 101/83/29
f 92/102/29 100/81/29 101/83/29
f 105/115/30 95/114/30 98/84/30
f 95/114/30 96/107/30 98/84/30
f 96/107/30 97/70/30 98/84/30
f 98/84/30 106/80/30 115/85/30
f 115/85/30 119/118/30 118/86/30
f 118/86/30 114/119/30 98/84/30
f 114/119/30 105/115/30 98/84/30
f 102/110/31 101/83/31 111/87/31
f 111/87/31 117/120/31 120/88/31
f 120/88/31 119/118/31 104/89/31
f 119/118/31 115/85/31 104/89/31
f 115/85/31 112/117/31 104/89/31
f 104/89/31 103/111/31 102/110/31
f 102/110/31 111/87/31 104/89/31
f 108/91/32 107/116/32 113/76/32
f 113/76/32 114/119/32 108/91/32
f 114/119/32 118/86/32 108/91/32
f 118/86/34 120/88/34 117/120/34
f 117/120/32 116/82/32 110/90/32
f 110/90/32 109/74/32 108/91/32
f 118/86/32 117/120/32 110/90/32
o Shape_IndexedLineSet_Shape_IndexedLineSet.010
v -0.000000 -0.000000 -1.014490
v 0.290223 0.170820 -0.956959
v -0.336763 -0.000000 -0.956959
v -0.591433 0.170820 -0.806354
v -0.163468 -0.294427 -0.956959
v -0.137742 -0.600000 -0.806354
v 0.596346 0.152786 -0.806354
v 0.801441 -0.047214 -0.620196
v 0.423052 0.447214 -0.806354
v 0.347749 0.723607 -0.620196
v -0.830204 0.152786 -0.562670
v -0.961872 -0.047214 -0.318986
v -0.666736 0.447214 -0.620196
v -0.533907 0.723607 -0.469591
v 0.067353 -0.800000 -0.620196
v 0.373476 -0.818034 -0.469591
v -0.269410 -0.800000 -0.562670
v -0.508181 -0.818034 -0.318986
v 0.827167 -0.352786 -0.469591
v 0.663699 -0.647214 -0.412065
v 0.959996 -0.076393 -0.318986
v 1.011450 0.076393 -0.017777
v 0.399202 0.876393 -0.318986
v 0.557757 0.847214 -0.017777
v 0.093079 0.894427 -0.469591
v -0.243684 0.894427 -0.412065
v -0.936146 -0.352786 -0.168381
v -0.762851 -0.647214 -0.168381
v -1.011450 -0.076393 0.017777
v -0.959996 0.076393 0.318986
v -0.482454 0.876393 -0.168381
v -0.532031 0.847214 0.168381
v 0.532031 -0.847214 -0.168381
v 0.482454 -0.876393 0.168381
v -0.557757 -0.847214 0.017777
v -0.399202 -0.876393 0.318986
v 0.961872 0.047214 0.318986
v 0.830204 -0.152786 0.562670
v 0.936146 0.352786 0.168381
v 0.762851 0.647214 0.168381
v 0.508181 0.818034 0.318986
v 0.269410 0.800000 0.562670
v -0.801441 0.047214 0.620196
v -0.596346 -0.152786 0.806354
v -0.827167 0.352786 0.469591
v -0.663699 0.647214 0.412065
v -0.373476 0.818034 0.469591
v -0.067353 0.800000 0.620196
v 0.533907 -0.723607 0.469591
v 0.666736 -0.447214 0.620196
v 0.243684 -0.894427 0.412065
v -0.093079 -0.894427 0.469591
v -0.347749 -0.723607 0.620196
v -0.423052 -0.447214 0.806354
v 0.591433 -0.170820 0.806354
v 0.336763 0.000000 0.956959
v 0.137742 0.600000 0.806354
v 0.163468 0.294427 0.956959
v -0.290223 -0.170820 0.956959
v 0.000000 0.000000 1.014490
l 121 122
l 123 124
l 125 126
l 127 128
l 129 130
l 131 132
l 133 134
l 135 136
l 137 138
l 139 140
l 141 142
l 143 144
l 145 146
l 147 148
l 149 150
l 151 152
l 153 154
l 155 156
l 157 158
l 159 160
l 161 162
l 163 164
l 165 166
l 167 168
l 169 170
l 171 172
l 173 174
l 175 176
l 177 178
l 179 180
o Shape_IndexedFaceSet.002_Shape_IndexedFaceSet.026
v -0.168381 0.618034 -0.985722
v 0.458605 -0.447214 -0.985722
v -0.168381 -0.099106 -0.985722
v -0.759815 -0.447214 -0.777591
v 0.440828 0.259464 -0.864969
v -0.702962 0.259464 -0.669586
v 0.939182 0.552786 -0.440828
v -0.114379 -0.740536 -0.669586
v -1.032260 0.552786 -0.104065
v 0.871343 -0.160358 -0.474204
v 0.282760 0.839643 -0.474204
v -0.017777 -1.170820 -0.104065
v -0.979348 -0.160358 -0.158068
v -0.424141 0.839643 -0.353451
v 1.032260 -0.552786 0.104065
v 0.017777 1.170820 0.104065
v 0.528206 -0.778391 -0.353451
v -0.615584 -0.778391 -0.158068
v -0.939182 -0.552786 0.440828
v 0.979348 0.160358 0.158068
v 0.615584 0.778391 0.158068
v -0.871343 0.160358 0.474204
v -0.528206 0.778391 0.353451
v 0.759815 0.447214 0.777591
v 0.424141 -0.839643 0.353451
v -0.282760 -0.839643 0.474204
v -0.458605 0.447214 0.985722
v 0.702962 -0.259464 0.669586
v 0.114379 0.740536 0.669586
v 0.168381 -0.618034 0.985722
v -0.440828 -0.259464 0.864969
v 0.168381 0.099106 0.985722
vt 0.457677 0.581559
vt 0.763932 0.581559
vt 0.309017 0.277864
vt 0.309017 0.868035
vt 0.610804 0.286474
vt 0.610804 0.840497
vt 0.736068 0.045085
vt 0.183753 0.555402
vt 0.736068 1.000000
vt 0.431519 0.077944
vt 0.858571 0.363038
vt 0.000000 0.508610
vt 0.431519 0.974371
vt 0.858571 0.705443
vt 0.263932 0.000000
vt 1.000000 0.491390
vt 0.167587 0.244151
vt 0.167587 0.798173
vt 0.263932 0.954915
vt 0.568481 0.025629
vt 0.832413 0.201827
vt 0.568481 0.922056
vt 0.832413 0.755849
vt 0.690983 0.131965
vt 0.141430 0.294557
vt 0.141430 0.636962
vt 0.690983 0.722136
vt 0.389196 0.159503
vt 0.816247 0.444598
vt 0.236068 0.418441
vt 0.389196 0.713526
vt 0.542323 0.418441
vn -0.0000 0.0000 -1.0000
vn -0.3320 0.0000 -0.9433
vn 0.2861 0.1684 -0.9433
vn -0.1611 -0.2902 -0.9433
vn -0.5830 0.1684 -0.7948
vn 0.5878 0.1506 -0.7948
vn 0.4170 0.4408 -0.7948
vn -0.1358 -0.5914 -0.7948
vn -0.8184 0.1506 -0.5546
vn -0.6572 0.4408 -0.6113
vn 0.7900 -0.0465 -0.6113
vn 0.3428 0.7133 -0.6113
vn 0.0664 -0.7886 -0.6113
vn -0.2656 -0.7886 -0.5546
vn -0.9481 -0.0465 -0.3144
vn -0.5263 0.7133 -0.4629
vn 0.8154 -0.3478 -0.4629
vn 0.9463 -0.0753 -0.3144
vn 0.3935 0.8639 -0.3144
vn 0.0917 0.8817 -0.4629
vn 0.3681 -0.8064 -0.4629
vn -0.5009 -0.8064 -0.3144
vn -0.9228 -0.3478 -0.1660
vn -0.9970 -0.0753 0.0175
vn -0.4756 0.8639 -0.1660
vn -0.2402 0.8817 -0.4062
vn 0.6542 -0.6380 -0.4062
vn 0.9970 0.0753 -0.0175
vn 0.5498 0.8351 -0.0175
vn 0.5244 -0.8351 -0.1660
vn -0.5498 -0.8351 0.0175
vn -0.7520 -0.6380 -0.1660
vn -0.9463 0.0753 0.3144
vn -0.5244 0.8351 0.1660
vn 0.9481 0.0465 0.3144
vn 0.9228 0.3478 0.1660
vn 0.7520 0.6380 0.1660
vn 0.5009 0.8064 0.3144
vn 0.4756 -0.8639 0.1660
vn -0.3935 -0.8639 0.3144
vn -0.7900 0.0465 0.6113
vn -0.8154 0.3478 0.4629
vn -0.6542 0.6380 0.4062
vn -0.3681 0.8064 0.4629
vn 0.8184 -0.1506 0.5546
vn 0.2656 0.7886 0.5546
vn 0.5263 -0.7133 0.4629
vn 0.2402 -0.8817 0.4062
vn -0.0917 -0.8817 0.4629
vn -0.3428 -0.7133 0.6113
vn -0.5878 -0.1506 0.7948
vn -0.0664 0.7886 0.6113
vn 0.6572 -0.4408 0.6113
vn 0.5830 -0.1684 0.7948
vn 0.1358 0.5914 0.7948
vn -0.4170 -0.4408 0.7948
vn -0.2861 -0.1684 0.9433
vn 0.3320 0.0000 0.9433
vn 0.1611 0.2902 0.9433
vn 0.0000 0.0000 1.0000
usemtl None
s off
f 183/121/35 181/122/35 182/123/35
f 183/121/36 184/124/36 181/122/36
f 181/122/37 185/125/37 182/123/37
f 182/123/38 184/124/38 183/121/38
f 181/122/39 184/124/39 186/126/39
f 182/123/40 185/125/40 187/127/40
f 185/125/41 181/122/41 187/127/41
f 184/124/42 182/123/42 188/128/42
f 184/124/43 189/129/43 186/126/43
f 186/126/44 189/129/44 181/122/44
f 187/127/45 190/130/45 182/123/45
f 181/122/46 191/131/46 187/127/46
f 182/123/47 192/132/47 188/128/47
f 188/128/48 192/132/48 184/124/48
f 189/129/49 184/124/49 193/133/49
f 181/122/50 189/129/50 194/134/50
f 182/123/51 190/130/51 195/135/51
f 190/130/52 187/127/52 195/135/52
f 187/127/53 191/131/53 196/136/53
f 191/131/54 181/122/54 196/136/54
f 192/132/55 182/123/55 197/137/55
f 184/124/56 192/132/56 198/138/56
f 184/124/57 199/139/57 193/133/57
f 193/133/58 199/139/58 189/129/58
f 189/129/59 196/136/59 194/134/59
f 194/134/60 196/136/60 181/122/60
f 195/135/61 197/137/61 182/123/61
f 187/127/62 200/140/62 195/135/62
f 196/136/63 201/141/63 187/127/63
f 197/137/64 195/135/64 192/132/64
f 192/132/65 199/139/65 198/138/65
f 198/138/66 199/139/66 184/124/66
f 189/129/67 199/139/67 202/142/67
f 196/136/68 189/129/68 203/143/68
f 195/135/69 200/140/69 204/144/69
f 200/140/70 187/127/70 204/144/70
f 187/127/71 201/141/71 204/144/71
f 201/141/72 196/136/72 204/144/72
f 192/132/73 195/135/73 205/145/73
f 199/139/74 192/132/74 206/146/74
f 199/139/75 207/147/75 202/142/75
f 202/142/76 207/147/76 189/129/76
f 189/129/77 207/147/77 203/143/77
f 203/143/78 207/147/78 196/136/78
f 204/144/79 208/148/79 195/135/79
f 196/136/80 209/149/80 204/144/80
f 195/135/81 210/150/81 205/145/81
f 205/145/82 210/150/82 192/132/82
f 192/132/83 210/150/83 206/146/83
f 206/146/84 210/150/84 199/139/84
f 207/147/85 199/139/85 211/151/85
f 196/136/86 207/147/86 209/149/86
f 195/135/87 208/148/87 210/150/87
f 208/148/88 204/144/88 210/150/88
f 204/144/89 209/149/89 207/147/89
f 199/139/90 210/150/90 211/151/90
f 211/151/91 210/150/91 207/147/91
f 204/144/92 212/152/92 210/150/92
f 207/147/93 212/152/93 204/144/93
f 207/147/94 210/150/94 212/152/94
o Shape_IndexedLineSet.001_Shape_IndexedLineSet.011
v -0.168381 0.618034 -0.985722
v 0.458605 -0.447214 -0.985722
v -0.168381 0.618034 -0.985722
v -0.168381 -0.099106 -0.985722
v -0.168381 0.618034 -0.985722
v -0.759815 -0.447214 -0.777591
v -0.168381 0.618034 -0.985722
v 0.440828 0.259464 -0.864969
v -0.168381 0.618034 -0.985722
v -0.702962 0.259464 -0.669586
v -0.168381 0.618034 -0.985722
v 0.939182 0.552786 -0.440828
v -0.168381 0.618034 -0.985722
v -1.032260 0.552786 -0.104065
v -0.168381 0.618034 -0.985722
v 0.282760 0.839643 -0.474204
v -0.168381 0.618034 -0.985722
v -0.424141 0.839643 -0.353451
v -0.168381 0.618034 -0.985722
v 0.017777 1.170820 0.104065
v 0.458605 -0.447214 -0.985722
v -0.168381 -0.099106 -0.985722
v 0.458605 -0.447214 -0.985722
v -0.759815 -0.447214 -0.777591
v 0.458605 -0.447214 -0.985722
v 0.440828 0.259464 -0.864969
v 0.458605 -0.447214 -0.985722
v 0.939182 0.552786 -0.440828
v 0.458605 -0.447214 -0.985722
v -0.114379 -0.740536 -0.669586
v 0.458605 -0.447214 -0.985722
v 0.871343 -0.160358 -0.474204
v 0.458605 -0.447214 -0.985722
v -0.017777 -1.170820 -0.104065
v 0.458605 -0.447214 -0.985722
v 1.032260 -0.552786 0.104065
v 0.458605 -0.447214 -0.985722
v 0.528206 -0.778391 -0.353451
v -0.168381 -0.099106 -0.985722
v -0.759815 -0.447214 -0.777591
v -0.759815 -0.447214 -0.777591
v -0.702962 0.259464 -0.669586
v -0.759815 -0.447214 -0.777591
v -0.114379 -0.740536 -0.669586
v -0.759815 -0.447214 -0.777591
v -1.032260 0.552786 -0.104065
v -0.759815 -0.447214 -0.777591
v -0.017777 -1.170820 -0.104065
v -0.759815 -0.447214 -0.777591
v -0.979348 -0.160358 -0.158068
v -0.759815 -0.447214 -0.777591
v -0.615584 -0.778391 -0.158068
v -0.759815 -0.447214 -0.777591
v -0.939182 -0.552786 0.440828
v 0.440828 0.259464 -0.864969
v 0.939182 0.552786 -0.440828
v -0.702962 0.259464 -0.669586
v -1.032260 0.552786 -0.104065
v 0.939182 0.552786 -0.440828
v 0.871343 -0.160358 -0.474204
v 0.939182 0.552786 -0.440828
v 0.282760 0.839643 -0.474204
v 0.939182 0.552786 -0.440828
v 1.032260 -0.552786 0.104065
v 0.939182 0.552786 -0.440828
v 0.017777 1.170820 0.104065
v 0.939182 0.552786 -0.440828
v 0.979348 0.160358 0.158068
v 0.939182 0.552786 -0.440828
v 0.615584 0.778391 0.158068
v 0.939182 0.552786 -0.440828
v 0.759815 0.447214 0.777591
v -0.114379 -0.740536 -0.669586
v -0.017777 -1.170820 -0.104065
v -1.032260 0.552786 -0.104065
v -0.979348 -0.160358 -0.158068
v -1.032260 0.552786 -0.104065
v -0.424141 0.839643 -0.353451
v -1.032260 0.552786 -0.104065
v 0.017777 1.170820 0.104065
v -1.032260 0.552786 -0.104065
v -0.939182 -0.552786 0.440828
v -1.032260 0.552786 -0.104065
v -0.871343 0.160358 0.474204
v -1.032260 0.552786 -0.104065
v -0.528206 0.778391 0.353451
v -1.032260 0.552786 -0.104065
v -0.458605 0.447214 0.985722
v 0.871343 -0.160358 -0.474204
v 1.032260 -0.552786 0.104065
v 0.282760 0.839643 -0.474204
v 0.017777 1.170820 0.104065
v -0.017777 -1.170820 -0.104065
v 1.032260 -0.552786 0.104065
v -0.017777 -1.170820 -0.104065
v 0.528206 -0.778391 -0.353451
v -0.017777 -1.170820 -0.104065
v -0.615584 -0.778391 -0.158068
v -0.017777 -1.170820 -0.104065
v -0.939182 -0.552786 0.440828
v -0.017777 -1.170820 -0.104065
v 0.424141 -0.839643 0.353451
v -0.017777 -1.170820 -0.104065
v -0.282760 -0.839643 0.474204
v -0.017777 -1.170820 -0.104065
v 0.168381 -0.618034 0.985722
v -0.979348 -0.160358 -0.158068
v -0.939182 -0.552786 0.440828
v -0.424141 0.839643 -0.353451
v 0.017777 1.170820 0.104065
v 1.032260 -0.552786 0.104065
v 0.528206 -0.778391 -0.353451
v 1.032260 -0.552786 0.104065
v 0.979348 0.160358 0.158068
v 1.032260 -0.552786 0.104065
v 0.759815 0.447214 0.777591
v 1.032260 -0.552786 0.104065
v 0.424141 -0.839643 0.353451
v 1.032260 -0.552786 0.104065
v 0.702962 -0.259464 0.669586
v 1.032260 -0.552786 0.104065
v 0.168381 -0.618034 0.985722
v 0.017777 1.170820 0.104065
v 0.615584 0.778391 0.158068
v 0.017777 1.170820 0.104065
v -0.528206 0.778391 0.353451
v 0.017777 1.170820 0.104065
v 0.759815 0.447214 0.777591
v 0.017777 1.170820 0.104065
v -0.458605 0.447214 0.985722
v 0.017777 1.170820 0.104065
v 0.114379 0.740536 0.669586
v -0.615584 -0.778391 -0.158068
v -0.939182 -0.552786 0.440828
v -0.939182 -0.552786 0.440828
v -0.871343 0.160358 0.474204
v -0.939182 -0.552786 0.440828
v -0.282760 -0.839643 0.474204
v -0.939182 -0.552786 0.440828
v -0.458605 0.447214 0.985722
v -0.939182 -0.552786 0.440828
v 0.168381 -0.618034 0.985722
v -0.939182 -0.552786 0.440828
v -0.440828 -0.259464 0.864969
v 0.979348 0.160358 0.158068
v 0.759815 0.447214 0.777591
v 0.615584 0.778391 0.158068
v 0.759815 0.447214 0.777591
v -0.871343 0.160358 0.474204
v -0.458605 0.447214 0.985722
v -0.528206 0.778391 0.353451
v -0.458605 0.447214 0.985722
v 0.759815 0.447214 0.777591
v -0.458605 0.447214 0.985722
v 0.759815 0.447214 0.777591
v 0.702962 -0.259464 0.669586
v 0.759815 0.447214 0.777591
v 0.114379 0.740536 0.669586
v 0.759815 0.447214 0.777591
v 0.168381 -0.618034 0.985722
v 0.759815 0.447214 0.777591
v 0.168381 0.099106 0.985722
v 0.424141 -0.839643 0.353451
v 0.168381 -0.618034 0.985722
v -0.282760 -0.839643 0.474204
v 0.168381 -0.618034 0.985722
v -0.458605 0.447214 0.985722
v 0.114379 0.740536 0.669586
v -0.458605 0.447214 0.985722
v 0.168381 -0.618034 0.985722
v -0.458605 0.447214 0.985722
v -0.440828 -0.259464 0.864969
v -0.458605 0.447214 0.985722
v 0.168381 0.099106 0.985722
v 0.702962 -0.259464 0.669586
v 0.168381 -0.618034 0.985722
v 0.168381 -0.618034 0.985722
v -0.440828 -0.259464 0.864969
v 0.168381 -0.618034 0.985722
v 0.168381 0.099106 0.985722
l 213 214
l 215 216
l 217 218
l 219 220
l 221 222
l 223 224
l 225 226
l 227 228
l 229 230
l 231 232
l 233 234
l 235 236
l 237 238
l 239 240
l 241 242
l 243 244
l 245 246
l 247 248
l 249 250
l 251 252
l 253 254
l 255 256
l 257 258
l 259 260
l 261 262
l 263 264
l 265 266
l 267 268
l 269 270
l 271 272
l 273 274
l 275 276
l 277 278
l 279 280
l 281 282
l 283 284
l 285 286
l 287 288
l 289 290
l 291 292
l 293 294
l 295 296
l 297 298
l 299 300
l 301 302
l 303 304
l 305 306
l 307 308
l 309 310
l 311 312
l 313 314
l 315 316
l 317 318
l 319 320
l 321 322
l 323 324
l 325 326
l 327 328
l 329 330
l 331 332
l 333 334
l 335 336
l 337 338
l 339 340
l 341 342
l 343 344
l 345 346
l 347 348
l 349 350
l 351 352
l 353 354
l 355 356
l 357 358
l 359 360
l 361 362
l 363 364
l 365 366
l 367 368
l 369 370
l 371 372
l 373 374
l 375 376
l 377 378
l 379 380
l 381 382
l 383 384
l 385 386
l 387 388
l 389 390
l 391 392
