# Blender v2.93.4 OBJ File: ''
# www.blender.org
mtllib compound_of_truncated_cuboctahedron_and_dual.mtl
o Shape_IndexedFaceSet_Shape_IndexedFaceSet.020
v -0.000000 -0.000000 -1.024120
v -0.431479 -0.000000 -0.928785
v 0.021063 0.430964 -0.928785
v 0.341058 -0.264298 -0.928785
v -0.410416 0.430964 -0.833453
v -0.700624 -0.264298 -0.698633
v 0.383184 0.597631 -0.738121
v 0.391908 -0.638071 -0.698633
v 0.703179 -0.097631 -0.738121
v -0.658498 0.597631 -0.507969
v -0.649774 -0.638071 -0.468482
v -0.948706 -0.097631 -0.373150
v 0.463822 0.833333 -0.373150
v 0.724242 0.333333 -0.642789
v 0.754030 -0.471404 -0.507969
v 0.122763 -0.902369 -0.468482
v -0.577860 0.833333 -0.142998
v -0.927643 0.333333 -0.277818
v -0.897856 -0.471404 -0.142998
v -0.308715 -0.902369 -0.373150
v 0.804880 0.569036 -0.277818
v 0.215739 1.000000 -0.047666
v 0.847005 -0.569036 -0.087154
v 0.215739 -1.000000 -0.047666
v -0.847005 0.569036 0.087154
v -0.215739 1.000000 0.047666
v -0.804880 -0.569036 0.277818
v -0.215739 -1.000000 0.047666
v 0.897856 0.471404 0.142998
v 0.308715 0.902369 0.373150
v 0.927643 -0.333333 0.277818
v 0.577860 -0.833333 0.142998
v -0.754030 0.471404 0.507969
v -0.122763 0.902369 0.468482
v -0.724242 -0.333333 0.642789
v -0.463822 -0.833333 0.373150
v 0.948706 0.097631 0.373150
v 0.649774 0.638071 0.468482
v 0.658498 -0.597631 0.507969
v -0.703179 0.097631 0.738121
v -0.391908 0.638071 0.698633
v -0.383184 -0.597631 0.738121
v 0.700624 0.264298 0.698633
v 0.410416 -0.430964 0.833453
v -0.341058 0.264298 0.928785
v -0.021063 -0.430964 0.928785
v 0.431479 0.000000 0.928785
v 0.000000 0.000000 1.024120
vt 0.953455 0.500000
vt 0.953455 0.715482
vt 1.000000 0.500000
vt 0.860368 0.451184
vt 0.841089 0.180964
vt 0.953455 0.367851
vt 0.841089 0.367851
vt 0.569815 0.264298
vt 0.682181 0.451184
vt 0.682181 0.916667
vt 0.813825 0.666667
vt 0.860368 0.798815
vt 0.748003 0.798815
vt 0.457449 0.784518
vt 0.569815 0.916667
vt 0.523272 0.000000
vt 0.682181 0.048815
vt 0.728724 0.048815
vt 0.476728 1.000000
vt 0.317819 0.951185
vt 0.523272 1.000000
vt 0.542551 0.215482
vt 0.251997 0.201184
vt 0.430185 0.083333
vt 0.317819 0.083333
vt 0.186175 0.333333
vt 0.364363 0.215482
vt 0.430185 0.735702
vt 0.158911 0.632149
vt 0.317819 0.548816
vt 0.139632 0.548816
vt 0.158911 0.819035
vt 0.251997 0.735702
vt 0.046545 0.500000
vt 0.046545 0.284518
vt 0.093088 0.284518
vt 0.906912 0.715482
vt 0.748003 0.264298
vt 0.728724 0.180964
vt 0.635637 0.784518
vt 0.635637 0.666667
vt 0.476728 0.000000
vt 0.271276 0.951185
vt 0.364363 0.333333
vt 0.139632 0.201184
vt 0.271276 0.819035
vt 0.046545 0.632149
vt 0.000000 0.500000
vn -0.2104 0.2209 -0.9523
vn 0.5614 -0.3772 -0.7366
vn -0.8195 -0.3772 -0.4315
vn 0.6091 0.5981 -0.5208
vn -0.7718 0.5981 -0.2157
vn -0.0477 -0.9753 -0.2157
vn 0.0477 0.9753 0.2157
vn 0.7718 -0.5981 0.2157
vn -0.6091 -0.5981 0.5208
vn 0.8195 0.3772 0.4315
vn -0.5614 0.3772 0.7366
vn 0.2104 -0.2209 0.9523
usemtl None
s off
f 2/1/1 3/2/1 1/3/1
f 9/4/2 8/5/2 4/6/2
f 6/7/3 19/8/3 12/9/3
f 13/10/4 14/11/4 7/12/4
f 10/13/5 25/14/5 17/15/5
f 24/16/6 20/17/6 16/18/6
f 26/19/7 30/20/7 22/21/7
f 23/22/8 39/23/8 32/24/8
f 36/25/9 35/26/9 27/27/9
f 29/28/10 43/29/10 37/30/10
f 40/31/11 41/32/11 33/33/11
f 47/34/12 46/35/12 44/36/12
f 2/1/1 5/37/1 3/2/1
f 9/4/2 15/38/2 8/5/2
f 6/7/3 11/39/3 19/8/3
f 13/10/4 21/40/4 14/11/4
f 10/13/5 18/41/5 25/14/5
f 24/16/6 28/42/6 20/17/6
f 26/19/7 34/43/7 30/20/7
f 23/22/8 31/44/8 39/23/8
f 36/25/9 42/45/9 35/26/9
f 29/28/10 38/46/10 43/29/10
f 40/31/11 45/47/11 41/32/11
f 47/34/12 48/48/12 46/35/12
o Shape_IndexedFaceSet.001_Shape_IndexedFaceSet.021
v -0.000000 -0.000000 -1.024120
v -0.431479 -0.000000 -0.928785
v 0.021063 0.430964 -0.928785
v 0.341058 -0.264298 -0.928785
v -0.410416 0.430964 -0.833453
v -0.700624 -0.264298 -0.698633
v 0.383184 0.597631 -0.738121
v 0.391908 -0.638071 -0.698633
v 0.703179 -0.097631 -0.738121
v -0.658498 0.597631 -0.507969
v -0.649774 -0.638071 -0.468482
v -0.948706 -0.097631 -0.373150
v 0.463822 0.833333 -0.373150
v 0.724242 0.333333 -0.642789
v 0.754030 -0.471404 -0.507969
v 0.122763 -0.902369 -0.468482
v -0.577860 0.833333 -0.142998
v -0.927643 0.333333 -0.277818
v -0.897856 -0.471404 -0.142998
v -0.308715 -0.902369 -0.373150
v 0.804880 0.569036 -0.277818
v 0.215739 1.000000 -0.047666
v 0.847005 -0.569036 -0.087154
v 0.215739 -1.000000 -0.047666
v -0.847005 0.569036 0.087154
v -0.215739 1.000000 0.047666
v -0.804880 -0.569036 0.277818
v -0.215739 -1.000000 0.047666
v 0.897856 0.471404 0.142998
v 0.308715 0.902369 0.373150
v 0.927643 -0.333333 0.277818
v 0.577860 -0.833333 0.142998
v -0.754030 0.471404 0.507969
v -0.122763 0.902369 0.468482
v -0.724242 -0.333333 0.642789
v -0.463822 -0.833333 0.373150
v 0.948706 0.097631 0.373150
v 0.649774 0.638071 0.468482
v 0.658498 -0.597631 0.507969
v -0.703179 0.097631 0.738121
v -0.391908 0.638071 0.698633
v -0.383184 -0.597631 0.738121
v 0.700624 0.264298 0.698633
v 0.410416 -0.430964 0.833453
v -0.341058 0.264298 0.928785
v -0.021063 -0.430964 0.928785
v 0.431479 0.000000 0.928785
v 0.000000 0.000000 1.024120
vt 0.860368 0.451184
vt 0.953455 0.367851
vt 0.953455 0.715482
vt 0.635637 0.666667
vt 0.748003 0.798815
vt 0.906912 0.715482
vt 0.430185 0.083333
vt 0.523272 0.000000
vt 0.728724 0.048815
vt 0.317819 0.083333
vt 0.364363 0.215482
vt 0.569815 0.264298
vt 0.523272 1.000000
vt 0.271276 0.819035
vt 0.635637 0.784518
vt 0.457449 0.784518
vt 0.158911 0.819035
vt 0.476728 1.000000
vt 0.046545 0.500000
vt 0.093088 0.284518
vt 0.251997 0.201184
vt 0.000000 0.500000
vt 0.046545 0.632149
vt 0.139632 0.548816
vt 1.000000 0.500000
vt 0.860368 0.798815
vt 0.813825 0.666667
vt 0.953455 0.500000
vt 0.841089 0.367851
vt 0.682181 0.451184
vt 0.841089 0.180964
vt 0.748003 0.264298
vt 0.542551 0.215482
vt 0.728724 0.180964
vt 0.682181 0.048815
vt 0.476728 0.000000
vt 0.682181 0.916667
vt 0.317819 0.951185
vt 0.430185 0.735702
vt 0.569815 0.916667
vt 0.251997 0.735702
vt 0.271276 0.951185
vt 0.364363 0.333333
vt 0.317819 0.548816
vt 0.158911 0.632149
vt 0.186175 0.333333
vt 0.139632 0.201184
vt 0.046545 0.284518
vn 0.3920 0.1804 -0.9021
vn -0.7356 0.1804 -0.6530
vn 0.5248 -0.7963 -0.3007
vn -0.6027 -0.7963 -0.0516
vn 0.6027 0.7963 0.0516
vn -0.5248 0.7963 0.3007
vn 0.7356 -0.1804 0.6530
vn -0.3920 -0.1804 0.9021
usemtl None
s off
f 57/49/13 52/50/13 51/51/13
f 66/52/14 58/53/14 53/54/14
f 80/55/15 72/56/15 64/57/15
f 84/58/16 75/59/16 67/60/16
f 70/61/17 86/62/17 69/63/17
f 73/64/18 89/65/18 74/66/18
f 95/67/19 92/68/19 87/69/19
f 96/70/20 93/71/20 88/72/20
f 52/50/13 49/73/13 51/51/13
f 51/51/13 55/74/13 62/75/13
f 62/75/13 57/49/13 51/51/13
f 53/54/14 50/76/14 54/77/14
f 54/77/14 60/78/14 53/54/14
f 60/78/14 66/52/14 53/54/14
f 64/57/15 56/79/15 80/55/15
f 56/79/15 63/80/15 80/55/15
f 63/80/15 71/81/15 80/55/15
f 67/60/16 59/82/16 84/58/16
f 59/82/16 68/83/16 84/58/16
f 68/83/16 76/84/16 84/58/16
f 69/63/17 61/85/17 70/61/17
f 70/61/17 78/86/17 86/62/17
f 86/62/17 77/87/17 69/63/17
f 74/66/18 65/88/18 73/64/18
f 73/64/18 81/89/18 89/65/18
f 89/65/18 82/90/18 74/66/18
f 87/69/19 79/91/19 95/67/19
f 79/91/19 85/92/19 95/67/19
f 85/92/19 91/93/19 95/67/19
f 88/72/20 83/94/20 90/95/20
f 90/95/20 94/96/20 88/72/20
f 94/96/20 96/70/20 88/72/20
o Shape_IndexedFaceSet.002_Shape_IndexedFaceSet.022
v -0.000000 -0.000000 -1.024120
v -0.431479 -0.000000 -0.928785
v 0.021063 0.430964 -0.928785
v 0.341058 -0.264298 -0.928785
v -0.410416 0.430964 -0.833453
v -0.700624 -0.264298 -0.698633
v 0.383184 0.597631 -0.738121
v 0.391908 -0.638071 -0.698633
v 0.703179 -0.097631 -0.738121
v -0.658498 0.597631 -0.507969
v -0.649774 -0.638071 -0.468482
v -0.948706 -0.097631 -0.373150
v 0.463822 0.833333 -0.373150
v 0.724242 0.333333 -0.642789
v 0.754030 -0.471404 -0.507969
v 0.122763 -0.902369 -0.468482
v -0.577860 0.833333 -0.142998
v -0.927643 0.333333 -0.277818
v -0.897856 -0.471404 -0.142998
v -0.308715 -0.902369 -0.373150
v 0.804880 0.569036 -0.277818
v 0.215739 1.000000 -0.047666
v 0.847005 -0.569036 -0.087154
v 0.215739 -1.000000 -0.047666
v -0.847005 0.569036 0.087154
v -0.215739 1.000000 0.047666
v -0.804880 -0.569036 0.277818
v -0.215739 -1.000000 0.047666
v 0.897856 0.471404 0.142998
v 0.308715 0.902369 0.373150
v 0.927643 -0.333333 0.277818
v 0.577860 -0.833333 0.142998
v -0.754030 0.471404 0.507969
v -0.122763 0.902369 0.468482
v -0.724242 -0.333333 0.642789
v -0.463822 -0.833333 0.373150
v 0.948706 0.097631 0.373150
v 0.649774 0.638071 0.468482
v 0.658498 -0.597631 0.507969
v -0.703179 0.097631 0.738121
v -0.391908 0.638071 0.698633
v -0.383184 -0.597631 0.738121
v 0.700624 0.264298 0.698633
v 0.410416 -0.430964 0.833453
v -0.341058 0.264298 0.928785
v -0.021063 -0.430964 0.928785
v 0.431479 0.000000 0.928785
v 0.000000 0.000000 1.024120
vt 0.728724 0.180964
vt 0.841089 0.367851
vt 0.953455 0.500000
vt 0.569815 0.916667
vt 0.523272 1.000000
vt 0.860368 0.798815
vt 0.430185 0.735702
vt 0.364363 0.333333
vt 0.748003 0.264298
vt 0.569815 0.264298
vt 0.186175 0.333333
vt 0.251997 0.735702
vt 0.430185 0.083333
vt 0.093088 0.284518
vt 0.139632 0.201184
vt 0.271276 0.951185
vt 0.046545 0.632149
vt 0.046545 0.500000
vt 1.000000 0.500000
vt 0.953455 0.367851
vt 0.841089 0.180964
vt 0.728724 0.048815
vt 0.682181 0.048815
vt 0.953455 0.715482
vt 0.906912 0.715482
vt 0.748003 0.798815
vt 0.476728 1.000000
vt 0.682181 0.916667
vt 0.860368 0.451184
vt 0.813825 0.666667
vt 0.635637 0.784518
vt 0.317819 0.548816
vt 0.542551 0.215482
vt 0.635637 0.666667
vt 0.682181 0.451184
vt 0.364363 0.215482
vt 0.139632 0.548816
vt 0.457449 0.784518
vt 0.476728 0.000000
vt 0.523272 0.000000
vt 0.251997 0.201184
vt 0.046545 0.284518
vt 0.317819 0.083333
vt 0.271276 0.819035
vt 0.317819 0.951185
vt 0.158911 0.819035
vt 0.000000 0.500000
vt 0.158911 0.632149
vn -0.1825 -0.5334 -0.8259
vn -0.1151 0.8459 -0.5208
vn 0.9765 -0.0000 -0.2157
vn -0.9765 -0.0000 0.2157
vn 0.1151 -0.8459 0.5208
vn 0.1825 0.5334 0.8259
usemtl None
s off
f 107/97/21 102/98/21 98/99/21
f 113/100/22 118/101/22 103/102/22
f 125/103/23 127/104/23 111/105/23
f 115/106/24 131/107/24 129/108/24
f 128/109/25 140/110/25 138/111/25
f 130/112/26 141/113/26 143/114/26
f 98/99/21 97/115/21 100/116/21
f 100/116/21 104/117/21 98/99/21
f 104/117/21 112/118/21 98/99/21
f 112/118/21 116/119/21 98/99/21
f 116/119/21 107/97/21 98/99/21
f 103/102/22 99/120/22 113/100/22
f 99/120/22 101/121/22 113/100/22
f 101/121/22 106/122/22 113/100/22
f 113/100/22 122/123/22 118/101/22
f 118/101/22 109/124/22 103/102/22
f 111/105/23 105/125/23 110/126/23
f 110/126/23 117/127/23 125/103/23
f 125/103/23 133/128/23 127/104/23
f 127/104/23 119/129/23 111/105/23
f 111/105/23 110/126/23 125/103/23
f 114/130/24 108/131/24 115/106/24
f 115/106/24 123/132/24 131/107/24
f 131/107/24 136/133/24 129/108/24
f 129/108/24 121/134/24 114/130/24
f 114/130/24 115/106/24 129/108/24
f 124/135/25 120/136/25 128/109/25
f 128/109/25 135/137/25 140/110/25
f 140/110/25 142/138/25 138/111/25
f 138/111/25 132/139/25 124/135/25
f 124/135/25 128/109/25 138/111/25
f 134/140/26 126/141/26 130/112/26
f 130/112/26 137/142/26 141/113/26
f 141/113/26 144/143/26 143/114/26
f 143/114/26 139/144/26 134/140/26
f 134/140/26 130/112/26 143/114/26
o Shape_IndexedFaceSet.003_Shape_IndexedFaceSet.023
v -0.215739 0.226541 -0.976451
v 0.424251 0.195262 -0.976451
v -0.215739 -0.630602 -0.976451
v -0.796155 0.195262 -0.706811
v -0.136046 1.000000 -0.615752
v 0.575644 -0.386730 -0.755245
v -0.840257 -0.386730 -0.442412
v 0.624518 0.613271 -0.534039
v 0.568077 -0.861929 -0.325484
v 1.154390 -0.000000 -0.255053
v -0.791384 0.613271 -0.221206
v -0.652329 -0.861929 -0.055844
v -1.154390 0.000000 0.255053
v 0.652329 0.861929 0.055844
v -0.048874 -1.000000 -0.221206
v -0.568077 0.861929 0.325484
v 0.048874 1.000000 0.221206
v 0.791384 -0.613271 0.221206
v 0.136046 -1.000000 0.615752
v -0.624518 -0.613271 0.534039
v 0.840257 0.386730 0.442412
v 0.215739 0.630602 0.976451
v 0.796155 -0.195262 0.706811
v -0.575644 0.386730 0.755245
v -0.424251 -0.195262 0.976451
v 0.215739 -0.226541 0.976451
vt 0.593443 0.184699
vt 0.593443 0.613271
vt 0.316245 0.597631
vt 0.844838 0.597631
vt 0.558926 1.000000
vt 0.250672 0.306635
vt 0.863940 0.306635
vt 0.229503 0.806635
vt 0.253949 0.069036
vt 0.000000 0.500000
vt 0.842772 0.806635
vt 0.782543 0.069036
vt 1.000000 0.500000
vt 0.217457 0.930965
vt 0.521169 0.000000
vt 0.746051 0.930965
vt 0.478831 1.000000
vt 0.157228 0.193365
vt 0.441075 0.000000
vt 0.770497 0.193365
vt 0.136060 0.693365
vt 0.406557 0.815301
vt 0.155162 0.402369
vt 0.749328 0.693365
vt 0.683756 0.402369
vt 0.406557 0.386730
vn -0.0000 -0.0000 -1.0000
vn -0.4213 -0.0000 -0.9069
vn 0.0206 0.4208 -0.9069
vn 0.3330 -0.2581 -0.9069
vn -0.4008 0.4208 -0.8138
vn -0.6841 -0.2581 -0.6822
vn 0.3742 0.5836 -0.7207
vn 0.3827 -0.6230 -0.6822
vn 0.6866 -0.0953 -0.7207
vn -0.6430 0.5836 -0.4960
vn -0.6345 -0.6230 -0.4574
vn -0.9264 -0.0953 -0.3644
vn 0.4529 0.8137 -0.3644
vn 0.7072 0.3255 -0.6277
vn 0.7363 -0.4603 -0.4960
vn 0.1199 -0.8811 -0.4574
vn -0.5643 0.8137 -0.1396
vn -0.9058 0.3255 -0.2713
vn -0.8767 -0.4603 -0.1396
vn -0.3014 -0.8811 -0.3644
vn 0.7859 0.5556 -0.2713
vn 0.2107 0.9765 -0.0465
vn 0.8271 -0.5556 -0.0851
vn 0.2107 -0.9765 -0.0465
vn -0.8271 0.5556 0.0851
vn -0.2107 0.9765 0.0465
vn -0.7859 -0.5556 0.2713
vn -0.2107 -0.9765 0.0465
vn 0.8767 0.4603 0.1396
vn 0.3014 0.8811 0.3644
vn 0.9058 -0.3255 0.2713
vn 0.5643 -0.8137 0.1396
vn -0.7363 0.4603 0.4960
vn -0.1199 0.8811 0.4574
vn -0.7072 -0.3255 0.6277
vn -0.4529 -0.8137 0.3644
vn 0.9264 0.0953 0.3644
vn 0.6345 0.6230 0.4574
vn 0.6430 -0.5836 0.4960
vn -0.6866 0.0953 0.7207
vn -0.3827 0.6230 0.6822
vn -0.3742 -0.5836 0.7207
vn 0.6841 0.2581 0.6822
vn 0.4008 -0.4208 0.8138
vn -0.3330 0.2581 0.9069
vn -0.0206 -0.4208 0.9069
vn 0.4213 0.0000 0.9069
vn 0.0000 0.0000 1.0000
usemtl None
s off
f 147/145/27 145/146/27 146/147/27
f 147/145/28 148/148/28 145/146/28
f 145/146/29 149/149/29 146/147/29
f 146/147/30 150/150/30 147/145/30
f 145/146/31 148/148/31 149/149/31
f 148/148/32 147/145/32 151/151/32
f 146/147/33 149/149/33 152/152/33
f 147/145/34 150/150/34 153/153/34
f 150/150/35 146/147/35 154/154/35
f 148/148/36 155/155/36 149/149/36
f 147/145/37 156/156/37 151/151/37
f 151/151/38 157/157/38 148/148/38
f 149/149/39 158/158/39 152/152/39
f 152/152/40 154/154/40 146/147/40
f 150/150/41 154/154/41 153/153/41
f 153/153/42 159/159/42 147/145/42
f 149/149/43 155/155/43 160/160/43
f 155/155/44 148/148/44 157/157/44
f 151/151/45 156/156/45 157/157/45
f 156/156/46 147/145/46 159/159/46
f 152/152/47 158/158/47 154/154/47
f 158/158/48 149/149/48 161/161/48
f 153/153/49 154/154/49 162/162/49
f 159/159/50 153/153/50 163/163/50
f 155/155/51 157/157/51 160/160/51
f 160/160/52 161/161/52 149/149/52
f 156/156/53 164/164/53 157/157/53
f 159/159/54 163/163/54 156/156/54
f 158/158/55 165/165/55 154/154/55
f 161/161/56 166/166/56 158/158/56
f 154/154/57 167/167/57 162/162/57
f 162/162/58 163/163/58 153/153/58
f 160/160/59 157/157/59 168/168/59
f 161/161/60 160/160/60 166/166/60
f 157/157/61 164/164/61 169/169/61
f 164/164/62 156/156/62 163/163/62
f 154/154/63 165/165/63 167/167/63
f 165/165/64 158/158/64 166/166/64
f 162/162/65 167/167/65 163/163/65
f 157/157/66 169/169/66 168/168/66
f 168/168/67 166/166/67 160/160/67
f 164/164/68 163/163/68 169/169/68
f 165/165/69 166/166/69 167/167/69
f 167/167/70 170/170/70 163/163/70
f 168/168/71 169/169/71 166/166/71
f 169/169/72 163/163/72 170/170/72
f 167/167/73 166/166/73 170/170/73
f 169/169/74 170/170/74 166/166/74
o Shape_IndexedLineSet_Shape_IndexedLineSet.009
v -0.215739 0.226541 -0.976451
v 0.424251 0.195262 -0.976451
v -0.215739 0.226541 -0.976451
v -0.215739 -0.630602 -0.976451
v -0.215739 0.226541 -0.976451
v -0.796155 0.195262 -0.706811
v -0.215739 0.226541 -0.976451
v -0.136046 1.000000 -0.615752
v 0.424251 0.195262 -0.976451
v -0.215739 -0.630602 -0.976451
v 0.424251 0.195262 -0.976451
v -0.136046 1.000000 -0.615752
v 0.424251 0.195262 -0.976451
v 0.575644 -0.386730 -0.755245
v 0.424251 0.195262 -0.976451
v 0.624518 0.613271 -0.534039
v 0.424251 0.195262 -0.976451
v 1.154390 -0.000000 -0.255053
v -0.215739 -0.630602 -0.976451
v -0.796155 0.195262 -0.706811
v -0.215739 -0.630602 -0.976451
v 0.575644 -0.386730 -0.755245
v -0.215739 -0.630602 -0.976451
v -0.840257 -0.386730 -0.442412
v -0.215739 -0.630602 -0.976451
v 0.568077 -0.861929 -0.325484
v -0.215739 -0.630602 -0.976451
v -0.652329 -0.861929 -0.055844
v -0.215739 -0.630602 -0.976451
v -0.048874 -1.000000 -0.221206
v -0.796155 0.195262 -0.706811
v -0.136046 1.000000 -0.615752
v -0.796155 0.195262 -0.706811
v -0.840257 -0.386730 -0.442412
v -0.796155 0.195262 -0.706811
v -0.791384 0.613271 -0.221206
v -0.796155 0.195262 -0.706811
v -1.154390 0.000000 0.255053
v -0.136046 1.000000 -0.615752
v 0.624518 0.613271 -0.534039
v -0.136046 1.000000 -0.615752
v -0.791384 0.613271 -0.221206
v -0.136046 1.000000 -0.615752
v 0.652329 0.861929 0.055844
v -0.136046 1.000000 -0.615752
v -0.568077 0.861929 0.325484
v -0.136046 1.000000 -0.615752
v 0.048874 1.000000 0.221206
v 0.575644 -0.386730 -0.755245
v 0.568077 -0.861929 -0.325484
v 0.575644 -0.386730 -0.755245
v 1.154390 -0.000000 -0.255053
v -0.840257 -0.386730 -0.442412
v -0.652329 -0.861929 -0.055844
v -0.840257 -0.386730 -0.442412
v -1.154390 0.000000 0.255053
v 0.624518 0.613271 -0.534039
v 1.154390 -0.000000 -0.255053
v 0.624518 0.613271 -0.534039
v 0.652329 0.861929 0.055844
v 0.568077 -0.861929 -0.325484
v 1.154390 -0.000000 -0.255053
v 0.568077 -0.861929 -0.325484
v -0.048874 -1.000000 -0.221206
v 0.568077 -0.861929 -0.325484
v 0.791384 -0.613271 0.221206
v 0.568077 -0.861929 -0.325484
v 0.136046 -1.000000 0.615752
v 1.154390 -0.000000 -0.255053
v 0.652329 0.861929 0.055844
v 1.154390 -0.000000 -0.255053
v 0.791384 -0.613271 0.221206
v 1.154390 -0.000000 -0.255053
v 0.840257 0.386730 0.442412
v 1.154390 -0.000000 -0.255053
v 0.796155 -0.195262 0.706811
v -0.791384 0.613271 -0.221206
v -1.154390 0.000000 0.255053
v -0.791384 0.613271 -0.221206
v -0.568077 0.861929 0.325484
v -0.652329 -0.861929 -0.055844
v -1.154390 0.000000 0.255053
v -0.652329 -0.861929 -0.055844
v -0.048874 -1.000000 -0.221206
v -0.652329 -0.861929 -0.055844
v 0.136046 -1.000000 0.615752
v -0.652329 -0.861929 -0.055844
v -0.624518 -0.613271 0.534039
v -1.154390 0.000000 0.255053
v -0.568077 0.861929 0.325484
v -1.154390 0.000000 0.255053
v -0.624518 -0.613271 0.534039
v -1.154390 0.000000 0.255053
v -0.575644 0.386730 0.755245
v -1.154390 0.000000 0.255053
v -0.424251 -0.195262 0.976451
v 0.652329 0.861929 0.055844
v 0.048874 1.000000 0.221206
v 0.652329 0.861929 0.055844
v 0.840257 0.386730 0.442412
v 0.652329 0.861929 0.055844
v 0.215739 0.630602 0.976451
v -0.048874 -1.000000 -0.221206
v 0.136046 -1.000000 0.615752
v -0.568077 0.861929 0.325484
v 0.048874 1.000000 0.221206
v -0.568077 0.861929 0.325484
v 0.215739 0.630602 0.976451
v -0.568077 0.861929 0.325484
v -0.575644 0.386730 0.755245
v 0.048874 1.000000 0.221206
v 0.215739 0.630602 0.976451
v 0.791384 -0.613271 0.221206
v 0.136046 -1.000000 0.615752
v 0.791384 -0.613271 0.221206
v 0.796155 -0.195262 0.706811
v 0.136046 -1.000000 0.615752
v -0.624518 -0.613271 0.534039
v 0.136046 -1.000000 0.615752
v 0.796155 -0.195262 0.706811
v 0.136046 -1.000000 0.615752
v -0.424251 -0.195262 0.976451
v 0.136046 -1.000000 0.615752
v 0.215739 -0.226541 0.976451
v -0.624518 -0.613271 0.534039
v -0.424251 -0.195262 0.976451
v 0.840257 0.386730 0.442412
v 0.215739 0.630602 0.976451
v 0.840257 0.386730 0.442412
v 0.796155 -0.195262 0.706811
v 0.215739 0.630602 0.976451
v 0.796155 -0.195262 0.706811
v 0.215739 0.630602 0.976451
v -0.575644 0.386730 0.755245
v 0.215739 0.630602 0.976451
v -0.424251 -0.195262 0.976451
v 0.215739 0.630602 0.976451
v 0.215739 -0.226541 0.976451
v 0.796155 -0.195262 0.706811
v 0.215739 -0.226541 0.976451
v -0.575644 0.386730 0.755245
v -0.424251 -0.195262 0.976451
v -0.424251 -0.195262 0.976451
v 0.215739 -0.226541 0.976451
l 171 172
l 173 174
l 175 176
l 177 178
l 179 180
l 181 182
l 183 184
l 185 186
l 187 188
l 189 190
l 191 192
l 193 194
l 195 196
l 197 198
l 199 200
l 201 202
l 203 204
l 205 206
l 207 208
l 209 210
l 211 212
l 213 214
l 215 216
l 217 218
l 219 220
l 221 222
l 223 224
l 225 226
l 227 228
l 229 230
l 231 232
l 233 234
l 235 236
l 237 238
l 239 240
l 241 242
l 243 244
l 245 246
l 247 248
l 249 250
l 251 252
l 253 254
l 255 256
l 257 258
l 259 260
l 261 262
l 263 264
l 265 266
l 267 268
l 269 270
l 271 272
l 273 274
l 275 276
l 277 278
l 279 280
l 281 282
l 283 284
l 285 286
l 287 288
l 289 290
l 291 292
l 293 294
l 295 296
l 297 298
l 299 300
l 301 302
l 303 304
l 305 306
l 307 308
l 309 310
l 311 312
l 313 314
