# Blender v2.93.4 OBJ File: ''
# www.blender.org
mtllib compound_of_rhombicuboctahedron_and_dual.mtl
o Shape_IndexedFaceSet_Shape_IndexedFaceSet.010
v -0.000000 -0.000000 -1.070720
v -0.714813 -0.000000 -0.797175
v 0.104682 0.707107 -0.797175
v 0.684153 0.207107 -0.797175
v 0.104682 -0.707107 -0.797175
v -0.610132 0.707107 -0.523628
v -1.041560 0.207107 -0.136774
v -0.610132 -0.707107 -0.523628
v 0.357407 1.000000 -0.136774
v 0.788835 -0.500000 -0.523628
v 0.936878 0.500000 -0.136774
v 0.357407 -1.000000 -0.136774
v -0.357407 1.000000 0.136774
v -0.936878 -0.500000 0.136774
v -0.788835 0.500000 0.523628
v -0.357407 -1.000000 0.136774
v 0.610132 0.707107 0.523628
v 1.041560 -0.207107 0.136774
v 0.610132 -0.707107 0.523628
v -0.104682 0.707107 0.797175
v -0.684153 -0.207107 0.797175
v -0.104682 -0.707107 0.797175
v 0.714813 0.000000 0.797175
v 0.000000 0.000000 1.070720
vt 1.000000 0.500000
vt 0.872261 0.449748
vt 0.872261 0.171573
vt 0.872261 0.843145
vt 0.563870 1.000000
vt 0.744521 0.792893
vt 0.872261 0.449748
vt 0.744521 0.121320
vt 0.563870 0.328427
vt 0.744521 0.792893
vt 0.436130 0.671573
vt 0.436130 0.949748
vt 0.563870 0.328427
vt 0.255479 0.207107
vt 0.563870 0.050253
vt 0.436130 0.671573
vt 0.255479 0.878680
vt 0.127739 0.550252
vt 0.436130 0.000000
vt 0.127739 0.156855
vt 0.255479 0.207107
vt 0.127739 0.828427
vt 0.127739 0.550252
vt 0.000000 0.500000
vn 0.2696 0.3125 -0.9109
vn -0.8088 0.3125 -0.4982
vn 0.4275 -0.7543 -0.4982
vn -0.6509 -0.7543 -0.0855
vn 0.6509 0.7543 0.0855
vn -0.4275 0.7543 0.4982
vn 0.8088 -0.3125 0.4982
vn -0.2696 -0.3125 0.9109
usemtl None
s off
f 1/1/1 3/2/1 4/3/1
f 2/4/2 7/5/2 6/6/2
f 5/7/3 10/8/3 12/9/3
f 8/10/4 16/11/4 14/12/4
f 9/13/5 17/14/5 11/15/5
f 13/16/6 15/17/6 20/18/6
f 18/19/7 23/20/7 19/21/7
f 21/22/8 22/23/8 24/24/8
o Shape_IndexedFaceSet.001_Shape_IndexedFaceSet.011
v -0.000000 -0.000000 -1.070720
v -0.714813 -0.000000 -0.797175
v 0.104682 0.707107 -0.797175
v 0.684153 0.207107 -0.797175
v 0.104682 -0.707107 -0.797175
v -0.610132 0.707107 -0.523628
v -1.041560 0.207107 -0.136774
v -0.610132 -0.707107 -0.523628
v 0.357407 1.000000 -0.136774
v 0.788835 -0.500000 -0.523628
v 0.936878 0.500000 -0.136774
v 0.357407 -1.000000 -0.136774
v -0.357407 1.000000 0.136774
v -0.936878 -0.500000 0.136774
v -0.788835 0.500000 0.523628
v -0.357407 -1.000000 0.136774
v 0.610132 0.707107 0.523628
v 1.041560 -0.207107 0.136774
v 0.610132 -0.707107 0.523628
v -0.104682 0.707107 0.797175
v -0.684153 -0.207107 0.797175
v -0.104682 -0.707107 0.797175
v 0.714813 0.000000 0.797175
v 0.000000 0.000000 1.070720
vt 1.000000 0.500000
vt 0.872261 0.843145
vt 0.744521 0.792893
vt 0.872261 0.449748
vt 0.872261 0.171573
vt 0.744521 0.121320
vt 0.872261 0.449748
vt 0.744521 0.792893
vt 0.436130 0.949748
vt 0.563870 1.000000
vt 0.436130 0.671573
vt 0.563870 0.328427
vt 0.563870 0.050253
vt 0.436130 0.000000
vt 0.563870 0.328427
vt 0.436130 0.671573
vt 0.255479 0.878680
vt 0.127739 0.828427
vt 0.127739 0.550252
vt 0.255479 0.207107
vt 0.255479 0.207107
vt 0.127739 0.156855
vt 0.127739 0.550252
vt 0.000000 0.500000
vn -0.3302 0.3827 -0.8629
vn 0.4269 -0.2706 -0.8629
vn -0.3302 -0.3827 -0.8629
vn -0.8939 -0.2706 -0.3574
vn -0.1368 0.9239 -0.3574
vn 0.5637 0.6533 -0.5054
vn 0.9339 -0.0000 -0.3574
vn -0.1368 -0.9239 -0.3574
vn -0.7571 0.6533 0.0000
vn -0.9339 0.0000 0.3574
vn 0.1368 0.9239 0.3574
vn 0.7571 -0.6533 -0.0000
vn 0.8939 0.2706 0.3574
vn 0.1368 -0.9239 0.3574
vn -0.5637 -0.6533 0.5054
vn -0.4269 0.2706 0.8629
vn 0.3302 0.3827 0.8629
vn 0.3302 -0.3827 0.8629
usemtl None
s off
f 25/25/9 26/26/9 30/27/9 27/28/9
f 25/25/10 28/29/10 34/30/10 29/31/10
f 25/25/11 29/31/11 32/32/11 26/26/11
f 26/26/12 32/32/12 38/33/12 31/34/12
f 27/28/13 30/27/13 37/35/13 33/36/13
f 27/28/14 33/36/14 35/37/14 28/29/14
f 28/29/15 35/37/15 42/38/15 34/30/15
f 29/31/16 36/39/16 40/40/16 32/32/16
f 30/27/17 31/34/17 39/41/17 37/35/17
f 31/34/18 38/33/18 45/42/18 39/41/18
f 33/36/19 37/35/19 44/43/19 41/44/19
f 34/30/20 42/38/20 43/45/20 36/39/20
f 35/37/21 41/44/21 47/46/21 42/38/21
f 36/39/22 43/45/22 46/47/22 40/40/22
f 38/33/23 40/40/23 46/47/23 45/42/23
f 39/41/24 45/42/24 48/48/24 44/43/24
f 41/44/25 44/43/25 48/48/25 47/46/25
f 43/45/26 47/46/26 48/48/26 46/47/26
o Shape_IndexedLineSet_Shape_IndexedLineSet.003
v -0.000000 -0.000000 -1.070720
v -0.714813 -0.000000 -0.797175
v -0.000000 -0.000000 -1.070720
v 0.104682 -0.707107 -0.797175
v -0.714813 -0.000000 -0.797175
v -0.610132 -0.707107 -0.523628
v 0.104682 0.707107 -0.797175
v -0.610132 0.707107 -0.523628
v 0.104682 0.707107 -0.797175
v 0.357407 1.000000 -0.136774
v 0.684153 0.207107 -0.797175
v 0.788835 -0.500000 -0.523628
v 0.684153 0.207107 -0.797175
v 0.936878 0.500000 -0.136774
v 0.104682 -0.707107 -0.797175
v -0.610132 -0.707107 -0.523628
v -0.610132 0.707107 -0.523628
v -0.357407 1.000000 0.136774
v -1.041560 0.207107 -0.136774
v -0.936878 -0.500000 0.136774
v -1.041560 0.207107 -0.136774
v -0.788835 0.500000 0.523628
v 0.357407 1.000000 -0.136774
v -0.357407 1.000000 0.136774
v 0.788835 -0.500000 -0.523628
v 1.041560 -0.207107 0.136774
v 0.936878 0.500000 -0.136774
v 1.041560 -0.207107 0.136774
v 0.357407 -1.000000 -0.136774
v -0.357407 -1.000000 0.136774
v 0.357407 -1.000000 -0.136774
v 0.610132 -0.707107 0.523628
v -0.936878 -0.500000 0.136774
v -0.684153 -0.207107 0.797175
v -0.788835 0.500000 0.523628
v -0.684153 -0.207107 0.797175
v -0.357407 -1.000000 0.136774
v -0.104682 -0.707107 0.797175
v 0.610132 0.707107 0.523628
v -0.104682 0.707107 0.797175
v 0.610132 0.707107 0.523628
v 0.714813 0.000000 0.797175
v 0.610132 -0.707107 0.523628
v -0.104682 -0.707107 0.797175
v -0.104682 0.707107 0.797175
v 0.000000 0.000000 1.070720
v 0.714813 0.000000 0.797175
v 0.000000 0.000000 1.070720
l 49 50
l 51 52
l 53 54
l 55 56
l 57 58
l 59 60
l 61 62
l 63 64
l 65 66
l 67 68
l 69 70
l 71 72
l 73 74
l 75 76
l 77 78
l 79 80
l 81 82
l 83 84
l 85 86
l 87 88
l 89 90
l 91 92
l 93 94
l 95 96
o Shape_IndexedFaceSet.002_Shape_IndexedFaceSet.012
v -0.357407 0.414214 -0.933949
v 0.276439 0.320377 -0.933949
v 0.462089 -0.292893 -0.933949
v -0.357407 -0.414214 -0.933949
v -0.967538 -0.292893 -0.386854
v -0.829319 0.320377 -0.510794
v -0.148043 1.000000 -0.386854
v 0.610132 0.707107 -0.547095
v 1.010900 -0.000000 -0.386854
v 0.438374 -0.773459 -0.510794
v -0.148043 -1.000000 -0.386854
v -0.819495 0.707107 0.000000
v -1.010900 0.000000 0.386854
v -0.667384 -0.773459 -0.087638
v 0.148043 1.000000 0.386854
v 0.667384 0.773459 0.087638
v 0.819495 -0.707107 -0.000000
v 0.967538 0.292893 0.386854
v 0.148043 -1.000000 0.386854
v -0.438374 0.773459 0.510794
v -0.610132 -0.707107 0.547095
v -0.462089 0.292893 0.933949
v 0.357407 0.414214 0.933949
v 0.829319 -0.320377 0.510794
v 0.357407 -0.414214 0.933949
v -0.276439 -0.320377 0.933949
vt 0.676777 0.292893
vt 0.676777 0.707107
vt 0.363271 0.660188
vt 0.271447 0.353554
vt 0.978553 0.353554
vt 0.910188 0.660188
vt 0.573223 1.000000
vt 0.198223 0.853553
vt 0.000000 0.500000
vt 0.283176 0.113270
vt 0.573223 0.000000
vt 0.905329 0.853553
vt 1.000000 0.500000
vt 0.830094 0.113270
vt 0.426777 1.000000
vt 0.169906 0.886729
vt 0.094671 0.146446
vt 0.021447 0.646447
vt 0.426777 0.000000
vt 0.716824 0.886729
vt 0.801777 0.146446
vt 0.728553 0.646447
vt 0.323223 0.707107
vt 0.089812 0.339812
vt 0.323223 0.292893
vt 0.636729 0.339812
vn 0.0000 -0.0000 -1.0000
vn -0.6676 -0.0000 -0.7445
vn 0.0978 0.6604 -0.7445
vn 0.6390 0.1934 -0.7445
vn 0.0978 -0.6604 -0.7445
vn -0.5698 0.6604 -0.4890
vn -0.9728 0.1934 -0.1277
vn -0.5698 -0.6604 -0.4890
vn 0.3338 0.9339 -0.1277
vn 0.7367 -0.4670 -0.4890
vn 0.8750 0.4670 -0.1277
vn 0.3338 -0.9339 -0.1277
vn -0.3338 0.9339 0.1277
vn -0.8750 -0.4670 0.1277
vn -0.7367 0.4670 0.4890
vn -0.3338 -0.9339 0.1277
vn 0.5698 0.6604 0.4890
vn 0.9728 -0.1934 0.1277
vn 0.5698 -0.6604 0.4890
vn -0.0978 0.6604 0.7445
vn -0.6390 -0.1934 0.7445
vn -0.0978 -0.6604 0.7445
vn 0.6676 0.0000 0.7445
vn 0.0000 0.0000 1.0000
usemtl None
s off
f 100/49/27 97/50/27 98/51/27 99/52/27
f 100/49/28 101/53/28 102/54/28 97/50/28
f 97/50/29 103/55/29 104/56/29 98/51/29
f 98/51/30 104/56/30 105/57/30 99/52/30
f 99/52/31 106/58/31 107/59/31 100/49/31
f 97/50/32 102/54/32 108/60/32 103/55/32
f 102/54/33 101/53/33 109/61/33 108/60/33
f 101/53/34 100/49/34 107/59/34 110/62/34
f 104/56/35 103/55/35 111/63/35 112/64/35
f 99/52/36 105/57/36 113/65/36 106/58/36
f 105/57/37 104/56/37 112/64/37 114/66/37
f 107/59/38 106/58/38 113/65/38 115/67/38
f 108/60/39 116/68/39 111/63/39 103/55/39
f 101/53/40 110/62/40 117/69/40 109/61/40
f 109/61/41 118/70/41 116/68/41 108/60/41
f 107/59/42 115/67/42 117/69/42 110/62/42
f 111/63/43 119/71/43 114/66/43 112/64/43
f 105/57/44 114/66/44 120/72/44 113/65/44
f 113/65/45 120/72/45 121/73/45 115/67/45
f 111/63/46 116/68/46 118/70/46 119/71/46
f 109/61/47 117/69/47 122/74/47 118/70/47
f 117/69/48 115/67/48 121/73/48 122/74/48
f 114/66/49 119/71/49 121/73/49 120/72/49
f 118/70/50 122/74/50 121/73/50 119/71/50
o Shape_IndexedLineSet.001_Shape_IndexedLineSet.004
v -0.357407 0.414214 -0.933949
v 0.276439 0.320377 -0.933949
v -0.357407 0.414214 -0.933949
v -0.357407 -0.414214 -0.933949
v -0.357407 0.414214 -0.933949
v -0.829319 0.320377 -0.510794
v -0.357407 0.414214 -0.933949
v -0.148043 1.000000 -0.386854
v 0.276439 0.320377 -0.933949
v 0.462089 -0.292893 -0.933949
v 0.276439 0.320377 -0.933949
v 0.610132 0.707107 -0.547095
v 0.462089 -0.292893 -0.933949
v -0.357407 -0.414214 -0.933949
v 0.462089 -0.292893 -0.933949
v 1.010900 -0.000000 -0.386854
v 0.462089 -0.292893 -0.933949
v 0.438374 -0.773459 -0.510794
v -0.357407 -0.414214 -0.933949
v -0.967538 -0.292893 -0.386854
v -0.357407 -0.414214 -0.933949
v -0.148043 -1.000000 -0.386854
v -0.967538 -0.292893 -0.386854
v -0.829319 0.320377 -0.510794
v -0.967538 -0.292893 -0.386854
v -1.010900 0.000000 0.386854
v -0.967538 -0.292893 -0.386854
v -0.667384 -0.773459 -0.087638
v -0.829319 0.320377 -0.510794
v -0.819495 0.707107 0.000000
v -0.148043 1.000000 -0.386854
v 0.610132 0.707107 -0.547095
v -0.148043 1.000000 -0.386854
v -0.819495 0.707107 0.000000
v -0.148043 1.000000 -0.386854
v 0.148043 1.000000 0.386854
v 0.610132 0.707107 -0.547095
v 1.010900 -0.000000 -0.386854
v 0.610132 0.707107 -0.547095
v 0.667384 0.773459 0.087638
v 1.010900 -0.000000 -0.386854
v 0.819495 -0.707107 -0.000000
v 1.010900 -0.000000 -0.386854
v 0.967538 0.292893 0.386854
v 0.438374 -0.773459 -0.510794
v -0.148043 -1.000000 -0.386854
v 0.438374 -0.773459 -0.510794
v 0.819495 -0.707107 -0.000000
v -0.148043 -1.000000 -0.386854
v -0.667384 -0.773459 -0.087638
v -0.148043 -1.000000 -0.386854
v 0.148043 -1.000000 0.386854
v -0.819495 0.707107 0.000000
v -1.010900 0.000000 0.386854
v -0.819495 0.707107 0.000000
v -0.438374 0.773459 0.510794
v -1.010900 0.000000 0.386854
v -0.610132 -0.707107 0.547095
v -1.010900 0.000000 0.386854
v -0.462089 0.292893 0.933949
v -0.667384 -0.773459 -0.087638
v -0.610132 -0.707107 0.547095
v 0.148043 1.000000 0.386854
v 0.667384 0.773459 0.087638
v 0.148043 1.000000 0.386854
v -0.438374 0.773459 0.510794
v 0.148043 1.000000 0.386854
v 0.357407 0.414214 0.933949
v 0.667384 0.773459 0.087638
v 0.967538 0.292893 0.386854
v 0.819495 -0.707107 -0.000000
v 0.148043 -1.000000 0.386854
v 0.819495 -0.707107 -0.000000
v 0.829319 -0.320377 0.510794
v 0.967538 0.292893 0.386854
v 0.357407 0.414214 0.933949
v 0.967538 0.292893 0.386854
v 0.829319 -0.320377 0.510794
v 0.148043 -1.000000 0.386854
v -0.610132 -0.707107 0.547095
v 0.148043 -1.000000 0.386854
v 0.357407 -0.414214 0.933949
v -0.438374 0.773459 0.510794
v -0.462089 0.292893 0.933949
v -0.610132 -0.707107 0.547095
v -0.276439 -0.320377 0.933949
v -0.462089 0.292893 0.933949
v 0.357407 0.414214 0.933949
v -0.462089 0.292893 0.933949
v -0.276439 -0.320377 0.933949
v 0.357407 0.414214 0.933949
v 0.357407 -0.414214 0.933949
v 0.829319 -0.320377 0.510794
v 0.357407 -0.414214 0.933949
v 0.357407 -0.414214 0.933949
v -0.276439 -0.320377 0.933949
l 123 124
l 125 126
l 127 128
l 129 130
l 131 132
l 133 134
l 135 136
l 137 138
l 139 140
l 141 142
l 143 144
l 145 146
l 147 148
l 149 150
l 151 152
l 153 154
l 155 156
l 157 158
l 159 160
l 161 162
l 163 164
l 165 166
l 167 168
l 169 170
l 171 172
l 173 174
l 175 176
l 177 178
l 179 180
l 181 182
l 183 184
l 185 186
l 187 188
l 189 190
l 191 192
l 193 194
l 195 196
l 197 198
l 199 200
l 201 202
l 203 204
l 205 206
l 207 208
l 209 210
l 211 212
l 213 214
l 215 216
l 217 218
