# Blender v2.93.4 OBJ File: ''
# www.blender.org
mtllib compound_of_snub_cuboctahedron_and_dual.mtl
o Shape_IndexedFaceSet_Shape_IndexedFaceSet.013
v -0.000000 -0.000000 -1.077360
v -0.744206 -0.000000 -0.779019
v -0.312301 0.675508 -0.779019
v 0.482096 0.566945 -0.779019
v 0.716918 -0.199679 -0.779019
v 0.119604 -0.734532 -0.779019
v -0.624602 -0.734532 -0.480673
v -1.056510 -0.199679 -0.068069
v -0.886713 0.566945 -0.230276
v -0.262110 1.042770 -0.068069
v 0.532287 0.934211 -0.068069
v 1.006320 0.308242 -0.230276
v 0.702082 -0.784071 -0.230276
v -0.027288 -1.074860 -0.068069
v -0.666727 -0.784071 0.318466
v -0.821685 -0.091115 0.690829
v -0.651891 0.675508 0.528621
v 0.119604 0.875187 0.616812
v 0.809234 0.475829 0.528621
v 0.991480 -0.276151 0.318466
v 0.446741 -0.825648 0.528621
v -0.192697 -0.534854 0.915157
v -0.184631 0.258703 1.029420
v 0.504999 -0.140654 0.941226
vt 0.507577 1.000000
vt 0.507577 0.858390
vt 0.826569 0.858390
vt 0.775303 0.858390
vt 0.413283 0.858390
vt 0.160712 0.858390
vt 0.160712 0.716778
vt 0.413283 0.520932
vt 0.775303 0.597925
vt 1.000000 0.520932
vt 0.948736 0.520932
vt 0.653137 0.597925
vt 0.137318 0.597925
vt 0.000000 0.520932
vt 0.137318 0.337460
vt 0.464550 0.160715
vt 0.826569 0.237708
vt 0.920863 0.195848
vt 0.732276 0.237708
vt 0.377171 0.337460
vt 0.117684 0.237708
vt 0.255005 0.054236
vt 0.629743 0.000000
vt 0.441156 0.041862
vn -0.3620 0.2315 -0.9030
vn 0.0582 0.4257 -0.9030
vn 0.4108 0.1258 -0.9030
vn 0.2866 -0.3201 -0.9030
vn -0.8310 -0.3201 -0.4549
vn -0.9208 0.1258 -0.3691
vn -0.6658 0.4257 -0.6127
vn -0.5006 0.7830 -0.3691
vn 0.6924 0.6200 -0.3691
vn 0.7556 0.2315 -0.6127
vn 0.5272 -0.5887 -0.6127
vn 0.2722 -0.8886 -0.3691
vn -0.1824 -0.8716 -0.4549
vn -0.4518 -0.8886 -0.0789
vn -0.8045 -0.5888 -0.0789
vn -0.8720 -0.3683 0.3225
vn -0.6170 0.7830 0.0789
vn -0.2722 0.8886 0.3691
vn 0.1335 0.9773 0.1647
vn 0.5006 0.7830 0.3691
vn 0.8045 0.5888 0.0789
vn 0.9618 0.1740 0.2113
vn 0.7333 -0.6462 0.2113
vn 0.3843 -0.9198 0.0789
vn -0.5760 -0.4831 0.6594
vn -0.4108 -0.1258 0.9030
vn -0.5682 0.2889 0.7705
vn -0.2456 0.6200 0.7452
vn 0.7900 0.0202 0.6127
vn 0.6658 -0.4257 0.6127
vn 0.2601 -0.5144 0.8172
vn 0.0437 -0.1428 0.9888
usemtl None
s off
f 1/1/1 2/2/1 3/3/1
f 1/1/2 3/3/2 4/4/2
f 1/1/3 4/4/3 5/5/3
f 1/1/4 5/5/4 6/6/4
f 2/2/5 7/7/5 8/8/5
f 2/2/6 8/8/6 9/9/6
f 2/2/7 9/9/7 3/3/7
f 3/3/8 9/9/8 10/10/8
f 4/4/9 11/11/9 12/12/9
f 4/4/10 12/12/10 5/5/10
f 5/5/11 13/13/11 6/6/11
f 6/6/12 13/13/12 14/14/12
f 6/6/13 14/14/13 7/7/13
f 7/7/14 14/14/14 15/15/14
f 7/7/15 15/15/15 8/8/15
f 8/8/16 15/15/16 16/16/16
f 9/9/17 17/17/17 10/10/17
f 10/10/18 17/17/18 18/18/18
f 10/10/19 18/18/19 11/11/19
f 11/11/20 18/18/20 19/19/20
f 11/11/21 19/19/21 12/12/21
f 12/12/22 19/19/22 20/20/22
f 13/13/23 20/20/23 21/21/23
f 13/13/24 21/21/24 14/14/24
f 15/15/25 22/22/25 16/16/25
f 16/16/26 22/22/26 23/23/26
f 16/16/27 23/23/27 17/17/27
f 17/17/28 23/23/28 18/18/28
f 19/19/29 24/24/29 20/20/29
f 20/20/30 24/24/30 21/21/30
f 21/21/31 24/24/31 22/22/31
f 22/22/32 24/24/32 23/23/32
o Shape_IndexedFaceSet.001_Shape_IndexedFaceSet.014
v -0.000000 -0.000000 -1.077360
v -0.744206 -0.000000 -0.779019
v -0.312301 0.675508 -0.779019
v 0.482096 0.566945 -0.779019
v 0.716918 -0.199679 -0.779019
v 0.119604 -0.734532 -0.779019
v -0.624602 -0.734532 -0.480673
v -1.056510 -0.199679 -0.068069
v -0.886713 0.566945 -0.230276
v -0.262110 1.042770 -0.068069
v 0.532287 0.934211 -0.068069
v 1.006320 0.308242 -0.230276
v 0.702082 -0.784071 -0.230276
v -0.027288 -1.074860 -0.068069
v -0.666727 -0.784071 0.318466
v -0.821685 -0.091115 0.690829
v -0.651891 0.675508 0.528621
v 0.119604 0.875187 0.616812
v 0.809234 0.475829 0.528621
v 0.991480 -0.276151 0.318466
v 0.446741 -0.825648 0.528621
v -0.192697 -0.534854 0.915157
v -0.184631 0.258703 1.029420
v 0.504999 -0.140654 0.941226
vt 0.507577 1.000000
vt 0.160712 0.858390
vt 0.160712 0.716778
vt 0.507577 0.858390
vt 0.826569 0.858390
vt 1.000000 0.520932
vt 0.948736 0.520932
vt 0.775303 0.858390
vt 0.413283 0.858390
vt 0.653137 0.597925
vt 0.377171 0.337460
vt 0.137318 0.597925
vt 0.413283 0.520932
vt 0.464550 0.160715
vt 0.826569 0.237708
vt 0.775303 0.597925
vt 0.000000 0.520932
vt 0.117684 0.237708
vt 0.255005 0.054236
vt 0.137318 0.337460
vt 0.920863 0.195848
vt 0.629743 0.000000
vt 0.441156 0.041862
vt 0.732276 0.237708
vn -0.3409 -0.4009 -0.8503
vn 0.1201 0.8785 -0.4623
vn 0.9324 -0.2597 -0.2514
vn -0.9324 0.2597 0.2514
vn -0.1201 -0.8785 0.4623
vn 0.3409 0.4009 0.8503
usemtl None
s off
f 25/25/33 30/26/33 31/27/33 26/28/33
f 27/29/34 34/30/34 35/31/34 28/32/34
f 29/33/35 36/34/35 44/35/35 37/36/35
f 32/37/36 40/38/36 41/39/36 33/40/36
f 38/41/37 45/42/37 46/43/37 39/44/37
f 42/45/38 47/46/38 48/47/38 43/48/38
o Shape_IndexedLineSet_Shape_IndexedLineSet.005
v -0.000000 -0.000000 -1.077360
v -0.312301 0.675508 -0.779019
v -0.000000 -0.000000 -1.077360
v 0.482096 0.566945 -0.779019
v -0.000000 -0.000000 -1.077360
v 0.716918 -0.199679 -0.779019
v -0.744206 -0.000000 -0.779019
v -0.312301 0.675508 -0.779019
v -0.744206 -0.000000 -0.779019
v -1.056510 -0.199679 -0.068069
v -0.744206 -0.000000 -0.779019
v -0.886713 0.566945 -0.230276
v -0.312301 0.675508 -0.779019
v -0.886713 0.566945 -0.230276
v 0.482096 0.566945 -0.779019
v 0.716918 -0.199679 -0.779019
v 0.482096 0.566945 -0.779019
v 1.006320 0.308242 -0.230276
v 0.716918 -0.199679 -0.779019
v 0.119604 -0.734532 -0.779019
v 0.119604 -0.734532 -0.779019
v 0.702082 -0.784071 -0.230276
v 0.119604 -0.734532 -0.779019
v -0.027288 -1.074860 -0.068069
v -0.624602 -0.734532 -0.480673
v -1.056510 -0.199679 -0.068069
v -0.624602 -0.734532 -0.480673
v -0.027288 -1.074860 -0.068069
v -0.624602 -0.734532 -0.480673
v -0.666727 -0.784071 0.318466
v -1.056510 -0.199679 -0.068069
v -0.666727 -0.784071 0.318466
v -0.886713 0.566945 -0.230276
v -0.262110 1.042770 -0.068069
v -0.262110 1.042770 -0.068069
v -0.651891 0.675508 0.528621
v -0.262110 1.042770 -0.068069
v 0.119604 0.875187 0.616812
v 0.532287 0.934211 -0.068069
v 1.006320 0.308242 -0.230276
v 0.532287 0.934211 -0.068069
v 0.119604 0.875187 0.616812
v 0.532287 0.934211 -0.068069
v 0.809234 0.475829 0.528621
v 1.006320 0.308242 -0.230276
v 0.809234 0.475829 0.528621
v 0.702082 -0.784071 -0.230276
v -0.027288 -1.074860 -0.068069
v 0.702082 -0.784071 -0.230276
v 0.446741 -0.825648 0.528621
v -0.666727 -0.784071 0.318466
v -0.821685 -0.091115 0.690829
v -0.821685 -0.091115 0.690829
v -0.192697 -0.534854 0.915157
v -0.821685 -0.091115 0.690829
v -0.184631 0.258703 1.029420
v -0.651891 0.675508 0.528621
v 0.119604 0.875187 0.616812
v -0.651891 0.675508 0.528621
v -0.184631 0.258703 1.029420
v 0.809234 0.475829 0.528621
v 0.991480 -0.276151 0.318466
v 0.991480 -0.276151 0.318466
v 0.446741 -0.825648 0.528621
v 0.991480 -0.276151 0.318466
v 0.504999 -0.140654 0.941226
v 0.446741 -0.825648 0.528621
v 0.504999 -0.140654 0.941226
v -0.192697 -0.534854 0.915157
v -0.184631 0.258703 1.029420
v -0.192697 -0.534854 0.915157
v 0.504999 -0.140654 0.941226
l 49 50
l 51 52
l 53 54
l 55 56
l 57 58
l 59 60
l 61 62
l 63 64
l 65 66
l 67 68
l 69 70
l 71 72
l 73 74
l 75 76
l 77 78
l 79 80
l 81 82
l 83 84
l 85 86
l 87 88
l 89 90
l 91 92
l 93 94
l 95 96
l 97 98
l 99 100
l 101 102
l 103 104
l 105 106
l 107 108
l 109 110
l 111 112
l 113 114
l 115 116
l 117 118
l 119 120
o Shape_IndexedFaceSet.002_Shape_IndexedFaceSet.015
v -0.372103 0.237915 -0.928191
v 0.059802 0.437593 -0.928191
v 0.422294 0.129352 -0.928191
v 0.294624 -0.329030 -0.928191
v -0.372103 -0.437593 -0.928191
v -0.854199 -0.329030 -0.467639
v -0.946515 0.129352 -0.379449
v -0.684404 0.437593 -0.629846
v -0.514610 0.804860 -0.379449
v 0.131055 0.958980 -0.504647
v 0.711693 0.637272 -0.379449
v 0.776720 0.237915 -0.629846
v 1.017770 -0.283472 -0.274371
v 0.541898 -0.605181 -0.629846
v 0.279788 -0.913423 -0.379449
v -0.187472 -0.895975 -0.467639
v -0.464419 -0.913423 -0.081103
v -0.826911 -0.605181 -0.081103
v -0.896324 -0.378569 0.331501
v -1.017770 0.283472 0.274371
v -0.634214 0.804860 0.081104
v -0.279788 0.913423 0.379449
v 0.137281 1.004540 0.169294
v 0.514610 0.804860 0.379449
v 0.826911 0.605181 0.081103
v 0.988639 0.178890 0.217242
v 0.753817 -0.664205 0.217242
v 0.395006 -0.945514 0.081104
v -0.131055 -0.958980 0.504647
v -0.592089 -0.496618 0.677794
v -0.422294 -0.129352 0.928191
v -0.584023 0.296939 0.792053
v -0.252499 0.637272 0.765984
v 0.372103 0.437593 0.928191
v 0.812075 0.020789 0.629846
v 0.684404 -0.437593 0.629846
v 0.267336 -0.528709 0.840001
v 0.044966 -0.146799 1.016380
vt 0.682803 0.265537
vt 0.682803 0.609566
vt 0.470621 0.711260
vt 0.292540 0.554276
vt 0.355260 0.320827
vt 0.919642 0.320827
vt 0.964995 0.554276
vt 0.836227 0.711260
vt 0.752813 0.898305
vt 0.435617 0.976797
vt 0.150366 0.812954
vt 0.118421 0.609566
vt 0.000000 0.344029
vt 0.233782 0.180186
vt 0.362549 0.023202
vt 0.592099 0.032088
vt 0.728155 0.023202
vt 0.906237 0.180186
vt 0.940337 0.295597
vt 1.000000 0.632768
vt 0.811570 0.898305
vt 0.637451 0.953595
vt 0.432558 1.000000
vt 0.247187 0.898305
vt 0.093763 0.796611
vt 0.014311 0.579505
vt 0.129672 0.150126
vt 0.305945 0.006858
vt 0.564383 0.000000
vt 0.790876 0.235476
vt 0.707460 0.422521
vt 0.786913 0.639626
vt 0.624045 0.812954
vt 0.317197 0.711260
vt 0.101052 0.498986
vt 0.163773 0.265537
vt 0.368666 0.219132
vt 0.477910 0.413635
vn 0.0000 -0.0000 -1.0000
vn -0.6908 -0.0000 -0.7231
vn -0.2899 0.6270 -0.7231
vn 0.4475 0.5262 -0.7231
vn 0.6654 -0.1853 -0.7231
vn 0.1110 -0.6818 -0.7231
vn -0.5798 -0.6818 -0.4462
vn -0.9806 -0.1853 -0.0632
vn -0.8230 0.5262 -0.2137
vn -0.2433 0.9679 -0.0632
vn 0.4941 0.8671 -0.0632
vn 0.9341 0.2861 -0.2137
vn 0.6517 -0.7278 -0.2137
vn -0.0253 -0.9977 -0.0632
vn -0.6188 -0.7278 0.2956
vn -0.7627 -0.0846 0.6412
vn -0.6051 0.6270 0.4907
vn 0.1110 0.8123 0.5725
vn 0.7511 0.4417 0.4907
vn 0.9203 -0.2563 0.2956
vn 0.4147 -0.7664 0.4907
vn -0.1789 -0.4964 0.8494
vn -0.1714 0.2401 0.9555
vn 0.4687 -0.1306 0.8736
usemtl None
s off
f 125/49/39 121/50/39 122/51/39 123/52/39 124/53/39
f 121/50/40 125/49/40 126/54/40 127/55/40 128/56/40
f 122/51/41 121/50/41 128/56/41 129/57/41 130/58/41
f 123/52/42 122/51/42 130/58/42 131/59/42 132/60/42
f 124/53/43 123/52/43 132/60/43 133/61/43 134/62/43
f 125/49/44 124/53/44 134/62/44 135/63/44 136/64/44
f 126/54/45 125/49/45 136/64/45 137/65/45 138/66/45
f 127/55/46 126/54/46 138/66/46 139/67/46 140/68/46
f 128/56/47 127/55/47 140/68/47 141/69/47 129/57/47
f 130/58/48 129/57/48 141/69/48 142/70/48 143/71/48
f 131/59/49 130/58/49 143/71/49 144/72/49 145/73/49
f 132/60/50 131/59/50 145/73/50 146/74/50 133/61/50
f 134/62/51 133/61/51 147/75/51 148/76/51 135/63/51
f 136/64/52 135/63/52 148/76/52 149/77/52 137/65/52
f 138/66/53 137/65/53 149/77/53 150/78/53 139/67/53
f 140/68/54 139/67/54 150/78/54 151/79/54 152/80/54
f 141/69/55 140/68/55 152/80/55 153/81/55 142/70/55
f 143/71/56 142/70/56 153/81/56 154/82/56 144/72/56
f 145/73/57 144/72/57 154/82/57 155/83/57 146/74/57
f 133/61/58 146/74/58 155/83/58 156/84/58 147/75/58
f 148/76/59 147/75/59 156/84/59 157/85/59 149/77/59
f 150/78/60 149/77/60 157/85/60 158/86/60 151/79/60
f 152/80/61 151/79/61 158/86/61 154/82/61 153/81/61
f 155/83/62 154/82/62 158/86/62 157/85/62 156/84/62
o Shape_IndexedLineSet.001_Shape_IndexedLineSet.006
v -0.372103 0.237915 -0.928191
v 0.059802 0.437593 -0.928191
v -0.372103 0.237915 -0.928191
v -0.372103 -0.437593 -0.928191
v -0.372103 0.237915 -0.928191
v -0.684404 0.437593 -0.629846
v 0.059802 0.437593 -0.928191
v 0.422294 0.129352 -0.928191
v 0.059802 0.437593 -0.928191
v 0.131055 0.958980 -0.504647
v 0.422294 0.129352 -0.928191
v 0.294624 -0.329030 -0.928191
v 0.422294 0.129352 -0.928191
v 0.776720 0.237915 -0.629846
v 0.294624 -0.329030 -0.928191
v -0.372103 -0.437593 -0.928191
v 0.294624 -0.329030 -0.928191
v 0.541898 -0.605181 -0.629846
v -0.372103 -0.437593 -0.928191
v -0.854199 -0.329030 -0.467639
v -0.372103 -0.437593 -0.928191
v -0.187472 -0.895975 -0.467639
v -0.854199 -0.329030 -0.467639
v -0.946515 0.129352 -0.379449
v -0.854199 -0.329030 -0.467639
v -0.826911 -0.605181 -0.081103
v -0.946515 0.129352 -0.379449
v -0.684404 0.437593 -0.629846
v -0.946515 0.129352 -0.379449
v -1.017770 0.283472 0.274371
v -0.684404 0.437593 -0.629846
v -0.514610 0.804860 -0.379449
v -0.514610 0.804860 -0.379449
v 0.131055 0.958980 -0.504647
v -0.514610 0.804860 -0.379449
v -0.634214 0.804860 0.081104
v 0.131055 0.958980 -0.504647
v 0.711693 0.637272 -0.379449
v 0.131055 0.958980 -0.504647
v 0.137281 1.004540 0.169294
v 0.711693 0.637272 -0.379449
v 0.776720 0.237915 -0.629846
v 0.711693 0.637272 -0.379449
v 0.826911 0.605181 0.081103
v 0.776720 0.237915 -0.629846
v 1.017770 -0.283472 -0.274371
v 1.017770 -0.283472 -0.274371
v 0.541898 -0.605181 -0.629846
v 1.017770 -0.283472 -0.274371
v 0.988639 0.178890 0.217242
v 1.017770 -0.283472 -0.274371
v 0.753817 -0.664205 0.217242
v 0.541898 -0.605181 -0.629846
v 0.279788 -0.913423 -0.379449
v 0.279788 -0.913423 -0.379449
v -0.187472 -0.895975 -0.467639
v 0.279788 -0.913423 -0.379449
v 0.395006 -0.945514 0.081104
v -0.187472 -0.895975 -0.467639
v -0.464419 -0.913423 -0.081103
v -0.464419 -0.913423 -0.081103
v -0.826911 -0.605181 -0.081103
v -0.464419 -0.913423 -0.081103
v -0.131055 -0.958980 0.504647
v -0.826911 -0.605181 -0.081103
v -0.896324 -0.378569 0.331501
v -0.896324 -0.378569 0.331501
v -1.017770 0.283472 0.274371
v -0.896324 -0.378569 0.331501
v -0.592089 -0.496618 0.677794
v -1.017770 0.283472 0.274371
v -0.634214 0.804860 0.081104
v -1.017770 0.283472 0.274371
v -0.584023 0.296939 0.792053
v -0.634214 0.804860 0.081104
v -0.279788 0.913423 0.379449
v -0.279788 0.913423 0.379449
v 0.137281 1.004540 0.169294
v -0.279788 0.913423 0.379449
v -0.252499 0.637272 0.765984
v 0.137281 1.004540 0.169294
v 0.514610 0.804860 0.379449
v 0.514610 0.804860 0.379449
v 0.826911 0.605181 0.081103
v 0.514610 0.804860 0.379449
v 0.372103 0.437593 0.928191
v 0.826911 0.605181 0.081103
v 0.988639 0.178890 0.217242
v 0.988639 0.178890 0.217242
v 0.812075 0.020789 0.629846
v 0.753817 -0.664205 0.217242
v 0.395006 -0.945514 0.081104
v 0.753817 -0.664205 0.217242
v 0.684404 -0.437593 0.629846
v 0.395006 -0.945514 0.081104
v -0.131055 -0.958980 0.504647
v -0.131055 -0.958980 0.504647
v -0.592089 -0.496618 0.677794
v -0.131055 -0.958980 0.504647
v 0.267336 -0.528709 0.840001
v -0.592089 -0.496618 0.677794
v -0.422294 -0.129352 0.928191
v -0.422294 -0.129352 0.928191
v -0.584023 0.296939 0.792053
v -0.422294 -0.129352 0.928191
v 0.044966 -0.146799 1.016380
v -0.584023 0.296939 0.792053
v -0.252499 0.637272 0.765984
v -0.252499 0.637272 0.765984
v 0.372103 0.437593 0.928191
v 0.372103 0.437593 0.928191
v 0.812075 0.020789 0.629846
v 0.372103 0.437593 0.928191
v 0.044966 -0.146799 1.016380
v 0.812075 0.020789 0.629846
v 0.684404 -0.437593 0.629846
v 0.684404 -0.437593 0.629846
v 0.267336 -0.528709 0.840001
v 0.267336 -0.528709 0.840001
v 0.044966 -0.146799 1.016380
l 159 160
l 161 162
l 163 164
l 165 166
l 167 168
l 169 170
l 171 172
l 173 174
l 175 176
l 177 178
l 179 180
l 181 182
l 183 184
l 185 186
l 187 188
l 189 190
l 191 192
l 193 194
l 195 196
l 197 198
l 199 200
l 201 202
l 203 204
l 205 206
l 207 208
l 209 210
l 211 212
l 213 214
l 215 216
l 217 218
l 219 220
l 221 222
l 223 224
l 225 226
l 227 228
l 229 230
l 231 232
l 233 234
l 235 236
l 237 238
l 239 240
l 241 242
l 243 244
l 245 246
l 247 248
l 249 250
l 251 252
l 253 254
l 255 256
l 257 258
l 259 260
l 261 262
l 263 264
l 265 266
l 267 268
l 269 270
l 271 272
l 273 274
l 275 276
l 277 278
