# Blender v2.93.4 OBJ File: ''
# www.blender.org
mtllib icosahedron.mtl
o Shape_IndexedFaceSet_Shape_IndexedFaceSet.044
v -0.000000 -0.000000 -1.175570
v -1.051460 -0.000000 -0.525731
v -0.324920 1.000000 -0.525731
v 0.850651 0.618034 -0.525731
v 0.850651 -0.618034 -0.525731
v -0.324920 -1.000000 -0.525731
v -0.850651 0.618034 0.525731
v -0.850651 -0.618034 0.525731
v 0.324920 1.000000 0.525731
v 1.051460 0.000000 0.525731
v 0.324920 -1.000000 0.525731
v 0.000000 0.000000 1.175570
vt 1.000000 0.500000
vt 0.723607 1.000000
vt 0.723607 0.654509
vt 0.723607 0.095491
vt 0.723607 0.095491
vt 0.723607 0.654509
vt 0.276393 0.904509
vt 0.276393 0.904509
vt 0.276393 0.345491
vt 0.276393 0.000000
vt 0.276393 0.345491
vt 0.000000 0.500000
vn -0.4911 0.3568 -0.7947
vn 0.1876 0.5774 -0.7947
vn 0.6071 -0.0000 -0.7947
vn 0.1876 -0.5774 -0.7947
vn -0.4911 -0.3568 -0.7947
vn -0.7947 -0.5773 -0.1876
vn -0.9822 0.0000 0.1876
vn -0.7947 0.5773 -0.1876
vn -0.3035 0.9342 0.1876
vn 0.3035 0.9342 -0.1876
vn 0.7947 0.5773 0.1876
vn 0.9822 -0.0000 -0.1876
vn 0.7947 -0.5773 0.1876
vn 0.3035 -0.9342 -0.1876
vn -0.3035 -0.9342 0.1876
vn -0.6071 0.0000 0.7947
vn -0.1876 0.5774 0.7947
vn -0.1876 -0.5774 0.7947
vn 0.4911 0.3568 0.7947
vn 0.4911 -0.3568 0.7947
usemtl None
s off
f 1/1/1 2/2/1 3/3/1
f 1/1/2 3/3/2 4/4/2
f 1/1/3 4/4/3 5/5/3
f 1/1/4 5/5/4 6/6/4
f 1/1/5 6/6/5 2/2/5
f 2/2/6 6/6/6 8/7/6
f 2/2/7 8/7/7 7/8/7
f 2/2/8 7/8/8 3/3/8
f 3/3/9 7/8/9 9/9/9
f 3/3/10 9/9/10 4/4/10
f 4/4/11 9/9/11 10/10/11
f 4/4/12 10/10/12 5/5/12
f 5/5/13 10/10/13 11/11/13
f 5/5/14 11/11/14 6/6/14
f 6/6/15 11/11/15 8/7/15
f 7/8/16 8/7/16 12/12/16
f 7/8/17 12/12/17 9/9/17
f 8/7/18 11/11/18 12/12/18
f 9/9/19 12/12/19 10/10/19
f 10/10/20 12/12/20 11/11/20
o Shape_IndexedLineSet_Shape_IndexedLineSet.023
v -0.000000 -0.000000 -1.175570
v -1.051460 -0.000000 -0.525731
v -0.000000 -0.000000 -1.175570
v -0.324920 1.000000 -0.525731
v -0.000000 -0.000000 -1.175570
v 0.850651 0.618034 -0.525731
v -0.000000 -0.000000 -1.175570
v 0.850651 -0.618034 -0.525731
v -0.000000 -0.000000 -1.175570
v -0.324920 -1.000000 -0.525731
v -1.051460 -0.000000 -0.525731
v -0.324920 1.000000 -0.525731
v -1.051460 -0.000000 -0.525731
v -0.324920 -1.000000 -0.525731
v -1.051460 -0.000000 -0.525731
v -0.850651 0.618034 0.525731
v -1.051460 -0.000000 -0.525731
v -0.850651 -0.618034 0.525731
v -0.324920 1.000000 -0.525731
v 0.850651 0.618034 -0.525731
v -0.324920 1.000000 -0.525731
v -0.850651 0.618034 0.525731
v -0.324920 1.000000 -0.525731
v 0.324920 1.000000 0.525731
v 0.850651 0.618034 -0.525731
v 0.850651 -0.618034 -0.525731
v 0.850651 0.618034 -0.525731
v 0.324920 1.000000 0.525731
v 0.850651 0.618034 -0.525731
v 1.051460 0.000000 0.525731
v 0.850651 -0.618034 -0.525731
v -0.324920 -1.000000 -0.525731
v 0.850651 -0.618034 -0.525731
v 1.051460 0.000000 0.525731
v 0.850651 -0.618034 -0.525731
v 0.324920 -1.000000 0.525731
v -0.324920 -1.000000 -0.525731
v -0.850651 -0.618034 0.525731
v -0.324920 -1.000000 -0.525731
v 0.324920 -1.000000 0.525731
v -0.850651 0.618034 0.525731
v -0.850651 -0.618034 0.525731
v -0.850651 0.618034 0.525731
v 0.324920 1.000000 0.525731
v -0.850651 0.618034 0.525731
v 0.000000 0.000000 1.175570
v -0.850651 -0.618034 0.525731
v 0.324920 -1.000000 0.525731
v -0.850651 -0.618034 0.525731
v 0.000000 0.000000 1.175570
v 0.324920 1.000000 0.525731
v 1.051460 0.000000 0.525731
v 0.324920 1.000000 0.525731
v 0.000000 0.000000 1.175570
v 1.051460 0.000000 0.525731
v 0.324920 -1.000000 0.525731
v 1.051460 0.000000 0.525731
v 0.000000 0.000000 1.175570
v 0.324920 -1.000000 0.525731
v 0.000000 0.000000 1.175570
l 13 14
l 15 16
l 17 18
l 19 20
l 21 22
l 23 24
l 25 26
l 27 28
l 29 30
l 31 32
l 33 34
l 35 36
l 37 38
l 39 40
l 41 42
l 43 44
l 45 46
l 47 48
l 49 50
l 51 52
l 53 54
l 55 56
l 57 58
l 59 60
l 61 62
l 63 64
l 65 66
l 67 68
l 69 70
l 71 72
